%TF.GenerationSoftware,KiCad,Pcbnew,10.0.1*%
%TF.CreationDate,2026-07-02T21:13:04+08:00*%
%TF.ProjectId,badge,62616467-652e-46b6-9963-61645f706362,rev?*%
%TF.SameCoordinates,Original*%
%TF.FileFunction,Copper,L1,Top*%
%TF.FilePolarity,Positive*%
%FSLAX46Y46*%
G04 Gerber Fmt 4.6, Leading zero omitted, Abs format (unit mm)*
G04 Created by KiCad (PCBNEW 10.0.1) date 2026-07-02 21:13:04*
%MOMM*%
%LPD*%
G01*
G04 APERTURE LIST*
G04 Aperture macros list*
%AMRoundRect*
0 Rectangle with rounded corners*
0 $1 Rounding radius*
0 $2 $3 $4 $5 $6 $7 $8 $9 X,Y pos of 4 corners*
0 Add a 4 corners polygon primitive as box body*
4,1,4,$2,$3,$4,$5,$6,$7,$8,$9,$2,$3,0*
0 Add four circle primitives for the rounded corners*
1,1,$1+$1,$2,$3*
1,1,$1+$1,$4,$5*
1,1,$1+$1,$6,$7*
1,1,$1+$1,$8,$9*
0 Add four rect primitives between the rounded corners*
20,1,$1+$1,$2,$3,$4,$5,0*
20,1,$1+$1,$4,$5,$6,$7,0*
20,1,$1+$1,$6,$7,$8,$9,0*
20,1,$1+$1,$8,$9,$2,$3,0*%
%AMRotRect*
0 Rectangle, with rotation*
0 The origin of the aperture is its center*
0 $1 length*
0 $2 width*
0 $3 Rotation angle, in degrees counterclockwise*
0 Add horizontal line*
21,1,$1,$2,0,0,$3*%
G04 Aperture macros list end*
%TA.AperFunction,ComponentPad*%
%ADD10C,1.400000*%
%TD*%
%TA.AperFunction,ComponentPad*%
%ADD11C,2.000000*%
%TD*%
%TA.AperFunction,ComponentPad*%
%ADD12C,1.815000*%
%TD*%
%TA.AperFunction,ComponentPad*%
%ADD13RotRect,1.815000X1.815000X144.000000*%
%TD*%
%TA.AperFunction,ComponentPad*%
%ADD14C,1.524000*%
%TD*%
%TA.AperFunction,SMDPad,CuDef*%
%ADD15RoundRect,0.152400X-1.224022X0.068024X0.559998X-1.090532X1.224022X-0.068024X-0.559998X1.090532X0*%
%TD*%
%TA.AperFunction,SMDPad,CuDef*%
%ADD16RoundRect,0.152400X1.224022X-0.068024X-0.559998X1.090532X-1.224022X0.068024X0.559998X-1.090532X0*%
%TD*%
%TA.AperFunction,ComponentPad*%
%ADD17RotRect,1.815000X1.815000X327.000000*%
%TD*%
%TA.AperFunction,ComponentPad*%
%ADD18RotRect,1.815000X1.815000X57.000000*%
%TD*%
%TA.AperFunction,ComponentPad*%
%ADD19RotRect,1.815000X1.815000X147.000000*%
%TD*%
%TA.AperFunction,ViaPad*%
%ADD20C,0.600000*%
%TD*%
%TA.AperFunction,Conductor*%
%ADD21C,0.200000*%
%TD*%
G04 APERTURE END LIST*
D10*
%TO.P,R4,1*%
%TO.N,Net-(D4-PadA)*%
X143685256Y-110096293D03*
%TO.P,R4,2*%
%TO.N,LED4*%
X141864750Y-105353707D03*
%TD*%
D11*
%TO.P,SW3,1,1_1*%
%TO.N,button3*%
X176675242Y-89782081D03*
X171223878Y-86241928D03*
%TO.P,SW3,2,2_2*%
%TO.N,GND*%
X179126116Y-86008066D03*
X173674758Y-82467906D03*
%TD*%
D10*
%TO.P,R3,1*%
%TO.N,Net-(D3-PadA)*%
X153419777Y-89791617D03*
%TO.P,R3,2*%
%TO.N,LED3*%
X157680222Y-92558384D03*
%TD*%
D12*
%TO.P,D3,A*%
%TO.N,Net-(D3-PadA)*%
X149970094Y-99307030D03*
D13*
%TO.P,D3,C*%
%TO.N,GND*%
X152025000Y-100800000D03*
%TD*%
D14*
%TO.P,U1,1,P26_A0_D0_1*%
%TO.N,button1*%
X165225000Y-115725000D03*
D15*
X165925291Y-116179776D03*
D14*
%TO.P,U1,2,P27_A1_D1_2*%
%TO.N,button2*%
X166608384Y-113594776D03*
D15*
X167308672Y-114049552D03*
%TO.P,U1,3,P28_A2_D2_3*%
%TO.N,button3*%
X168692057Y-111919326D03*
D14*
X167991766Y-111464555D03*
%TO.P,U1,4,P29_A3_D3_4*%
%TO.N,button4*%
X169375150Y-109334328D03*
D15*
X170075440Y-109789104D03*
%TO.P,U1,5,P6_SDA_D4_5*%
%TO.N,button5*%
X171458824Y-107658878D03*
D14*
X170758534Y-107204107D03*
D15*
%TO.P,U1,6,P7_SCL_D5_6*%
%TO.N,LED1*%
X172842206Y-105528658D03*
D14*
X172141916Y-105073884D03*
D15*
%TO.P,U1,7,P0_D6_TX_7*%
%TO.N,LED2*%
X174225590Y-103398435D03*
D14*
X173525299Y-102943661D03*
D16*
%TO.P,U1,8,P1_D7_RX_8*%
%TO.N,LED3*%
X160043669Y-94188586D03*
D14*
X160743960Y-94643362D03*
D16*
%TO.P,U1,9,P2_D8_SCK_9*%
%TO.N,LED4*%
X158660288Y-96318810D03*
D14*
X159360576Y-96773586D03*
%TO.P,U1,10,P4_D9_MISO_10*%
%TO.N,LED5*%
X157977194Y-98903807D03*
D16*
X157276903Y-98449036D03*
%TO.P,U1,11,P3_D10_MOSI_11*%
%TO.N,unconnected-(U1-P3_D10_MOSI-Pad11)*%
X155893520Y-100579258D03*
D14*
X156593810Y-101034034D03*
%TO.P,U1,12,3V3_12*%
%TO.N,unconnected-(U1-3V3-Pad12)*%
X155210426Y-103164255D03*
D16*
X154510136Y-102709484D03*
D14*
%TO.P,U1,13,GND_13*%
%TO.N,GND*%
X153827044Y-105294478D03*
D16*
X153126754Y-104839704D03*
D14*
%TO.P,U1,14,VBUS_14*%
%TO.N,unconnected-(U1-VBUS-Pad14)*%
X152443661Y-107424701D03*
D16*
X151743370Y-106969927D03*
%TD*%
D12*
%TO.P,D1,A*%
%TO.N,Net-(D1-PadA)*%
X173899999Y-114350000D03*
D17*
%TO.P,D1,C*%
%TO.N,GND*%
X171769775Y-112966616D03*
%TD*%
D11*
%TO.P,SW4,1,1_1*%
%TO.N,button4*%
X177842914Y-102375240D03*
X181383060Y-96923880D03*
%TO.P,SW4,2,2_2*%
%TO.N,GND*%
X181616932Y-104826115D03*
X185157087Y-99374752D03*
%TD*%
D12*
%TO.P,D5,A*%
%TO.N,Net-(D5-PadA)*%
X179766690Y-79584886D03*
D18*
%TO.P,D5,C*%
%TO.N,GND*%
X178383310Y-81715114D03*
%TD*%
D11*
%TO.P,SW5,1,1_1*%
%TO.N,button5*%
X173248156Y-91545817D03*
X178699514Y-95085973D03*
%TO.P,SW5,2,2_2*%
%TO.N,GND*%
X170797281Y-95319835D03*
X176248640Y-98859991D03*
%TD*%
%TO.P,SW2,1,1_1*%
%TO.N,button2*%
X165049515Y-86185828D03*
X170500872Y-89725983D03*
%TO.P,SW2,2,2_2*%
%TO.N,GND*%
X162598638Y-89959848D03*
X168050000Y-93500000D03*
%TD*%
%TO.P,SW1,1,1_1*%
%TO.N,button1*%
X162257087Y-84499757D03*
X158716932Y-89951119D03*
%TO.P,SW1,2,2_2*%
%TO.N,GND*%
X158483071Y-82048882D03*
X154942919Y-87500243D03*
%TD*%
D10*
%TO.P,R5,1*%
%TO.N,Net-(D5-PadA)*%
X179519777Y-75591617D03*
%TO.P,R5,2*%
%TO.N,LED5*%
X183780222Y-78358382D03*
%TD*%
%TO.P,R2,1*%
%TO.N,Net-(D2-PadA)*%
X166251962Y-124850000D03*
%TO.P,R2,2*%
%TO.N,LED2*%
X171331962Y-124850000D03*
%TD*%
D12*
%TO.P,D2,A*%
%TO.N,Net-(D2-PadA)*%
X170074999Y-120700000D03*
D17*
%TO.P,D2,C*%
%TO.N,GND*%
X167944775Y-119316616D03*
%TD*%
D10*
%TO.P,R1,1*%
%TO.N,Net-(D1-PadA)*%
X176194777Y-104566617D03*
%TO.P,R1,2*%
%TO.N,LED1*%
X180455222Y-107333384D03*
%TD*%
D12*
%TO.P,D4,A*%
%TO.N,Net-(D4-PadA)*%
X146144774Y-105116622D03*
D19*
%TO.P,D4,C*%
%TO.N,GND*%
X148275000Y-106500000D03*
%TD*%
D20*
%TO.N,GND*%
X168425000Y-97625000D03*
X150950000Y-103775000D03*
X173075000Y-109475000D03*
%TO.N,button5*%
X175538235Y-93813235D03*
%TO.N,Net-(D1-PadA)*%
X176200000Y-108375000D03*
%TD*%
%TO.N,Net-(D4-PadA)*%
D21*
X143685256Y-107576140D02*
X146144774Y-105116622D01*
X143685256Y-110096293D02*
X143685256Y-107576140D01*
%TO.N,LED4*%
X159360576Y-96773586D02*
X150444871Y-96773586D01*
X150444871Y-96773586D02*
X141864750Y-105353707D01*
%TO.N,button3*%
X171223878Y-86241929D02*
X174764030Y-89782081D01*
X174764030Y-89782081D02*
X176675242Y-89782081D01*
%TO.N,GND*%
X171769775Y-110780225D02*
X173075000Y-109475000D01*
X171769775Y-112966616D02*
X171769775Y-110780225D01*
X152025000Y-102700000D02*
X150950000Y-103775000D01*
X168492116Y-97625000D02*
X168425000Y-97625000D01*
X152025000Y-100800000D02*
X152025000Y-102700000D01*
X170797281Y-95319835D02*
X168492116Y-97625000D01*
%TO.N,LED3*%
X158413466Y-92558383D02*
X157680222Y-92558383D01*
X160043669Y-94188586D02*
X158413466Y-92558383D01*
%TO.N,button1*%
X162257087Y-84499757D02*
X158716932Y-88039912D01*
X158716932Y-88039912D02*
X158716932Y-89951119D01*
%TO.N,button2*%
X168589670Y-89725983D02*
X170500872Y-89725983D01*
X165049515Y-86185828D02*
X168589670Y-89725983D01*
%TO.N,button4*%
X177842914Y-102375240D02*
X181383060Y-98835094D01*
X181383060Y-98835094D02*
X181383060Y-96923880D01*
%TO.N,button5*%
X178699514Y-95085973D02*
X177285301Y-95085973D01*
X173248156Y-91545817D02*
X175515574Y-93813235D01*
X170579773Y-106779827D02*
X171458824Y-107658878D01*
X177285301Y-95085973D02*
X170579773Y-101791501D01*
X175515574Y-93813235D02*
X175538235Y-93813235D01*
X170579773Y-101791501D02*
X170579773Y-106779827D01*
%TO.N,LED2*%
X175107500Y-114850163D02*
X171331962Y-118625701D01*
X174225590Y-103398435D02*
X175107500Y-104280345D01*
X171331962Y-118625701D02*
X171331962Y-124850000D01*
X175107500Y-104280345D02*
X175107500Y-114850163D01*
%TO.N,LED5*%
X157977194Y-98903807D02*
X171296193Y-98903807D01*
X171296193Y-98903807D02*
X182744636Y-87455364D01*
X182744636Y-87455364D02*
X183400000Y-85089620D01*
X183400000Y-85089620D02*
X183400000Y-78738604D01*
X183400000Y-78738604D02*
X183780222Y-78358382D01*
%TO.N,Net-(D1-PadA)*%
X176194777Y-108369777D02*
X176194777Y-104566617D01*
X176200000Y-108375000D02*
X176194777Y-108369777D01*
%TO.N,Net-(D5-PadA)*%
X179519777Y-79337974D02*
X179766689Y-79584886D01*
X179519777Y-75591617D02*
X179519777Y-79337974D01*
%TO.N,Net-(D2-PadA)*%
X170075000Y-121026962D02*
X170075000Y-120700000D01*
X166251962Y-124850000D02*
X170075000Y-121026962D01*
%TD*%
%TA.AperFunction,Conductor*%
%TO.N,GND*%
G36*
X169997607Y-113320655D02*
G01*
X170032347Y-113371202D01*
X170069919Y-113473424D01*
X170069920Y-113473425D01*
X170155535Y-113588933D01*
X170155538Y-113588936D01*
X170201988Y-113626734D01*
X170793526Y-114010884D01*
X171259669Y-113293088D01*
X171285654Y-113338095D01*
X171398296Y-113450737D01*
X171536254Y-113530387D01*
X171677219Y-113568158D01*
X171212862Y-114283204D01*
X171804389Y-114667347D01*
X171804412Y-114667360D01*
X171857823Y-114694415D01*
X171857829Y-114694417D01*
X171998169Y-114725647D01*
X171998170Y-114725647D01*
X172141636Y-114716071D01*
X172141637Y-114716071D01*
X172276581Y-114666472D01*
X172276584Y-114666470D01*
X172336166Y-114622308D01*
X172401745Y-114598202D01*
X172469947Y-114613378D01*
X172519117Y-114663017D01*
X172527935Y-114683608D01*
X172595155Y-114890488D01*
X172683210Y-115063305D01*
X172695769Y-115087953D01*
X172826037Y-115267251D01*
X172982748Y-115423962D01*
X173162046Y-115554230D01*
X173269761Y-115609113D01*
X173320557Y-115657087D01*
X173337352Y-115724908D01*
X173314815Y-115791043D01*
X173301147Y-115807279D01*
X170963248Y-118145179D01*
X170851443Y-118256983D01*
X170851441Y-118256986D01*
X170801323Y-118343795D01*
X170801321Y-118343797D01*
X170772387Y-118393910D01*
X170772386Y-118393911D01*
X170772385Y-118393916D01*
X170731461Y-118546644D01*
X170731461Y-118546646D01*
X170731461Y-118714747D01*
X170731462Y-118714760D01*
X170731462Y-119262166D01*
X170711777Y-119329205D01*
X170658973Y-119374960D01*
X170589815Y-119384904D01*
X170569144Y-119380097D01*
X170404709Y-119326669D01*
X170185816Y-119292000D01*
X170185811Y-119292000D01*
X169964187Y-119292000D01*
X169964180Y-119292000D01*
X169827319Y-119313676D01*
X169758026Y-119304721D01*
X169704574Y-119259725D01*
X169683935Y-119192973D01*
X169686883Y-119164267D01*
X169703806Y-119088220D01*
X169694230Y-118944754D01*
X169694230Y-118944753D01*
X169644631Y-118809809D01*
X169644629Y-118809806D01*
X169559014Y-118694298D01*
X169559011Y-118694295D01*
X169512561Y-118656497D01*
X168921022Y-118272346D01*
X168454880Y-118990142D01*
X168428896Y-118945137D01*
X168316254Y-118832495D01*
X168178296Y-118752845D01*
X168037329Y-118715073D01*
X168501686Y-118000027D01*
X167910160Y-117615884D01*
X167910137Y-117615871D01*
X167856726Y-117588816D01*
X167856720Y-117588814D01*
X167716380Y-117557584D01*
X167716379Y-117557584D01*
X167572913Y-117567160D01*
X167572912Y-117567160D01*
X167437968Y-117616759D01*
X167437965Y-117616761D01*
X167322457Y-117702376D01*
X167322454Y-117702379D01*
X167284656Y-117748829D01*
X166900505Y-118340367D01*
X167618301Y-118806510D01*
X167573296Y-118832495D01*
X167460654Y-118945137D01*
X167381004Y-119083095D01*
X167343233Y-119224060D01*
X166628186Y-118759703D01*
X166244043Y-119351230D01*
X166244030Y-119351253D01*
X166216975Y-119404664D01*
X166216973Y-119404670D01*
X166185743Y-119545010D01*
X166185743Y-119545011D01*
X166195319Y-119688477D01*
X166195319Y-119688478D01*
X166244918Y-119823422D01*
X166244920Y-119823425D01*
X166330535Y-119938933D01*
X166330538Y-119938936D01*
X166376988Y-119976734D01*
X166968526Y-120360884D01*
X167434669Y-119643088D01*
X167460654Y-119688095D01*
X167573296Y-119800737D01*
X167711254Y-119880387D01*
X167852219Y-119918158D01*
X167387862Y-120633204D01*
X167979389Y-121017347D01*
X167979412Y-121017360D01*
X168032823Y-121044415D01*
X168032829Y-121044417D01*
X168173169Y-121075647D01*
X168173170Y-121075647D01*
X168316636Y-121066071D01*
X168316637Y-121066071D01*
X168451581Y-121016472D01*
X168451584Y-121016470D01*
X168511166Y-120972308D01*
X168576745Y-120948202D01*
X168644947Y-120963378D01*
X168694117Y-121013017D01*
X168702935Y-121033608D01*
X168770156Y-121240491D01*
X168810967Y-121320587D01*
X168823863Y-121389256D01*
X168797586Y-121453997D01*
X168788163Y-121464562D01*
X166612792Y-123639933D01*
X166551469Y-123673418D01*
X166505713Y-123674725D01*
X166346448Y-123649500D01*
X166346443Y-123649500D01*
X166157481Y-123649500D01*
X166157476Y-123649500D01*
X165970843Y-123679059D01*
X165791125Y-123737454D01*
X165622762Y-123823240D01*
X165535541Y-123886610D01*
X165469889Y-123934310D01*
X165469887Y-123934312D01*
X165469886Y-123934312D01*
X165336273Y-124067925D01*
X165224318Y-124222017D01*
X165168987Y-124264682D01*
X165099374Y-124270661D01*
X165037579Y-124238055D01*
X165003222Y-124177216D01*
X165000000Y-124149131D01*
X165000000Y-117312622D01*
X165019685Y-117245583D01*
X165072489Y-117199828D01*
X165141647Y-117189884D01*
X165191530Y-117208625D01*
X166184991Y-117853786D01*
X166217620Y-117871502D01*
X166270260Y-117887395D01*
X166375533Y-117919179D01*
X166375535Y-117919179D01*
X166375541Y-117919181D01*
X166450456Y-117922320D01*
X166540350Y-117926088D01*
X166540351Y-117926087D01*
X166540356Y-117926088D01*
X166701713Y-117891791D01*
X166849470Y-117818444D01*
X166974345Y-117710655D01*
X166996947Y-117681199D01*
X167732791Y-116548098D01*
X167750507Y-116515469D01*
X167798186Y-116357549D01*
X167805093Y-116192733D01*
X167770796Y-116031377D01*
X167770794Y-116031372D01*
X167741381Y-115972119D01*
X167729204Y-115903319D01*
X167756158Y-115838857D01*
X167813683Y-115799201D01*
X167857641Y-115793094D01*
X167881402Y-115794089D01*
X167923732Y-115795864D01*
X167923733Y-115795863D01*
X167923737Y-115795864D01*
X168085094Y-115761567D01*
X168232851Y-115688220D01*
X168357726Y-115580431D01*
X168380328Y-115550975D01*
X169116172Y-114417874D01*
X169133888Y-114385245D01*
X169181567Y-114227325D01*
X169185334Y-114137425D01*
X169188474Y-114062514D01*
X169188473Y-114062512D01*
X169188474Y-114062509D01*
X169154177Y-113901153D01*
X169148846Y-113890413D01*
X169124761Y-113841893D01*
X169112584Y-113773093D01*
X169139538Y-113708631D01*
X169197063Y-113668975D01*
X169241021Y-113662868D01*
X169307117Y-113665638D01*
X169307118Y-113665637D01*
X169307122Y-113665638D01*
X169468479Y-113631341D01*
X169616236Y-113557994D01*
X169741111Y-113450205D01*
X169763713Y-113420749D01*
X169811966Y-113346444D01*
X169864985Y-113300943D01*
X169934190Y-113291328D01*
X169997607Y-113320655D01*
G37*
%TD.AperFunction*%
%TA.AperFunction,Conductor*%
G36*
X181294334Y-89857414D02*
G01*
X181350267Y-89899286D01*
X181374684Y-89964750D01*
X181375000Y-89973596D01*
X181375000Y-92755537D01*
X181370518Y-92788574D01*
X181360907Y-92823342D01*
X181360904Y-92823355D01*
X181324498Y-93080157D01*
X181324497Y-93080176D01*
X181321557Y-93339535D01*
X181321557Y-93339541D01*
X181352134Y-93597113D01*
X181371217Y-93672581D01*
X181375000Y-93702978D01*
X181375000Y-94375000D01*
X181950000Y-94950000D01*
X182262811Y-94950000D01*
X182327226Y-94968044D01*
X183076205Y-95423380D01*
X184076529Y-96031520D01*
X184099794Y-96049794D01*
X185125000Y-97075000D01*
X185758205Y-97075000D01*
X185822620Y-97093044D01*
X186094309Y-97258215D01*
X186818478Y-97698468D01*
X186841741Y-97716741D01*
X187463681Y-98338681D01*
X187497166Y-98400004D01*
X187500000Y-98426362D01*
X187500000Y-102473637D01*
X187480315Y-102540676D01*
X187463681Y-102561318D01*
X181136423Y-108888575D01*
X181075100Y-108922060D01*
X181053603Y-108924799D01*
X180413656Y-108949905D01*
X180408795Y-108950000D01*
X178524998Y-108950000D01*
X178407529Y-109067468D01*
X178354647Y-109098803D01*
X178269437Y-109123716D01*
X178269419Y-109123722D01*
X178043903Y-109220948D01*
X177831963Y-109345029D01*
X177831955Y-109345035D01*
X177636772Y-109494114D01*
X177461297Y-109665936D01*
X177308147Y-109857939D01*
X177308145Y-109857941D01*
X177179639Y-110067216D01*
X177179638Y-110067217D01*
X177077682Y-110290655D01*
X177077677Y-110290670D01*
X177040796Y-110407747D01*
X177040783Y-110407789D01*
X177037733Y-110417459D01*
X177007157Y-110467841D01*
X175919681Y-111555318D01*
X175858358Y-111588803D01*
X175788666Y-111583819D01*
X175732733Y-111541947D01*
X175708316Y-111476483D01*
X175708000Y-111467637D01*
X175708000Y-109223241D01*
X175727685Y-109156202D01*
X175780489Y-109110447D01*
X175849647Y-109100503D01*
X175879452Y-109108680D01*
X175966498Y-109144735D01*
X175966503Y-109144737D01*
X176121153Y-109175499D01*
X176121156Y-109175500D01*
X176121158Y-109175500D01*
X176278844Y-109175500D01*
X176278845Y-109175499D01*
X176433497Y-109144737D01*
X176579179Y-109084394D01*
X176710289Y-108996789D01*
X176821789Y-108885289D01*
X176909394Y-108754179D01*
X176969737Y-108608497D01*
X177000500Y-108453842D01*
X177000500Y-108296158D01*
X177000500Y-108296155D01*
X177000499Y-108296153D01*
X176999978Y-108293533D01*
X176969737Y-108141503D01*
X176958949Y-108115458D01*
X176909397Y-107995827D01*
X176909390Y-107995814D01*
X176818405Y-107859646D01*
X176819977Y-107858595D01*
X176796109Y-107802375D01*
X176795277Y-107788037D01*
X176795277Y-107238897D01*
X179254722Y-107238897D01*
X179254722Y-107427870D01*
X179284281Y-107614502D01*
X179342676Y-107794220D01*
X179419227Y-107944459D01*
X179428462Y-107962583D01*
X179539532Y-108115457D01*
X179673149Y-108249074D01*
X179826023Y-108360144D01*
X179880064Y-108387679D01*
X179994385Y-108445929D01*
X179994387Y-108445929D01*
X179994390Y-108445931D01*
X180090719Y-108477230D01*
X180174103Y-108504324D01*
X180360736Y-108533884D01*
X180360741Y-108533884D01*
X180549708Y-108533884D01*
X180736340Y-108504324D01*
X180916054Y-108445931D01*
X181084421Y-108360144D01*
X181237295Y-108249074D01*
X181370912Y-108115457D01*
X181481982Y-107962583D01*
X181567769Y-107794216D01*
X181626162Y-107614502D01*
X181640486Y-107524062D01*
X181655722Y-107427870D01*
X181655722Y-107238897D01*
X181626162Y-107052265D01*
X181592887Y-106949856D01*
X181567769Y-106872552D01*
X181567767Y-106872549D01*
X181567767Y-106872547D01*
X181496929Y-106733521D01*
X181481982Y-106704185D01*
X181370912Y-106551311D01*
X181349108Y-106529507D01*
X181315623Y-106468184D01*
X181320607Y-106398492D01*
X181362479Y-106342559D01*
X181427943Y-106318142D01*
X181456187Y-106319353D01*
X181498880Y-106326115D01*
X181680181Y-106326115D01*
X181474249Y-105357284D01*
X181544523Y-105376115D01*
X181689341Y-105376115D01*
X181829224Y-105338633D01*
X181954640Y-105266225D01*
X181964061Y-105256803D01*
X182169590Y-106223737D01*
X182192734Y-106216217D01*
X182403103Y-106109029D01*
X182594118Y-105970248D01*
X182761065Y-105803301D01*
X182899846Y-105612286D01*
X183007034Y-105401917D01*
X183079997Y-105177362D01*
X183116932Y-104944167D01*
X183116932Y-104762864D01*
X182148102Y-104968795D01*
X182166932Y-104898524D01*
X182166932Y-104753706D01*
X182129450Y-104613823D01*
X182057042Y-104488407D01*
X182047619Y-104478984D01*
X183014554Y-104273455D01*
X183014555Y-104273454D01*
X183007038Y-104250322D01*
X183007036Y-104250316D01*
X182899848Y-104039945D01*
X182761065Y-103848928D01*
X182594118Y-103681981D01*
X182403103Y-103543200D01*
X182192734Y-103436012D01*
X181968179Y-103363049D01*
X181968180Y-103363049D01*
X181734984Y-103326115D01*
X181553683Y-103326115D01*
X181759613Y-104294944D01*
X181689341Y-104276115D01*
X181544523Y-104276115D01*
X181404640Y-104313597D01*
X181279224Y-104386005D01*
X181269801Y-104395427D01*
X181064272Y-103428491D01*
X181064270Y-103428491D01*
X181041135Y-103436009D01*
X180830760Y-103543200D01*
X180639745Y-103681981D01*
X180472798Y-103848928D01*
X180334017Y-104039943D01*
X180226829Y-104250312D01*
X180153866Y-104474867D01*
X180116932Y-104708062D01*
X180116932Y-104889363D01*
X181085762Y-104683431D01*
X181066932Y-104753706D01*
X181066932Y-104898524D01*
X181104414Y-105038407D01*
X181176822Y-105163823D01*
X181186243Y-105173244D01*
X180219308Y-105378774D01*
X180226829Y-105401917D01*
X180334017Y-105612286D01*
X180472798Y-105803301D01*
X180590700Y-105921203D01*
X180624185Y-105982526D01*
X180619201Y-106052218D01*
X180577329Y-106108151D01*
X180511865Y-106132568D01*
X180503019Y-106132884D01*
X180360736Y-106132884D01*
X180174103Y-106162443D01*
X179994385Y-106220838D01*
X179826022Y-106306624D01*
X179747272Y-106363840D01*
X179673149Y-106417694D01*
X179673147Y-106417696D01*
X179673146Y-106417696D01*
X179539534Y-106551308D01*
X179539534Y-106551309D01*
X179539532Y-106551311D01*
X179516701Y-106582735D01*
X179428462Y-106704184D01*
X179342676Y-106872547D01*
X179284281Y-107052265D01*
X179254722Y-107238897D01*
X176795277Y-107238897D01*
X176795277Y-105677408D01*
X176814962Y-105610369D01*
X176846389Y-105577092D01*
X176976850Y-105482307D01*
X177110467Y-105348690D01*
X177221537Y-105195816D01*
X177307324Y-105027449D01*
X177365717Y-104847735D01*
X177395277Y-104661098D01*
X177395277Y-104472136D01*
X177395277Y-104472130D01*
X177365717Y-104285498D01*
X177307322Y-104105780D01*
X177243652Y-103980822D01*
X177230756Y-103912153D01*
X177257032Y-103847412D01*
X177314139Y-103807155D01*
X177383944Y-103804163D01*
X177392440Y-103806591D01*
X177452016Y-103825949D01*
X177491545Y-103838793D01*
X177724817Y-103875740D01*
X177724822Y-103875740D01*
X177961011Y-103875740D01*
X178194282Y-103838793D01*
X178418906Y-103765808D01*
X178629347Y-103658583D01*
X178820424Y-103519757D01*
X178987431Y-103352750D01*
X179126257Y-103161673D01*
X179233482Y-102951232D01*
X179306467Y-102726608D01*
X179311231Y-102696527D01*
X179343414Y-102493337D01*
X179343414Y-102257142D01*
X179318782Y-102101630D01*
X179306467Y-102023872D01*
X179265461Y-101897673D01*
X179263467Y-101827833D01*
X179295710Y-101771677D01*
X181751773Y-99315615D01*
X181751776Y-99315614D01*
X181810691Y-99256699D01*
X183657087Y-99256699D01*
X183657087Y-99438000D01*
X184625917Y-99232068D01*
X184607087Y-99302343D01*
X184607087Y-99447161D01*
X184644569Y-99587044D01*
X184716977Y-99712460D01*
X184726398Y-99721881D01*
X183759463Y-99927411D01*
X183766984Y-99950554D01*
X183874172Y-100160923D01*
X184012953Y-100351938D01*
X184179900Y-100518885D01*
X184370915Y-100657666D01*
X184581284Y-100764854D01*
X184805839Y-100837817D01*
X184805838Y-100837817D01*
X185039035Y-100874752D01*
X185220336Y-100874752D01*
X185014404Y-99905921D01*
X185084678Y-99924752D01*
X185229496Y-99924752D01*
X185369379Y-99887270D01*
X185494795Y-99814862D01*
X185504216Y-99805440D01*
X185709745Y-100772374D01*
X185732889Y-100764854D01*
X185943258Y-100657666D01*
X186134273Y-100518885D01*
X186301220Y-100351938D01*
X186440001Y-100160923D01*
X186547189Y-99950554D01*
X186620152Y-99725999D01*
X186657087Y-99492804D01*
X186657087Y-99311501D01*
X185688257Y-99517432D01*
X185707087Y-99447161D01*
X185707087Y-99302343D01*
X185669605Y-99162460D01*
X185597197Y-99037044D01*
X185587774Y-99027621D01*
X186554709Y-98822092D01*
X186554710Y-98822091D01*
X186547193Y-98798959D01*
X186547191Y-98798953D01*
X186440003Y-98588582D01*
X186301220Y-98397565D01*
X186134273Y-98230618D01*
X185943258Y-98091837D01*
X185732889Y-97984649D01*
X185508334Y-97911686D01*
X185508335Y-97911686D01*
X185275139Y-97874752D01*
X185093838Y-97874752D01*
X185299768Y-98843581D01*
X185229496Y-98824752D01*
X185084678Y-98824752D01*
X184944795Y-98862234D01*
X184819379Y-98934642D01*
X184809956Y-98944064D01*
X184604427Y-97977128D01*
X184604425Y-97977128D01*
X184581290Y-97984646D01*
X184370915Y-98091837D01*
X184179900Y-98230618D01*
X184012953Y-98397565D01*
X183874172Y-98588580D01*
X183766984Y-98798949D01*
X183694021Y-99023504D01*
X183657087Y-99256699D01*
X181810691Y-99256699D01*
X181863580Y-99203810D01*
X181942637Y-99066878D01*
X181983560Y-98914151D01*
X181983560Y-98377947D01*
X182003245Y-98310908D01*
X182051265Y-98267462D01*
X182169493Y-98207223D01*
X182360570Y-98068397D01*
X182527577Y-97901390D01*
X182666403Y-97710313D01*
X182773628Y-97499872D01*
X182846613Y-97275248D01*
X182866718Y-97148310D01*
X182883560Y-97041977D01*
X182883560Y-96805782D01*
X182846613Y-96572511D01*
X182773626Y-96347883D01*
X182684562Y-96173086D01*
X182666403Y-96137447D01*
X182527577Y-95946370D01*
X182360570Y-95779363D01*
X182169493Y-95640537D01*
X181959056Y-95533313D01*
X181734428Y-95460326D01*
X181501157Y-95423380D01*
X181501152Y-95423380D01*
X181264968Y-95423380D01*
X181264963Y-95423380D01*
X181031691Y-95460326D01*
X180807063Y-95533313D01*
X180596626Y-95640537D01*
X180523318Y-95693799D01*
X180405550Y-95779363D01*
X180405548Y-95779365D01*
X180405547Y-95779365D01*
X180238545Y-95946367D01*
X180238545Y-95946368D01*
X180238543Y-95946370D01*
X180198468Y-96001528D01*
X180099717Y-96137446D01*
X179992493Y-96347883D01*
X179919506Y-96572511D01*
X179882560Y-96805782D01*
X179882560Y-97041977D01*
X179919506Y-97275248D01*
X179992493Y-97499876D01*
X180031829Y-97577076D01*
X180099717Y-97710313D01*
X180238543Y-97901390D01*
X180405550Y-98068397D01*
X180505833Y-98141257D01*
X180596628Y-98207224D01*
X180642935Y-98230818D01*
X180714854Y-98267462D01*
X180725917Y-98277911D01*
X180739763Y-98284234D01*
X180750804Y-98301415D01*
X180765650Y-98315436D01*
X180769891Y-98331115D01*
X180777537Y-98343012D01*
X180782560Y-98377947D01*
X180782560Y-98534996D01*
X180762875Y-98602035D01*
X180746241Y-98622677D01*
X178446477Y-100922440D01*
X178385154Y-100955925D01*
X178320478Y-100952690D01*
X178194284Y-100911687D01*
X177961011Y-100874740D01*
X177961006Y-100874740D01*
X177724822Y-100874740D01*
X177724817Y-100874740D01*
X177491545Y-100911686D01*
X177266917Y-100984673D01*
X177056480Y-101091897D01*
X176999365Y-101133394D01*
X176865404Y-101230723D01*
X176865402Y-101230725D01*
X176865401Y-101230725D01*
X176698399Y-101397727D01*
X176698399Y-101397728D01*
X176698397Y-101397730D01*
X176680193Y-101422786D01*
X176559571Y-101588806D01*
X176452347Y-101799243D01*
X176379360Y-102023871D01*
X176342414Y-102257142D01*
X176342414Y-102493337D01*
X176379360Y-102726608D01*
X176452347Y-102951236D01*
X176523340Y-103090565D01*
X176542498Y-103128166D01*
X176559573Y-103161676D01*
X176586612Y-103198893D01*
X176610092Y-103264699D01*
X176594266Y-103332753D01*
X176544160Y-103381448D01*
X176475682Y-103395323D01*
X176466896Y-103394251D01*
X176289263Y-103366117D01*
X176289258Y-103366117D01*
X176196182Y-103366117D01*
X176129143Y-103346432D01*
X176083388Y-103293628D01*
X176074892Y-103267899D01*
X176074212Y-103264699D01*
X176071095Y-103250036D01*
X175997748Y-103102279D01*
X175889960Y-102977404D01*
X175860522Y-102954815D01*
X175860509Y-102954806D01*
X175860504Y-102954802D01*
X175803290Y-102917647D01*
X175193889Y-102521897D01*
X174240627Y-101902841D01*
X174186993Y-101863874D01*
X174157417Y-101848804D01*
X173965890Y-101724425D01*
X173933261Y-101706709D01*
X173933259Y-101706708D01*
X173933256Y-101706707D01*
X173775347Y-101659031D01*
X173775334Y-101659029D01*
X173610530Y-101652122D01*
X173610523Y-101652123D01*
X173486660Y-101678451D01*
X173460879Y-101681161D01*
X173425938Y-101681161D01*
X173360513Y-101691523D01*
X173229661Y-101712248D01*
X173040669Y-101773654D01*
X173040666Y-101773655D01*
X172863604Y-101863874D01*
X172702832Y-101980682D01*
X172562320Y-102121194D01*
X172445512Y-102281966D01*
X172355293Y-102459028D01*
X172355292Y-102459031D01*
X172293886Y-102648023D01*
X172262799Y-102844300D01*
X172262799Y-103043021D01*
X172293886Y-103239298D01*
X172352113Y-103418505D01*
X172352476Y-103419640D01*
X172354245Y-103425268D01*
X172380085Y-103546834D01*
X172413814Y-103614782D01*
X172416725Y-103624041D01*
X172417210Y-103649660D01*
X172421676Y-103674890D01*
X172417861Y-103684012D01*
X172418049Y-103693898D01*
X172404606Y-103715713D01*
X172394722Y-103739352D01*
X172386581Y-103744963D01*
X172381395Y-103753381D01*
X172358292Y-103764465D01*
X172337197Y-103779008D01*
X172324226Y-103780810D01*
X172318401Y-103783605D01*
X172310862Y-103782666D01*
X172293240Y-103785115D01*
X172227146Y-103782345D01*
X172227139Y-103782346D01*
X172103276Y-103808674D01*
X172077495Y-103811384D01*
X172042555Y-103811384D01*
X171977130Y-103821746D01*
X171846278Y-103842471D01*
X171657286Y-103903877D01*
X171657283Y-103903878D01*
X171480218Y-103994099D01*
X171377158Y-104068976D01*
X171311351Y-104092456D01*
X171243298Y-104076630D01*
X171194603Y-104026524D01*
X171180273Y-103968658D01*
X171180273Y-102091597D01*
X171199958Y-102024558D01*
X171216587Y-102003921D01*
X174536961Y-98683547D01*
X174598282Y-98650064D01*
X174667974Y-98655048D01*
X174723907Y-98696920D01*
X174748324Y-98762384D01*
X174748640Y-98771230D01*
X174748640Y-98923239D01*
X175717469Y-98717308D01*
X175698640Y-98787582D01*
X175698640Y-98932400D01*
X175736122Y-99072283D01*
X175808530Y-99197699D01*
X175817951Y-99207120D01*
X174851016Y-99412650D01*
X174858537Y-99435793D01*
X174965725Y-99646162D01*
X175104506Y-99837177D01*
X175271453Y-100004124D01*
X175462468Y-100142905D01*
X175672837Y-100250093D01*
X175897392Y-100323056D01*
X175897391Y-100323056D01*
X176130588Y-100359991D01*
X176311889Y-100359991D01*
X176105957Y-99391160D01*
X176176231Y-99409991D01*
X176321049Y-99409991D01*
X176460932Y-99372509D01*
X176586348Y-99300101D01*
X176595769Y-99290679D01*
X176801298Y-100257613D01*
X176824442Y-100250093D01*
X177034811Y-100142905D01*
X177225826Y-100004124D01*
X177392773Y-99837177D01*
X177531554Y-99646162D01*
X177638742Y-99435793D01*
X177711705Y-99211238D01*
X177748640Y-98978043D01*
X177748640Y-98796740D01*
X176779810Y-99002671D01*
X176798640Y-98932400D01*
X176798640Y-98787582D01*
X176761158Y-98647699D01*
X176688750Y-98522283D01*
X176679327Y-98512860D01*
X177646262Y-98307331D01*
X177646263Y-98307330D01*
X177638746Y-98284198D01*
X177638744Y-98284192D01*
X177531556Y-98073821D01*
X177392773Y-97882804D01*
X177225826Y-97715857D01*
X177034811Y-97577076D01*
X176824442Y-97469888D01*
X176599887Y-97396925D01*
X176599888Y-97396925D01*
X176366692Y-97359991D01*
X176159879Y-97359991D01*
X176092840Y-97340306D01*
X176047085Y-97287502D01*
X176037141Y-97218344D01*
X176066166Y-97154788D01*
X176072184Y-97148324D01*
X177284868Y-95935640D01*
X177346189Y-95902157D01*
X177415881Y-95907141D01*
X177471814Y-95949013D01*
X177472847Y-95950414D01*
X177554997Y-96063483D01*
X177722004Y-96230490D01*
X177913081Y-96369316D01*
X178012505Y-96419975D01*
X178123517Y-96476539D01*
X178123519Y-96476539D01*
X178123522Y-96476541D01*
X178243926Y-96515662D01*
X178348145Y-96549526D01*
X178581417Y-96586473D01*
X178581422Y-96586473D01*
X178817611Y-96586473D01*
X179050882Y-96549526D01*
X179275506Y-96476541D01*
X179485947Y-96369316D01*
X179677024Y-96230490D01*
X179844031Y-96063483D01*
X179982857Y-95872406D01*
X180090082Y-95661965D01*
X180163067Y-95437341D01*
X180191696Y-95256584D01*
X180200014Y-95204070D01*
X180200014Y-94967875D01*
X180163067Y-94734604D01*
X180097777Y-94533665D01*
X180090082Y-94509981D01*
X180090080Y-94509978D01*
X180090080Y-94509976D01*
X180007408Y-94347725D01*
X179982857Y-94299540D01*
X179844031Y-94108463D01*
X179677024Y-93941456D01*
X179485947Y-93802630D01*
X179473942Y-93796513D01*
X179275510Y-93695406D01*
X179050882Y-93622419D01*
X178817611Y-93585473D01*
X178817606Y-93585473D01*
X178581422Y-93585473D01*
X178581417Y-93585473D01*
X178348145Y-93622419D01*
X178123517Y-93695406D01*
X177913080Y-93802630D01*
X177843900Y-93852893D01*
X177722004Y-93941456D01*
X177722002Y-93941458D01*
X177722001Y-93941458D01*
X177554999Y-94108460D01*
X177554999Y-94108461D01*
X177554997Y-94108463D01*
X177511364Y-94168519D01*
X177416171Y-94299539D01*
X177355931Y-94417767D01*
X177307956Y-94468563D01*
X177245446Y-94485472D01*
X177206244Y-94485472D01*
X177129880Y-94505934D01*
X177053515Y-94526396D01*
X177053510Y-94526399D01*
X176916591Y-94605448D01*
X176916583Y-94605454D01*
X170099254Y-101422783D01*
X170099252Y-101422786D01*
X170049134Y-101509595D01*
X170049132Y-101509597D01*
X170020198Y-101559710D01*
X170020197Y-101559711D01*
X170020196Y-101559716D01*
X169979272Y-101712444D01*
X169979272Y-101712446D01*
X169979272Y-101880547D01*
X169979273Y-101880560D01*
X169979273Y-106147062D01*
X169959588Y-106214101D01*
X169939246Y-106237412D01*
X169939515Y-106237681D01*
X169795555Y-106381640D01*
X169678747Y-106542412D01*
X169588528Y-106719474D01*
X169588527Y-106719477D01*
X169527121Y-106908469D01*
X169496034Y-107104746D01*
X169496034Y-107303467D01*
X169527121Y-107499744D01*
X169585347Y-107678948D01*
X169585710Y-107680083D01*
X169587479Y-107685711D01*
X169613319Y-107807277D01*
X169647048Y-107875225D01*
X169649960Y-107884487D01*
X169650445Y-107910104D01*
X169654911Y-107935337D01*
X169651096Y-107944459D01*
X169651284Y-107954344D01*
X169637841Y-107976158D01*
X169627957Y-107999798D01*
X169619816Y-108005409D01*
X169614630Y-108013827D01*
X169591530Y-108024909D01*
X169570432Y-108039455D01*
X169557459Y-108041257D01*
X169551636Y-108044051D01*
X169544099Y-108043112D01*
X169526475Y-108045561D01*
X169460380Y-108042791D01*
X169460372Y-108042792D01*
X169336519Y-108069118D01*
X169310738Y-108071828D01*
X169275789Y-108071828D01*
X169224768Y-108079909D01*
X169079512Y-108102915D01*
X168890520Y-108164321D01*
X168890517Y-108164322D01*
X168713455Y-108254541D01*
X168552683Y-108371349D01*
X168412171Y-108511861D01*
X168295363Y-108672633D01*
X168205144Y-108849695D01*
X168205143Y-108849698D01*
X168143737Y-109038690D01*
X168112650Y-109234967D01*
X168112650Y-109433688D01*
X168143737Y-109629965D01*
X168201960Y-109809159D01*
X168202323Y-109810295D01*
X168204093Y-109815926D01*
X168229935Y-109937503D01*
X168263662Y-110005446D01*
X168266574Y-110014710D01*
X168267059Y-110040324D01*
X168271525Y-110065559D01*
X168267709Y-110074683D01*
X168267897Y-110084567D01*
X168254456Y-110106378D01*
X168244571Y-110130020D01*
X168236430Y-110135632D01*
X168231243Y-110144050D01*
X168208142Y-110155133D01*
X168187046Y-110169677D01*
X168174073Y-110171478D01*
X168168248Y-110174274D01*
X168160709Y-110173335D01*
X168143089Y-110175783D01*
X168076997Y-110173013D01*
X168076990Y-110173014D01*
X167953113Y-110199345D01*
X167927332Y-110202055D01*
X167892405Y-110202055D01*
X167841390Y-110210135D01*
X167696128Y-110233142D01*
X167507136Y-110294548D01*
X167507133Y-110294549D01*
X167330071Y-110384768D01*
X167169299Y-110501576D01*
X167028787Y-110642088D01*
X166911979Y-110802860D01*
X166821760Y-110979922D01*
X166821759Y-110979925D01*
X166760353Y-111168917D01*
X166729266Y-111365194D01*
X166729266Y-111563915D01*
X166760353Y-111760192D01*
X166818582Y-111939405D01*
X166818945Y-111940539D01*
X166820713Y-111946165D01*
X166846552Y-112067725D01*
X166880282Y-112135675D01*
X166883193Y-112144934D01*
X166883678Y-112170552D01*
X166888144Y-112195785D01*
X166884329Y-112204907D01*
X166884517Y-112214792D01*
X166871074Y-112236606D01*
X166861190Y-112260246D01*
X166853049Y-112265857D01*
X166847863Y-112274275D01*
X166824763Y-112285357D01*
X166803665Y-112299903D01*
X166790692Y-112301705D01*
X166784869Y-112304499D01*
X166777332Y-112303560D01*
X166759708Y-112306009D01*
X166693612Y-112303239D01*
X166693604Y-112303240D01*
X166569751Y-112329566D01*
X166543970Y-112332276D01*
X166509023Y-112332276D01*
X166458002Y-112340357D01*
X166312746Y-112363363D01*
X166123754Y-112424769D01*
X166123751Y-112424770D01*
X165946689Y-112514989D01*
X165785917Y-112631797D01*
X165645405Y-112772309D01*
X165528597Y-112933081D01*
X165438378Y-113110143D01*
X165438377Y-113110146D01*
X165376971Y-113299138D01*
X165345884Y-113495415D01*
X165345884Y-113694136D01*
X165376971Y-113890413D01*
X165435188Y-114069589D01*
X165435551Y-114070726D01*
X165437321Y-114076360D01*
X165463167Y-114197951D01*
X165496894Y-114265895D01*
X165499807Y-114275161D01*
X165500292Y-114300774D01*
X165504758Y-114326009D01*
X165500942Y-114335133D01*
X165501130Y-114345018D01*
X165487689Y-114366829D01*
X165477804Y-114390470D01*
X165469662Y-114396082D01*
X165464475Y-114404501D01*
X165441374Y-114415584D01*
X165420279Y-114430127D01*
X165407306Y-114431928D01*
X165401481Y-114434724D01*
X165393942Y-114433785D01*
X165376322Y-114436233D01*
X165310231Y-114433463D01*
X165310223Y-114433464D01*
X165186370Y-114459790D01*
X165160589Y-114462500D01*
X165125639Y-114462500D01*
X165074605Y-114470583D01*
X164929362Y-114493587D01*
X164740370Y-114554993D01*
X164740367Y-114554994D01*
X164563305Y-114645213D01*
X164402533Y-114762021D01*
X164262021Y-114902533D01*
X164145213Y-115063305D01*
X164054994Y-115240367D01*
X164054993Y-115240370D01*
X163993587Y-115429361D01*
X163985275Y-115481840D01*
X163955345Y-115544974D01*
X163896033Y-115581904D01*
X163826170Y-115580906D01*
X163775121Y-115550121D01*
X159437740Y-111212740D01*
X159408114Y-111180862D01*
X159394395Y-111169395D01*
X157850000Y-109625000D01*
X149025000Y-109625000D01*
X149024999Y-109625000D01*
X147429920Y-111220078D01*
X147368597Y-111253563D01*
X147349485Y-111256185D01*
X144216572Y-111439575D01*
X144148497Y-111423842D01*
X144099735Y-111373802D01*
X144085767Y-111305342D01*
X144111028Y-111240199D01*
X144153029Y-111205302D01*
X144314455Y-111123053D01*
X144467329Y-111011983D01*
X144600946Y-110878366D01*
X144712016Y-110725492D01*
X144797803Y-110557125D01*
X144856196Y-110377411D01*
X144863826Y-110329239D01*
X144885756Y-110190779D01*
X144885756Y-110001806D01*
X144856196Y-109815174D01*
X144799507Y-109640705D01*
X144797803Y-109635461D01*
X144797801Y-109635458D01*
X144797801Y-109635456D01*
X144712015Y-109467093D01*
X144698276Y-109448183D01*
X144600946Y-109314220D01*
X144467329Y-109180603D01*
X144417961Y-109144735D01*
X144336870Y-109085818D01*
X144294204Y-109030487D01*
X144285756Y-108985500D01*
X144285756Y-107876237D01*
X144294400Y-107846796D01*
X144300924Y-107816810D01*
X144304678Y-107811794D01*
X144305441Y-107809198D01*
X144322075Y-107788556D01*
X144406183Y-107704448D01*
X145005885Y-107104746D01*
X145614620Y-106496010D01*
X145675941Y-106462527D01*
X145740615Y-106465761D01*
X145815067Y-106489953D01*
X145924514Y-106507287D01*
X146033957Y-106524622D01*
X146033962Y-106524622D01*
X146255591Y-106524622D01*
X146392453Y-106502945D01*
X146461746Y-106511899D01*
X146515198Y-106556896D01*
X146535838Y-106623647D01*
X146532890Y-106652353D01*
X146515968Y-106728394D01*
X146515968Y-106728395D01*
X146525544Y-106871861D01*
X146525544Y-106871862D01*
X146575143Y-107006806D01*
X146575145Y-107006809D01*
X146660760Y-107122317D01*
X146660763Y-107122320D01*
X146707213Y-107160118D01*
X147298751Y-107544268D01*
X147764894Y-106826472D01*
X147790879Y-106871479D01*
X147903521Y-106984121D01*
X148041479Y-107063771D01*
X148182443Y-107101541D01*
X147718087Y-107816587D01*
X148309614Y-108200731D01*
X148309637Y-108200744D01*
X148363048Y-108227799D01*
X148363054Y-108227801D01*
X148503394Y-108259031D01*
X148503395Y-108259031D01*
X148646861Y-108249455D01*
X148646862Y-108249455D01*
X148781806Y-108199856D01*
X148781809Y-108199854D01*
X148897317Y-108114239D01*
X148897320Y-108114236D01*
X148935116Y-108067788D01*
X148935129Y-108067771D01*
X149319269Y-107476247D01*
X148601473Y-107010104D01*
X148646479Y-106984121D01*
X148759121Y-106871479D01*
X148838771Y-106733521D01*
X148876542Y-106592554D01*
X149591588Y-107056911D01*
X149649459Y-106967797D01*
X149702480Y-106922294D01*
X149771685Y-106912679D01*
X149835101Y-106942006D01*
X149872596Y-107000963D01*
X149874744Y-107009551D01*
X149897864Y-107118325D01*
X149897865Y-107118326D01*
X149971211Y-107266082D01*
X150078999Y-107390957D01*
X150108437Y-107413546D01*
X150108445Y-107413552D01*
X150108456Y-107413560D01*
X151728332Y-108465520D01*
X151781967Y-108504488D01*
X151811542Y-108519557D01*
X152003070Y-108643937D01*
X152035699Y-108661653D01*
X152072067Y-108672633D01*
X152193612Y-108709330D01*
X152193614Y-108709330D01*
X152193620Y-108709332D01*
X152268535Y-108712471D01*
X152358429Y-108716239D01*
X152358430Y-108716238D01*
X152358435Y-108716239D01*
X152482300Y-108689910D01*
X152508081Y-108687201D01*
X152543021Y-108687201D01*
X152543022Y-108687201D01*
X152739297Y-108656114D01*
X152928293Y-108594706D01*
X153105355Y-108504488D01*
X153266125Y-108387682D01*
X153406642Y-108247165D01*
X153523448Y-108086395D01*
X153613666Y-107909333D01*
X153675074Y-107720337D01*
X153706161Y-107524062D01*
X153706161Y-107325340D01*
X153675074Y-107129065D01*
X153616807Y-106949737D01*
X153616498Y-106948769D01*
X153614719Y-106943118D01*
X153588875Y-106821528D01*
X153554901Y-106753089D01*
X153551996Y-106743858D01*
X153551499Y-106718218D01*
X153547029Y-106692961D01*
X153550833Y-106683860D01*
X153550643Y-106674001D01*
X153564088Y-106652161D01*
X153573982Y-106628499D01*
X153582101Y-106622901D01*
X153587272Y-106614503D01*
X153610389Y-106603399D01*
X153631506Y-106588842D01*
X153644440Y-106587045D01*
X153650254Y-106584253D01*
X153657800Y-106585189D01*
X153675467Y-106582735D01*
X153741773Y-106585514D01*
X153741778Y-106585513D01*
X153841375Y-106564343D01*
X153841376Y-106564342D01*
X153659743Y-105709830D01*
X153768524Y-105738978D01*
X153885564Y-105738978D01*
X153998615Y-105708686D01*
X154099974Y-105650167D01*
X154148019Y-105602121D01*
X154329293Y-106454943D01*
X154329294Y-106454943D01*
X154488476Y-106373836D01*
X154649183Y-106257074D01*
X154649184Y-106257074D01*
X154789640Y-106116618D01*
X154789640Y-106116617D01*
X154906402Y-105955910D01*
X154996586Y-105778915D01*
X155057968Y-105590001D01*
X155057968Y-105589998D01*
X155089044Y-105393799D01*
X155089044Y-105281815D01*
X154242396Y-105461776D01*
X154271544Y-105352998D01*
X154271544Y-105235958D01*
X154241252Y-105122907D01*
X154182733Y-105021548D01*
X154134686Y-104973501D01*
X154992951Y-104791071D01*
X154992952Y-104791071D01*
X154971783Y-104691473D01*
X154971782Y-104691470D01*
X154942275Y-104632028D01*
X154930098Y-104563227D01*
X154957051Y-104498765D01*
X155014576Y-104459109D01*
X155038812Y-104453747D01*
X155048638Y-104452587D01*
X155125201Y-104455796D01*
X155254670Y-104428276D01*
X155260330Y-104427609D01*
X155262780Y-104428024D01*
X155274861Y-104426755D01*
X155309786Y-104426755D01*
X155309787Y-104426755D01*
X155506062Y-104395668D01*
X155695058Y-104334260D01*
X155872120Y-104244042D01*
X156032890Y-104127236D01*
X156173407Y-103986719D01*
X156290213Y-103825949D01*
X156380431Y-103648887D01*
X156441839Y-103459891D01*
X156472926Y-103263616D01*
X156472926Y-103064894D01*
X156441839Y-102868619D01*
X156383589Y-102689344D01*
X156383248Y-102688277D01*
X156381481Y-102682655D01*
X156355641Y-102561085D01*
X156321909Y-102493132D01*
X156318999Y-102483874D01*
X156318513Y-102458254D01*
X156314048Y-102433025D01*
X156317862Y-102423902D01*
X156317675Y-102414017D01*
X156331118Y-102392200D01*
X156341002Y-102368563D01*
X156349141Y-102362952D01*
X156354329Y-102354533D01*
X156377433Y-102343448D01*
X156398527Y-102328907D01*
X156411498Y-102327104D01*
X156417324Y-102324310D01*
X156424861Y-102325248D01*
X156442485Y-102322800D01*
X156508580Y-102325570D01*
X156508581Y-102325569D01*
X156508585Y-102325570D01*
X156632441Y-102299243D01*
X156658222Y-102296534D01*
X156693170Y-102296534D01*
X156693171Y-102296534D01*
X156889446Y-102265447D01*
X157078442Y-102204039D01*
X157255504Y-102113821D01*
X157416274Y-101997015D01*
X157556791Y-101856498D01*
X157673597Y-101695728D01*
X157763815Y-101518666D01*
X157825223Y-101329670D01*
X157856310Y-101133395D01*
X157856310Y-100934673D01*
X157844744Y-100861651D01*
X157825223Y-100738397D01*
X157806366Y-100680361D01*
X157766941Y-100559026D01*
X157766634Y-100558062D01*
X157764867Y-100552441D01*
X157739025Y-100430859D01*
X157705296Y-100362913D01*
X157702385Y-100353650D01*
X157701899Y-100328035D01*
X157697434Y-100302803D01*
X157701249Y-100293678D01*
X157701062Y-100283793D01*
X157714504Y-100261978D01*
X157724388Y-100238341D01*
X157732527Y-100232729D01*
X157737716Y-100224310D01*
X157760822Y-100213224D01*
X157781913Y-100198685D01*
X157794882Y-100196883D01*
X157800711Y-100194087D01*
X157808251Y-100195025D01*
X157825871Y-100192578D01*
X157843413Y-100193313D01*
X157891963Y-100195348D01*
X157891964Y-100195347D01*
X157891968Y-100195348D01*
X158015847Y-100169016D01*
X158041628Y-100166307D01*
X158076554Y-100166307D01*
X158076555Y-100166307D01*
X158272830Y-100135220D01*
X158461826Y-100073812D01*
X158638888Y-99983594D01*
X158799658Y-99866788D01*
X158940175Y-99726271D01*
X159056981Y-99565501D01*
X159056983Y-99565496D01*
X159058194Y-99563522D01*
X159058850Y-99562928D01*
X159059845Y-99561559D01*
X159060132Y-99561767D01*
X159110004Y-99516644D01*
X159163924Y-99504307D01*
X171209524Y-99504307D01*
X171209540Y-99504308D01*
X171217136Y-99504308D01*
X171375247Y-99504308D01*
X171375250Y-99504308D01*
X171527978Y-99463384D01*
X171578097Y-99434446D01*
X171664909Y-99384327D01*
X171776713Y-99272523D01*
X171776713Y-99272521D01*
X171786921Y-99262314D01*
X171786923Y-99262311D01*
X181163319Y-89885915D01*
X181224642Y-89852430D01*
X181294334Y-89857414D01*
G37*
%TD.AperFunction*%
%TA.AperFunction,Conductor*%
G36*
X174464648Y-106442019D02*
G01*
X174502142Y-106500976D01*
X174507000Y-106535344D01*
X174507000Y-112896095D01*
X174487315Y-112963134D01*
X174434511Y-113008889D01*
X174365353Y-113018833D01*
X174344682Y-113014026D01*
X174229709Y-112976669D01*
X174010816Y-112942000D01*
X174010811Y-112942000D01*
X173789187Y-112942000D01*
X173789180Y-112942000D01*
X173652319Y-112963676D01*
X173583026Y-112954721D01*
X173529574Y-112909725D01*
X173508935Y-112842973D01*
X173511883Y-112814267D01*
X173528806Y-112738220D01*
X173519230Y-112594754D01*
X173519230Y-112594753D01*
X173469631Y-112459809D01*
X173469629Y-112459806D01*
X173384014Y-112344298D01*
X173384011Y-112344295D01*
X173337561Y-112306497D01*
X172746022Y-111922346D01*
X172279880Y-112640142D01*
X172253896Y-112595137D01*
X172141254Y-112482495D01*
X172003296Y-112402845D01*
X171862329Y-112365073D01*
X172326686Y-111650027D01*
X171735160Y-111265884D01*
X171735137Y-111265871D01*
X171681726Y-111238816D01*
X171681720Y-111238814D01*
X171541380Y-111207584D01*
X171541379Y-111207584D01*
X171432707Y-111214838D01*
X171364506Y-111199662D01*
X171315336Y-111150022D01*
X171300808Y-111081679D01*
X171320453Y-111023579D01*
X171882940Y-110157426D01*
X171900656Y-110124797D01*
X171948335Y-109966877D01*
X171954686Y-109815338D01*
X171955242Y-109802066D01*
X171955241Y-109802064D01*
X171955242Y-109802061D01*
X171920945Y-109640705D01*
X171918342Y-109635461D01*
X171891529Y-109581445D01*
X171879352Y-109512645D01*
X171906306Y-109448183D01*
X171963831Y-109408527D01*
X172007789Y-109402420D01*
X172073884Y-109405190D01*
X172073885Y-109405189D01*
X172073889Y-109405190D01*
X172235246Y-109370893D01*
X172383003Y-109297546D01*
X172507878Y-109189757D01*
X172530480Y-109160301D01*
X173266324Y-108027200D01*
X173284040Y-107994571D01*
X173331719Y-107836651D01*
X173338069Y-107685127D01*
X173338626Y-107671840D01*
X173338625Y-107671838D01*
X173338626Y-107671835D01*
X173304329Y-107510479D01*
X173304327Y-107510474D01*
X173274916Y-107451225D01*
X173262739Y-107382425D01*
X173289693Y-107317963D01*
X173347218Y-107278307D01*
X173391176Y-107272200D01*
X173419743Y-107273397D01*
X173457266Y-107274970D01*
X173457267Y-107274969D01*
X173457271Y-107274970D01*
X173618628Y-107240673D01*
X173766385Y-107167326D01*
X173891260Y-107059537D01*
X173913862Y-107030081D01*
X174279006Y-106467808D01*
X174332026Y-106422306D01*
X174401231Y-106412692D01*
X174464648Y-106442019D01*
G37*
%TD.AperFunction*%
%TA.AperFunction,Conductor*%
G36*
X148544033Y-99626171D02*
G01*
X148599966Y-99668043D01*
X148618628Y-99704032D01*
X148665249Y-99847514D01*
X148765864Y-100044983D01*
X148896132Y-100224281D01*
X149052843Y-100380992D01*
X149232141Y-100511260D01*
X149308699Y-100550268D01*
X149429605Y-100611873D01*
X149429607Y-100611873D01*
X149429610Y-100611875D01*
X149542590Y-100648584D01*
X149640386Y-100680361D01*
X149859277Y-100715030D01*
X149859282Y-100715030D01*
X150080909Y-100715030D01*
X150103149Y-100711507D01*
X150138252Y-100705947D01*
X150207544Y-100714901D01*
X150260996Y-100759896D01*
X150281637Y-100826647D01*
X150277114Y-100861651D01*
X150256426Y-100936020D01*
X150256425Y-100936030D01*
X150258479Y-101079782D01*
X150258480Y-101079787D01*
X150300951Y-101217153D01*
X150380399Y-101336980D01*
X150424816Y-101377164D01*
X150424821Y-101377168D01*
X150995437Y-101791745D01*
X151498906Y-101098780D01*
X151540879Y-101171479D01*
X151653521Y-101284121D01*
X151791479Y-101363771D01*
X151902750Y-101393585D01*
X151399945Y-102085637D01*
X151970560Y-102500213D01*
X151970580Y-102500226D01*
X152022505Y-102530040D01*
X152161022Y-102568573D01*
X152161030Y-102568574D01*
X152304782Y-102566520D01*
X152304787Y-102566519D01*
X152442153Y-102524048D01*
X152450164Y-102520251D01*
X152450944Y-102521897D01*
X152507285Y-102504467D01*
X152574602Y-102523181D01*
X152621115Y-102575318D01*
X152632968Y-102633645D01*
X152630333Y-102696520D01*
X152630334Y-102696528D01*
X152664630Y-102857881D01*
X152694298Y-102917647D01*
X152706474Y-102986447D01*
X152679520Y-103050909D01*
X152621995Y-103090565D01*
X152578038Y-103096672D01*
X152511736Y-103093893D01*
X152511729Y-103093894D01*
X152350497Y-103128165D01*
X152350493Y-103128166D01*
X152202858Y-103201452D01*
X152202847Y-103201459D01*
X152078077Y-103309158D01*
X152055497Y-103338586D01*
X152055475Y-103338617D01*
X151319706Y-104471603D01*
X151301999Y-104504211D01*
X151254355Y-104662014D01*
X151254355Y-104662019D01*
X151247453Y-104826699D01*
X151247454Y-104826705D01*
X151281724Y-104987935D01*
X151311234Y-105047383D01*
X151323410Y-105116184D01*
X151296456Y-105180645D01*
X151238931Y-105220302D01*
X151194974Y-105226408D01*
X151128310Y-105223614D01*
X151128303Y-105223615D01*
X150966947Y-105257912D01*
X150819191Y-105331258D01*
X150694315Y-105439048D01*
X150671729Y-105468482D01*
X150671706Y-105468515D01*
X150238486Y-106135616D01*
X150185465Y-106181119D01*
X150116260Y-106190733D01*
X150052843Y-106161406D01*
X150018104Y-106110859D01*
X149974856Y-105993193D01*
X149974854Y-105993190D01*
X149889239Y-105877682D01*
X149889236Y-105877679D01*
X149842786Y-105839881D01*
X149251247Y-105455730D01*
X148785104Y-106173525D01*
X148759121Y-106128521D01*
X148646479Y-106015879D01*
X148508521Y-105936229D01*
X148367554Y-105898457D01*
X148831911Y-105183411D01*
X148240385Y-104799268D01*
X148240362Y-104799255D01*
X148186951Y-104772200D01*
X148186945Y-104772198D01*
X148046605Y-104740968D01*
X148046604Y-104740968D01*
X147903138Y-104750544D01*
X147903137Y-104750544D01*
X147768193Y-104800143D01*
X147768190Y-104800145D01*
X147708605Y-104844310D01*
X147643025Y-104868416D01*
X147574823Y-104853239D01*
X147525653Y-104803600D01*
X147516836Y-104783010D01*
X147510290Y-104762864D01*
X147449619Y-104576138D01*
X147349004Y-104378669D01*
X147218736Y-104199371D01*
X147062025Y-104042660D01*
X146882727Y-103912392D01*
X146866015Y-103903877D01*
X146685262Y-103811778D01*
X146474481Y-103743290D01*
X146255591Y-103708622D01*
X146255586Y-103708622D01*
X146033962Y-103708622D01*
X146033957Y-103708622D01*
X145815066Y-103743290D01*
X145604285Y-103811778D01*
X145406820Y-103912392D01*
X145315109Y-103979025D01*
X145227523Y-104042660D01*
X145227521Y-104042662D01*
X145227520Y-104042662D01*
X145070814Y-104199368D01*
X145070814Y-104199369D01*
X145070812Y-104199371D01*
X145038357Y-104244041D01*
X144940544Y-104378668D01*
X144839930Y-104576133D01*
X144771442Y-104786914D01*
X144736774Y-105005804D01*
X144736774Y-105227439D01*
X144771443Y-105446330D01*
X144771443Y-105446333D01*
X144795632Y-105520777D01*
X144797627Y-105590618D01*
X144765382Y-105646776D01*
X143316542Y-107095618D01*
X143204737Y-107207422D01*
X143204731Y-107207430D01*
X143165739Y-107274968D01*
X143165739Y-107274970D01*
X143125679Y-107344354D01*
X143125679Y-107344355D01*
X143084755Y-107497083D01*
X143084755Y-107497085D01*
X143084755Y-107665186D01*
X143084756Y-107665199D01*
X143084756Y-108985500D01*
X143065071Y-109052539D01*
X143033642Y-109085818D01*
X142903181Y-109180604D01*
X142769568Y-109314217D01*
X142769568Y-109314218D01*
X142769566Y-109314220D01*
X142721866Y-109379872D01*
X142658496Y-109467093D01*
X142572710Y-109635456D01*
X142514315Y-109815174D01*
X142484756Y-110001806D01*
X142484756Y-110190779D01*
X142514315Y-110377411D01*
X142552962Y-110496350D01*
X142554957Y-110566191D01*
X142518877Y-110626024D01*
X142456176Y-110656853D01*
X142386762Y-110648889D01*
X142347350Y-110622350D01*
X138686319Y-106961319D01*
X138652834Y-106899996D01*
X138650000Y-106873638D01*
X138650000Y-106526361D01*
X138669685Y-106459322D01*
X138686314Y-106438685D01*
X139225204Y-105899795D01*
X139232069Y-105893433D01*
X140554066Y-104758761D01*
X140617755Y-104730037D01*
X140686866Y-104740306D01*
X140739454Y-104786309D01*
X140758823Y-104853440D01*
X140752755Y-104891175D01*
X140693810Y-105072584D01*
X140693810Y-105072587D01*
X140664250Y-105259220D01*
X140664250Y-105448193D01*
X140693809Y-105634825D01*
X140752204Y-105814543D01*
X140814207Y-105936229D01*
X140837990Y-105982906D01*
X140949060Y-106135780D01*
X141082677Y-106269397D01*
X141235551Y-106380467D01*
X141308613Y-106417694D01*
X141403913Y-106466252D01*
X141403915Y-106466252D01*
X141403918Y-106466254D01*
X141476856Y-106489953D01*
X141583631Y-106524647D01*
X141770264Y-106554207D01*
X141770269Y-106554207D01*
X141959236Y-106554207D01*
X142145868Y-106524647D01*
X142212659Y-106502945D01*
X142325582Y-106466254D01*
X142493949Y-106380467D01*
X142646823Y-106269397D01*
X142780440Y-106135780D01*
X142891510Y-105982906D01*
X142977297Y-105814539D01*
X143035690Y-105634825D01*
X143039260Y-105612286D01*
X143065250Y-105448193D01*
X143065250Y-105259220D01*
X143040024Y-105099953D01*
X143048978Y-105030660D01*
X143074813Y-104992877D01*
X148413020Y-99654670D01*
X148474341Y-99621187D01*
X148544033Y-99626171D01*
G37*
%TD.AperFunction*%
%TA.AperFunction,Conductor*%
G36*
X155766952Y-97393771D02*
G01*
X155812707Y-97446575D01*
X155822651Y-97515733D01*
X155803908Y-97565620D01*
X155518573Y-98004999D01*
X155469403Y-98080714D01*
X155451688Y-98113340D01*
X155451686Y-98113345D01*
X155404008Y-98271258D01*
X155404007Y-98271268D01*
X155397100Y-98436073D01*
X155397101Y-98436080D01*
X155431397Y-98597433D01*
X155460812Y-98656690D01*
X155472988Y-98725491D01*
X155446034Y-98789952D01*
X155388509Y-98829609D01*
X155344552Y-98835715D01*
X155278460Y-98832945D01*
X155278453Y-98832946D01*
X155117097Y-98867243D01*
X154969341Y-98940589D01*
X154844465Y-99048379D01*
X154821879Y-99077813D01*
X154821856Y-99077846D01*
X154086020Y-100210936D01*
X154068305Y-100243562D01*
X154068303Y-100243567D01*
X154020625Y-100401480D01*
X154020624Y-100401490D01*
X154018984Y-100440609D01*
X153996509Y-100506765D01*
X153941834Y-100550268D01*
X153872320Y-100557306D01*
X153810036Y-100525644D01*
X153776626Y-100472042D01*
X153749049Y-100382847D01*
X153749048Y-100382846D01*
X153669600Y-100263019D01*
X153625183Y-100222835D01*
X153625178Y-100222831D01*
X153054561Y-99808253D01*
X152551093Y-100501218D01*
X152509121Y-100428521D01*
X152396479Y-100315879D01*
X152258521Y-100236229D01*
X152147248Y-100206414D01*
X152650053Y-99514362D01*
X152650052Y-99514361D01*
X152079439Y-99099786D01*
X152079419Y-99099773D01*
X152027494Y-99069959D01*
X151888977Y-99031426D01*
X151888969Y-99031425D01*
X151745217Y-99033479D01*
X151745212Y-99033480D01*
X151607849Y-99075950D01*
X151543502Y-99118614D01*
X151476750Y-99139253D01*
X151409436Y-99120528D01*
X151362932Y-99068382D01*
X151352507Y-99034664D01*
X151350590Y-99022566D01*
X151343425Y-98977323D01*
X151274939Y-98766546D01*
X151274937Y-98766543D01*
X151274937Y-98766541D01*
X151184261Y-98588580D01*
X151174324Y-98569077D01*
X151044056Y-98389779D01*
X150887345Y-98233068D01*
X150708047Y-98102800D01*
X150620155Y-98058017D01*
X150510580Y-98002186D01*
X150510579Y-98002185D01*
X150510578Y-98002185D01*
X150367099Y-97955565D01*
X150309424Y-97916128D01*
X150282226Y-97851770D01*
X150294141Y-97782923D01*
X150317737Y-97749954D01*
X150471640Y-97596052D01*
X150657287Y-97410405D01*
X150718610Y-97376920D01*
X150744968Y-97374086D01*
X155699913Y-97374086D01*
X155766952Y-97393771D01*
G37*
%TD.AperFunction*%
%TA.AperFunction,Conductor*%
G36*
X183774060Y-73744685D02*
G01*
X183794702Y-73761319D01*
X185588681Y-75555298D01*
X185622166Y-75616621D01*
X185625000Y-75642979D01*
X185625000Y-77413620D01*
X185620499Y-77446724D01*
X185156858Y-79120381D01*
X185125040Y-79174958D01*
X184212181Y-80087818D01*
X184150858Y-80121303D01*
X184081167Y-80116319D01*
X184025233Y-80074447D01*
X184000816Y-80008983D01*
X184000500Y-80000137D01*
X184000500Y-79639181D01*
X184020185Y-79572142D01*
X184072989Y-79526387D01*
X184086177Y-79521251D01*
X184241054Y-79470929D01*
X184409421Y-79385142D01*
X184562295Y-79274072D01*
X184695912Y-79140455D01*
X184806982Y-78987581D01*
X184892769Y-78819214D01*
X184951162Y-78639500D01*
X184971526Y-78510926D01*
X184980722Y-78452868D01*
X184980722Y-78263895D01*
X184951162Y-78077263D01*
X184892767Y-77897545D01*
X184806981Y-77729182D01*
X184695912Y-77576309D01*
X184562295Y-77442692D01*
X184409421Y-77331622D01*
X184241058Y-77245836D01*
X184061340Y-77187441D01*
X183874708Y-77157882D01*
X183874703Y-77157882D01*
X183685741Y-77157882D01*
X183685736Y-77157882D01*
X183499103Y-77187441D01*
X183319385Y-77245836D01*
X183151022Y-77331622D01*
X183063801Y-77394992D01*
X182998149Y-77442692D01*
X182998147Y-77442694D01*
X182998146Y-77442694D01*
X182864534Y-77576306D01*
X182864534Y-77576307D01*
X182864532Y-77576309D01*
X182816832Y-77641961D01*
X182753462Y-77729182D01*
X182667676Y-77897545D01*
X182609281Y-78077263D01*
X182579722Y-78263895D01*
X182579722Y-78452868D01*
X182609281Y-78639500D01*
X182667676Y-78819218D01*
X182681798Y-78846933D01*
X182753462Y-78987581D01*
X182753466Y-78987586D01*
X182775818Y-79018351D01*
X182799298Y-79084157D01*
X182799500Y-79091236D01*
X182799500Y-84991123D01*
X182794999Y-85024227D01*
X182216881Y-87111123D01*
X182185063Y-87165700D01*
X176186898Y-93163865D01*
X176125575Y-93197350D01*
X176055883Y-93192366D01*
X176030326Y-93179286D01*
X175917420Y-93103844D01*
X175917407Y-93103837D01*
X175771736Y-93043499D01*
X175771724Y-93043496D01*
X175617080Y-93012735D01*
X175617077Y-93012735D01*
X175615671Y-93012735D01*
X175614960Y-93012526D01*
X175611017Y-93012138D01*
X175611090Y-93011390D01*
X175548632Y-92993050D01*
X175527990Y-92976416D01*
X174700954Y-92149380D01*
X174667469Y-92088057D01*
X174670703Y-92023383D01*
X174711709Y-91897185D01*
X174731861Y-91769943D01*
X174748656Y-91663914D01*
X174748656Y-91427719D01*
X174711709Y-91194448D01*
X174663721Y-91046759D01*
X174638724Y-90969825D01*
X174638722Y-90969822D01*
X174638722Y-90969820D01*
X174531605Y-90759593D01*
X174531499Y-90759384D01*
X174392673Y-90568307D01*
X174331758Y-90507392D01*
X174298273Y-90446069D01*
X174303257Y-90376377D01*
X174345129Y-90320444D01*
X174410593Y-90296027D01*
X174478866Y-90310879D01*
X174481481Y-90312348D01*
X174482168Y-90312745D01*
X174482167Y-90312745D01*
X174505960Y-90326482D01*
X174532245Y-90341658D01*
X174684973Y-90382582D01*
X174684976Y-90382582D01*
X174850683Y-90382582D01*
X174850699Y-90382581D01*
X175221174Y-90382581D01*
X175288213Y-90402266D01*
X175331658Y-90450284D01*
X175391899Y-90568514D01*
X175530725Y-90759591D01*
X175697732Y-90926598D01*
X175888809Y-91065424D01*
X175972530Y-91108082D01*
X176099245Y-91172647D01*
X176099247Y-91172647D01*
X176099250Y-91172649D01*
X176213687Y-91209832D01*
X176323873Y-91245634D01*
X176557145Y-91282581D01*
X176557150Y-91282581D01*
X176793339Y-91282581D01*
X177026610Y-91245634D01*
X177035449Y-91242762D01*
X177251234Y-91172649D01*
X177461675Y-91065424D01*
X177652752Y-90926598D01*
X177819759Y-90759591D01*
X177958585Y-90568514D01*
X178065810Y-90358073D01*
X178138795Y-90133449D01*
X178148411Y-90072735D01*
X178175742Y-89900178D01*
X178175742Y-89663983D01*
X178138795Y-89430712D01*
X178065808Y-89206084D01*
X177990242Y-89057778D01*
X177958585Y-88995648D01*
X177819759Y-88804571D01*
X177652752Y-88637564D01*
X177461675Y-88498738D01*
X177419854Y-88477429D01*
X177251238Y-88391514D01*
X177026610Y-88318527D01*
X176793339Y-88281581D01*
X176793334Y-88281581D01*
X176557150Y-88281581D01*
X176557145Y-88281581D01*
X176323873Y-88318527D01*
X176099245Y-88391514D01*
X175888808Y-88498738D01*
X175786544Y-88573038D01*
X175697732Y-88637564D01*
X175697730Y-88637566D01*
X175697729Y-88637566D01*
X175530727Y-88804568D01*
X175530727Y-88804569D01*
X175530725Y-88804571D01*
X175478882Y-88875927D01*
X175391899Y-88995647D01*
X175372924Y-89032888D01*
X175332200Y-89112815D01*
X175331659Y-89113876D01*
X175321209Y-89124940D01*
X175314887Y-89138784D01*
X175297706Y-89149825D01*
X175283684Y-89164672D01*
X175268004Y-89168913D01*
X175256109Y-89176558D01*
X175221174Y-89181581D01*
X175064127Y-89181581D01*
X174997088Y-89161896D01*
X174976446Y-89145262D01*
X172676676Y-86845492D01*
X172643191Y-86784169D01*
X172646425Y-86719495D01*
X172687431Y-86593296D01*
X172694412Y-86549217D01*
X172697909Y-86527143D01*
X172724378Y-86360025D01*
X172724378Y-86123830D01*
X172697250Y-85952555D01*
X172687431Y-85890560D01*
X172687253Y-85890013D01*
X177626116Y-85890013D01*
X177626116Y-86071314D01*
X178594946Y-85865382D01*
X178576116Y-85935657D01*
X178576116Y-86080475D01*
X178613598Y-86220358D01*
X178686006Y-86345774D01*
X178695427Y-86355195D01*
X177728492Y-86560725D01*
X177736013Y-86583868D01*
X177843201Y-86794237D01*
X177981982Y-86985252D01*
X178148929Y-87152199D01*
X178339944Y-87290980D01*
X178550313Y-87398168D01*
X178774868Y-87471131D01*
X178774867Y-87471131D01*
X179008064Y-87508066D01*
X179189365Y-87508066D01*
X178983433Y-86539235D01*
X179053707Y-86558066D01*
X179198525Y-86558066D01*
X179338408Y-86520584D01*
X179463824Y-86448176D01*
X179473245Y-86438754D01*
X179678774Y-87405688D01*
X179701918Y-87398168D01*
X179912287Y-87290980D01*
X180103302Y-87152199D01*
X180270249Y-86985252D01*
X180409030Y-86794237D01*
X180516218Y-86583868D01*
X180589181Y-86359313D01*
X180626116Y-86126118D01*
X180626116Y-85944815D01*
X179657286Y-86150746D01*
X179676116Y-86080475D01*
X179676116Y-85935657D01*
X179638634Y-85795774D01*
X179566226Y-85670358D01*
X179556803Y-85660935D01*
X180523738Y-85455406D01*
X180523739Y-85455405D01*
X180516222Y-85432273D01*
X180516220Y-85432267D01*
X180409032Y-85221896D01*
X180270249Y-85030879D01*
X180103302Y-84863932D01*
X179912287Y-84725151D01*
X179701918Y-84617963D01*
X179477363Y-84545000D01*
X179477364Y-84545000D01*
X179244168Y-84508066D01*
X179062867Y-84508066D01*
X179268797Y-85476895D01*
X179198525Y-85458066D01*
X179053707Y-85458066D01*
X178913824Y-85495548D01*
X178788408Y-85567956D01*
X178778985Y-85577378D01*
X178573456Y-84610442D01*
X178573454Y-84610442D01*
X178550319Y-84617960D01*
X178339944Y-84725151D01*
X178148929Y-84863932D01*
X177981982Y-85030879D01*
X177843201Y-85221894D01*
X177736013Y-85432263D01*
X177663050Y-85656818D01*
X177626116Y-85890013D01*
X172687253Y-85890013D01*
X172629267Y-85711551D01*
X172614446Y-85665936D01*
X172614444Y-85665933D01*
X172614444Y-85665931D01*
X172507220Y-85455494D01*
X172507156Y-85455406D01*
X172368395Y-85264418D01*
X172201388Y-85097411D01*
X172010311Y-84958585D01*
X171799874Y-84851361D01*
X171575246Y-84778374D01*
X171341975Y-84741428D01*
X171341970Y-84741428D01*
X171105786Y-84741428D01*
X171105781Y-84741428D01*
X170872509Y-84778374D01*
X170647881Y-84851361D01*
X170437444Y-84958585D01*
X170347097Y-85024227D01*
X170246368Y-85097411D01*
X170246366Y-85097413D01*
X170246365Y-85097413D01*
X170079363Y-85264415D01*
X170079363Y-85264416D01*
X170079361Y-85264418D01*
X170063543Y-85286190D01*
X169940535Y-85455494D01*
X169833311Y-85665931D01*
X169760324Y-85890559D01*
X169723378Y-86123830D01*
X169723378Y-86360025D01*
X169760324Y-86593296D01*
X169833311Y-86817924D01*
X169918570Y-86985252D01*
X169940535Y-87028361D01*
X170079361Y-87219438D01*
X170246368Y-87386445D01*
X170437445Y-87525271D01*
X170536869Y-87575930D01*
X170647881Y-87632494D01*
X170647883Y-87632494D01*
X170647886Y-87632496D01*
X170699853Y-87649381D01*
X170872509Y-87705481D01*
X171105781Y-87742428D01*
X171105786Y-87742428D01*
X171341975Y-87742428D01*
X171448004Y-87725633D01*
X171575246Y-87705481D01*
X171701443Y-87664475D01*
X171771281Y-87662480D01*
X171827440Y-87694726D01*
X174239160Y-90106446D01*
X174272645Y-90167769D01*
X174267661Y-90237461D01*
X174225789Y-90293394D01*
X174160325Y-90317811D01*
X174092052Y-90302959D01*
X174078593Y-90294445D01*
X174077146Y-90293394D01*
X174034589Y-90262474D01*
X174014910Y-90252447D01*
X173824152Y-90155250D01*
X173599524Y-90082263D01*
X173366253Y-90045317D01*
X173366248Y-90045317D01*
X173130064Y-90045317D01*
X173130059Y-90045317D01*
X172896787Y-90082263D01*
X172672159Y-90155250D01*
X172461722Y-90262474D01*
X172392531Y-90312745D01*
X172270646Y-90401300D01*
X172270644Y-90401302D01*
X172270643Y-90401302D01*
X172103641Y-90568304D01*
X172103641Y-90568305D01*
X172103639Y-90568307D01*
X172044018Y-90650367D01*
X171964813Y-90759383D01*
X171857589Y-90969820D01*
X171784602Y-91194448D01*
X171747656Y-91427719D01*
X171747656Y-91663914D01*
X171784602Y-91897185D01*
X171857589Y-92121813D01*
X171936797Y-92277266D01*
X171964813Y-92332250D01*
X172103639Y-92523327D01*
X172270646Y-92690334D01*
X172461723Y-92829160D01*
X172561147Y-92879819D01*
X172672159Y-92936383D01*
X172672161Y-92936383D01*
X172672164Y-92936385D01*
X172714067Y-92950000D01*
X172896787Y-93009370D01*
X173130059Y-93046317D01*
X173130064Y-93046317D01*
X173366253Y-93046317D01*
X173472282Y-93029522D01*
X173599524Y-93009370D01*
X173725722Y-92968364D01*
X173795560Y-92966370D01*
X173851719Y-92998615D01*
X174709287Y-93856183D01*
X174742772Y-93917506D01*
X174743223Y-93919672D01*
X174768496Y-94046726D01*
X174768499Y-94046736D01*
X174828837Y-94192407D01*
X174828844Y-94192420D01*
X174904286Y-94305326D01*
X174925164Y-94372004D01*
X174906680Y-94439384D01*
X174888865Y-94461898D01*
X171083777Y-98266988D01*
X171022454Y-98300473D01*
X170996096Y-98303307D01*
X159334561Y-98303307D01*
X159313039Y-98296987D01*
X159290675Y-98295281D01*
X159280163Y-98287334D01*
X159267522Y-98283622D01*
X159252835Y-98266672D01*
X159234941Y-98253144D01*
X159230394Y-98240774D01*
X159221767Y-98230818D01*
X159218575Y-98208618D01*
X159210836Y-98187564D01*
X159213698Y-98174701D01*
X159211823Y-98161660D01*
X159221140Y-98141257D01*
X159226013Y-98119362D01*
X159235374Y-98110089D01*
X159240848Y-98098104D01*
X159259717Y-98085977D01*
X159275653Y-98070193D01*
X159295803Y-98062786D01*
X159299626Y-98060330D01*
X159308780Y-98058017D01*
X159399209Y-98038796D01*
X159424990Y-98036086D01*
X159459936Y-98036086D01*
X159459937Y-98036086D01*
X159656212Y-98004999D01*
X159845208Y-97943591D01*
X160022270Y-97853373D01*
X160183040Y-97736567D01*
X160323557Y-97596050D01*
X160440363Y-97435280D01*
X160530581Y-97258218D01*
X160591989Y-97069222D01*
X160623076Y-96872947D01*
X160623076Y-96674225D01*
X160591989Y-96477950D01*
X160533704Y-96298567D01*
X160533405Y-96297632D01*
X160531641Y-96292020D01*
X160505793Y-96170411D01*
X160472060Y-96102457D01*
X160469151Y-96093200D01*
X160468666Y-96067581D01*
X160464201Y-96042353D01*
X160468016Y-96033228D01*
X160467829Y-96023342D01*
X160481271Y-96001528D01*
X160491155Y-95977891D01*
X160499296Y-95972278D01*
X160504484Y-95963860D01*
X160527586Y-95952775D01*
X160548680Y-95938235D01*
X160561651Y-95936432D01*
X160567479Y-95933637D01*
X160575019Y-95934575D01*
X160592638Y-95932128D01*
X160616399Y-95933123D01*
X160658729Y-95934898D01*
X160658730Y-95934897D01*
X160658734Y-95934898D01*
X160782590Y-95908571D01*
X160808371Y-95905862D01*
X160843320Y-95905862D01*
X160843321Y-95905862D01*
X161039596Y-95874775D01*
X161228592Y-95813367D01*
X161405654Y-95723149D01*
X161566424Y-95606343D01*
X161706941Y-95465826D01*
X161823747Y-95305056D01*
X161876368Y-95201782D01*
X169297281Y-95201782D01*
X169297281Y-95383083D01*
X170266111Y-95177151D01*
X170247281Y-95247426D01*
X170247281Y-95392244D01*
X170284763Y-95532127D01*
X170357171Y-95657543D01*
X170366592Y-95666964D01*
X169399657Y-95872494D01*
X169407178Y-95895637D01*
X169514366Y-96106006D01*
X169653147Y-96297021D01*
X169820094Y-96463968D01*
X170011109Y-96602749D01*
X170221478Y-96709937D01*
X170446033Y-96782900D01*
X170446032Y-96782900D01*
X170679229Y-96819835D01*
X170860530Y-96819835D01*
X170654598Y-95851004D01*
X170724872Y-95869835D01*
X170869690Y-95869835D01*
X171009573Y-95832353D01*
X171134989Y-95759945D01*
X171144410Y-95750523D01*
X171349939Y-96717457D01*
X171373083Y-96709937D01*
X171583452Y-96602749D01*
X171774467Y-96463968D01*
X171941414Y-96297021D01*
X172080195Y-96106006D01*
X172187383Y-95895637D01*
X172260346Y-95671082D01*
X172297281Y-95437887D01*
X172297281Y-95256584D01*
X171328451Y-95462515D01*
X171347281Y-95392244D01*
X171347281Y-95247426D01*
X171309799Y-95107543D01*
X171237391Y-94982127D01*
X171227968Y-94972704D01*
X172194903Y-94767175D01*
X172194904Y-94767174D01*
X172187387Y-94744042D01*
X172187385Y-94744036D01*
X172080197Y-94533665D01*
X171941414Y-94342648D01*
X171774467Y-94175701D01*
X171583452Y-94036920D01*
X171373083Y-93929732D01*
X171148528Y-93856769D01*
X171148529Y-93856769D01*
X170915333Y-93819835D01*
X170734032Y-93819835D01*
X170939962Y-94788664D01*
X170869690Y-94769835D01*
X170724872Y-94769835D01*
X170584989Y-94807317D01*
X170459573Y-94879725D01*
X170450150Y-94889147D01*
X170244621Y-93922211D01*
X170244619Y-93922211D01*
X170221484Y-93929729D01*
X170011109Y-94036920D01*
X169820094Y-94175701D01*
X169653147Y-94342648D01*
X169514366Y-94533663D01*
X169407178Y-94744032D01*
X169334215Y-94968587D01*
X169297281Y-95201782D01*
X161876368Y-95201782D01*
X161913965Y-95127994D01*
X161975373Y-94938998D01*
X162006460Y-94742723D01*
X162006460Y-94544001D01*
X161989890Y-94439384D01*
X161975373Y-94347725D01*
X161959716Y-94299539D01*
X161917139Y-94168500D01*
X161913792Y-94156011D01*
X161889174Y-94040187D01*
X161815827Y-93892430D01*
X161708039Y-93767555D01*
X161696739Y-93758884D01*
X161678601Y-93744966D01*
X161678588Y-93744957D01*
X161678583Y-93744953D01*
X161654516Y-93729324D01*
X161585955Y-93684800D01*
X161459272Y-93602531D01*
X161405654Y-93563575D01*
X161376087Y-93548509D01*
X161119604Y-93381947D01*
X166550000Y-93381947D01*
X166550000Y-93563248D01*
X167518830Y-93357316D01*
X167500000Y-93427591D01*
X167500000Y-93572409D01*
X167537482Y-93712292D01*
X167609890Y-93837708D01*
X167619311Y-93847129D01*
X166652376Y-94052659D01*
X166659897Y-94075802D01*
X166767085Y-94286171D01*
X166905866Y-94477186D01*
X167072813Y-94644133D01*
X167263828Y-94782914D01*
X167474197Y-94890102D01*
X167698752Y-94963065D01*
X167698751Y-94963065D01*
X167931948Y-95000000D01*
X168113249Y-95000000D01*
X167907317Y-94031169D01*
X167977591Y-94050000D01*
X168122409Y-94050000D01*
X168262292Y-94012518D01*
X168387708Y-93940110D01*
X168397129Y-93930688D01*
X168602658Y-94897622D01*
X168625802Y-94890102D01*
X168836171Y-94782914D01*
X169027186Y-94644133D01*
X169194133Y-94477186D01*
X169332914Y-94286171D01*
X169440102Y-94075802D01*
X169513065Y-93851247D01*
X169550000Y-93618052D01*
X169550000Y-93436749D01*
X168581170Y-93642680D01*
X168600000Y-93572409D01*
X168600000Y-93427591D01*
X168562518Y-93287708D01*
X168490110Y-93162292D01*
X168480687Y-93152869D01*
X169447622Y-92947340D01*
X169447623Y-92947339D01*
X169440106Y-92924207D01*
X169440104Y-92924201D01*
X169332916Y-92713830D01*
X169194133Y-92522813D01*
X169027186Y-92355866D01*
X168836171Y-92217085D01*
X168625802Y-92109897D01*
X168401247Y-92036934D01*
X168401248Y-92036934D01*
X168168052Y-92000000D01*
X167986751Y-92000000D01*
X168192681Y-92968829D01*
X168122409Y-92950000D01*
X167977591Y-92950000D01*
X167837708Y-92987482D01*
X167712292Y-93059890D01*
X167702869Y-93069312D01*
X167497340Y-92102376D01*
X167497338Y-92102376D01*
X167474203Y-92109894D01*
X167263828Y-92217085D01*
X167072813Y-92355866D01*
X166905866Y-92522813D01*
X166767085Y-92713828D01*
X166659897Y-92924197D01*
X166586934Y-93148752D01*
X166550000Y-93381947D01*
X161119604Y-93381947D01*
X159783969Y-92514576D01*
X159751340Y-92496860D01*
X159751338Y-92496859D01*
X159751335Y-92496858D01*
X159593426Y-92449182D01*
X159593413Y-92449180D01*
X159428609Y-92442273D01*
X159428600Y-92442274D01*
X159261881Y-92477711D01*
X159192214Y-92472395D01*
X159148420Y-92444102D01*
X158901056Y-92196738D01*
X158893987Y-92189669D01*
X158893986Y-92189667D01*
X158797198Y-92092879D01*
X158797196Y-92092876D01*
X158774397Y-92061495D01*
X158706983Y-91929186D01*
X158689423Y-91905017D01*
X158595912Y-91776311D01*
X158479420Y-91659819D01*
X158445935Y-91598496D01*
X158450919Y-91528804D01*
X158492791Y-91472871D01*
X158558255Y-91448454D01*
X158586500Y-91449665D01*
X158598836Y-91451619D01*
X158598840Y-91451619D01*
X158835029Y-91451619D01*
X159068300Y-91414672D01*
X159292924Y-91341687D01*
X159503365Y-91234462D01*
X159694442Y-91095636D01*
X159861449Y-90928629D01*
X160000275Y-90737552D01*
X160107500Y-90527111D01*
X160180485Y-90302487D01*
X160186802Y-90262601D01*
X160217432Y-90069216D01*
X160217432Y-89841795D01*
X161098638Y-89841795D01*
X161098638Y-90023096D01*
X162067468Y-89817164D01*
X162048638Y-89887439D01*
X162048638Y-90032257D01*
X162086120Y-90172140D01*
X162158528Y-90297556D01*
X162167949Y-90306977D01*
X161201014Y-90512507D01*
X161208535Y-90535650D01*
X161315723Y-90746019D01*
X161454504Y-90937034D01*
X161621451Y-91103981D01*
X161812466Y-91242762D01*
X162022835Y-91349950D01*
X162247390Y-91422913D01*
X162247389Y-91422913D01*
X162480586Y-91459848D01*
X162661887Y-91459848D01*
X162455955Y-90491017D01*
X162526229Y-90509848D01*
X162671047Y-90509848D01*
X162810930Y-90472366D01*
X162936346Y-90399958D01*
X162945767Y-90390536D01*
X163151296Y-91357470D01*
X163174440Y-91349950D01*
X163384809Y-91242762D01*
X163575824Y-91103981D01*
X163742771Y-90937034D01*
X163881552Y-90746019D01*
X163988740Y-90535650D01*
X164061703Y-90311095D01*
X164098638Y-90077900D01*
X164098638Y-89896597D01*
X163129808Y-90102528D01*
X163148638Y-90032257D01*
X163148638Y-89887439D01*
X163111156Y-89747556D01*
X163038748Y-89622140D01*
X163029325Y-89612717D01*
X163996260Y-89407188D01*
X163996261Y-89407187D01*
X163988744Y-89384055D01*
X163988742Y-89384049D01*
X163881554Y-89173678D01*
X163742771Y-88982661D01*
X163575824Y-88815714D01*
X163384809Y-88676933D01*
X163174440Y-88569745D01*
X162949885Y-88496782D01*
X162949886Y-88496782D01*
X162716690Y-88459848D01*
X162535389Y-88459848D01*
X162741319Y-89428677D01*
X162671047Y-89409848D01*
X162526229Y-89409848D01*
X162386346Y-89447330D01*
X162260930Y-89519738D01*
X162251507Y-89529160D01*
X162045978Y-88562224D01*
X162045976Y-88562224D01*
X162022841Y-88569742D01*
X161812466Y-88676933D01*
X161621451Y-88815714D01*
X161454504Y-88982661D01*
X161315723Y-89173676D01*
X161208535Y-89384045D01*
X161135572Y-89608600D01*
X161098638Y-89841795D01*
X160217432Y-89841795D01*
X160217432Y-89833021D01*
X160180485Y-89599750D01*
X160129517Y-89442889D01*
X160107500Y-89375127D01*
X160107498Y-89375124D01*
X160107498Y-89375122D01*
X160006324Y-89176558D01*
X160000275Y-89164686D01*
X159861449Y-88973609D01*
X159694442Y-88806602D01*
X159598903Y-88737189D01*
X159503363Y-88667774D01*
X159385136Y-88607534D01*
X159374072Y-88597085D01*
X159360229Y-88590763D01*
X159349187Y-88573582D01*
X159334341Y-88559560D01*
X159330099Y-88543880D01*
X159322455Y-88531985D01*
X159317432Y-88497050D01*
X159317432Y-88340008D01*
X159337117Y-88272969D01*
X159353746Y-88252332D01*
X161538347Y-86067730D01*
X163549015Y-86067730D01*
X163549015Y-86303925D01*
X163585961Y-86537196D01*
X163658948Y-86761824D01*
X163741806Y-86924440D01*
X163766172Y-86972261D01*
X163904998Y-87163338D01*
X164072005Y-87330345D01*
X164263082Y-87469171D01*
X164339418Y-87508066D01*
X164473518Y-87576394D01*
X164473520Y-87576394D01*
X164473523Y-87576396D01*
X164565807Y-87606381D01*
X164698146Y-87649381D01*
X164931418Y-87686328D01*
X164931423Y-87686328D01*
X165167612Y-87686328D01*
X165273641Y-87669533D01*
X165400883Y-87649381D01*
X165527081Y-87608375D01*
X165596919Y-87606381D01*
X165653078Y-87638626D01*
X168104809Y-90090357D01*
X168104819Y-90090368D01*
X168109149Y-90094698D01*
X168109150Y-90094699D01*
X168220954Y-90206503D01*
X168300536Y-90252449D01*
X168357885Y-90285560D01*
X168510612Y-90326483D01*
X168510613Y-90326483D01*
X169046804Y-90326483D01*
X169113843Y-90346168D01*
X169157288Y-90394186D01*
X169217529Y-90512416D01*
X169356355Y-90703493D01*
X169523362Y-90870500D01*
X169714439Y-91009326D01*
X169813863Y-91059985D01*
X169924875Y-91116549D01*
X169924877Y-91116549D01*
X169924880Y-91116551D01*
X169977247Y-91133566D01*
X170149503Y-91189536D01*
X170382775Y-91226483D01*
X170382780Y-91226483D01*
X170618969Y-91226483D01*
X170852240Y-91189536D01*
X170854871Y-91188681D01*
X171076864Y-91116551D01*
X171287305Y-91009326D01*
X171478382Y-90870500D01*
X171645389Y-90703493D01*
X171784215Y-90512416D01*
X171891440Y-90301975D01*
X171964425Y-90077351D01*
X171982259Y-89964750D01*
X172001372Y-89844080D01*
X172001372Y-89607885D01*
X171964425Y-89374614D01*
X171899136Y-89173678D01*
X171891440Y-89149991D01*
X171891438Y-89149988D01*
X171891438Y-89149986D01*
X171831773Y-89032888D01*
X171784215Y-88939550D01*
X171645389Y-88748473D01*
X171478382Y-88581466D01*
X171287305Y-88442640D01*
X171076868Y-88335416D01*
X170852240Y-88262429D01*
X170618969Y-88225483D01*
X170618964Y-88225483D01*
X170382780Y-88225483D01*
X170382775Y-88225483D01*
X170149503Y-88262429D01*
X169924875Y-88335416D01*
X169714438Y-88442640D01*
X169653120Y-88487191D01*
X169523362Y-88581466D01*
X169523360Y-88581468D01*
X169523359Y-88581468D01*
X169356357Y-88748470D01*
X169356357Y-88748471D01*
X169356355Y-88748473D01*
X169296734Y-88830533D01*
X169217529Y-88939549D01*
X169157289Y-89057778D01*
X169146839Y-89068842D01*
X169140517Y-89082686D01*
X169123336Y-89093727D01*
X169109314Y-89108574D01*
X169093634Y-89112815D01*
X169081739Y-89120460D01*
X169046804Y-89125483D01*
X168889767Y-89125483D01*
X168822728Y-89105798D01*
X168802086Y-89089164D01*
X166502313Y-86789391D01*
X166468828Y-86728068D01*
X166472062Y-86663394D01*
X166513068Y-86537196D01*
X166541242Y-86359313D01*
X166550015Y-86303925D01*
X166550015Y-86067730D01*
X166513068Y-85834459D01*
X166455348Y-85656818D01*
X166440083Y-85609836D01*
X166440081Y-85609833D01*
X166440081Y-85609831D01*
X166361397Y-85455406D01*
X166332858Y-85399395D01*
X166194032Y-85208318D01*
X166027025Y-85041311D01*
X165835948Y-84902485D01*
X165625511Y-84795261D01*
X165400883Y-84722274D01*
X165167612Y-84685328D01*
X165167607Y-84685328D01*
X164931423Y-84685328D01*
X164931418Y-84685328D01*
X164698146Y-84722274D01*
X164473518Y-84795261D01*
X164263081Y-84902485D01*
X164185867Y-84958585D01*
X164072005Y-85041311D01*
X164072003Y-85041313D01*
X164072002Y-85041313D01*
X163905000Y-85208315D01*
X163905000Y-85208316D01*
X163904998Y-85208318D01*
X163895133Y-85221896D01*
X163766172Y-85399394D01*
X163658948Y-85609831D01*
X163585961Y-85834459D01*
X163549015Y-86067730D01*
X161538347Y-86067730D01*
X161653524Y-85952553D01*
X161714845Y-85919070D01*
X161779520Y-85922304D01*
X161905719Y-85963310D01*
X161993197Y-85977165D01*
X162138990Y-86000257D01*
X162138995Y-86000257D01*
X162375184Y-86000257D01*
X162488271Y-85982345D01*
X162608455Y-85963310D01*
X162608458Y-85963309D01*
X162608459Y-85963309D01*
X162665013Y-85944933D01*
X162665014Y-85944933D01*
X162701334Y-85933131D01*
X162833079Y-85890325D01*
X163043520Y-85783100D01*
X163234597Y-85644274D01*
X163401604Y-85477267D01*
X163540430Y-85286190D01*
X163647655Y-85075749D01*
X163720640Y-84851125D01*
X163729488Y-84795260D01*
X163757587Y-84617854D01*
X163757587Y-84381659D01*
X163720640Y-84148388D01*
X163647653Y-83923760D01*
X163552656Y-83737319D01*
X163540430Y-83713324D01*
X163401604Y-83522247D01*
X163234597Y-83355240D01*
X163043520Y-83216414D01*
X162997597Y-83193015D01*
X162833083Y-83109190D01*
X162608455Y-83036203D01*
X162375184Y-82999257D01*
X162375179Y-82999257D01*
X162138995Y-82999257D01*
X162138990Y-82999257D01*
X161905718Y-83036203D01*
X161681090Y-83109190D01*
X161470653Y-83216414D01*
X161418815Y-83254077D01*
X161279577Y-83355240D01*
X161279575Y-83355242D01*
X161279574Y-83355242D01*
X161112572Y-83522244D01*
X161112572Y-83522245D01*
X161112570Y-83522247D01*
X161052949Y-83604307D01*
X160973744Y-83713323D01*
X160866520Y-83923760D01*
X160793533Y-84148388D01*
X160756587Y-84381659D01*
X160756587Y-84617854D01*
X160793534Y-84851126D01*
X160793534Y-84851129D01*
X160834537Y-84977321D01*
X160836532Y-85047162D01*
X160804287Y-85103320D01*
X158350998Y-87556609D01*
X158350990Y-87556617D01*
X158348218Y-87559390D01*
X158348216Y-87559392D01*
X158236412Y-87671196D01*
X158216618Y-87705481D01*
X158210443Y-87716175D01*
X158210443Y-87716176D01*
X158163920Y-87796756D01*
X158157355Y-87808127D01*
X158116431Y-87960855D01*
X158116431Y-87960857D01*
X158116431Y-88128958D01*
X158116432Y-88128971D01*
X158116432Y-88497050D01*
X158096747Y-88564089D01*
X158048728Y-88607534D01*
X157930500Y-88667774D01*
X157819432Y-88748471D01*
X157739422Y-88806602D01*
X157739420Y-88806604D01*
X157739419Y-88806604D01*
X157572417Y-88973606D01*
X157572417Y-88973607D01*
X157572415Y-88973609D01*
X157546309Y-89009541D01*
X157433589Y-89164685D01*
X157326365Y-89375122D01*
X157253378Y-89599750D01*
X157216432Y-89833021D01*
X157216432Y-90069216D01*
X157253378Y-90302487D01*
X157326365Y-90527115D01*
X157416236Y-90703495D01*
X157433589Y-90737552D01*
X157572415Y-90928629D01*
X157739422Y-91095636D01*
X157768206Y-91116549D01*
X157791628Y-91133566D01*
X157834294Y-91188896D01*
X157840273Y-91258509D01*
X157807667Y-91320304D01*
X157746828Y-91354662D01*
X157718743Y-91357884D01*
X157585736Y-91357884D01*
X157399103Y-91387443D01*
X157219385Y-91445838D01*
X157051022Y-91531624D01*
X156963801Y-91594994D01*
X156898149Y-91642694D01*
X156898147Y-91642696D01*
X156898146Y-91642696D01*
X156764534Y-91776308D01*
X156764534Y-91776309D01*
X156764532Y-91776311D01*
X156716832Y-91841963D01*
X156653462Y-91929184D01*
X156567676Y-92097547D01*
X156509281Y-92277265D01*
X156479722Y-92463897D01*
X156479722Y-92652870D01*
X156509281Y-92839502D01*
X156567676Y-93019220D01*
X156641377Y-93163865D01*
X156653462Y-93187583D01*
X156764532Y-93340457D01*
X156898149Y-93474074D01*
X157051023Y-93585144D01*
X157088627Y-93604304D01*
X157219385Y-93670929D01*
X157219387Y-93670929D01*
X157219390Y-93670931D01*
X157285954Y-93692559D01*
X157399103Y-93729324D01*
X157585736Y-93758884D01*
X157585741Y-93758884D01*
X157774708Y-93758884D01*
X157961340Y-93729324D01*
X158062204Y-93696550D01*
X158132044Y-93694556D01*
X158191877Y-93730636D01*
X158222706Y-93793336D01*
X158219229Y-93850323D01*
X158170774Y-94010808D01*
X158170773Y-94010818D01*
X158163866Y-94175623D01*
X158163867Y-94175630D01*
X158198163Y-94336983D01*
X158227579Y-94396242D01*
X158239755Y-94465043D01*
X158212801Y-94529504D01*
X158155276Y-94569161D01*
X158111319Y-94575267D01*
X158045228Y-94572497D01*
X158045221Y-94572498D01*
X157883865Y-94606795D01*
X157736109Y-94680141D01*
X157611233Y-94787931D01*
X157588647Y-94817365D01*
X157588624Y-94817398D01*
X156852788Y-95950488D01*
X156835073Y-95983114D01*
X156835071Y-95983119D01*
X156804333Y-96084927D01*
X156766112Y-96143415D01*
X156702337Y-96171955D01*
X156685626Y-96173086D01*
X150892029Y-96173086D01*
X150824990Y-96153401D01*
X150779235Y-96100597D01*
X150769291Y-96031439D01*
X150798316Y-95967883D01*
X150811268Y-95954992D01*
X151686161Y-95204070D01*
X152609615Y-94411468D01*
X152609616Y-94411466D01*
X152615718Y-94406229D01*
X152616066Y-94405888D01*
X152627294Y-94396242D01*
X152652056Y-94374971D01*
X152816370Y-94194949D01*
X152957617Y-93996313D01*
X153073706Y-93781999D01*
X153162921Y-93555178D01*
X153223942Y-93319205D01*
X153255868Y-93077569D01*
X153258225Y-92833845D01*
X153230979Y-92591637D01*
X153174533Y-92354528D01*
X153155115Y-92302141D01*
X153155105Y-92302033D01*
X153132177Y-92240258D01*
X153123576Y-92217085D01*
X153104597Y-92165947D01*
X153104589Y-92165933D01*
X153016719Y-91929185D01*
X153007749Y-91905017D01*
X153000000Y-91861870D01*
X153000000Y-91225000D01*
X152996139Y-91225000D01*
X152966698Y-91216355D01*
X152936712Y-91209832D01*
X152931696Y-91206077D01*
X152929100Y-91205315D01*
X152908458Y-91188681D01*
X152827859Y-91108082D01*
X152794374Y-91046759D01*
X152799358Y-90977067D01*
X152841230Y-90921134D01*
X152906694Y-90896717D01*
X152953759Y-90904359D01*
X152954312Y-90902658D01*
X152958941Y-90904162D01*
X152958945Y-90904164D01*
X153060108Y-90937034D01*
X153138658Y-90962557D01*
X153325291Y-90992117D01*
X153325296Y-90992117D01*
X153514263Y-90992117D01*
X153700895Y-90962557D01*
X153880609Y-90904164D01*
X154048976Y-90818377D01*
X154201850Y-90707307D01*
X154335467Y-90573690D01*
X154446537Y-90420816D01*
X154532324Y-90252449D01*
X154590717Y-90072735D01*
X154607820Y-89964750D01*
X154620277Y-89886103D01*
X154620277Y-89697130D01*
X154590717Y-89510498D01*
X154557149Y-89407187D01*
X154532324Y-89330785D01*
X154532322Y-89330782D01*
X154532322Y-89330780D01*
X154456301Y-89181581D01*
X154446537Y-89162418D01*
X154436641Y-89148798D01*
X154413162Y-89082993D01*
X154428987Y-89014939D01*
X154479092Y-88966244D01*
X154547570Y-88952368D01*
X154575279Y-88957982D01*
X154591673Y-88963308D01*
X154824867Y-89000243D01*
X155006168Y-89000243D01*
X154800236Y-88031412D01*
X154870510Y-88050243D01*
X155015328Y-88050243D01*
X155155211Y-88012761D01*
X155280627Y-87940353D01*
X155290048Y-87930931D01*
X155495577Y-88897865D01*
X155518721Y-88890345D01*
X155729090Y-88783157D01*
X155920105Y-88644376D01*
X156087052Y-88477429D01*
X156225833Y-88286414D01*
X156333021Y-88076045D01*
X156405984Y-87851490D01*
X156442919Y-87618295D01*
X156442919Y-87436992D01*
X155474089Y-87642923D01*
X155492919Y-87572652D01*
X155492919Y-87427834D01*
X155455437Y-87287951D01*
X155383029Y-87162535D01*
X155373606Y-87153112D01*
X156340541Y-86947583D01*
X156340542Y-86947582D01*
X156333025Y-86924450D01*
X156333023Y-86924444D01*
X156225835Y-86714073D01*
X156087052Y-86523056D01*
X155920105Y-86356109D01*
X155729090Y-86217328D01*
X155518721Y-86110140D01*
X155294166Y-86037177D01*
X155294167Y-86037177D01*
X155060971Y-86000243D01*
X154879670Y-86000243D01*
X155085600Y-86969072D01*
X155015328Y-86950243D01*
X154870510Y-86950243D01*
X154730627Y-86987725D01*
X154605211Y-87060133D01*
X154595788Y-87069555D01*
X154390259Y-86102619D01*
X154390257Y-86102619D01*
X154367122Y-86110137D01*
X154156747Y-86217328D01*
X153965732Y-86356109D01*
X153798785Y-86523056D01*
X153660004Y-86714071D01*
X153552816Y-86924440D01*
X153479853Y-87148995D01*
X153442919Y-87382190D01*
X153442919Y-87563491D01*
X154411749Y-87357559D01*
X154392919Y-87427834D01*
X154392919Y-87572652D01*
X154430401Y-87712535D01*
X154502809Y-87837951D01*
X154512230Y-87847372D01*
X153545295Y-88052902D01*
X153552816Y-88076045D01*
X153660004Y-88286414D01*
X153753162Y-88414634D01*
X153776642Y-88480441D01*
X153760817Y-88548495D01*
X153710711Y-88597189D01*
X153642233Y-88611065D01*
X153633447Y-88609993D01*
X153514265Y-88591117D01*
X153514258Y-88591117D01*
X153325296Y-88591117D01*
X153325291Y-88591117D01*
X153138658Y-88620676D01*
X152958940Y-88679071D01*
X152790577Y-88764857D01*
X152703356Y-88828227D01*
X152637704Y-88875927D01*
X152637702Y-88875929D01*
X152637701Y-88875929D01*
X152504089Y-89009541D01*
X152504089Y-89009542D01*
X152504087Y-89009544D01*
X152487127Y-89032888D01*
X152393017Y-89162417D01*
X152307230Y-89330783D01*
X152298381Y-89358018D01*
X152258942Y-89415692D01*
X152194583Y-89442889D01*
X152125737Y-89430973D01*
X152074262Y-89383728D01*
X152064200Y-89362844D01*
X151957749Y-89076035D01*
X151950000Y-89032888D01*
X151950000Y-85326362D01*
X151969685Y-85259323D01*
X151986319Y-85238681D01*
X155294171Y-81930829D01*
X156983071Y-81930829D01*
X156983071Y-82112130D01*
X157951901Y-81906198D01*
X157933071Y-81976473D01*
X157933071Y-82121291D01*
X157970553Y-82261174D01*
X158042961Y-82386590D01*
X158052382Y-82396011D01*
X157085447Y-82601541D01*
X157092968Y-82624684D01*
X157200156Y-82835053D01*
X157338937Y-83026068D01*
X157505884Y-83193015D01*
X157696899Y-83331796D01*
X157907268Y-83438984D01*
X158131823Y-83511947D01*
X158131822Y-83511947D01*
X158365019Y-83548882D01*
X158546320Y-83548882D01*
X158340388Y-82580051D01*
X158410662Y-82598882D01*
X158555480Y-82598882D01*
X158695363Y-82561400D01*
X158820779Y-82488992D01*
X158830200Y-82479570D01*
X159035729Y-83446504D01*
X159058873Y-83438984D01*
X159269242Y-83331796D01*
X159460257Y-83193015D01*
X159627204Y-83026068D01*
X159765985Y-82835053D01*
X159873173Y-82624684D01*
X159946136Y-82400129D01*
X159983071Y-82166934D01*
X159983071Y-81985631D01*
X159014241Y-82191562D01*
X159033071Y-82121291D01*
X159033071Y-81976473D01*
X158995589Y-81836590D01*
X158923181Y-81711174D01*
X158913758Y-81701751D01*
X159880693Y-81496222D01*
X159880694Y-81496221D01*
X159873177Y-81473089D01*
X159873175Y-81473083D01*
X159765987Y-81262712D01*
X159627204Y-81071695D01*
X159460257Y-80904748D01*
X159269242Y-80765967D01*
X159058873Y-80658779D01*
X158834318Y-80585816D01*
X158834319Y-80585816D01*
X158601123Y-80548882D01*
X158419822Y-80548882D01*
X158625752Y-81517711D01*
X158555480Y-81498882D01*
X158410662Y-81498882D01*
X158270779Y-81536364D01*
X158145363Y-81608772D01*
X158135940Y-81618194D01*
X157930411Y-80651258D01*
X157930409Y-80651258D01*
X157907274Y-80658776D01*
X157696899Y-80765967D01*
X157505884Y-80904748D01*
X157338937Y-81071695D01*
X157200156Y-81262710D01*
X157092968Y-81473079D01*
X157020005Y-81697634D01*
X156983071Y-81930829D01*
X155294171Y-81930829D01*
X157813681Y-79411319D01*
X157875004Y-79377834D01*
X157901362Y-79375000D01*
X158473638Y-79375000D01*
X158540677Y-79394685D01*
X158561319Y-79411319D01*
X160350000Y-81200000D01*
X160525000Y-81200000D01*
X160563681Y-81161319D01*
X160625004Y-81127834D01*
X160651362Y-81125000D01*
X161556978Y-81125000D01*
X161619929Y-81142168D01*
X163199466Y-82072956D01*
X163224192Y-82092105D01*
X164857087Y-83725000D01*
X166038604Y-83725000D01*
X166086788Y-83734744D01*
X166096228Y-83738726D01*
X166354101Y-83808905D01*
X166619016Y-83844165D01*
X166886267Y-83843879D01*
X167151106Y-83808051D01*
X167408827Y-83737319D01*
X167414651Y-83734847D01*
X167463080Y-83725000D01*
X169675000Y-83725000D01*
X171050147Y-82349853D01*
X172174758Y-82349853D01*
X172174758Y-82531154D01*
X173143588Y-82325222D01*
X173124758Y-82395497D01*
X173124758Y-82540315D01*
X173162240Y-82680198D01*
X173234648Y-82805614D01*
X173244069Y-82815035D01*
X172277134Y-83020565D01*
X172284655Y-83043708D01*
X172391843Y-83254077D01*
X172530624Y-83445092D01*
X172697571Y-83612039D01*
X172888586Y-83750820D01*
X173098955Y-83858008D01*
X173323510Y-83930971D01*
X173323509Y-83930971D01*
X173556706Y-83967906D01*
X173738007Y-83967906D01*
X173532075Y-82999075D01*
X173602349Y-83017906D01*
X173747167Y-83017906D01*
X173887050Y-82980424D01*
X174012466Y-82908016D01*
X174021887Y-82898594D01*
X174227416Y-83865528D01*
X174250560Y-83858008D01*
X174460929Y-83750820D01*
X174651944Y-83612039D01*
X174818891Y-83445092D01*
X174957672Y-83254077D01*
X175064860Y-83043710D01*
X175089160Y-82968924D01*
X175089160Y-82968923D01*
X175137823Y-82819154D01*
X175174758Y-82585958D01*
X175174758Y-82404655D01*
X174205928Y-82610586D01*
X174224758Y-82540315D01*
X174224758Y-82395497D01*
X174187276Y-82255614D01*
X174114868Y-82130198D01*
X174105445Y-82120775D01*
X175072380Y-81915246D01*
X175072381Y-81915245D01*
X175064864Y-81892113D01*
X175064862Y-81892107D01*
X174957674Y-81681736D01*
X174818891Y-81490719D01*
X174651944Y-81323772D01*
X174460929Y-81184991D01*
X174250560Y-81077803D01*
X174026005Y-81004840D01*
X174026006Y-81004840D01*
X173792810Y-80967906D01*
X173611509Y-80967906D01*
X173817439Y-81936735D01*
X173747167Y-81917906D01*
X173602349Y-81917906D01*
X173462466Y-81955388D01*
X173337050Y-82027796D01*
X173327627Y-82037218D01*
X173122098Y-81070282D01*
X173122096Y-81070282D01*
X173098961Y-81077800D01*
X172888586Y-81184991D01*
X172697571Y-81323772D01*
X172530624Y-81490719D01*
X172391843Y-81681734D01*
X172284655Y-81892103D01*
X172211692Y-82116658D01*
X172174758Y-82349853D01*
X171050147Y-82349853D01*
X177448620Y-75951379D01*
X177459452Y-75941748D01*
X178118467Y-75421745D01*
X178183288Y-75395672D01*
X178251917Y-75408783D01*
X178302563Y-75456915D01*
X178319277Y-75519091D01*
X178319277Y-75686103D01*
X178348836Y-75872735D01*
X178407231Y-76052453D01*
X178493017Y-76220816D01*
X178604087Y-76373690D01*
X178737704Y-76507307D01*
X178868163Y-76602091D01*
X178910828Y-76657420D01*
X178919277Y-76702408D01*
X178919277Y-78397002D01*
X178899592Y-78464041D01*
X178868165Y-78497318D01*
X178849442Y-78510921D01*
X178849436Y-78510926D01*
X178692730Y-78667632D01*
X178692730Y-78667633D01*
X178692728Y-78667635D01*
X178636782Y-78744636D01*
X178562460Y-78846932D01*
X178461846Y-79044397D01*
X178393358Y-79255178D01*
X178358690Y-79474068D01*
X178358690Y-79695703D01*
X178380367Y-79832567D01*
X178371412Y-79901861D01*
X178326416Y-79955313D01*
X178259665Y-79975952D01*
X178230960Y-79973004D01*
X178154916Y-79956082D01*
X178011448Y-79965658D01*
X178011447Y-79965658D01*
X177876503Y-80015257D01*
X177876500Y-80015259D01*
X177760992Y-80100874D01*
X177760989Y-80100877D01*
X177723191Y-80147327D01*
X177339040Y-80738865D01*
X178056837Y-81205008D01*
X178011831Y-81230993D01*
X177899189Y-81343635D01*
X177819539Y-81481593D01*
X177781768Y-81622558D01*
X177066721Y-81158201D01*
X176682578Y-81749728D01*
X176682565Y-81749751D01*
X176655510Y-81803162D01*
X176655508Y-81803168D01*
X176624278Y-81943508D01*
X176624278Y-81943509D01*
X176633854Y-82086975D01*
X176633854Y-82086976D01*
X176683453Y-82221920D01*
X176683455Y-82221923D01*
X176769070Y-82337431D01*
X176769073Y-82337434D01*
X176815523Y-82375232D01*
X177407061Y-82759382D01*
X177873204Y-82041586D01*
X177899189Y-82086593D01*
X178011831Y-82199235D01*
X178149789Y-82278885D01*
X178290753Y-82316655D01*
X177826397Y-83031701D01*
X178417924Y-83415845D01*
X178417947Y-83415858D01*
X178471358Y-83442913D01*
X178471364Y-83442915D01*
X178611704Y-83474145D01*
X178611705Y-83474145D01*
X178755171Y-83464569D01*
X178755172Y-83464569D01*
X178890116Y-83414970D01*
X178890119Y-83414968D01*
X179005627Y-83329353D01*
X179005630Y-83329350D01*
X179043426Y-83282902D01*
X179043439Y-83282885D01*
X179427579Y-82691361D01*
X178709783Y-82225218D01*
X178754789Y-82199235D01*
X178867431Y-82086593D01*
X178947081Y-81948635D01*
X178984852Y-81807668D01*
X179699898Y-82272025D01*
X180084041Y-81680499D01*
X180084054Y-81680476D01*
X180111109Y-81627065D01*
X180111111Y-81627059D01*
X180142341Y-81486719D01*
X180142341Y-81486718D01*
X180132765Y-81343252D01*
X180132765Y-81343251D01*
X180083166Y-81208307D01*
X180083164Y-81208304D01*
X180038999Y-81148718D01*
X180014893Y-81083138D01*
X180030069Y-81014937D01*
X180079709Y-80965767D01*
X180100299Y-80956949D01*
X180307174Y-80889731D01*
X180504643Y-80789116D01*
X180683941Y-80658848D01*
X180840652Y-80502137D01*
X180970920Y-80322839D01*
X181071535Y-80125370D01*
X181140021Y-79914593D01*
X181142038Y-79901861D01*
X181174690Y-79695703D01*
X181174690Y-79474068D01*
X181140021Y-79255178D01*
X181071533Y-79044397D01*
X180970919Y-78846932D01*
X180840652Y-78667635D01*
X180683941Y-78510924D01*
X180504643Y-78380656D01*
X180307178Y-78280042D01*
X180257482Y-78263895D01*
X180205957Y-78247153D01*
X180148283Y-78207716D01*
X180121085Y-78143357D01*
X180120277Y-78129223D01*
X180120277Y-76702408D01*
X180139962Y-76635369D01*
X180171389Y-76602092D01*
X180301850Y-76507307D01*
X180435467Y-76373690D01*
X180546537Y-76220816D01*
X180632324Y-76052449D01*
X180690717Y-75872735D01*
X180720277Y-75686103D01*
X180720277Y-75497130D01*
X180690717Y-75310498D01*
X180632322Y-75130780D01*
X180587067Y-75041964D01*
X180546537Y-74962418D01*
X180435467Y-74809544D01*
X180301850Y-74675927D01*
X180148976Y-74564857D01*
X180133210Y-74556824D01*
X179980613Y-74479071D01*
X179800896Y-74420677D01*
X179736139Y-74410420D01*
X179673005Y-74380490D01*
X179636074Y-74321178D01*
X179637072Y-74251316D01*
X179675683Y-74193083D01*
X179678689Y-74190632D01*
X180235018Y-73751654D01*
X180299839Y-73725581D01*
X180311828Y-73725000D01*
X183707021Y-73725000D01*
X183774060Y-73744685D01*
G37*
%TD.AperFunction*%
%TD*%
M02*
