%TF.GenerationSoftware,KiCad,Pcbnew,10.0.1*%
%TF.CreationDate,2026-07-02T20:36:57+08:00*%
%TF.ProjectId,badge,62616467-652e-46b6-9963-61645f706362,rev?*%
%TF.SameCoordinates,Original*%
%TF.FileFunction,Copper,L2,Bot*%
%TF.FilePolarity,Positive*%
%FSLAX46Y46*%
G04 Gerber Fmt 4.6, Leading zero omitted, Abs format (unit mm)*
G04 Created by KiCad (PCBNEW 10.0.1) date 2026-07-02 20:36:57*
%MOMM*%
%LPD*%
G01*
G04 APERTURE LIST*
G04 Aperture macros list*
%AMRotRect*
0 Rectangle, with rotation*
0 The origin of the aperture is its center*
0 $1 length*
0 $2 width*
0 $3 Rotation angle, in degrees counterclockwise*
0 Add horizontal line*
21,1,$1,$2,0,0,$3*%
G04 Aperture macros list end*
%TA.AperFunction,ComponentPad*%
%ADD10RotRect,1.815000X1.815000X144.000000*%
%TD*%
%TA.AperFunction,ComponentPad*%
%ADD11C,1.815000*%
%TD*%
%TA.AperFunction,ComponentPad*%
%ADD12C,1.524000*%
%TD*%
%TA.AperFunction,ComponentPad*%
%ADD13RotRect,1.815000X1.815000X57.000000*%
%TD*%
%TA.AperFunction,ComponentPad*%
%ADD14C,1.400000*%
%TD*%
%TA.AperFunction,ComponentPad*%
%ADD15RotRect,1.815000X1.815000X147.000000*%
%TD*%
%TA.AperFunction,ComponentPad*%
%ADD16RotRect,1.815000X1.815000X327.000000*%
%TD*%
%TA.AperFunction,ComponentPad*%
%ADD17C,2.000000*%
%TD*%
%TA.AperFunction,ViaPad*%
%ADD18C,0.600000*%
%TD*%
%TA.AperFunction,Conductor*%
%ADD19C,0.200000*%
%TD*%
G04 APERTURE END LIST*
D10*
%TO.P,D3,C*%
%TO.N,GND*%
X152025000Y-100800000D03*
D11*
%TO.P,D3,A*%
%TO.N,Net-(D3-PadA)*%
X149970094Y-99307030D03*
%TD*%
D12*
%TO.P,U1,1,P26_A0_D0_1*%
%TO.N,button1*%
X165225000Y-115725000D03*
%TO.P,U1,2,P27_A1_D1_2*%
%TO.N,button2*%
X166608384Y-113594776D03*
%TO.P,U1,3,P28_A2_D2_3*%
%TO.N,button3*%
X167991766Y-111464555D03*
%TO.P,U1,4,P29_A3_D3_4*%
%TO.N,button4*%
X169375150Y-109334328D03*
%TO.P,U1,5,P6_SDA_D4_5*%
%TO.N,button5*%
X170758534Y-107204107D03*
%TO.P,U1,6,P7_SCL_D5_6*%
%TO.N,LED1*%
X172141916Y-105073884D03*
%TO.P,U1,7,P0_D6_TX_7*%
%TO.N,LED2*%
X173525299Y-102943661D03*
%TO.P,U1,8,P1_D7_RX_8*%
%TO.N,LED3*%
X160743960Y-94643362D03*
%TO.P,U1,9,P2_D8_SCK_9*%
%TO.N,LED4*%
X159360576Y-96773586D03*
%TO.P,U1,10,P4_D9_MISO_10*%
%TO.N,LED5*%
X157977194Y-98903807D03*
%TO.P,U1,11,P3_D10_MOSI_11*%
%TO.N,unconnected-(U1-P3_D10_MOSI-Pad11)*%
X156593810Y-101034034D03*
%TO.P,U1,12,3V3_12*%
%TO.N,unconnected-(U1-3V3-Pad12)*%
X155210426Y-103164255D03*
%TO.P,U1,13,GND_13*%
%TO.N,GND*%
X153827044Y-105294478D03*
%TO.P,U1,14,VBUS_14*%
%TO.N,unconnected-(U1-VBUS-Pad14)*%
X152443661Y-107424701D03*
%TD*%
D11*
%TO.P,D5,A*%
%TO.N,Net-(D5-PadA)*%
X179766689Y-79584886D03*
D13*
%TO.P,D5,C*%
%TO.N,GND*%
X178383311Y-81715114D03*
%TD*%
D14*
%TO.P,R1,2*%
%TO.N,LED1*%
X180455222Y-107333383D03*
%TO.P,R1,1*%
%TO.N,Net-(D1-PadA)*%
X176194777Y-104566617D03*
%TD*%
D11*
%TO.P,D4,A*%
%TO.N,Net-(D4-PadA)*%
X146144774Y-105116622D03*
D15*
%TO.P,D4,C*%
%TO.N,GND*%
X148275000Y-106500000D03*
%TD*%
D16*
%TO.P,D2,C*%
%TO.N,GND*%
X167944774Y-119316616D03*
D11*
%TO.P,D2,A*%
%TO.N,Net-(D2-PadA)*%
X170075000Y-120700000D03*
%TD*%
%TO.P,D1,A*%
%TO.N,Net-(D1-PadA)*%
X173900000Y-114350000D03*
D16*
%TO.P,D1,C*%
%TO.N,GND*%
X171769774Y-112966616D03*
%TD*%
D14*
%TO.P,R3,1*%
%TO.N,Net-(D3-PadA)*%
X153419777Y-89791617D03*
%TO.P,R3,2*%
%TO.N,LED3*%
X157680222Y-92558383D03*
%TD*%
%TO.P,R4,2*%
%TO.N,LED4*%
X141864750Y-105353707D03*
%TO.P,R4,1*%
%TO.N,Net-(D4-PadA)*%
X143685256Y-110096293D03*
%TD*%
%TO.P,R2,2*%
%TO.N,LED2*%
X171331962Y-124850000D03*
%TO.P,R2,1*%
%TO.N,Net-(D2-PadA)*%
X166251962Y-124850000D03*
%TD*%
D17*
%TO.P,SW2,2,2_2*%
%TO.N,GND*%
X168050000Y-93500000D03*
X162598638Y-89959848D03*
%TO.P,SW2,1,1_1*%
%TO.N,button2*%
X170500872Y-89725983D03*
X165049515Y-86185828D03*
%TD*%
%TO.P,SW1,2,2_2*%
%TO.N,GND*%
X154942919Y-87500243D03*
X158483071Y-82048882D03*
%TO.P,SW1,1,1_1*%
%TO.N,button1*%
X158716932Y-89951119D03*
X162257087Y-84499757D03*
%TD*%
%TO.P,SW4,2,2_2*%
%TO.N,GND*%
X185157087Y-99374752D03*
X181616932Y-104826115D03*
%TO.P,SW4,1,1_1*%
%TO.N,button4*%
X181383060Y-96923880D03*
X177842914Y-102375240D03*
%TD*%
%TO.P,SW5,2,2_2*%
%TO.N,GND*%
X176248640Y-98859991D03*
X170797281Y-95319835D03*
%TO.P,SW5,1,1_1*%
%TO.N,button5*%
X178699514Y-95085973D03*
X173248156Y-91545817D03*
%TD*%
%TO.P,SW3,2,2_2*%
%TO.N,GND*%
X173674758Y-82467906D03*
X179126116Y-86008066D03*
%TO.P,SW3,1,1_1*%
%TO.N,button3*%
X171223878Y-86241929D03*
X176675242Y-89782081D03*
%TD*%
D14*
%TO.P,R5,2*%
%TO.N,LED5*%
X183780222Y-78358382D03*
%TO.P,R5,1*%
%TO.N,Net-(D5-PadA)*%
X179519777Y-75591617D03*
%TD*%
D18*
%TO.N,Net-(D1-PadA)*%
X176200000Y-108375000D03*
%TO.N,button5*%
X175538235Y-93813235D03*
%TD*%
%TO.N,button3*%
D19*
X167991766Y-111464555D02*
X167991766Y-100445734D01*
%TO.N,button4*%
X169375150Y-106338755D02*
X169375150Y-109334328D01*
%TO.N,button3*%
X167991766Y-100445734D02*
X176675242Y-91762258D01*
X176675242Y-91762258D02*
X176675242Y-89782081D01*
%TO.N,Net-(D3-PadA)*%
X153419777Y-89791617D02*
X153419777Y-95857347D01*
X153419777Y-95857347D02*
X149970094Y-99307030D01*
%TO.N,Net-(D1-PadA)*%
X173900000Y-110675000D02*
X176200000Y-108375000D01*
X173900000Y-114350000D02*
X173900000Y-110675000D01*
%TO.N,button1*%
X165225000Y-115725000D02*
X165225000Y-96459187D01*
X165225000Y-96459187D02*
X158716932Y-89951119D01*
%TO.N,button2*%
X166608384Y-113594776D02*
X166608384Y-96780094D01*
X166608384Y-96780094D02*
X170500872Y-92887606D01*
X170500872Y-92887606D02*
X170500872Y-89725983D01*
%TO.N,button4*%
X177842914Y-102375240D02*
X176428701Y-102375240D01*
X176428701Y-102375240D02*
X174792057Y-104011884D01*
X174792057Y-104011884D02*
X171702021Y-104011884D01*
X171702021Y-104011884D02*
X169375150Y-106338755D01*
%TO.N,LED1*%
X180455222Y-107333383D02*
X174401415Y-107333383D01*
X174401415Y-107333383D02*
X172141916Y-105073884D01*
%TO.N,button5*%
X177426776Y-93813235D02*
X178699514Y-95085973D01*
X175538235Y-93813235D02*
X177426776Y-93813235D01*
%TD*%
%TA.AperFunction,Conductor*%
%TO.N,GND*%
G36*
X183774060Y-73744685D02*
G01*
X183794702Y-73761319D01*
X185588681Y-75555298D01*
X185622166Y-75616621D01*
X185625000Y-75642979D01*
X185625000Y-77413620D01*
X185620499Y-77446724D01*
X185156858Y-79120381D01*
X185125040Y-79174958D01*
X183700000Y-80599999D01*
X183700000Y-82874999D01*
X183709439Y-82897787D01*
X183707698Y-82898508D01*
X183722166Y-82925004D01*
X183725000Y-82951362D01*
X183725000Y-84272274D01*
X183720499Y-84305378D01*
X182666262Y-88110977D01*
X182634444Y-88165554D01*
X181375000Y-89424999D01*
X181375000Y-92755537D01*
X181370518Y-92788574D01*
X181360907Y-92823342D01*
X181360904Y-92823355D01*
X181324498Y-93080157D01*
X181324497Y-93080176D01*
X181321557Y-93339535D01*
X181321557Y-93339541D01*
X181352134Y-93597113D01*
X181352136Y-93597119D01*
X181370799Y-93670930D01*
X181371217Y-93672581D01*
X181375000Y-93702978D01*
X181375000Y-94375000D01*
X181950000Y-94950000D01*
X182262811Y-94950000D01*
X182327226Y-94968044D01*
X183296405Y-95557249D01*
X184076529Y-96031520D01*
X184099794Y-96049794D01*
X185125000Y-97075000D01*
X185758205Y-97075000D01*
X185822620Y-97093044D01*
X186094309Y-97258215D01*
X186818478Y-97698468D01*
X186841741Y-97716741D01*
X187463681Y-98338681D01*
X187497166Y-98400004D01*
X187500000Y-98426362D01*
X187500000Y-102473637D01*
X187480315Y-102540676D01*
X187463681Y-102561318D01*
X181136423Y-108888575D01*
X181075100Y-108922060D01*
X181053603Y-108924799D01*
X180413656Y-108949905D01*
X180408795Y-108950000D01*
X178524998Y-108950000D01*
X178407529Y-109067468D01*
X178354647Y-109098803D01*
X178269437Y-109123716D01*
X178269419Y-109123722D01*
X178043903Y-109220948D01*
X177831963Y-109345029D01*
X177831955Y-109345035D01*
X177636772Y-109494114D01*
X177461297Y-109665936D01*
X177308147Y-109857939D01*
X177308145Y-109857941D01*
X177179639Y-110067216D01*
X177179638Y-110067217D01*
X177077682Y-110290655D01*
X177077677Y-110290670D01*
X177040796Y-110407747D01*
X177040783Y-110407789D01*
X177037733Y-110417459D01*
X177007157Y-110467841D01*
X175800000Y-111674999D01*
X175800000Y-114323463D01*
X175794260Y-114360755D01*
X175206945Y-116223243D01*
X175176366Y-116273632D01*
X172525000Y-118924999D01*
X172525000Y-124068030D01*
X172505315Y-124135069D01*
X172452511Y-124180824D01*
X172383353Y-124190768D01*
X172319797Y-124161743D01*
X172300683Y-124140916D01*
X172260441Y-124085530D01*
X172247652Y-124067927D01*
X172114035Y-123934310D01*
X171961161Y-123823240D01*
X171792798Y-123737454D01*
X171613080Y-123679059D01*
X171426448Y-123649500D01*
X171426443Y-123649500D01*
X171237481Y-123649500D01*
X171237476Y-123649500D01*
X171050843Y-123679059D01*
X170871125Y-123737454D01*
X170702762Y-123823240D01*
X170615541Y-123886610D01*
X170549889Y-123934310D01*
X170549887Y-123934312D01*
X170549886Y-123934312D01*
X170416274Y-124067924D01*
X170416274Y-124067925D01*
X170416272Y-124067927D01*
X170368572Y-124133579D01*
X170305202Y-124220800D01*
X170219416Y-124389163D01*
X170161021Y-124568881D01*
X170131462Y-124755513D01*
X170131462Y-124944486D01*
X170161021Y-125131118D01*
X170219416Y-125310836D01*
X170305202Y-125479199D01*
X170416272Y-125632073D01*
X170549889Y-125765690D01*
X170702763Y-125876760D01*
X170763628Y-125907772D01*
X170871125Y-125962545D01*
X170871127Y-125962545D01*
X170871130Y-125962547D01*
X170967459Y-125993846D01*
X171050843Y-126020940D01*
X171237476Y-126050500D01*
X171237481Y-126050500D01*
X171426448Y-126050500D01*
X171613080Y-126020940D01*
X171792794Y-125962547D01*
X171799595Y-125959082D01*
X171802858Y-125957418D01*
X171937930Y-125888596D01*
X172006598Y-125875700D01*
X172071338Y-125901976D01*
X172111596Y-125959082D01*
X172114588Y-126028888D01*
X172112484Y-126036373D01*
X172017278Y-126338292D01*
X171978343Y-126396308D01*
X171914223Y-126424064D01*
X171899018Y-126425000D01*
X165726362Y-126425000D01*
X165659323Y-126405315D01*
X165638681Y-126388681D01*
X165484015Y-126234015D01*
X165478654Y-126225805D01*
X165473514Y-126222072D01*
X165456155Y-126191346D01*
X165372807Y-125977383D01*
X165366816Y-125907772D01*
X165399411Y-125845971D01*
X165460244Y-125811603D01*
X165530000Y-125815580D01*
X165561234Y-125832056D01*
X165622763Y-125876760D01*
X165683628Y-125907772D01*
X165791125Y-125962545D01*
X165791127Y-125962545D01*
X165791130Y-125962547D01*
X165887459Y-125993846D01*
X165970843Y-126020940D01*
X166157476Y-126050500D01*
X166157481Y-126050500D01*
X166346448Y-126050500D01*
X166533080Y-126020940D01*
X166712794Y-125962547D01*
X166881161Y-125876760D01*
X167034035Y-125765690D01*
X167167652Y-125632073D01*
X167278722Y-125479199D01*
X167364509Y-125310832D01*
X167422902Y-125131118D01*
X167452462Y-124944486D01*
X167452462Y-124755513D01*
X167422902Y-124568881D01*
X167364507Y-124389163D01*
X167287513Y-124238055D01*
X167278722Y-124220801D01*
X167167652Y-124067927D01*
X167034035Y-123934310D01*
X166881161Y-123823240D01*
X166712798Y-123737454D01*
X166533080Y-123679059D01*
X166346448Y-123649500D01*
X166346443Y-123649500D01*
X166157481Y-123649500D01*
X166157476Y-123649500D01*
X165970843Y-123679059D01*
X165791125Y-123737454D01*
X165622762Y-123823240D01*
X165535541Y-123886610D01*
X165469889Y-123934310D01*
X165469887Y-123934312D01*
X165469886Y-123934312D01*
X165336273Y-124067925D01*
X165224318Y-124222017D01*
X165168987Y-124264682D01*
X165099374Y-124270661D01*
X165037579Y-124238055D01*
X165003222Y-124177216D01*
X165000000Y-124149131D01*
X165000000Y-119545010D01*
X166185742Y-119545010D01*
X166185742Y-119545011D01*
X166195318Y-119688477D01*
X166195318Y-119688478D01*
X166244917Y-119823422D01*
X166244919Y-119823425D01*
X166330534Y-119938933D01*
X166330537Y-119938936D01*
X166376987Y-119976734D01*
X166968525Y-120360884D01*
X167434668Y-119643088D01*
X167460653Y-119688095D01*
X167573295Y-119800737D01*
X167711253Y-119880387D01*
X167852218Y-119918158D01*
X167387861Y-120633204D01*
X167979388Y-121017347D01*
X167979411Y-121017360D01*
X168032822Y-121044415D01*
X168032828Y-121044417D01*
X168173168Y-121075647D01*
X168173169Y-121075647D01*
X168316635Y-121066071D01*
X168316636Y-121066071D01*
X168451580Y-121016472D01*
X168451584Y-121016469D01*
X168511165Y-120972308D01*
X168576745Y-120948201D01*
X168644946Y-120963377D01*
X168694117Y-121013016D01*
X168702935Y-121033607D01*
X168770156Y-121240488D01*
X168870770Y-121437953D01*
X169001038Y-121617251D01*
X169157749Y-121773962D01*
X169337047Y-121904230D01*
X169430344Y-121951767D01*
X169534511Y-122004843D01*
X169534513Y-122004843D01*
X169534516Y-122004845D01*
X169647496Y-122041554D01*
X169745292Y-122073331D01*
X169964183Y-122108000D01*
X169964188Y-122108000D01*
X170185817Y-122108000D01*
X170404707Y-122073331D01*
X170615484Y-122004845D01*
X170812953Y-121904230D01*
X170992251Y-121773962D01*
X171148962Y-121617251D01*
X171279230Y-121437953D01*
X171379845Y-121240484D01*
X171448331Y-121029707D01*
X171457422Y-120972308D01*
X171483000Y-120810817D01*
X171483000Y-120589182D01*
X171448331Y-120370292D01*
X171379843Y-120159511D01*
X171279229Y-119962046D01*
X171148962Y-119782749D01*
X170992251Y-119626038D01*
X170812953Y-119495770D01*
X170615488Y-119395156D01*
X170404707Y-119326668D01*
X170185817Y-119292000D01*
X170185812Y-119292000D01*
X169964188Y-119292000D01*
X169964183Y-119292000D01*
X169827319Y-119313677D01*
X169758025Y-119304722D01*
X169704573Y-119259726D01*
X169683934Y-119192975D01*
X169686882Y-119164268D01*
X169703805Y-119088220D01*
X169694229Y-118944754D01*
X169694229Y-118944753D01*
X169644630Y-118809809D01*
X169644628Y-118809806D01*
X169559013Y-118694298D01*
X169559010Y-118694295D01*
X169512560Y-118656497D01*
X168921021Y-118272346D01*
X168454879Y-118990142D01*
X168428895Y-118945137D01*
X168316253Y-118832495D01*
X168178295Y-118752845D01*
X168037328Y-118715073D01*
X168501685Y-118000027D01*
X167910159Y-117615884D01*
X167910136Y-117615871D01*
X167856725Y-117588816D01*
X167856719Y-117588814D01*
X167716379Y-117557584D01*
X167716378Y-117557584D01*
X167572912Y-117567160D01*
X167572911Y-117567160D01*
X167437967Y-117616759D01*
X167437964Y-117616761D01*
X167322456Y-117702376D01*
X167322453Y-117702379D01*
X167284655Y-117748829D01*
X166900504Y-118340367D01*
X167618300Y-118806510D01*
X167573295Y-118832495D01*
X167460653Y-118945137D01*
X167381003Y-119083095D01*
X167343232Y-119224060D01*
X166628185Y-118759703D01*
X166244042Y-119351230D01*
X166244029Y-119351253D01*
X166216974Y-119404664D01*
X166216972Y-119404670D01*
X166185742Y-119545010D01*
X165000000Y-119545010D01*
X165000000Y-117111500D01*
X165019685Y-117044461D01*
X165072489Y-116998706D01*
X165124000Y-116987500D01*
X165324360Y-116987500D01*
X165324361Y-116987500D01*
X165520636Y-116956413D01*
X165709632Y-116895005D01*
X165886694Y-116804787D01*
X166047464Y-116687981D01*
X166187981Y-116547464D01*
X166304787Y-116386694D01*
X166395005Y-116209632D01*
X166456413Y-116020636D01*
X166487500Y-115824361D01*
X166487500Y-115625639D01*
X166456413Y-115429364D01*
X166425709Y-115334866D01*
X166395006Y-115240370D01*
X166395005Y-115240367D01*
X166304785Y-115063303D01*
X166285034Y-115036117D01*
X166261555Y-114970311D01*
X166277381Y-114902257D01*
X166327488Y-114853563D01*
X166395966Y-114839688D01*
X166404723Y-114840756D01*
X166509023Y-114857276D01*
X166509025Y-114857276D01*
X166707744Y-114857276D01*
X166707745Y-114857276D01*
X166904020Y-114826189D01*
X167093016Y-114764781D01*
X167270078Y-114674563D01*
X167430848Y-114557757D01*
X167571365Y-114417240D01*
X167688171Y-114256470D01*
X167778389Y-114079408D01*
X167839797Y-113890412D01*
X167870884Y-113694137D01*
X167870884Y-113495415D01*
X167839797Y-113299140D01*
X167839796Y-113299136D01*
X167818224Y-113232741D01*
X167778390Y-113110146D01*
X167778389Y-113110143D01*
X167722138Y-112999746D01*
X167688171Y-112933082D01*
X167668420Y-112905897D01*
X167644941Y-112840093D01*
X167660766Y-112772039D01*
X167710871Y-112723344D01*
X167779349Y-112709468D01*
X167788122Y-112710538D01*
X167892405Y-112727055D01*
X167892406Y-112727055D01*
X168091126Y-112727055D01*
X168091127Y-112727055D01*
X168287402Y-112695968D01*
X168476398Y-112634560D01*
X168653460Y-112544342D01*
X168814230Y-112427536D01*
X168954747Y-112287019D01*
X169071553Y-112126249D01*
X169161771Y-111949187D01*
X169223179Y-111760191D01*
X169254266Y-111563916D01*
X169254266Y-111365194D01*
X169223179Y-111168919D01*
X169161771Y-110979923D01*
X169161771Y-110979922D01*
X169071552Y-110802860D01*
X169051798Y-110775671D01*
X169028318Y-110709865D01*
X169044143Y-110641811D01*
X169094249Y-110593116D01*
X169162727Y-110579240D01*
X169171502Y-110580310D01*
X169275789Y-110596828D01*
X169275790Y-110596828D01*
X169474510Y-110596828D01*
X169474511Y-110596828D01*
X169670786Y-110565741D01*
X169859782Y-110504333D01*
X170036844Y-110414115D01*
X170197614Y-110297309D01*
X170338131Y-110156792D01*
X170454937Y-109996022D01*
X170545155Y-109818960D01*
X170606563Y-109629964D01*
X170637650Y-109433689D01*
X170637650Y-109234967D01*
X170606563Y-109038692D01*
X170560133Y-108895793D01*
X170545156Y-108849698D01*
X170545155Y-108849695D01*
X170496483Y-108754172D01*
X170454937Y-108672634D01*
X170435186Y-108645449D01*
X170411707Y-108579645D01*
X170427532Y-108511591D01*
X170477637Y-108462896D01*
X170546115Y-108449020D01*
X170554897Y-108450091D01*
X170659173Y-108466607D01*
X170659174Y-108466607D01*
X170857894Y-108466607D01*
X170857895Y-108466607D01*
X171054170Y-108435520D01*
X171243166Y-108374112D01*
X171420228Y-108283894D01*
X171580998Y-108167088D01*
X171721515Y-108026571D01*
X171838321Y-107865801D01*
X171928539Y-107688739D01*
X171989947Y-107499743D01*
X172021034Y-107303468D01*
X172021034Y-107104746D01*
X171989947Y-106908471D01*
X171933103Y-106733521D01*
X171928540Y-106719477D01*
X171928539Y-106719474D01*
X171868801Y-106602234D01*
X171838321Y-106542413D01*
X171835709Y-106538818D01*
X171818570Y-106515227D01*
X171795090Y-106449421D01*
X171810916Y-106381367D01*
X171861021Y-106332672D01*
X171929500Y-106318797D01*
X171938276Y-106319867D01*
X172042555Y-106336384D01*
X172042556Y-106336384D01*
X172241276Y-106336384D01*
X172241277Y-106336384D01*
X172437552Y-106305297D01*
X172437562Y-106305293D01*
X172439807Y-106304755D01*
X172440694Y-106304799D01*
X172442364Y-106304535D01*
X172442419Y-106304885D01*
X172509590Y-106308241D01*
X172556443Y-106337646D01*
X173916554Y-107697757D01*
X173916564Y-107697768D01*
X173920894Y-107702098D01*
X173920895Y-107702099D01*
X174032699Y-107813903D01*
X174119510Y-107864022D01*
X174119512Y-107864024D01*
X174157566Y-107885994D01*
X174169630Y-107892960D01*
X174322358Y-107933883D01*
X174480472Y-107933883D01*
X175330683Y-107933883D01*
X175397722Y-107953568D01*
X175443477Y-108006372D01*
X175453421Y-108075530D01*
X175451080Y-108087559D01*
X175448835Y-108096664D01*
X175430263Y-108141503D01*
X175399500Y-108296158D01*
X175399500Y-108296820D01*
X175398141Y-108302334D01*
X175381918Y-108330195D01*
X175366976Y-108358761D01*
X175365425Y-108360339D01*
X173419481Y-110306282D01*
X173419479Y-110306284D01*
X173406227Y-110329239D01*
X173392180Y-110353570D01*
X173340423Y-110443215D01*
X173299499Y-110595943D01*
X173299499Y-110595945D01*
X173299499Y-110764046D01*
X173299500Y-110764059D01*
X173299500Y-112053400D01*
X173279815Y-112120439D01*
X173227011Y-112166194D01*
X173157853Y-112176138D01*
X173107965Y-112157395D01*
X172746021Y-111922345D01*
X172279878Y-112640142D01*
X172253895Y-112595137D01*
X172141253Y-112482495D01*
X172003295Y-112402845D01*
X171862328Y-112365073D01*
X172326685Y-111650027D01*
X171735159Y-111265884D01*
X171735136Y-111265871D01*
X171681725Y-111238816D01*
X171681719Y-111238814D01*
X171541379Y-111207584D01*
X171541378Y-111207584D01*
X171397912Y-111217160D01*
X171397911Y-111217160D01*
X171262967Y-111266759D01*
X171262964Y-111266761D01*
X171147456Y-111352376D01*
X171147453Y-111352379D01*
X171109655Y-111398829D01*
X170725504Y-111990367D01*
X171443300Y-112456510D01*
X171398295Y-112482495D01*
X171285653Y-112595137D01*
X171206003Y-112733095D01*
X171168232Y-112874060D01*
X170453185Y-112409703D01*
X170069042Y-113001230D01*
X170069029Y-113001253D01*
X170041974Y-113054664D01*
X170041972Y-113054670D01*
X170010742Y-113195010D01*
X170010742Y-113195011D01*
X170020318Y-113338477D01*
X170020318Y-113338478D01*
X170069917Y-113473422D01*
X170069919Y-113473425D01*
X170155534Y-113588933D01*
X170155537Y-113588936D01*
X170201987Y-113626734D01*
X170793525Y-114010884D01*
X171259668Y-113293088D01*
X171285653Y-113338095D01*
X171398295Y-113450737D01*
X171536253Y-113530387D01*
X171677218Y-113568158D01*
X171212861Y-114283204D01*
X171804388Y-114667347D01*
X171804411Y-114667360D01*
X171857822Y-114694415D01*
X171857828Y-114694417D01*
X171998168Y-114725647D01*
X171998169Y-114725647D01*
X172141635Y-114716071D01*
X172141636Y-114716071D01*
X172276580Y-114666472D01*
X172276584Y-114666469D01*
X172336165Y-114622308D01*
X172401745Y-114598201D01*
X172469946Y-114613377D01*
X172519117Y-114663016D01*
X172527935Y-114683607D01*
X172595156Y-114890488D01*
X172669358Y-115036117D01*
X172695770Y-115087953D01*
X172826038Y-115267251D01*
X172982749Y-115423962D01*
X173162047Y-115554230D01*
X173214402Y-115580906D01*
X173359511Y-115654843D01*
X173359513Y-115654843D01*
X173359516Y-115654845D01*
X173472496Y-115691554D01*
X173570292Y-115723331D01*
X173789183Y-115758000D01*
X173789188Y-115758000D01*
X174010817Y-115758000D01*
X174229707Y-115723331D01*
X174440484Y-115654845D01*
X174637953Y-115554230D01*
X174817251Y-115423962D01*
X174973962Y-115267251D01*
X175104230Y-115087953D01*
X175204845Y-114890484D01*
X175273331Y-114679707D01*
X175283733Y-114614032D01*
X175308000Y-114460817D01*
X175308000Y-114239182D01*
X175273331Y-114020292D01*
X175204843Y-113809511D01*
X175104229Y-113612046D01*
X174973962Y-113432749D01*
X174817251Y-113276038D01*
X174637953Y-113145770D01*
X174637952Y-113145769D01*
X174637950Y-113145768D01*
X174568204Y-113110230D01*
X174517409Y-113062256D01*
X174500500Y-112999746D01*
X174500500Y-110975097D01*
X174520185Y-110908058D01*
X174536819Y-110887416D01*
X175357019Y-110067216D01*
X176214662Y-109209572D01*
X176275983Y-109176089D01*
X176278150Y-109175638D01*
X176359359Y-109159484D01*
X176433497Y-109144737D01*
X176579179Y-109084394D01*
X176710289Y-108996789D01*
X176821789Y-108885289D01*
X176909394Y-108754179D01*
X176969737Y-108608497D01*
X177000500Y-108453842D01*
X177000500Y-108296158D01*
X177000500Y-108296155D01*
X177000499Y-108296153D01*
X176969737Y-108141503D01*
X176954755Y-108105335D01*
X176947287Y-108035866D01*
X176978562Y-107973387D01*
X177038651Y-107937735D01*
X177069317Y-107933883D01*
X179344430Y-107933883D01*
X179411469Y-107953568D01*
X179444746Y-107984995D01*
X179539532Y-108115456D01*
X179673149Y-108249073D01*
X179826023Y-108360143D01*
X179853439Y-108374112D01*
X179994385Y-108445928D01*
X179994387Y-108445928D01*
X179994390Y-108445930D01*
X180046606Y-108462896D01*
X180174103Y-108504323D01*
X180360736Y-108533883D01*
X180360741Y-108533883D01*
X180549708Y-108533883D01*
X180736340Y-108504323D01*
X180916054Y-108445930D01*
X181084421Y-108360143D01*
X181237295Y-108249073D01*
X181370912Y-108115456D01*
X181481982Y-107962582D01*
X181567769Y-107794215D01*
X181626162Y-107614501D01*
X181640486Y-107524061D01*
X181655722Y-107427869D01*
X181655722Y-107238896D01*
X181626162Y-107052264D01*
X181579440Y-106908471D01*
X181567769Y-106872551D01*
X181567767Y-106872548D01*
X181567767Y-106872546D01*
X181494318Y-106728395D01*
X181481982Y-106704184D01*
X181370912Y-106551310D01*
X181349109Y-106529507D01*
X181315624Y-106468184D01*
X181320608Y-106398492D01*
X181362480Y-106342559D01*
X181427944Y-106318142D01*
X181456189Y-106319353D01*
X181498881Y-106326115D01*
X181680181Y-106326115D01*
X181474249Y-105357284D01*
X181544523Y-105376115D01*
X181689341Y-105376115D01*
X181829224Y-105338633D01*
X181954640Y-105266225D01*
X181964061Y-105256803D01*
X182169590Y-106223737D01*
X182192734Y-106216217D01*
X182403103Y-106109029D01*
X182594118Y-105970248D01*
X182761065Y-105803301D01*
X182899846Y-105612286D01*
X183007034Y-105401917D01*
X183079997Y-105177362D01*
X183116932Y-104944167D01*
X183116932Y-104762864D01*
X182148102Y-104968795D01*
X182166932Y-104898524D01*
X182166932Y-104753706D01*
X182129450Y-104613823D01*
X182057042Y-104488407D01*
X182047619Y-104478984D01*
X183014554Y-104273455D01*
X183014555Y-104273454D01*
X183007038Y-104250322D01*
X183007036Y-104250316D01*
X182899848Y-104039945D01*
X182761065Y-103848928D01*
X182594118Y-103681981D01*
X182403103Y-103543200D01*
X182192734Y-103436012D01*
X181968179Y-103363049D01*
X181968180Y-103363049D01*
X181734984Y-103326115D01*
X181553683Y-103326115D01*
X181759613Y-104294944D01*
X181689341Y-104276115D01*
X181544523Y-104276115D01*
X181404640Y-104313597D01*
X181279224Y-104386005D01*
X181269801Y-104395427D01*
X181064272Y-103428491D01*
X181064270Y-103428491D01*
X181041135Y-103436009D01*
X180830760Y-103543200D01*
X180639745Y-103681981D01*
X180472798Y-103848928D01*
X180334017Y-104039943D01*
X180226829Y-104250312D01*
X180153866Y-104474867D01*
X180116932Y-104708062D01*
X180116932Y-104889363D01*
X181085762Y-104683431D01*
X181066932Y-104753706D01*
X181066932Y-104898524D01*
X181104414Y-105038407D01*
X181176822Y-105163823D01*
X181186243Y-105173244D01*
X180219308Y-105378774D01*
X180226829Y-105401917D01*
X180334017Y-105612286D01*
X180472798Y-105803301D01*
X180590699Y-105921202D01*
X180624184Y-105982525D01*
X180619200Y-106052217D01*
X180577328Y-106108150D01*
X180511864Y-106132567D01*
X180503018Y-106132883D01*
X180360736Y-106132883D01*
X180174103Y-106162442D01*
X179994385Y-106220837D01*
X179826022Y-106306623D01*
X179775573Y-106343277D01*
X179673149Y-106417693D01*
X179673147Y-106417695D01*
X179673146Y-106417695D01*
X179539534Y-106551307D01*
X179539534Y-106551308D01*
X179539532Y-106551310D01*
X179444748Y-106681769D01*
X179389418Y-106724434D01*
X179344430Y-106732883D01*
X174701512Y-106732883D01*
X174634473Y-106713198D01*
X174613831Y-106696564D01*
X173405678Y-105488411D01*
X173372193Y-105427088D01*
X173372759Y-105374362D01*
X173372567Y-105374332D01*
X173372773Y-105373027D01*
X173372787Y-105371775D01*
X173373325Y-105369530D01*
X173373329Y-105369520D01*
X173404416Y-105173245D01*
X173404416Y-104974523D01*
X173373329Y-104778248D01*
X173373273Y-104778076D01*
X173372178Y-104774704D01*
X173370181Y-104704863D01*
X173406261Y-104645030D01*
X173468961Y-104614200D01*
X173490108Y-104612384D01*
X174712996Y-104612384D01*
X174713000Y-104612385D01*
X174871114Y-104612385D01*
X174871763Y-104612211D01*
X174880497Y-104612202D01*
X174906570Y-104619828D01*
X174933413Y-104623999D01*
X174939609Y-104629492D01*
X174947557Y-104631817D01*
X174965366Y-104652327D01*
X174985695Y-104670349D01*
X174989245Y-104679826D01*
X174993367Y-104684573D01*
X174994843Y-104694768D01*
X175003099Y-104716804D01*
X175023836Y-104847735D01*
X175082231Y-105027453D01*
X175158614Y-105177362D01*
X175168017Y-105195816D01*
X175279087Y-105348690D01*
X175412704Y-105482307D01*
X175565578Y-105593377D01*
X175645124Y-105633907D01*
X175733940Y-105679162D01*
X175733942Y-105679162D01*
X175733945Y-105679164D01*
X175794378Y-105698800D01*
X175913658Y-105737557D01*
X176100291Y-105767117D01*
X176100296Y-105767117D01*
X176289263Y-105767117D01*
X176475895Y-105737557D01*
X176481986Y-105735578D01*
X176655609Y-105679164D01*
X176823976Y-105593377D01*
X176976850Y-105482307D01*
X177110467Y-105348690D01*
X177221537Y-105195816D01*
X177307324Y-105027449D01*
X177365717Y-104847735D01*
X177395277Y-104661098D01*
X177395277Y-104472136D01*
X177395277Y-104472130D01*
X177365717Y-104285498D01*
X177307322Y-104105780D01*
X177269434Y-104031422D01*
X177243651Y-103980820D01*
X177230756Y-103912153D01*
X177257032Y-103847412D01*
X177314139Y-103807155D01*
X177383944Y-103804163D01*
X177392440Y-103806591D01*
X177452016Y-103825949D01*
X177491545Y-103838793D01*
X177724817Y-103875740D01*
X177724822Y-103875740D01*
X177961011Y-103875740D01*
X178194282Y-103838793D01*
X178233802Y-103825952D01*
X178418906Y-103765808D01*
X178629347Y-103658583D01*
X178820424Y-103519757D01*
X178987431Y-103352750D01*
X179126257Y-103161673D01*
X179233482Y-102951232D01*
X179306467Y-102726608D01*
X179331497Y-102568574D01*
X179343414Y-102493337D01*
X179343414Y-102257142D01*
X179306467Y-102023871D01*
X179264503Y-101894720D01*
X179233482Y-101799248D01*
X179233480Y-101799245D01*
X179233480Y-101799243D01*
X179126256Y-101588806D01*
X179075294Y-101518663D01*
X178987431Y-101397730D01*
X178820424Y-101230723D01*
X178629347Y-101091897D01*
X178605570Y-101079782D01*
X178418910Y-100984673D01*
X178194282Y-100911686D01*
X177961011Y-100874740D01*
X177961006Y-100874740D01*
X177724822Y-100874740D01*
X177724817Y-100874740D01*
X177491545Y-100911686D01*
X177266917Y-100984673D01*
X177056480Y-101091897D01*
X176999365Y-101133394D01*
X176865404Y-101230723D01*
X176865402Y-101230725D01*
X176865401Y-101230725D01*
X176698399Y-101397727D01*
X176698399Y-101397728D01*
X176698397Y-101397730D01*
X176678546Y-101425053D01*
X176559571Y-101588806D01*
X176499331Y-101707035D01*
X176451356Y-101757831D01*
X176388846Y-101774740D01*
X176349644Y-101774740D01*
X176196916Y-101815663D01*
X176196915Y-101815663D01*
X176196913Y-101815664D01*
X176196910Y-101815665D01*
X176146797Y-101844599D01*
X176146796Y-101844600D01*
X176125715Y-101856771D01*
X176059986Y-101894719D01*
X176059983Y-101894721D01*
X174999480Y-102955225D01*
X174938157Y-102988710D01*
X174868465Y-102983726D01*
X174812532Y-102941854D01*
X174788115Y-102876390D01*
X174787799Y-102867544D01*
X174787799Y-102844300D01*
X174769158Y-102726608D01*
X174756712Y-102648025D01*
X174726008Y-102553527D01*
X174695305Y-102459031D01*
X174695304Y-102459028D01*
X174605085Y-102281966D01*
X174488280Y-102121197D01*
X174347763Y-101980680D01*
X174186993Y-101863874D01*
X174149164Y-101844599D01*
X174009931Y-101773655D01*
X174009928Y-101773654D01*
X173820936Y-101712248D01*
X173716632Y-101695728D01*
X173624660Y-101681161D01*
X173425938Y-101681161D01*
X173360513Y-101691523D01*
X173229661Y-101712248D01*
X173040669Y-101773654D01*
X173040666Y-101773655D01*
X172863604Y-101863874D01*
X172702832Y-101980682D01*
X172562320Y-102121194D01*
X172445512Y-102281966D01*
X172355293Y-102459028D01*
X172355292Y-102459031D01*
X172293886Y-102648023D01*
X172262799Y-102844300D01*
X172262799Y-103043021D01*
X172293885Y-103239295D01*
X172297060Y-103249065D01*
X172299056Y-103318906D01*
X172262976Y-103378739D01*
X172200275Y-103409568D01*
X172179129Y-103411384D01*
X171788691Y-103411384D01*
X171788675Y-103411383D01*
X171781079Y-103411383D01*
X171622964Y-103411383D01*
X171559118Y-103428491D01*
X171470235Y-103452307D01*
X171470230Y-103452310D01*
X171333311Y-103531359D01*
X171333303Y-103531365D01*
X168894631Y-105970037D01*
X168894630Y-105970039D01*
X168848884Y-106049275D01*
X168844511Y-106056849D01*
X168844509Y-106056852D01*
X168823652Y-106092976D01*
X168773084Y-106141191D01*
X168704477Y-106154412D01*
X168639613Y-106128443D01*
X168599085Y-106071528D01*
X168592266Y-106030974D01*
X168592266Y-100745830D01*
X168611951Y-100678791D01*
X168628580Y-100658154D01*
X170544796Y-98741938D01*
X174748640Y-98741938D01*
X174748640Y-98923239D01*
X175717470Y-98717307D01*
X175698640Y-98787582D01*
X175698640Y-98932400D01*
X175736122Y-99072283D01*
X175808530Y-99197699D01*
X175817951Y-99207120D01*
X174851016Y-99412650D01*
X174858537Y-99435793D01*
X174965725Y-99646162D01*
X175104506Y-99837177D01*
X175271453Y-100004124D01*
X175462468Y-100142905D01*
X175672837Y-100250093D01*
X175897392Y-100323056D01*
X175897391Y-100323056D01*
X176130588Y-100359991D01*
X176311889Y-100359991D01*
X176105957Y-99391160D01*
X176176231Y-99409991D01*
X176321049Y-99409991D01*
X176460932Y-99372509D01*
X176586348Y-99300101D01*
X176595769Y-99290679D01*
X176801298Y-100257613D01*
X176824442Y-100250093D01*
X177034811Y-100142905D01*
X177225826Y-100004124D01*
X177392773Y-99837177D01*
X177531554Y-99646162D01*
X177638742Y-99435793D01*
X177696934Y-99256699D01*
X183657087Y-99256699D01*
X183657087Y-99438000D01*
X184625917Y-99232068D01*
X184607087Y-99302343D01*
X184607087Y-99447161D01*
X184644569Y-99587044D01*
X184716977Y-99712460D01*
X184726398Y-99721881D01*
X183759463Y-99927411D01*
X183766984Y-99950554D01*
X183874172Y-100160923D01*
X184012953Y-100351938D01*
X184179900Y-100518885D01*
X184370915Y-100657666D01*
X184581284Y-100764854D01*
X184805839Y-100837817D01*
X184805838Y-100837817D01*
X185039035Y-100874752D01*
X185220336Y-100874752D01*
X185014404Y-99905921D01*
X185084678Y-99924752D01*
X185229496Y-99924752D01*
X185369379Y-99887270D01*
X185494795Y-99814862D01*
X185504216Y-99805440D01*
X185709745Y-100772374D01*
X185732889Y-100764854D01*
X185943258Y-100657666D01*
X186134273Y-100518885D01*
X186301220Y-100351938D01*
X186440001Y-100160923D01*
X186547189Y-99950554D01*
X186620152Y-99725999D01*
X186657087Y-99492804D01*
X186657087Y-99311501D01*
X185688257Y-99517432D01*
X185707087Y-99447161D01*
X185707087Y-99302343D01*
X185669605Y-99162460D01*
X185597197Y-99037044D01*
X185587774Y-99027621D01*
X186554709Y-98822092D01*
X186554710Y-98822091D01*
X186547193Y-98798959D01*
X186547191Y-98798953D01*
X186440003Y-98588582D01*
X186301220Y-98397565D01*
X186134273Y-98230618D01*
X185943258Y-98091837D01*
X185732889Y-97984649D01*
X185508334Y-97911686D01*
X185508335Y-97911686D01*
X185275139Y-97874752D01*
X185093838Y-97874752D01*
X185299768Y-98843581D01*
X185229496Y-98824752D01*
X185084678Y-98824752D01*
X184944795Y-98862234D01*
X184819379Y-98934642D01*
X184809956Y-98944064D01*
X184604427Y-97977128D01*
X184604425Y-97977128D01*
X184581290Y-97984646D01*
X184370915Y-98091837D01*
X184179900Y-98230618D01*
X184012953Y-98397565D01*
X183874172Y-98588580D01*
X183766984Y-98798949D01*
X183694021Y-99023504D01*
X183657087Y-99256699D01*
X177696934Y-99256699D01*
X177710968Y-99213509D01*
X177710968Y-99213508D01*
X177711705Y-99211236D01*
X177748640Y-98978043D01*
X177748640Y-98796740D01*
X176779810Y-99002671D01*
X176798640Y-98932400D01*
X176798640Y-98787582D01*
X176761158Y-98647699D01*
X176688750Y-98522283D01*
X176679327Y-98512860D01*
X177646262Y-98307331D01*
X177646263Y-98307330D01*
X177638746Y-98284198D01*
X177638744Y-98284192D01*
X177531556Y-98073821D01*
X177392773Y-97882804D01*
X177225826Y-97715857D01*
X177034811Y-97577076D01*
X176824442Y-97469888D01*
X176599887Y-97396925D01*
X176599888Y-97396925D01*
X176366692Y-97359991D01*
X176185391Y-97359991D01*
X176391321Y-98328820D01*
X176321049Y-98309991D01*
X176176231Y-98309991D01*
X176036348Y-98347473D01*
X175910932Y-98419881D01*
X175901509Y-98429303D01*
X175695980Y-97462367D01*
X175695978Y-97462367D01*
X175672843Y-97469885D01*
X175462468Y-97577076D01*
X175271453Y-97715857D01*
X175104506Y-97882804D01*
X174965725Y-98073819D01*
X174858537Y-98284188D01*
X174785574Y-98508743D01*
X174748640Y-98741938D01*
X170544796Y-98741938D01*
X172480952Y-96805782D01*
X179882560Y-96805782D01*
X179882560Y-97041977D01*
X179919506Y-97275248D01*
X179992493Y-97499876D01*
X180072971Y-97657821D01*
X180099717Y-97710313D01*
X180238543Y-97901390D01*
X180405550Y-98068397D01*
X180596627Y-98207223D01*
X180647351Y-98233068D01*
X180807063Y-98314446D01*
X180807065Y-98314446D01*
X180807068Y-98314448D01*
X180908708Y-98347473D01*
X181031691Y-98387433D01*
X181264963Y-98424380D01*
X181264968Y-98424380D01*
X181501157Y-98424380D01*
X181734428Y-98387433D01*
X181959052Y-98314448D01*
X182169493Y-98207223D01*
X182360570Y-98068397D01*
X182527577Y-97901390D01*
X182666403Y-97710313D01*
X182773628Y-97499872D01*
X182846613Y-97275248D01*
X182849311Y-97258215D01*
X182883560Y-97041977D01*
X182883560Y-96805782D01*
X182846613Y-96572511D01*
X182811345Y-96463968D01*
X182773628Y-96347888D01*
X182773626Y-96347885D01*
X182773626Y-96347883D01*
X182711555Y-96226063D01*
X182666403Y-96137447D01*
X182527577Y-95946370D01*
X182360570Y-95779363D01*
X182169493Y-95640537D01*
X182106837Y-95608612D01*
X181959056Y-95533313D01*
X181734428Y-95460326D01*
X181501157Y-95423380D01*
X181501152Y-95423380D01*
X181264968Y-95423380D01*
X181264963Y-95423380D01*
X181031691Y-95460326D01*
X180807063Y-95533313D01*
X180596626Y-95640537D01*
X180567128Y-95661969D01*
X180405550Y-95779363D01*
X180405548Y-95779365D01*
X180405547Y-95779365D01*
X180238545Y-95946367D01*
X180238545Y-95946368D01*
X180238543Y-95946370D01*
X180215078Y-95978667D01*
X180099717Y-96137446D01*
X179992493Y-96347883D01*
X179919506Y-96572511D01*
X179882560Y-96805782D01*
X172480952Y-96805782D01*
X174852148Y-94434585D01*
X174913469Y-94401102D01*
X174983161Y-94406086D01*
X175022869Y-94431605D01*
X175023236Y-94431159D01*
X175027070Y-94434305D01*
X175027508Y-94434587D01*
X175027942Y-94435021D01*
X175027946Y-94435024D01*
X175159049Y-94522625D01*
X175159062Y-94522632D01*
X175304733Y-94582970D01*
X175304738Y-94582972D01*
X175459388Y-94613734D01*
X175459391Y-94613735D01*
X175459393Y-94613735D01*
X175617079Y-94613735D01*
X175617080Y-94613734D01*
X175771732Y-94582972D01*
X175890771Y-94533665D01*
X175917407Y-94522632D01*
X175917407Y-94522631D01*
X175917414Y-94522629D01*
X175977609Y-94482408D01*
X176049110Y-94434633D01*
X176115788Y-94413755D01*
X176118001Y-94413735D01*
X177126679Y-94413735D01*
X177156119Y-94422379D01*
X177186106Y-94428903D01*
X177191121Y-94432657D01*
X177193718Y-94433420D01*
X177214360Y-94450054D01*
X177246714Y-94482408D01*
X177280199Y-94543731D01*
X177276964Y-94608406D01*
X177235961Y-94734601D01*
X177199014Y-94967875D01*
X177199014Y-95204070D01*
X177235960Y-95437341D01*
X177308947Y-95661969D01*
X177395763Y-95832353D01*
X177416171Y-95872406D01*
X177554997Y-96063483D01*
X177722004Y-96230490D01*
X177913081Y-96369316D01*
X177995634Y-96411379D01*
X178123517Y-96476539D01*
X178123519Y-96476539D01*
X178123522Y-96476541D01*
X178243926Y-96515662D01*
X178348145Y-96549526D01*
X178581417Y-96586473D01*
X178581422Y-96586473D01*
X178817611Y-96586473D01*
X179050882Y-96549526D01*
X179275506Y-96476541D01*
X179485947Y-96369316D01*
X179677024Y-96230490D01*
X179844031Y-96063483D01*
X179982857Y-95872406D01*
X180090082Y-95661965D01*
X180163067Y-95437341D01*
X180179713Y-95332244D01*
X180200014Y-95204070D01*
X180200014Y-94967875D01*
X180163067Y-94734604D01*
X180123794Y-94613735D01*
X180090082Y-94509981D01*
X180090080Y-94509978D01*
X180090080Y-94509976D01*
X180006991Y-94346906D01*
X179982857Y-94299540D01*
X179844031Y-94108463D01*
X179677024Y-93941456D01*
X179485947Y-93802630D01*
X179481080Y-93800150D01*
X179275510Y-93695406D01*
X179050882Y-93622419D01*
X178817611Y-93585473D01*
X178817606Y-93585473D01*
X178581422Y-93585473D01*
X178581417Y-93585473D01*
X178348142Y-93622420D01*
X178221947Y-93663423D01*
X178152106Y-93665418D01*
X178095949Y-93633173D01*
X177914366Y-93451590D01*
X177914364Y-93451587D01*
X177795493Y-93332716D01*
X177795485Y-93332710D01*
X177686271Y-93269656D01*
X177686270Y-93269655D01*
X177686270Y-93269656D01*
X177658561Y-93253658D01*
X177505833Y-93212734D01*
X177347719Y-93212734D01*
X177340123Y-93212734D01*
X177340107Y-93212735D01*
X176373363Y-93212735D01*
X176306324Y-93193050D01*
X176260569Y-93140246D01*
X176250625Y-93071088D01*
X176279650Y-93007532D01*
X176285682Y-93001054D01*
X176699228Y-92587508D01*
X177155762Y-92130974D01*
X177234819Y-91994042D01*
X177275743Y-91841315D01*
X177275743Y-91683200D01*
X177275743Y-91675605D01*
X177275742Y-91675587D01*
X177275742Y-91236148D01*
X177295427Y-91169109D01*
X177343447Y-91125663D01*
X177461675Y-91065424D01*
X177652752Y-90926598D01*
X177819759Y-90759591D01*
X177958585Y-90568514D01*
X178065810Y-90358073D01*
X178138795Y-90133449D01*
X178148411Y-90072735D01*
X178175742Y-89900178D01*
X178175742Y-89663983D01*
X178138795Y-89430712D01*
X178065808Y-89206084D01*
X177999544Y-89076035D01*
X177958585Y-88995648D01*
X177819759Y-88804571D01*
X177652752Y-88637564D01*
X177461675Y-88498738D01*
X177419854Y-88477429D01*
X177251238Y-88391514D01*
X177026610Y-88318527D01*
X176793339Y-88281581D01*
X176793334Y-88281581D01*
X176557150Y-88281581D01*
X176557145Y-88281581D01*
X176323873Y-88318527D01*
X176099245Y-88391514D01*
X175888808Y-88498738D01*
X175779792Y-88577943D01*
X175697732Y-88637564D01*
X175697730Y-88637566D01*
X175697729Y-88637566D01*
X175530727Y-88804568D01*
X175530727Y-88804569D01*
X175530725Y-88804571D01*
X175478882Y-88875927D01*
X175391899Y-88995647D01*
X175284675Y-89206084D01*
X175211688Y-89430712D01*
X175174742Y-89663983D01*
X175174742Y-89900178D01*
X175211688Y-90133449D01*
X175284675Y-90358077D01*
X175363362Y-90512507D01*
X175391899Y-90568514D01*
X175530725Y-90759591D01*
X175697732Y-90926598D01*
X175841039Y-91030717D01*
X175888810Y-91065425D01*
X175948100Y-91095634D01*
X176007036Y-91125663D01*
X176018099Y-91136112D01*
X176031945Y-91142435D01*
X176042986Y-91159616D01*
X176057832Y-91173637D01*
X176062073Y-91189316D01*
X176069719Y-91201213D01*
X176074742Y-91236148D01*
X176074742Y-91462160D01*
X176055057Y-91529199D01*
X176038423Y-91549841D01*
X172366936Y-95221327D01*
X172305613Y-95254812D01*
X172305036Y-95254936D01*
X171328451Y-95462516D01*
X171347281Y-95392244D01*
X171347281Y-95247426D01*
X171309799Y-95107543D01*
X171237391Y-94982127D01*
X171227968Y-94972704D01*
X172194903Y-94767175D01*
X172194904Y-94767174D01*
X172187387Y-94744042D01*
X172187385Y-94744036D01*
X172080197Y-94533665D01*
X171941414Y-94342648D01*
X171774467Y-94175701D01*
X171583452Y-94036920D01*
X171373083Y-93929732D01*
X171148528Y-93856769D01*
X171148529Y-93856769D01*
X170915333Y-93819835D01*
X170717239Y-93819835D01*
X170650200Y-93800150D01*
X170604445Y-93747346D01*
X170594501Y-93678188D01*
X170623526Y-93614632D01*
X170629558Y-93608154D01*
X170737712Y-93500000D01*
X170859378Y-93378333D01*
X170859383Y-93378330D01*
X170869586Y-93368126D01*
X170869588Y-93368126D01*
X170981392Y-93256322D01*
X171044306Y-93147351D01*
X171060449Y-93119391D01*
X171101372Y-92966664D01*
X171101372Y-92808549D01*
X171101372Y-91427719D01*
X171747656Y-91427719D01*
X171747656Y-91663914D01*
X171784602Y-91897185D01*
X171857589Y-92121813D01*
X171964813Y-92332250D01*
X172103639Y-92523327D01*
X172270646Y-92690334D01*
X172461723Y-92829160D01*
X172561147Y-92879819D01*
X172672159Y-92936383D01*
X172672161Y-92936383D01*
X172672164Y-92936385D01*
X172728218Y-92954598D01*
X172896787Y-93009370D01*
X173130059Y-93046317D01*
X173130064Y-93046317D01*
X173366253Y-93046317D01*
X173599524Y-93009370D01*
X173625118Y-93001054D01*
X173824148Y-92936385D01*
X174034589Y-92829160D01*
X174225666Y-92690334D01*
X174392673Y-92523327D01*
X174531499Y-92332250D01*
X174638724Y-92121809D01*
X174711709Y-91897185D01*
X174745601Y-91683200D01*
X174748656Y-91663914D01*
X174748656Y-91427719D01*
X174711709Y-91194448D01*
X174651559Y-91009327D01*
X174638724Y-90969825D01*
X174638722Y-90969822D01*
X174638722Y-90969820D01*
X174531605Y-90759593D01*
X174531499Y-90759384D01*
X174392673Y-90568307D01*
X174225666Y-90401300D01*
X174034589Y-90262474D01*
X174014914Y-90252449D01*
X173824152Y-90155250D01*
X173599524Y-90082263D01*
X173366253Y-90045317D01*
X173366248Y-90045317D01*
X173130064Y-90045317D01*
X173130059Y-90045317D01*
X172896787Y-90082263D01*
X172672159Y-90155250D01*
X172461722Y-90262474D01*
X172407349Y-90301979D01*
X172270646Y-90401300D01*
X172270644Y-90401302D01*
X172270643Y-90401302D01*
X172103641Y-90568304D01*
X172103641Y-90568305D01*
X172103639Y-90568307D01*
X172044018Y-90650367D01*
X171964813Y-90759383D01*
X171857589Y-90969820D01*
X171784602Y-91194448D01*
X171747656Y-91427719D01*
X171101372Y-91427719D01*
X171101372Y-91180050D01*
X171121057Y-91113011D01*
X171169077Y-91069565D01*
X171287305Y-91009326D01*
X171478382Y-90870500D01*
X171645389Y-90703493D01*
X171784215Y-90512416D01*
X171891440Y-90301975D01*
X171964425Y-90077351D01*
X171973018Y-90023096D01*
X172001372Y-89844080D01*
X172001372Y-89607885D01*
X171964425Y-89374614D01*
X171899136Y-89173678D01*
X171891440Y-89149991D01*
X171891438Y-89149988D01*
X171891438Y-89149986D01*
X171831773Y-89032888D01*
X171784215Y-88939550D01*
X171645389Y-88748473D01*
X171478382Y-88581466D01*
X171287305Y-88442640D01*
X171076868Y-88335416D01*
X170852240Y-88262429D01*
X170618969Y-88225483D01*
X170618964Y-88225483D01*
X170382780Y-88225483D01*
X170382775Y-88225483D01*
X170149503Y-88262429D01*
X169924875Y-88335416D01*
X169714438Y-88442640D01*
X169639919Y-88496782D01*
X169523362Y-88581466D01*
X169523360Y-88581468D01*
X169523359Y-88581468D01*
X169356357Y-88748470D01*
X169356357Y-88748471D01*
X169356355Y-88748473D01*
X169296734Y-88830533D01*
X169217529Y-88939549D01*
X169110305Y-89149986D01*
X169037318Y-89374614D01*
X169000372Y-89607885D01*
X169000372Y-89844080D01*
X169037318Y-90077351D01*
X169110305Y-90301979D01*
X169207819Y-90493359D01*
X169217529Y-90512416D01*
X169356355Y-90703493D01*
X169523362Y-90870500D01*
X169614938Y-90937034D01*
X169714440Y-91009327D01*
X169789049Y-91047341D01*
X169832666Y-91069565D01*
X169883462Y-91117539D01*
X169900372Y-91180050D01*
X169900372Y-92587508D01*
X169880687Y-92654547D01*
X169864053Y-92675189D01*
X169619835Y-92919406D01*
X169558512Y-92952891D01*
X169488820Y-92947907D01*
X169432887Y-92906035D01*
X169421669Y-92888020D01*
X169332914Y-92713828D01*
X169194133Y-92522813D01*
X169027186Y-92355866D01*
X168836171Y-92217085D01*
X168625802Y-92109897D01*
X168401247Y-92036934D01*
X168401248Y-92036934D01*
X168168052Y-92000000D01*
X167986751Y-92000000D01*
X168192681Y-92968829D01*
X168122409Y-92950000D01*
X167977591Y-92950000D01*
X167837708Y-92987482D01*
X167712292Y-93059890D01*
X167702869Y-93069312D01*
X167497340Y-92102376D01*
X167497339Y-92102376D01*
X167474203Y-92109894D01*
X167263828Y-92217085D01*
X167072813Y-92355866D01*
X166905866Y-92522813D01*
X166767085Y-92713828D01*
X166659897Y-92924197D01*
X166586934Y-93148752D01*
X166550000Y-93381947D01*
X166550000Y-93563248D01*
X167518830Y-93357316D01*
X167500000Y-93427591D01*
X167500000Y-93572409D01*
X167537482Y-93712292D01*
X167609890Y-93837708D01*
X167619311Y-93847129D01*
X166652377Y-94052657D01*
X166652376Y-94052659D01*
X166659897Y-94075802D01*
X166767085Y-94286171D01*
X166905866Y-94477186D01*
X167072813Y-94644133D01*
X167263828Y-94782914D01*
X167438019Y-94871669D01*
X167488815Y-94919644D01*
X167505610Y-94987464D01*
X167483073Y-95053599D01*
X167469405Y-95069835D01*
X166239670Y-96299572D01*
X166127865Y-96411376D01*
X166127864Y-96411378D01*
X166089431Y-96477948D01*
X166089430Y-96477949D01*
X166089428Y-96477951D01*
X166056887Y-96534312D01*
X166006320Y-96582527D01*
X165937712Y-96595749D01*
X165872848Y-96569781D01*
X165832320Y-96512866D01*
X165825501Y-96472311D01*
X165825501Y-96380132D01*
X165825501Y-96380130D01*
X165784577Y-96227402D01*
X165717887Y-96111892D01*
X165705520Y-96090471D01*
X165593716Y-95978667D01*
X165593713Y-95978665D01*
X160169730Y-90554682D01*
X160136245Y-90493359D01*
X160139479Y-90428685D01*
X160180485Y-90302487D01*
X160215365Y-90082263D01*
X160217432Y-90069216D01*
X160217432Y-89841795D01*
X161098638Y-89841795D01*
X161098638Y-90023096D01*
X162067468Y-89817164D01*
X162048638Y-89887439D01*
X162048638Y-90032257D01*
X162086120Y-90172140D01*
X162158528Y-90297556D01*
X162167949Y-90306977D01*
X161201014Y-90512507D01*
X161208535Y-90535650D01*
X161315723Y-90746019D01*
X161454504Y-90937034D01*
X161621451Y-91103981D01*
X161812466Y-91242762D01*
X162022835Y-91349950D01*
X162247390Y-91422913D01*
X162247389Y-91422913D01*
X162480586Y-91459848D01*
X162661887Y-91459848D01*
X162455955Y-90491017D01*
X162526229Y-90509848D01*
X162671047Y-90509848D01*
X162810930Y-90472366D01*
X162936346Y-90399958D01*
X162945767Y-90390536D01*
X163151296Y-91357470D01*
X163174440Y-91349950D01*
X163384809Y-91242762D01*
X163575824Y-91103981D01*
X163742771Y-90937034D01*
X163881552Y-90746019D01*
X163988740Y-90535650D01*
X164061703Y-90311095D01*
X164098638Y-90077900D01*
X164098638Y-89896597D01*
X163129808Y-90102528D01*
X163148638Y-90032257D01*
X163148638Y-89887439D01*
X163111156Y-89747556D01*
X163038748Y-89622140D01*
X163029325Y-89612717D01*
X163996260Y-89407188D01*
X163996261Y-89407187D01*
X163988744Y-89384055D01*
X163988742Y-89384049D01*
X163881554Y-89173678D01*
X163742771Y-88982661D01*
X163575824Y-88815714D01*
X163384809Y-88676933D01*
X163174440Y-88569745D01*
X162949885Y-88496782D01*
X162949886Y-88496782D01*
X162716690Y-88459848D01*
X162535389Y-88459848D01*
X162741319Y-89428677D01*
X162671047Y-89409848D01*
X162526229Y-89409848D01*
X162386346Y-89447330D01*
X162260930Y-89519738D01*
X162251507Y-89529160D01*
X162045978Y-88562224D01*
X162045976Y-88562224D01*
X162022841Y-88569742D01*
X161812466Y-88676933D01*
X161621451Y-88815714D01*
X161454504Y-88982661D01*
X161315723Y-89173676D01*
X161208535Y-89384045D01*
X161135572Y-89608600D01*
X161098638Y-89841795D01*
X160217432Y-89841795D01*
X160217432Y-89833021D01*
X160180485Y-89599750D01*
X160129517Y-89442889D01*
X160107500Y-89375127D01*
X160107498Y-89375124D01*
X160107498Y-89375122D01*
X160021368Y-89206084D01*
X160000275Y-89164686D01*
X159861449Y-88973609D01*
X159694442Y-88806602D01*
X159503365Y-88667776D01*
X159444071Y-88637564D01*
X159292928Y-88560552D01*
X159068300Y-88487565D01*
X158835029Y-88450619D01*
X158835024Y-88450619D01*
X158598840Y-88450619D01*
X158598835Y-88450619D01*
X158365563Y-88487565D01*
X158140935Y-88560552D01*
X157930498Y-88667776D01*
X157821482Y-88746981D01*
X157739422Y-88806602D01*
X157739420Y-88806604D01*
X157739419Y-88806604D01*
X157572417Y-88973606D01*
X157572417Y-88973607D01*
X157572415Y-88973609D01*
X157546309Y-89009541D01*
X157433589Y-89164685D01*
X157326365Y-89375122D01*
X157253378Y-89599750D01*
X157216432Y-89833021D01*
X157216432Y-90069216D01*
X157253378Y-90302487D01*
X157326365Y-90527115D01*
X157416236Y-90703495D01*
X157433589Y-90737552D01*
X157572415Y-90928629D01*
X157739422Y-91095636D01*
X157791627Y-91133565D01*
X157834292Y-91188896D01*
X157840271Y-91258509D01*
X157807665Y-91320304D01*
X157746826Y-91354661D01*
X157718741Y-91357883D01*
X157585736Y-91357883D01*
X157399103Y-91387442D01*
X157219385Y-91445837D01*
X157051022Y-91531623D01*
X156963801Y-91594993D01*
X156898149Y-91642693D01*
X156898147Y-91642695D01*
X156898146Y-91642695D01*
X156764534Y-91776307D01*
X156764534Y-91776308D01*
X156764532Y-91776310D01*
X156717304Y-91841313D01*
X156653462Y-91929183D01*
X156567676Y-92097546D01*
X156509281Y-92277264D01*
X156479722Y-92463896D01*
X156479722Y-92652869D01*
X156509281Y-92839501D01*
X156567676Y-93019219D01*
X156609675Y-93101645D01*
X156653462Y-93187582D01*
X156764532Y-93340456D01*
X156898149Y-93474073D01*
X157051023Y-93585143D01*
X157125805Y-93623246D01*
X157219385Y-93670928D01*
X157219387Y-93670928D01*
X157219390Y-93670930D01*
X157292860Y-93694802D01*
X157399103Y-93729323D01*
X157585736Y-93758883D01*
X157585741Y-93758883D01*
X157774708Y-93758883D01*
X157961340Y-93729323D01*
X158141054Y-93670930D01*
X158309421Y-93585143D01*
X158462295Y-93474073D01*
X158595912Y-93340456D01*
X158706982Y-93187582D01*
X158792769Y-93019215D01*
X158851162Y-92839501D01*
X158859228Y-92788574D01*
X158880722Y-92652869D01*
X158880722Y-92463896D01*
X158851162Y-92277264D01*
X158803629Y-92130974D01*
X158792769Y-92097551D01*
X158792767Y-92097548D01*
X158792767Y-92097546D01*
X158706981Y-91929183D01*
X158683733Y-91897185D01*
X158595912Y-91776310D01*
X158479421Y-91659819D01*
X158445936Y-91598496D01*
X158450920Y-91528804D01*
X158492792Y-91472871D01*
X158558256Y-91448454D01*
X158586503Y-91449665D01*
X158598838Y-91451619D01*
X158598840Y-91451619D01*
X158835029Y-91451619D01*
X158941058Y-91434824D01*
X159068300Y-91414672D01*
X159194498Y-91373666D01*
X159264336Y-91371672D01*
X159320495Y-91403917D01*
X161113046Y-93196468D01*
X161146531Y-93257791D01*
X161141547Y-93327483D01*
X161099675Y-93383416D01*
X161034211Y-93407833D01*
X161005968Y-93406622D01*
X160843321Y-93380862D01*
X160644599Y-93380862D01*
X160637749Y-93381947D01*
X160448322Y-93411949D01*
X160259330Y-93473355D01*
X160259327Y-93473356D01*
X160082265Y-93563575D01*
X159921493Y-93680383D01*
X159780981Y-93820895D01*
X159664173Y-93981667D01*
X159573954Y-94158729D01*
X159573953Y-94158732D01*
X159512547Y-94347724D01*
X159481460Y-94544001D01*
X159481460Y-94742722D01*
X159512547Y-94938999D01*
X159573953Y-95127991D01*
X159573954Y-95127994D01*
X159664174Y-95305059D01*
X159683925Y-95332244D01*
X159707404Y-95398051D01*
X159691577Y-95466105D01*
X159641471Y-95514799D01*
X159572993Y-95528673D01*
X159564208Y-95527601D01*
X159459937Y-95511086D01*
X159261215Y-95511086D01*
X159195790Y-95521448D01*
X159064938Y-95542173D01*
X158875946Y-95603579D01*
X158875943Y-95603580D01*
X158698881Y-95693799D01*
X158538109Y-95810607D01*
X158397597Y-95951119D01*
X158280789Y-96111891D01*
X158190570Y-96288953D01*
X158190569Y-96288956D01*
X158129163Y-96477948D01*
X158098076Y-96674225D01*
X158098076Y-96872946D01*
X158129163Y-97069223D01*
X158190569Y-97258215D01*
X158190570Y-97258218D01*
X158280789Y-97435280D01*
X158300538Y-97462462D01*
X158324018Y-97528269D01*
X158308193Y-97596323D01*
X158258087Y-97645018D01*
X158189609Y-97658893D01*
X158180823Y-97657821D01*
X158076555Y-97641307D01*
X157877833Y-97641307D01*
X157854403Y-97645018D01*
X157681556Y-97672394D01*
X157492564Y-97733800D01*
X157492561Y-97733801D01*
X157315499Y-97824020D01*
X157154727Y-97940828D01*
X157014215Y-98081340D01*
X156897407Y-98242112D01*
X156807188Y-98419174D01*
X156807187Y-98419177D01*
X156745781Y-98608169D01*
X156745781Y-98608171D01*
X156714694Y-98804446D01*
X156714694Y-99003168D01*
X156721390Y-99045443D01*
X156745781Y-99199444D01*
X156807187Y-99388436D01*
X156807188Y-99388439D01*
X156897409Y-99565504D01*
X156917161Y-99592691D01*
X156940641Y-99658497D01*
X156924816Y-99726551D01*
X156874710Y-99775246D01*
X156806232Y-99789121D01*
X156797446Y-99788049D01*
X156693171Y-99771534D01*
X156494449Y-99771534D01*
X156429024Y-99781896D01*
X156298172Y-99802621D01*
X156109180Y-99864027D01*
X156109177Y-99864028D01*
X155932115Y-99954247D01*
X155771343Y-100071055D01*
X155630831Y-100211567D01*
X155514023Y-100372339D01*
X155423804Y-100549401D01*
X155423803Y-100549404D01*
X155362397Y-100738396D01*
X155331310Y-100934673D01*
X155331310Y-101133394D01*
X155362397Y-101329671D01*
X155423803Y-101518663D01*
X155423804Y-101518666D01*
X155506601Y-101681161D01*
X155514023Y-101695728D01*
X155526025Y-101712248D01*
X155533772Y-101722910D01*
X155557252Y-101788717D01*
X155541427Y-101856771D01*
X155491321Y-101905466D01*
X155422843Y-101919341D01*
X155414057Y-101918269D01*
X155309787Y-101901755D01*
X155111065Y-101901755D01*
X155087635Y-101905466D01*
X154914788Y-101932842D01*
X154725796Y-101994248D01*
X154725793Y-101994249D01*
X154548731Y-102084468D01*
X154387959Y-102201276D01*
X154247447Y-102341788D01*
X154130639Y-102502560D01*
X154040420Y-102679622D01*
X154040419Y-102679625D01*
X153979013Y-102868617D01*
X153947926Y-103064894D01*
X153947926Y-103263615D01*
X153979013Y-103459892D01*
X154040419Y-103648884D01*
X154040420Y-103648887D01*
X154088522Y-103743290D01*
X154123418Y-103811778D01*
X154130641Y-103825952D01*
X154150805Y-103853706D01*
X154174285Y-103919512D01*
X154158460Y-103987566D01*
X154108354Y-104036261D01*
X154039876Y-104050136D01*
X154031090Y-104049064D01*
X153926366Y-104032478D01*
X153814383Y-104032478D01*
X153994343Y-104879125D01*
X153885564Y-104849978D01*
X153768524Y-104849978D01*
X153655473Y-104880270D01*
X153554114Y-104938789D01*
X153506067Y-104986835D01*
X153324793Y-104134011D01*
X153165611Y-104215119D01*
X153004904Y-104331881D01*
X153004903Y-104331881D01*
X152864447Y-104472337D01*
X152864447Y-104472338D01*
X152747685Y-104633045D01*
X152657501Y-104810040D01*
X152596119Y-104998954D01*
X152596119Y-104998957D01*
X152565044Y-105195156D01*
X152565044Y-105307138D01*
X153411691Y-105127176D01*
X153382544Y-105235958D01*
X153382544Y-105352998D01*
X153412836Y-105466049D01*
X153471355Y-105567408D01*
X153519399Y-105615452D01*
X152666577Y-105796727D01*
X152747684Y-105955909D01*
X152767707Y-105983468D01*
X152791186Y-106049275D01*
X152775360Y-106117329D01*
X152725254Y-106166023D01*
X152656776Y-106179898D01*
X152647991Y-106178826D01*
X152543022Y-106162201D01*
X152344300Y-106162201D01*
X152278875Y-106172563D01*
X152148023Y-106193288D01*
X151959031Y-106254694D01*
X151959028Y-106254695D01*
X151781966Y-106344914D01*
X151621194Y-106461722D01*
X151480682Y-106602234D01*
X151363874Y-106763006D01*
X151273655Y-106940068D01*
X151273654Y-106940071D01*
X151212248Y-107129063D01*
X151181161Y-107325340D01*
X151181161Y-107524061D01*
X151212248Y-107720338D01*
X151273654Y-107909330D01*
X151273655Y-107909333D01*
X151354393Y-108067788D01*
X151363874Y-108086395D01*
X151480680Y-108247165D01*
X151621197Y-108387682D01*
X151781967Y-108504488D01*
X151839658Y-108533883D01*
X151959028Y-108594706D01*
X151959031Y-108594707D01*
X152053527Y-108625410D01*
X152148025Y-108656114D01*
X152344300Y-108687201D01*
X152344301Y-108687201D01*
X152543021Y-108687201D01*
X152543022Y-108687201D01*
X152739297Y-108656114D01*
X152928293Y-108594706D01*
X153105355Y-108504488D01*
X153266125Y-108387682D01*
X153406642Y-108247165D01*
X153523448Y-108086395D01*
X153613666Y-107909333D01*
X153675074Y-107720337D01*
X153706161Y-107524062D01*
X153706161Y-107325340D01*
X153675074Y-107129065D01*
X153627979Y-106984121D01*
X153613667Y-106940071D01*
X153613666Y-106940068D01*
X153523448Y-106763007D01*
X153503280Y-106735248D01*
X153479801Y-106669441D01*
X153495627Y-106601387D01*
X153545733Y-106552693D01*
X153614211Y-106538818D01*
X153622998Y-106539890D01*
X153727724Y-106556478D01*
X153839705Y-106556478D01*
X153659743Y-105709830D01*
X153768524Y-105738978D01*
X153885564Y-105738978D01*
X153998615Y-105708686D01*
X154099974Y-105650167D01*
X154148019Y-105602121D01*
X154329293Y-106454943D01*
X154329294Y-106454943D01*
X154488476Y-106373836D01*
X154649183Y-106257074D01*
X154649184Y-106257074D01*
X154789640Y-106116618D01*
X154789640Y-106116617D01*
X154906402Y-105955910D01*
X154996586Y-105778915D01*
X155057968Y-105590001D01*
X155057968Y-105589998D01*
X155089044Y-105393799D01*
X155089044Y-105281815D01*
X154242396Y-105461776D01*
X154271544Y-105352998D01*
X154271544Y-105235958D01*
X154241252Y-105122907D01*
X154182733Y-105021548D01*
X154134686Y-104973501D01*
X154987509Y-104792227D01*
X154987509Y-104792226D01*
X154906400Y-104633042D01*
X154886381Y-104605487D01*
X154862901Y-104539681D01*
X154878727Y-104471627D01*
X154928832Y-104422932D01*
X154997311Y-104409057D01*
X155006079Y-104410126D01*
X155111065Y-104426755D01*
X155111066Y-104426755D01*
X155309786Y-104426755D01*
X155309787Y-104426755D01*
X155506062Y-104395668D01*
X155695058Y-104334260D01*
X155872120Y-104244042D01*
X156032890Y-104127236D01*
X156173407Y-103986719D01*
X156290213Y-103825949D01*
X156380431Y-103648887D01*
X156441839Y-103459891D01*
X156472926Y-103263616D01*
X156472926Y-103064894D01*
X156441839Y-102868619D01*
X156380431Y-102679623D01*
X156380431Y-102679622D01*
X156320151Y-102561318D01*
X156290213Y-102502561D01*
X156270462Y-102475376D01*
X156246983Y-102409572D01*
X156262808Y-102341518D01*
X156312913Y-102292823D01*
X156381391Y-102278947D01*
X156390173Y-102280018D01*
X156494449Y-102296534D01*
X156494450Y-102296534D01*
X156693170Y-102296534D01*
X156693171Y-102296534D01*
X156889446Y-102265447D01*
X157078442Y-102204039D01*
X157255504Y-102113821D01*
X157416274Y-101997015D01*
X157556791Y-101856498D01*
X157673597Y-101695728D01*
X157763815Y-101518666D01*
X157825223Y-101329670D01*
X157856310Y-101133395D01*
X157856310Y-100934673D01*
X157825223Y-100738398D01*
X157763815Y-100549402D01*
X157763815Y-100549401D01*
X157678005Y-100380992D01*
X157673597Y-100372340D01*
X157653841Y-100345149D01*
X157630362Y-100279344D01*
X157646187Y-100211290D01*
X157696293Y-100162595D01*
X157764771Y-100148719D01*
X157773546Y-100149789D01*
X157877833Y-100166307D01*
X157877834Y-100166307D01*
X158076554Y-100166307D01*
X158076555Y-100166307D01*
X158272830Y-100135220D01*
X158461826Y-100073812D01*
X158638888Y-99983594D01*
X158799658Y-99866788D01*
X158940175Y-99726271D01*
X159056981Y-99565501D01*
X159147199Y-99388439D01*
X159208607Y-99199443D01*
X159239694Y-99003168D01*
X159239694Y-98804446D01*
X159208607Y-98608171D01*
X159166861Y-98479688D01*
X159147200Y-98419177D01*
X159147199Y-98419174D01*
X159056980Y-98242112D01*
X159037231Y-98214930D01*
X159013751Y-98149124D01*
X159029576Y-98081070D01*
X159079681Y-98032375D01*
X159148159Y-98018499D01*
X159156932Y-98019569D01*
X159261215Y-98036086D01*
X159261216Y-98036086D01*
X159459936Y-98036086D01*
X159459937Y-98036086D01*
X159656212Y-98004999D01*
X159845208Y-97943591D01*
X160022270Y-97853373D01*
X160183040Y-97736567D01*
X160323557Y-97596050D01*
X160440363Y-97435280D01*
X160530581Y-97258218D01*
X160591989Y-97069222D01*
X160623076Y-96872947D01*
X160623076Y-96674225D01*
X160591989Y-96477950D01*
X160530581Y-96288954D01*
X160530581Y-96288953D01*
X160440361Y-96111889D01*
X160420610Y-96084703D01*
X160397131Y-96018897D01*
X160412957Y-95950843D01*
X160463064Y-95902149D01*
X160531542Y-95888274D01*
X160540299Y-95889342D01*
X160644599Y-95905862D01*
X160644601Y-95905862D01*
X160843320Y-95905862D01*
X160843321Y-95905862D01*
X161039596Y-95874775D01*
X161228592Y-95813367D01*
X161405654Y-95723149D01*
X161566424Y-95606343D01*
X161706941Y-95465826D01*
X161823747Y-95305056D01*
X161913965Y-95127994D01*
X161975373Y-94938998D01*
X162006460Y-94742723D01*
X162006460Y-94544001D01*
X161980699Y-94381353D01*
X161989654Y-94312061D01*
X162034650Y-94258609D01*
X162101401Y-94237969D01*
X162168715Y-94256694D01*
X162190853Y-94274275D01*
X164588181Y-96671603D01*
X164621666Y-96732926D01*
X164624500Y-96759284D01*
X164624500Y-114538270D01*
X164604815Y-114605309D01*
X164567133Y-114642191D01*
X164567248Y-114642349D01*
X164566176Y-114643127D01*
X164565285Y-114644000D01*
X164563309Y-114645210D01*
X164402533Y-114762021D01*
X164262021Y-114902533D01*
X164145213Y-115063305D01*
X164054994Y-115240367D01*
X164054993Y-115240370D01*
X163993587Y-115429361D01*
X163985275Y-115481840D01*
X163955345Y-115544974D01*
X163896033Y-115581904D01*
X163826170Y-115580906D01*
X163775121Y-115550121D01*
X159437740Y-111212740D01*
X159408114Y-111180862D01*
X159394395Y-111169395D01*
X157850000Y-109625000D01*
X149025000Y-109625000D01*
X149024999Y-109625000D01*
X147429920Y-111220078D01*
X147368597Y-111253563D01*
X147349485Y-111256185D01*
X144216572Y-111439575D01*
X144148497Y-111423842D01*
X144099735Y-111373802D01*
X144085767Y-111305342D01*
X144111028Y-111240199D01*
X144153029Y-111205302D01*
X144314455Y-111123053D01*
X144467329Y-111011983D01*
X144600946Y-110878366D01*
X144712016Y-110725492D01*
X144797803Y-110557125D01*
X144856196Y-110377411D01*
X144863826Y-110329239D01*
X144885756Y-110190779D01*
X144885756Y-110001806D01*
X144856196Y-109815174D01*
X144797801Y-109635456D01*
X144712015Y-109467093D01*
X144600946Y-109314220D01*
X144467329Y-109180603D01*
X144314455Y-109069533D01*
X144276310Y-109050097D01*
X144146092Y-108983747D01*
X143966374Y-108925352D01*
X143779742Y-108895793D01*
X143779737Y-108895793D01*
X143590775Y-108895793D01*
X143590770Y-108895793D01*
X143404137Y-108925352D01*
X143224419Y-108983747D01*
X143056056Y-109069533D01*
X142968835Y-109132903D01*
X142903183Y-109180603D01*
X142903181Y-109180605D01*
X142903180Y-109180605D01*
X142769568Y-109314217D01*
X142769568Y-109314218D01*
X142769566Y-109314220D01*
X142721866Y-109379872D01*
X142658496Y-109467093D01*
X142572710Y-109635456D01*
X142514315Y-109815174D01*
X142484756Y-110001806D01*
X142484756Y-110190779D01*
X142514315Y-110377411D01*
X142552962Y-110496350D01*
X142554957Y-110566191D01*
X142518877Y-110626024D01*
X142456176Y-110656853D01*
X142386762Y-110648889D01*
X142347350Y-110622350D01*
X138686319Y-106961319D01*
X138652834Y-106899996D01*
X138650000Y-106873638D01*
X138650000Y-106526361D01*
X138669685Y-106459322D01*
X138686314Y-106438685D01*
X139225202Y-105899797D01*
X139232066Y-105893436D01*
X140554065Y-104758762D01*
X140617755Y-104730038D01*
X140686866Y-104740307D01*
X140739454Y-104786310D01*
X140758823Y-104853441D01*
X140752755Y-104891177D01*
X140693809Y-105072588D01*
X140664250Y-105259220D01*
X140664250Y-105448193D01*
X140693809Y-105634825D01*
X140752204Y-105814543D01*
X140806550Y-105921202D01*
X140837990Y-105982906D01*
X140949060Y-106135780D01*
X141082677Y-106269397D01*
X141235551Y-106380467D01*
X141297330Y-106411945D01*
X141403913Y-106466252D01*
X141403915Y-106466252D01*
X141403918Y-106466254D01*
X141476856Y-106489953D01*
X141583631Y-106524647D01*
X141770264Y-106554207D01*
X141770269Y-106554207D01*
X141959236Y-106554207D01*
X142145868Y-106524647D01*
X142145945Y-106524622D01*
X142325582Y-106466254D01*
X142493949Y-106380467D01*
X142646823Y-106269397D01*
X142780440Y-106135780D01*
X142891510Y-105982906D01*
X142977297Y-105814539D01*
X143035690Y-105634825D01*
X143042633Y-105590991D01*
X143065250Y-105448193D01*
X143065250Y-105259220D01*
X143040335Y-105101917D01*
X143035690Y-105072589D01*
X143035689Y-105072585D01*
X143035689Y-105072584D01*
X143024860Y-105039256D01*
X143013990Y-105005804D01*
X144736774Y-105005804D01*
X144736774Y-105227439D01*
X144771442Y-105446329D01*
X144839930Y-105657110D01*
X144920145Y-105814539D01*
X144940544Y-105854575D01*
X145070812Y-106033873D01*
X145227523Y-106190584D01*
X145406821Y-106320852D01*
X145449424Y-106342559D01*
X145604285Y-106421465D01*
X145604287Y-106421465D01*
X145604290Y-106421467D01*
X145690323Y-106449421D01*
X145815066Y-106489953D01*
X146033957Y-106524622D01*
X146033962Y-106524622D01*
X146255591Y-106524622D01*
X146392453Y-106502945D01*
X146461746Y-106511899D01*
X146515198Y-106556896D01*
X146535838Y-106623647D01*
X146532890Y-106652353D01*
X146515968Y-106728394D01*
X146515968Y-106728395D01*
X146525544Y-106871861D01*
X146525544Y-106871862D01*
X146575143Y-107006806D01*
X146575145Y-107006809D01*
X146660760Y-107122317D01*
X146660763Y-107122320D01*
X146707213Y-107160118D01*
X147298751Y-107544268D01*
X147764894Y-106826472D01*
X147790879Y-106871479D01*
X147903521Y-106984121D01*
X148041479Y-107063771D01*
X148182443Y-107101541D01*
X147718087Y-107816587D01*
X148309614Y-108200731D01*
X148309637Y-108200744D01*
X148363048Y-108227799D01*
X148363054Y-108227801D01*
X148503394Y-108259031D01*
X148503395Y-108259031D01*
X148646861Y-108249455D01*
X148646862Y-108249455D01*
X148781806Y-108199856D01*
X148781809Y-108199854D01*
X148897317Y-108114239D01*
X148897320Y-108114236D01*
X148935116Y-108067788D01*
X148935129Y-108067771D01*
X149319269Y-107476247D01*
X149239528Y-107424463D01*
X148601473Y-107010104D01*
X148646479Y-106984121D01*
X148759121Y-106871479D01*
X148838771Y-106733521D01*
X148876542Y-106592554D01*
X149591588Y-107056911D01*
X149975731Y-106465385D01*
X149975744Y-106465362D01*
X150002799Y-106411951D01*
X150002801Y-106411945D01*
X150034031Y-106271605D01*
X150034031Y-106271604D01*
X150024455Y-106128138D01*
X150024455Y-106128137D01*
X149974856Y-105993193D01*
X149974854Y-105993190D01*
X149889239Y-105877682D01*
X149889236Y-105877679D01*
X149842786Y-105839881D01*
X149251247Y-105455730D01*
X148785104Y-106173525D01*
X148759121Y-106128521D01*
X148646479Y-106015879D01*
X148508521Y-105936229D01*
X148367554Y-105898457D01*
X148831910Y-105183411D01*
X148831910Y-105183410D01*
X148240385Y-104799268D01*
X148240362Y-104799255D01*
X148186951Y-104772200D01*
X148186945Y-104772198D01*
X148046605Y-104740968D01*
X148046604Y-104740968D01*
X147903138Y-104750544D01*
X147903137Y-104750544D01*
X147768193Y-104800143D01*
X147768190Y-104800145D01*
X147708605Y-104844310D01*
X147643025Y-104868416D01*
X147574823Y-104853239D01*
X147525653Y-104803600D01*
X147516836Y-104783010D01*
X147508958Y-104758764D01*
X147449619Y-104576138D01*
X147349004Y-104378669D01*
X147218736Y-104199371D01*
X147062025Y-104042660D01*
X146882727Y-103912392D01*
X146882258Y-103912153D01*
X146685262Y-103811778D01*
X146474481Y-103743290D01*
X146255591Y-103708622D01*
X146255586Y-103708622D01*
X146033962Y-103708622D01*
X146033957Y-103708622D01*
X145815066Y-103743290D01*
X145604285Y-103811778D01*
X145406820Y-103912392D01*
X145312635Y-103980822D01*
X145227523Y-104042660D01*
X145227521Y-104042662D01*
X145227520Y-104042662D01*
X145070814Y-104199368D01*
X145070814Y-104199369D01*
X145070812Y-104199371D01*
X145038357Y-104244041D01*
X144940544Y-104378668D01*
X144839930Y-104576133D01*
X144771442Y-104786914D01*
X144736774Y-105005804D01*
X143013990Y-105005804D01*
X142977295Y-104892870D01*
X142923307Y-104786914D01*
X142891510Y-104724508D01*
X142780440Y-104571634D01*
X142646823Y-104438017D01*
X142493949Y-104326947D01*
X142467748Y-104313597D01*
X142334068Y-104245483D01*
X142283272Y-104197508D01*
X142266477Y-104129687D01*
X142289015Y-104063552D01*
X142302676Y-104047323D01*
X147870311Y-98479688D01*
X147877175Y-98473327D01*
X151842557Y-95069835D01*
X152614516Y-94407262D01*
X152678208Y-94378536D01*
X152747319Y-94388805D01*
X152799907Y-94434808D01*
X152819277Y-94501356D01*
X152819277Y-95557249D01*
X152799592Y-95624288D01*
X152782958Y-95644930D01*
X150500249Y-97927638D01*
X150438926Y-97961123D01*
X150374251Y-97957888D01*
X150299803Y-97933699D01*
X150299804Y-97933699D01*
X150080911Y-97899030D01*
X150080906Y-97899030D01*
X149859282Y-97899030D01*
X149859277Y-97899030D01*
X149640386Y-97933698D01*
X149429605Y-98002186D01*
X149232140Y-98102800D01*
X149129844Y-98177122D01*
X149052843Y-98233068D01*
X149052841Y-98233070D01*
X149052840Y-98233070D01*
X148896134Y-98389776D01*
X148896134Y-98389777D01*
X148896132Y-98389779D01*
X148874773Y-98419177D01*
X148765864Y-98569076D01*
X148665250Y-98766541D01*
X148596762Y-98977322D01*
X148562094Y-99196212D01*
X148562094Y-99417847D01*
X148596762Y-99636737D01*
X148665250Y-99847518D01*
X148734584Y-99983593D01*
X148765864Y-100044983D01*
X148896132Y-100224281D01*
X149052843Y-100380992D01*
X149232141Y-100511260D01*
X149306997Y-100549401D01*
X149429605Y-100611873D01*
X149429607Y-100611873D01*
X149429610Y-100611875D01*
X149542590Y-100648584D01*
X149640386Y-100680361D01*
X149859277Y-100715030D01*
X149859282Y-100715030D01*
X150080909Y-100715030D01*
X150103149Y-100711507D01*
X150138252Y-100705947D01*
X150207544Y-100714901D01*
X150260996Y-100759896D01*
X150281637Y-100826647D01*
X150277114Y-100861651D01*
X150256426Y-100936020D01*
X150256425Y-100936030D01*
X150258479Y-101079782D01*
X150258480Y-101079787D01*
X150300951Y-101217153D01*
X150380399Y-101336980D01*
X150424816Y-101377164D01*
X150424821Y-101377168D01*
X150995437Y-101791745D01*
X151498906Y-101098780D01*
X151540879Y-101171479D01*
X151653521Y-101284121D01*
X151791479Y-101363771D01*
X151902749Y-101393585D01*
X151399946Y-102085637D01*
X151970560Y-102500213D01*
X151970580Y-102500226D01*
X152022505Y-102530040D01*
X152161022Y-102568573D01*
X152161030Y-102568574D01*
X152304782Y-102566520D01*
X152304787Y-102566519D01*
X152442153Y-102524048D01*
X152561980Y-102444600D01*
X152602164Y-102400183D01*
X152602168Y-102400178D01*
X153016745Y-101829562D01*
X153016744Y-101829561D01*
X152323779Y-101326093D01*
X152396479Y-101284121D01*
X152509121Y-101171479D01*
X152588771Y-101033521D01*
X152618585Y-100922248D01*
X153310637Y-101425053D01*
X153725213Y-100854439D01*
X153725226Y-100854419D01*
X153755040Y-100802494D01*
X153793573Y-100663977D01*
X153793574Y-100663969D01*
X153791520Y-100520217D01*
X153791519Y-100520212D01*
X153749048Y-100382846D01*
X153669600Y-100263019D01*
X153625183Y-100222835D01*
X153625178Y-100222831D01*
X153054561Y-99808253D01*
X152551092Y-100501217D01*
X152509121Y-100428521D01*
X152396479Y-100315879D01*
X152258521Y-100236229D01*
X152147247Y-100206413D01*
X152650053Y-99514362D01*
X152650052Y-99514361D01*
X152079439Y-99099786D01*
X152079419Y-99099773D01*
X152027494Y-99069959D01*
X151888977Y-99031426D01*
X151888969Y-99031425D01*
X151745217Y-99033479D01*
X151745212Y-99033480D01*
X151607849Y-99075950D01*
X151543502Y-99118614D01*
X151515172Y-99127373D01*
X151487734Y-99138608D01*
X151482162Y-99137579D01*
X151476750Y-99139253D01*
X151448180Y-99131305D01*
X151419025Y-99125923D01*
X151414895Y-99122046D01*
X151409436Y-99120528D01*
X151389696Y-99098393D01*
X151368082Y-99078105D01*
X151365714Y-99071502D01*
X151362932Y-99068382D01*
X151354708Y-99045443D01*
X151353368Y-99040103D01*
X151343425Y-98977323D01*
X151317923Y-98898838D01*
X151316893Y-98894731D01*
X151318120Y-98863885D01*
X151317239Y-98833031D01*
X151319505Y-98829084D01*
X151319671Y-98824917D01*
X151332032Y-98807266D01*
X151349482Y-98776875D01*
X153778283Y-96348075D01*
X153778288Y-96348071D01*
X153788491Y-96337867D01*
X153788493Y-96337867D01*
X153900297Y-96226063D01*
X153979354Y-96089131D01*
X154009311Y-95977328D01*
X154020277Y-95936405D01*
X154020277Y-95778290D01*
X154020277Y-90902408D01*
X154039962Y-90835369D01*
X154071389Y-90802092D01*
X154201850Y-90707307D01*
X154335467Y-90573690D01*
X154446537Y-90420816D01*
X154532324Y-90252449D01*
X154590717Y-90072735D01*
X154598579Y-90023096D01*
X154620277Y-89886103D01*
X154620277Y-89697130D01*
X154590717Y-89510498D01*
X154557149Y-89407187D01*
X154532324Y-89330785D01*
X154532322Y-89330782D01*
X154532322Y-89330780D01*
X154452273Y-89173676D01*
X154446537Y-89162418D01*
X154436641Y-89148798D01*
X154413162Y-89082993D01*
X154428987Y-89014939D01*
X154479092Y-88966244D01*
X154547570Y-88952368D01*
X154575279Y-88957982D01*
X154591673Y-88963308D01*
X154824867Y-89000243D01*
X155006168Y-89000243D01*
X154800236Y-88031412D01*
X154870510Y-88050243D01*
X155015328Y-88050243D01*
X155155211Y-88012761D01*
X155280627Y-87940353D01*
X155290048Y-87930931D01*
X155495577Y-88897865D01*
X155518721Y-88890345D01*
X155729090Y-88783157D01*
X155920105Y-88644376D01*
X156087052Y-88477429D01*
X156225833Y-88286414D01*
X156333021Y-88076045D01*
X156405984Y-87851490D01*
X156442919Y-87618295D01*
X156442919Y-87436992D01*
X155474089Y-87642923D01*
X155492919Y-87572652D01*
X155492919Y-87427834D01*
X155455437Y-87287951D01*
X155383029Y-87162535D01*
X155373606Y-87153112D01*
X156340541Y-86947583D01*
X156340542Y-86947582D01*
X156333025Y-86924450D01*
X156333023Y-86924444D01*
X156225835Y-86714073D01*
X156087052Y-86523056D01*
X155920105Y-86356109D01*
X155729090Y-86217328D01*
X155518721Y-86110140D01*
X155388198Y-86067730D01*
X163549015Y-86067730D01*
X163549015Y-86303925D01*
X163585961Y-86537196D01*
X163658948Y-86761824D01*
X163741806Y-86924440D01*
X163766172Y-86972261D01*
X163904998Y-87163338D01*
X164072005Y-87330345D01*
X164263082Y-87469171D01*
X164339418Y-87508066D01*
X164473518Y-87576394D01*
X164473520Y-87576394D01*
X164473523Y-87576396D01*
X164593927Y-87615517D01*
X164698146Y-87649381D01*
X164931418Y-87686328D01*
X164931423Y-87686328D01*
X165167612Y-87686328D01*
X165400883Y-87649381D01*
X165452846Y-87632497D01*
X165625507Y-87576396D01*
X165835948Y-87469171D01*
X166027025Y-87330345D01*
X166194032Y-87163338D01*
X166332858Y-86972261D01*
X166440083Y-86761820D01*
X166513068Y-86537196D01*
X166515699Y-86520584D01*
X166550015Y-86303925D01*
X166550015Y-86123831D01*
X169723378Y-86123831D01*
X169723378Y-86360026D01*
X169760324Y-86593297D01*
X169833311Y-86817925D01*
X169899376Y-86947583D01*
X169940535Y-87028362D01*
X170079361Y-87219439D01*
X170246368Y-87386446D01*
X170437445Y-87525272D01*
X170512454Y-87563491D01*
X170647881Y-87632495D01*
X170647883Y-87632495D01*
X170647886Y-87632497D01*
X170768290Y-87671618D01*
X170872509Y-87705482D01*
X171105781Y-87742429D01*
X171105786Y-87742429D01*
X171341975Y-87742429D01*
X171575246Y-87705482D01*
X171614271Y-87692802D01*
X171799870Y-87632497D01*
X172010311Y-87525272D01*
X172201388Y-87386446D01*
X172368395Y-87219439D01*
X172507221Y-87028362D01*
X172614446Y-86817921D01*
X172687431Y-86593297D01*
X172693011Y-86558066D01*
X172697909Y-86527143D01*
X172724378Y-86360026D01*
X172724378Y-86123831D01*
X172689645Y-85904539D01*
X172689369Y-85902799D01*
X172687431Y-85890561D01*
X172687253Y-85890013D01*
X177626116Y-85890013D01*
X177626116Y-86071314D01*
X178594946Y-85865382D01*
X178576116Y-85935657D01*
X178576116Y-86080475D01*
X178613598Y-86220358D01*
X178686006Y-86345774D01*
X178695427Y-86355195D01*
X177728492Y-86560725D01*
X177736013Y-86583868D01*
X177843201Y-86794237D01*
X177981982Y-86985252D01*
X178148929Y-87152199D01*
X178339944Y-87290980D01*
X178550313Y-87398168D01*
X178774868Y-87471131D01*
X178774867Y-87471131D01*
X179008064Y-87508066D01*
X179189365Y-87508066D01*
X178983433Y-86539235D01*
X179053707Y-86558066D01*
X179198525Y-86558066D01*
X179338408Y-86520584D01*
X179463824Y-86448176D01*
X179473245Y-86438754D01*
X179678774Y-87405688D01*
X179701918Y-87398168D01*
X179912287Y-87290980D01*
X180103302Y-87152199D01*
X180270249Y-86985252D01*
X180409030Y-86794237D01*
X180516218Y-86583868D01*
X180589181Y-86359313D01*
X180626116Y-86126118D01*
X180626116Y-85944815D01*
X179657286Y-86150746D01*
X179676116Y-86080475D01*
X179676116Y-85935657D01*
X179638634Y-85795774D01*
X179566226Y-85670358D01*
X179556803Y-85660935D01*
X180523738Y-85455406D01*
X180523739Y-85455405D01*
X180516222Y-85432273D01*
X180516220Y-85432267D01*
X180409032Y-85221896D01*
X180270249Y-85030879D01*
X180103302Y-84863932D01*
X179912287Y-84725151D01*
X179701918Y-84617963D01*
X179477363Y-84545000D01*
X179477364Y-84545000D01*
X179244168Y-84508066D01*
X179062867Y-84508066D01*
X179268797Y-85476895D01*
X179198525Y-85458066D01*
X179053707Y-85458066D01*
X178913824Y-85495548D01*
X178788408Y-85567956D01*
X178778985Y-85577378D01*
X178573456Y-84610442D01*
X178573454Y-84610442D01*
X178550319Y-84617960D01*
X178339944Y-84725151D01*
X178148929Y-84863932D01*
X177981982Y-85030879D01*
X177843201Y-85221894D01*
X177736013Y-85432263D01*
X177663050Y-85656818D01*
X177626116Y-85890013D01*
X172687253Y-85890013D01*
X172614446Y-85665937D01*
X172614444Y-85665934D01*
X172614444Y-85665932D01*
X172557880Y-85554920D01*
X172507221Y-85455496D01*
X172368395Y-85264419D01*
X172201388Y-85097412D01*
X172010311Y-84958586D01*
X171799874Y-84851362D01*
X171575246Y-84778375D01*
X171341975Y-84741429D01*
X171341970Y-84741429D01*
X171105786Y-84741429D01*
X171105781Y-84741429D01*
X170872509Y-84778375D01*
X170647881Y-84851362D01*
X170437444Y-84958586D01*
X170328428Y-85037791D01*
X170246368Y-85097412D01*
X170246366Y-85097414D01*
X170246365Y-85097414D01*
X170079363Y-85264416D01*
X170079363Y-85264417D01*
X170079361Y-85264419D01*
X170034357Y-85326362D01*
X169940535Y-85455495D01*
X169833311Y-85665932D01*
X169760324Y-85890560D01*
X169723378Y-86123831D01*
X166550015Y-86123831D01*
X166550015Y-86067730D01*
X166513068Y-85834459D01*
X166455348Y-85656818D01*
X166440083Y-85609836D01*
X166440081Y-85609833D01*
X166440081Y-85609831D01*
X166361397Y-85455406D01*
X166332858Y-85399395D01*
X166194032Y-85208318D01*
X166027025Y-85041311D01*
X165835948Y-84902485D01*
X165625511Y-84795261D01*
X165400883Y-84722274D01*
X165167612Y-84685328D01*
X165167607Y-84685328D01*
X164931423Y-84685328D01*
X164931418Y-84685328D01*
X164698146Y-84722274D01*
X164473518Y-84795261D01*
X164263081Y-84902485D01*
X164185866Y-84958586D01*
X164072005Y-85041311D01*
X164072003Y-85041313D01*
X164072002Y-85041313D01*
X163905000Y-85208315D01*
X163905000Y-85208316D01*
X163904998Y-85208318D01*
X163895133Y-85221896D01*
X163766172Y-85399394D01*
X163658948Y-85609831D01*
X163585961Y-85834459D01*
X163549015Y-86067730D01*
X155388198Y-86067730D01*
X155294166Y-86037177D01*
X155294167Y-86037177D01*
X155060971Y-86000243D01*
X154879670Y-86000243D01*
X155085600Y-86969072D01*
X155015328Y-86950243D01*
X154870510Y-86950243D01*
X154730627Y-86987725D01*
X154605211Y-87060133D01*
X154595788Y-87069555D01*
X154390259Y-86102619D01*
X154390257Y-86102619D01*
X154367122Y-86110137D01*
X154156747Y-86217328D01*
X153965732Y-86356109D01*
X153798785Y-86523056D01*
X153660004Y-86714071D01*
X153552816Y-86924440D01*
X153479853Y-87148995D01*
X153442919Y-87382190D01*
X153442919Y-87563491D01*
X154411749Y-87357559D01*
X154392919Y-87427834D01*
X154392919Y-87572652D01*
X154430401Y-87712535D01*
X154502809Y-87837951D01*
X154512230Y-87847372D01*
X153545295Y-88052902D01*
X153552816Y-88076045D01*
X153660004Y-88286414D01*
X153753162Y-88414634D01*
X153776642Y-88480441D01*
X153760817Y-88548495D01*
X153710711Y-88597189D01*
X153642233Y-88611065D01*
X153633447Y-88609993D01*
X153514265Y-88591117D01*
X153514258Y-88591117D01*
X153325296Y-88591117D01*
X153325291Y-88591117D01*
X153138658Y-88620676D01*
X152958940Y-88679071D01*
X152790577Y-88764857D01*
X152703356Y-88828227D01*
X152637704Y-88875927D01*
X152637702Y-88875929D01*
X152637701Y-88875929D01*
X152504089Y-89009541D01*
X152504089Y-89009542D01*
X152504087Y-89009544D01*
X152487127Y-89032888D01*
X152393017Y-89162417D01*
X152307230Y-89330783D01*
X152298381Y-89358018D01*
X152258942Y-89415692D01*
X152194583Y-89442889D01*
X152125737Y-89430973D01*
X152074262Y-89383728D01*
X152064200Y-89362844D01*
X151957749Y-89076035D01*
X151950000Y-89032888D01*
X151950000Y-85326362D01*
X151969685Y-85259323D01*
X151986319Y-85238681D01*
X152843341Y-84381659D01*
X160756587Y-84381659D01*
X160756587Y-84617854D01*
X160793533Y-84851125D01*
X160866520Y-85075753D01*
X160962650Y-85264417D01*
X160973744Y-85286190D01*
X161112570Y-85477267D01*
X161279577Y-85644274D01*
X161470654Y-85783100D01*
X161570078Y-85833759D01*
X161681090Y-85890323D01*
X161681092Y-85890323D01*
X161681095Y-85890325D01*
X161801499Y-85929446D01*
X161905718Y-85963310D01*
X162138990Y-86000257D01*
X162138995Y-86000257D01*
X162375184Y-86000257D01*
X162488271Y-85982345D01*
X162608455Y-85963310D01*
X162608458Y-85963309D01*
X162608459Y-85963309D01*
X162665013Y-85944933D01*
X162665014Y-85944933D01*
X162701334Y-85933131D01*
X162833079Y-85890325D01*
X163043520Y-85783100D01*
X163234597Y-85644274D01*
X163401604Y-85477267D01*
X163540430Y-85286190D01*
X163647655Y-85075749D01*
X163720640Y-84851125D01*
X163732162Y-84778376D01*
X163757587Y-84617854D01*
X163757587Y-84381659D01*
X163720640Y-84148388D01*
X163647653Y-83923760D01*
X163552656Y-83737319D01*
X163540430Y-83713324D01*
X163401604Y-83522247D01*
X163234597Y-83355240D01*
X163043520Y-83216414D01*
X162997597Y-83193015D01*
X162833083Y-83109190D01*
X162608455Y-83036203D01*
X162375184Y-82999257D01*
X162375179Y-82999257D01*
X162138995Y-82999257D01*
X162138990Y-82999257D01*
X161905718Y-83036203D01*
X161681090Y-83109190D01*
X161470653Y-83216414D01*
X161418815Y-83254077D01*
X161279577Y-83355240D01*
X161279575Y-83355242D01*
X161279574Y-83355242D01*
X161112572Y-83522244D01*
X161112572Y-83522245D01*
X161112570Y-83522247D01*
X161052949Y-83604307D01*
X160973744Y-83713323D01*
X160866520Y-83923760D01*
X160793533Y-84148388D01*
X160756587Y-84381659D01*
X152843341Y-84381659D01*
X155294171Y-81930829D01*
X156983071Y-81930829D01*
X156983071Y-82112130D01*
X157951901Y-81906198D01*
X157933071Y-81976473D01*
X157933071Y-82121291D01*
X157970553Y-82261174D01*
X158042961Y-82386590D01*
X158052382Y-82396011D01*
X157085447Y-82601541D01*
X157092968Y-82624684D01*
X157200156Y-82835053D01*
X157338937Y-83026068D01*
X157505884Y-83193015D01*
X157696899Y-83331796D01*
X157907268Y-83438984D01*
X158131823Y-83511947D01*
X158131822Y-83511947D01*
X158365019Y-83548882D01*
X158546320Y-83548882D01*
X158340388Y-82580051D01*
X158410662Y-82598882D01*
X158555480Y-82598882D01*
X158695363Y-82561400D01*
X158820779Y-82488992D01*
X158830200Y-82479570D01*
X159035729Y-83446504D01*
X159058873Y-83438984D01*
X159269242Y-83331796D01*
X159460257Y-83193015D01*
X159627204Y-83026068D01*
X159765985Y-82835053D01*
X159873173Y-82624684D01*
X159946136Y-82400129D01*
X159983071Y-82166934D01*
X159983071Y-81985631D01*
X159014241Y-82191562D01*
X159033071Y-82121291D01*
X159033071Y-81976473D01*
X158995589Y-81836590D01*
X158923181Y-81711174D01*
X158913758Y-81701751D01*
X159880693Y-81496222D01*
X159880694Y-81496221D01*
X159873177Y-81473089D01*
X159873175Y-81473083D01*
X159765987Y-81262712D01*
X159627204Y-81071695D01*
X159460257Y-80904748D01*
X159269242Y-80765967D01*
X159058873Y-80658779D01*
X158834318Y-80585816D01*
X158834319Y-80585816D01*
X158601123Y-80548882D01*
X158419822Y-80548882D01*
X158625752Y-81517711D01*
X158555480Y-81498882D01*
X158410662Y-81498882D01*
X158270779Y-81536364D01*
X158145363Y-81608772D01*
X158135940Y-81618194D01*
X157930411Y-80651258D01*
X157930409Y-80651258D01*
X157907274Y-80658776D01*
X157696899Y-80765967D01*
X157505884Y-80904748D01*
X157338937Y-81071695D01*
X157200156Y-81262710D01*
X157092968Y-81473079D01*
X157020005Y-81697634D01*
X156983071Y-81930829D01*
X155294171Y-81930829D01*
X157813681Y-79411319D01*
X157875004Y-79377834D01*
X157901362Y-79375000D01*
X158473638Y-79375000D01*
X158540677Y-79394685D01*
X158561319Y-79411319D01*
X160350000Y-81200000D01*
X160525000Y-81200000D01*
X160563681Y-81161319D01*
X160625004Y-81127834D01*
X160651362Y-81125000D01*
X161556978Y-81125000D01*
X161619929Y-81142168D01*
X163199466Y-82072956D01*
X163224192Y-82092105D01*
X164857087Y-83725000D01*
X166038604Y-83725000D01*
X166086788Y-83734744D01*
X166096228Y-83738726D01*
X166354101Y-83808905D01*
X166619016Y-83844165D01*
X166886267Y-83843879D01*
X167151106Y-83808051D01*
X167408827Y-83737319D01*
X167414651Y-83734847D01*
X167463080Y-83725000D01*
X169675000Y-83725000D01*
X171050147Y-82349853D01*
X172174758Y-82349853D01*
X172174758Y-82531154D01*
X173143588Y-82325222D01*
X173124758Y-82395497D01*
X173124758Y-82540315D01*
X173162240Y-82680198D01*
X173234648Y-82805614D01*
X173244069Y-82815035D01*
X172277134Y-83020565D01*
X172284655Y-83043708D01*
X172391843Y-83254077D01*
X172530624Y-83445092D01*
X172697571Y-83612039D01*
X172888586Y-83750820D01*
X173098955Y-83858008D01*
X173323510Y-83930971D01*
X173323509Y-83930971D01*
X173556706Y-83967906D01*
X173738007Y-83967906D01*
X173532075Y-82999075D01*
X173602349Y-83017906D01*
X173747167Y-83017906D01*
X173887050Y-82980424D01*
X174012466Y-82908016D01*
X174021887Y-82898594D01*
X174227416Y-83865528D01*
X174250560Y-83858008D01*
X174460929Y-83750820D01*
X174651944Y-83612039D01*
X174818891Y-83445092D01*
X174957672Y-83254077D01*
X175064860Y-83043710D01*
X175089160Y-82968924D01*
X175089160Y-82968923D01*
X175137823Y-82819154D01*
X175174758Y-82585958D01*
X175174758Y-82404655D01*
X174205928Y-82610586D01*
X174224758Y-82540315D01*
X174224758Y-82395497D01*
X174187276Y-82255614D01*
X174114868Y-82130198D01*
X174105445Y-82120775D01*
X174939418Y-81943508D01*
X176624279Y-81943508D01*
X176624279Y-81943509D01*
X176633855Y-82086975D01*
X176633855Y-82086976D01*
X176683454Y-82221920D01*
X176683456Y-82221923D01*
X176769071Y-82337431D01*
X176769074Y-82337434D01*
X176815524Y-82375232D01*
X177407062Y-82759382D01*
X177873205Y-82041586D01*
X177899190Y-82086593D01*
X178011832Y-82199235D01*
X178149790Y-82278885D01*
X178290754Y-82316655D01*
X177826398Y-83031701D01*
X178417925Y-83415845D01*
X178417948Y-83415858D01*
X178471359Y-83442913D01*
X178471365Y-83442915D01*
X178611705Y-83474145D01*
X178611706Y-83474145D01*
X178755172Y-83464569D01*
X178755173Y-83464569D01*
X178890117Y-83414970D01*
X178890120Y-83414968D01*
X179005628Y-83329353D01*
X179005631Y-83329350D01*
X179043427Y-83282902D01*
X179043440Y-83282885D01*
X179427580Y-82691361D01*
X178709784Y-82225218D01*
X178754790Y-82199235D01*
X178867432Y-82086593D01*
X178947082Y-81948635D01*
X178984853Y-81807668D01*
X179699899Y-82272025D01*
X180084042Y-81680499D01*
X180084055Y-81680476D01*
X180111110Y-81627065D01*
X180111112Y-81627059D01*
X180142342Y-81486719D01*
X180142342Y-81486718D01*
X180132766Y-81343252D01*
X180132766Y-81343251D01*
X180083167Y-81208307D01*
X180083165Y-81208304D01*
X180038999Y-81148717D01*
X180014893Y-81083137D01*
X180030069Y-81014936D01*
X180079709Y-80965766D01*
X180100295Y-80956950D01*
X180307173Y-80889731D01*
X180504642Y-80789116D01*
X180683940Y-80658848D01*
X180840651Y-80502137D01*
X180970919Y-80322839D01*
X181071534Y-80125370D01*
X181140020Y-79914593D01*
X181142037Y-79901861D01*
X181174689Y-79695703D01*
X181174689Y-79474068D01*
X181140020Y-79255178D01*
X181071532Y-79044397D01*
X180970918Y-78846932D01*
X180840651Y-78667635D01*
X180683940Y-78510924D01*
X180594291Y-78445790D01*
X180504640Y-78380654D01*
X180482775Y-78369514D01*
X180482774Y-78369514D01*
X180307177Y-78280042D01*
X180257482Y-78263895D01*
X182579722Y-78263895D01*
X182579722Y-78452868D01*
X182609281Y-78639500D01*
X182667676Y-78819218D01*
X182681798Y-78846933D01*
X182753462Y-78987581D01*
X182864532Y-79140455D01*
X182998149Y-79274072D01*
X183151023Y-79385142D01*
X183230569Y-79425672D01*
X183319385Y-79470927D01*
X183319387Y-79470927D01*
X183319390Y-79470929D01*
X183415719Y-79502228D01*
X183499103Y-79529322D01*
X183685736Y-79558882D01*
X183685741Y-79558882D01*
X183874708Y-79558882D01*
X184061340Y-79529322D01*
X184241054Y-79470929D01*
X184409421Y-79385142D01*
X184562295Y-79274072D01*
X184695912Y-79140455D01*
X184806982Y-78987581D01*
X184892769Y-78819214D01*
X184951162Y-78639500D01*
X184971526Y-78510926D01*
X184980722Y-78452868D01*
X184980722Y-78263895D01*
X184951162Y-78077263D01*
X184892767Y-77897545D01*
X184806981Y-77729182D01*
X184695912Y-77576309D01*
X184562295Y-77442692D01*
X184409421Y-77331622D01*
X184241058Y-77245836D01*
X184061340Y-77187441D01*
X183874708Y-77157882D01*
X183874703Y-77157882D01*
X183685741Y-77157882D01*
X183685736Y-77157882D01*
X183499103Y-77187441D01*
X183319385Y-77245836D01*
X183151022Y-77331622D01*
X183063801Y-77394992D01*
X182998149Y-77442692D01*
X182998147Y-77442694D01*
X182998146Y-77442694D01*
X182864534Y-77576306D01*
X182864534Y-77576307D01*
X182864532Y-77576309D01*
X182816832Y-77641961D01*
X182753462Y-77729182D01*
X182667676Y-77897545D01*
X182609281Y-78077263D01*
X182579722Y-78263895D01*
X180257482Y-78263895D01*
X180096396Y-78211554D01*
X179877506Y-78176886D01*
X179877501Y-78176886D01*
X179655877Y-78176886D01*
X179655872Y-78176886D01*
X179436981Y-78211554D01*
X179226200Y-78280042D01*
X179028735Y-78380656D01*
X178929352Y-78452863D01*
X178849438Y-78510924D01*
X178849436Y-78510926D01*
X178849435Y-78510926D01*
X178692729Y-78667632D01*
X178692729Y-78667633D01*
X178692727Y-78667635D01*
X178636781Y-78744636D01*
X178562459Y-78846932D01*
X178461845Y-79044397D01*
X178393357Y-79255178D01*
X178358689Y-79474068D01*
X178358689Y-79695703D01*
X178380366Y-79832567D01*
X178371411Y-79901861D01*
X178326415Y-79955313D01*
X178259664Y-79975952D01*
X178230958Y-79973004D01*
X178154916Y-79956082D01*
X178154915Y-79956082D01*
X178011449Y-79965658D01*
X178011448Y-79965658D01*
X177876504Y-80015257D01*
X177876501Y-80015259D01*
X177760993Y-80100874D01*
X177760990Y-80100877D01*
X177723192Y-80147327D01*
X177339041Y-80738865D01*
X178056838Y-81205008D01*
X178011832Y-81230993D01*
X177899190Y-81343635D01*
X177819540Y-81481593D01*
X177781769Y-81622558D01*
X177066722Y-81158201D01*
X176682579Y-81749728D01*
X176682566Y-81749751D01*
X176655511Y-81803162D01*
X176655509Y-81803168D01*
X176624279Y-81943508D01*
X174939418Y-81943508D01*
X175072380Y-81915246D01*
X175072381Y-81915245D01*
X175064864Y-81892113D01*
X175064862Y-81892107D01*
X174957674Y-81681736D01*
X174818891Y-81490719D01*
X174651944Y-81323772D01*
X174460929Y-81184991D01*
X174250560Y-81077803D01*
X174026005Y-81004840D01*
X174026006Y-81004840D01*
X173792810Y-80967906D01*
X173611509Y-80967906D01*
X173817439Y-81936735D01*
X173747167Y-81917906D01*
X173602349Y-81917906D01*
X173462466Y-81955388D01*
X173337050Y-82027796D01*
X173327627Y-82037218D01*
X173122098Y-81070282D01*
X173122096Y-81070282D01*
X173098961Y-81077800D01*
X172888586Y-81184991D01*
X172697571Y-81323772D01*
X172530624Y-81490719D01*
X172391843Y-81681734D01*
X172284655Y-81892103D01*
X172211692Y-82116658D01*
X172174758Y-82349853D01*
X171050147Y-82349853D01*
X177448620Y-75951379D01*
X177459452Y-75941748D01*
X178118467Y-75421745D01*
X178183288Y-75395672D01*
X178251917Y-75408783D01*
X178302563Y-75456915D01*
X178319277Y-75519091D01*
X178319277Y-75686103D01*
X178348836Y-75872735D01*
X178407231Y-76052453D01*
X178493017Y-76220816D01*
X178604087Y-76373690D01*
X178737704Y-76507307D01*
X178890578Y-76618377D01*
X178970124Y-76658907D01*
X179058940Y-76704162D01*
X179058942Y-76704162D01*
X179058945Y-76704164D01*
X179155274Y-76735463D01*
X179238658Y-76762557D01*
X179425291Y-76792117D01*
X179425296Y-76792117D01*
X179614263Y-76792117D01*
X179800895Y-76762557D01*
X179980609Y-76704164D01*
X180148976Y-76618377D01*
X180301850Y-76507307D01*
X180435467Y-76373690D01*
X180546537Y-76220816D01*
X180632324Y-76052449D01*
X180690717Y-75872735D01*
X180720277Y-75686103D01*
X180720277Y-75497130D01*
X180690717Y-75310498D01*
X180632322Y-75130780D01*
X180587067Y-75041964D01*
X180546537Y-74962418D01*
X180435467Y-74809544D01*
X180301850Y-74675927D01*
X180148976Y-74564857D01*
X180133210Y-74556824D01*
X179980613Y-74479071D01*
X179800896Y-74420677D01*
X179736139Y-74410420D01*
X179673005Y-74380490D01*
X179636074Y-74321178D01*
X179637072Y-74251316D01*
X179675683Y-74193083D01*
X179678689Y-74190632D01*
X180235018Y-73751654D01*
X180299839Y-73725581D01*
X180311828Y-73725000D01*
X183707021Y-73725000D01*
X183774060Y-73744685D01*
G37*
%TD.AperFunction*%
%TA.AperFunction,Conductor*%
G36*
X169216615Y-95123611D02*
G01*
X169272548Y-95165483D01*
X169296965Y-95230947D01*
X169297281Y-95239793D01*
X169297281Y-95383083D01*
X170266110Y-95177152D01*
X170247281Y-95247426D01*
X170247281Y-95392244D01*
X170284763Y-95532127D01*
X170357171Y-95657543D01*
X170366593Y-95666965D01*
X169399658Y-95872493D01*
X169399657Y-95872494D01*
X169407178Y-95895637D01*
X169514366Y-96106006D01*
X169653147Y-96297021D01*
X169820094Y-96463968D01*
X170011109Y-96602749D01*
X170221478Y-96709937D01*
X170446033Y-96782900D01*
X170515865Y-96793961D01*
X170579000Y-96823890D01*
X170615931Y-96883202D01*
X170614933Y-96953064D01*
X170584148Y-97004115D01*
X167623052Y-99965212D01*
X167511247Y-100077016D01*
X167511241Y-100077024D01*
X167468961Y-100150257D01*
X167468960Y-100150259D01*
X167440270Y-100199950D01*
X167389703Y-100248165D01*
X167321095Y-100261387D01*
X167256231Y-100235419D01*
X167215703Y-100178504D01*
X167208884Y-100137949D01*
X167208884Y-97080190D01*
X167228569Y-97013151D01*
X167245198Y-96992514D01*
X169085601Y-95152111D01*
X169146923Y-95118627D01*
X169216615Y-95123611D01*
G37*
%TD.AperFunction*%
%TD*%
M02*
