%TF.GenerationSoftware,KiCad,Pcbnew,10.0.1*%
%TF.CreationDate,2026-07-02T20:36:57+08:00*%
%TF.ProjectId,badge,62616467-652e-46b6-9963-61645f706362,rev?*%
%TF.SameCoordinates,Original*%
%TF.FileFunction,Legend,Top*%
%TF.FilePolarity,Positive*%
%FSLAX46Y46*%
G04 Gerber Fmt 4.6, Leading zero omitted, Abs format (unit mm)*
G04 Created by KiCad (PCBNEW 10.0.1) date 2026-07-02 20:36:57*
%MOMM*%
%LPD*%
G01*
G04 APERTURE LIST*
%ADD10C,0.000000*%
%ADD11C,0.150000*%
%ADD12C,0.101600*%
%ADD13C,0.200000*%
%ADD14C,0.127000*%
%ADD15C,0.100000*%
%ADD16C,0.504000*%
%ADD17C,0.503998*%
%ADD18C,0.120000*%
G04 APERTURE END LIST*
D10*
G36*
X193551861Y-106948824D02*
G01*
X193557383Y-106950307D01*
X193563258Y-106952875D01*
X193569492Y-106956529D01*
X193576093Y-106961268D01*
X193583066Y-106967092D01*
X193590420Y-106974001D01*
X193598160Y-106981995D01*
X193606293Y-106991075D01*
X193614826Y-107001240D01*
X193623767Y-107012489D01*
X193633121Y-107024825D01*
X193653098Y-107052751D01*
X193656426Y-107058609D01*
X193659464Y-107064598D01*
X193662214Y-107070704D01*
X193664673Y-107076915D01*
X193666844Y-107083216D01*
X193668725Y-107089593D01*
X193670317Y-107096035D01*
X193671619Y-107102526D01*
X193672632Y-107109053D01*
X193673355Y-107115602D01*
X193673789Y-107122161D01*
X193673934Y-107128715D01*
X193673789Y-107135251D01*
X193673355Y-107141756D01*
X193672632Y-107148215D01*
X193671619Y-107154615D01*
X193670317Y-107160943D01*
X193668725Y-107167186D01*
X193666844Y-107173328D01*
X193664674Y-107179358D01*
X193662214Y-107185261D01*
X193659465Y-107191024D01*
X193656426Y-107196633D01*
X193653098Y-107202075D01*
X193649481Y-107207336D01*
X193645574Y-107212402D01*
X193641378Y-107217261D01*
X193636892Y-107221898D01*
X193632117Y-107226300D01*
X193627053Y-107230453D01*
X193621699Y-107234344D01*
X193616056Y-107237959D01*
X193610306Y-107241180D01*
X193604635Y-107243901D01*
X193599049Y-107246129D01*
X193593557Y-107247871D01*
X193588163Y-107249133D01*
X193582876Y-107249924D01*
X193577702Y-107250248D01*
X193572648Y-107250113D01*
X193567721Y-107249527D01*
X193562927Y-107248495D01*
X193558273Y-107247024D01*
X193553766Y-107245121D01*
X193549412Y-107242794D01*
X193545220Y-107240048D01*
X193541194Y-107236891D01*
X193537343Y-107233329D01*
X193533672Y-107229369D01*
X193530189Y-107225018D01*
X193526901Y-107220283D01*
X193523814Y-107215170D01*
X193520935Y-107209686D01*
X193518270Y-107203838D01*
X193515827Y-107197633D01*
X193513613Y-107191078D01*
X193511633Y-107184179D01*
X193509896Y-107176943D01*
X193508407Y-107169377D01*
X193507174Y-107161488D01*
X193506203Y-107153282D01*
X193505501Y-107144767D01*
X193504931Y-107126834D01*
X193505374Y-107089647D01*
X193506740Y-107056802D01*
X193507785Y-107042007D01*
X193509082Y-107028297D01*
X193510636Y-107015673D01*
X193512455Y-107004133D01*
X193514545Y-106993679D01*
X193516914Y-106984310D01*
X193519567Y-106976027D01*
X193522512Y-106968828D01*
X193525755Y-106962715D01*
X193529303Y-106957687D01*
X193533164Y-106953744D01*
X193537343Y-106950886D01*
X193541847Y-106949113D01*
X193546685Y-106948426D01*
X193551861Y-106948824D01*
G37*
G36*
X188488403Y-104348997D02*
G01*
X188496258Y-104349858D01*
X188503182Y-104351283D01*
X188509178Y-104353267D01*
X188514252Y-104355803D01*
X188518408Y-104358883D01*
X188521651Y-104362501D01*
X188523985Y-104366651D01*
X188525415Y-104371326D01*
X188525945Y-104376518D01*
X188525579Y-104382221D01*
X188524323Y-104388428D01*
X188522180Y-104395132D01*
X188519156Y-104402327D01*
X188515255Y-104410006D01*
X188510480Y-104418162D01*
X188498332Y-104435878D01*
X188482747Y-104455421D01*
X188463762Y-104476736D01*
X188441413Y-104499770D01*
X188415736Y-104524467D01*
X188386767Y-104550774D01*
X188354543Y-104578637D01*
X188319099Y-104608001D01*
X188284224Y-104636068D01*
X188253673Y-104660066D01*
X188227426Y-104679977D01*
X188205466Y-104695782D01*
X188187774Y-104707463D01*
X188174332Y-104715002D01*
X188169200Y-104717213D01*
X188165123Y-104718381D01*
X188162100Y-104718505D01*
X188160128Y-104717582D01*
X188159205Y-104715610D01*
X188159329Y-104712587D01*
X188160498Y-104708511D01*
X188162708Y-104703378D01*
X188170248Y-104689937D01*
X188181929Y-104672245D01*
X188197733Y-104650285D01*
X188217644Y-104624038D01*
X188241642Y-104593486D01*
X188269710Y-104558612D01*
X188286039Y-104537942D01*
X188302531Y-104517688D01*
X188319059Y-104497976D01*
X188335497Y-104478934D01*
X188351718Y-104460687D01*
X188367595Y-104443363D01*
X188383002Y-104427088D01*
X188397812Y-104411989D01*
X188411899Y-104398191D01*
X188425135Y-104385823D01*
X188437395Y-104375010D01*
X188448551Y-104365880D01*
X188458478Y-104358557D01*
X188467048Y-104353171D01*
X188470785Y-104351242D01*
X188474135Y-104349846D01*
X188477083Y-104348996D01*
X188479612Y-104348709D01*
X188488403Y-104348997D01*
G37*
G36*
X188010563Y-104386194D02*
G01*
X188043408Y-104387559D01*
X188058203Y-104388605D01*
X188071913Y-104389902D01*
X188084537Y-104391456D01*
X188096077Y-104393275D01*
X188106531Y-104395365D01*
X188115900Y-104397733D01*
X188124184Y-104400386D01*
X188131382Y-104403331D01*
X188137496Y-104406574D01*
X188142524Y-104410123D01*
X188146467Y-104413983D01*
X188149324Y-104418162D01*
X188151097Y-104422667D01*
X188151784Y-104427504D01*
X188151386Y-104432680D01*
X188149903Y-104438202D01*
X188147335Y-104444077D01*
X188143681Y-104450311D01*
X188138942Y-104456912D01*
X188133119Y-104463885D01*
X188126209Y-104471239D01*
X188118215Y-104478979D01*
X188109135Y-104487112D01*
X188098971Y-104495646D01*
X188087721Y-104504586D01*
X188075386Y-104513941D01*
X188047460Y-104533917D01*
X188041602Y-104537245D01*
X188035613Y-104540284D01*
X188029506Y-104543033D01*
X188023296Y-104545493D01*
X188016995Y-104547663D01*
X188010617Y-104549544D01*
X188004176Y-104551136D01*
X187997685Y-104552438D01*
X187991158Y-104553451D01*
X187984608Y-104554174D01*
X187978049Y-104554609D01*
X187971495Y-104554753D01*
X187964959Y-104554609D01*
X187958455Y-104554174D01*
X187951996Y-104553451D01*
X187945595Y-104552438D01*
X187939267Y-104551136D01*
X187933025Y-104549544D01*
X187926882Y-104547663D01*
X187920852Y-104545493D01*
X187914949Y-104543033D01*
X187909186Y-104540284D01*
X187903577Y-104537245D01*
X187898135Y-104533917D01*
X187892874Y-104530300D01*
X187887808Y-104526393D01*
X187882949Y-104522197D01*
X187878312Y-104517711D01*
X187873911Y-104512937D01*
X187869757Y-104507872D01*
X187865866Y-104502519D01*
X187862251Y-104496875D01*
X187859031Y-104491125D01*
X187856310Y-104485454D01*
X187854082Y-104479868D01*
X187852340Y-104474376D01*
X187851077Y-104468982D01*
X187850287Y-104463695D01*
X187849963Y-104458521D01*
X187850097Y-104453467D01*
X187850684Y-104448540D01*
X187851716Y-104443746D01*
X187853186Y-104439092D01*
X187855089Y-104434585D01*
X187857417Y-104430232D01*
X187860162Y-104426039D01*
X187863320Y-104422013D01*
X187866882Y-104418162D01*
X187870841Y-104414492D01*
X187875192Y-104411009D01*
X187879928Y-104407720D01*
X187885041Y-104404633D01*
X187890524Y-104401754D01*
X187896372Y-104399090D01*
X187902577Y-104396647D01*
X187909132Y-104394432D01*
X187916031Y-104392453D01*
X187923267Y-104390716D01*
X187930833Y-104389227D01*
X187938722Y-104387993D01*
X187946928Y-104387022D01*
X187955443Y-104386320D01*
X187973376Y-104385751D01*
X188010563Y-104386194D01*
G37*
G36*
X189276527Y-105583754D02*
G01*
X189282715Y-105584713D01*
X189288402Y-105586290D01*
X189293589Y-105588472D01*
X189298278Y-105591241D01*
X189302472Y-105594582D01*
X189306173Y-105598479D01*
X189309384Y-105602917D01*
X189312107Y-105607879D01*
X189314343Y-105613350D01*
X189316096Y-105619314D01*
X189317367Y-105625754D01*
X189318158Y-105632656D01*
X189318473Y-105640004D01*
X189317680Y-105655971D01*
X189315006Y-105673530D01*
X189310469Y-105692555D01*
X189304088Y-105712917D01*
X189295879Y-105734492D01*
X189285862Y-105757151D01*
X189274055Y-105780770D01*
X189260475Y-105805220D01*
X189245140Y-105830376D01*
X189225544Y-105859531D01*
X189206154Y-105886806D01*
X189187031Y-105912200D01*
X189168235Y-105935713D01*
X189149829Y-105957345D01*
X189131872Y-105977095D01*
X189114426Y-105994965D01*
X189097552Y-106010954D01*
X189081312Y-106025061D01*
X189065765Y-106037288D01*
X189050973Y-106047634D01*
X189036998Y-106056098D01*
X189023900Y-106062682D01*
X189011740Y-106067384D01*
X189000579Y-106070206D01*
X188990479Y-106071146D01*
X188981500Y-106070206D01*
X188973703Y-106067384D01*
X188967150Y-106062682D01*
X188961902Y-106056098D01*
X188958019Y-106047634D01*
X188955562Y-106037288D01*
X188954593Y-106025061D01*
X188955173Y-106010954D01*
X188957363Y-105994965D01*
X188961223Y-105977095D01*
X188966816Y-105957345D01*
X188974201Y-105935713D01*
X188983440Y-105912200D01*
X188994593Y-105886806D01*
X189007723Y-105859531D01*
X189022890Y-105830376D01*
X189037194Y-105805220D01*
X189052239Y-105780770D01*
X189067899Y-105757151D01*
X189084047Y-105734492D01*
X189100558Y-105712917D01*
X189117303Y-105692555D01*
X189134157Y-105673530D01*
X189150993Y-105655971D01*
X189167684Y-105640004D01*
X189184103Y-105625754D01*
X189200125Y-105613350D01*
X189215623Y-105602917D01*
X189223135Y-105598479D01*
X189230469Y-105594582D01*
X189237608Y-105591241D01*
X189244537Y-105588472D01*
X189251240Y-105586290D01*
X189257701Y-105584713D01*
X189263905Y-105583754D01*
X189269835Y-105583431D01*
X189276527Y-105583754D01*
G37*
G36*
X188964936Y-103385805D02*
G01*
X188980899Y-103386334D01*
X188996671Y-103387203D01*
X189012231Y-103388399D01*
X189027556Y-103389912D01*
X189042623Y-103391730D01*
X189057409Y-103393842D01*
X189071893Y-103396237D01*
X189086051Y-103398903D01*
X189099861Y-103401829D01*
X189113301Y-103405003D01*
X189126346Y-103408415D01*
X189138976Y-103412053D01*
X189151167Y-103415906D01*
X189162897Y-103419963D01*
X189174144Y-103424211D01*
X189184883Y-103428640D01*
X189195094Y-103433239D01*
X189204753Y-103437997D01*
X189213838Y-103442901D01*
X189222326Y-103447940D01*
X189230194Y-103453105D01*
X189237421Y-103458382D01*
X189243983Y-103463761D01*
X189249857Y-103469230D01*
X189255022Y-103474779D01*
X189259454Y-103480395D01*
X189263130Y-103486068D01*
X189266030Y-103491786D01*
X189268128Y-103497538D01*
X189269404Y-103503312D01*
X189269835Y-103509098D01*
X189269691Y-103514776D01*
X189269265Y-103520231D01*
X189268563Y-103525454D01*
X189267592Y-103530441D01*
X189266359Y-103535183D01*
X189264870Y-103539674D01*
X189263132Y-103543907D01*
X189261153Y-103547876D01*
X189258938Y-103551574D01*
X189256496Y-103554993D01*
X189253831Y-103558128D01*
X189250952Y-103560971D01*
X189247865Y-103563515D01*
X189244576Y-103565755D01*
X189241094Y-103567682D01*
X189237423Y-103569291D01*
X189233572Y-103570574D01*
X189229546Y-103571524D01*
X189225354Y-103572136D01*
X189221000Y-103572402D01*
X189216493Y-103572315D01*
X189211839Y-103571868D01*
X189207045Y-103571055D01*
X189202118Y-103569869D01*
X189197064Y-103568304D01*
X189191890Y-103566352D01*
X189186603Y-103564006D01*
X189181210Y-103561260D01*
X189175717Y-103558107D01*
X189170131Y-103554541D01*
X189164460Y-103550554D01*
X189158710Y-103546140D01*
X189151694Y-103542955D01*
X189144545Y-103540340D01*
X189137273Y-103538286D01*
X189129891Y-103536783D01*
X189122410Y-103535823D01*
X189114840Y-103535396D01*
X189107194Y-103535494D01*
X189099482Y-103536108D01*
X189091715Y-103537228D01*
X189083906Y-103538845D01*
X189076065Y-103540950D01*
X189068203Y-103543535D01*
X189060333Y-103546590D01*
X189052465Y-103550107D01*
X189044610Y-103554075D01*
X189036781Y-103558487D01*
X189028987Y-103563333D01*
X189021241Y-103568604D01*
X189013554Y-103574290D01*
X189005937Y-103580384D01*
X188998401Y-103586876D01*
X188990958Y-103593756D01*
X188976395Y-103608648D01*
X188962339Y-103624986D01*
X188948879Y-103642699D01*
X188936107Y-103661714D01*
X188924112Y-103681959D01*
X188917203Y-103694366D01*
X188910363Y-103706120D01*
X188903592Y-103717218D01*
X188896886Y-103727658D01*
X188890243Y-103737438D01*
X188883661Y-103746556D01*
X188877138Y-103755009D01*
X188870672Y-103762795D01*
X188864260Y-103769912D01*
X188857900Y-103776357D01*
X188851589Y-103782128D01*
X188845326Y-103787224D01*
X188839109Y-103791641D01*
X188832934Y-103795378D01*
X188826800Y-103798432D01*
X188820704Y-103800801D01*
X188814645Y-103802483D01*
X188808619Y-103803475D01*
X188802626Y-103803775D01*
X188796661Y-103803381D01*
X188790724Y-103802291D01*
X188784811Y-103800503D01*
X188778921Y-103798013D01*
X188773052Y-103794820D01*
X188767200Y-103790922D01*
X188761365Y-103786317D01*
X188755543Y-103781001D01*
X188749732Y-103774973D01*
X188743930Y-103768231D01*
X188738135Y-103760772D01*
X188732345Y-103752594D01*
X188726557Y-103743695D01*
X188722179Y-103736788D01*
X188718300Y-103729961D01*
X188714915Y-103723226D01*
X188712015Y-103716589D01*
X188709595Y-103710061D01*
X188707647Y-103703651D01*
X188706165Y-103697368D01*
X188705142Y-103691220D01*
X188704571Y-103685216D01*
X188704446Y-103679367D01*
X188704759Y-103673680D01*
X188705504Y-103668165D01*
X188706674Y-103662831D01*
X188708262Y-103657687D01*
X188710262Y-103652741D01*
X188712666Y-103648004D01*
X188715469Y-103643484D01*
X188718662Y-103639190D01*
X188722240Y-103635131D01*
X188726195Y-103631316D01*
X188730521Y-103627755D01*
X188735211Y-103624455D01*
X188740259Y-103621427D01*
X188745656Y-103618680D01*
X188751398Y-103616221D01*
X188757476Y-103614061D01*
X188763884Y-103612209D01*
X188770616Y-103610673D01*
X188777664Y-103609463D01*
X188785022Y-103608587D01*
X188792683Y-103608055D01*
X188800640Y-103607876D01*
X188822341Y-103607577D01*
X188841130Y-103606646D01*
X188856989Y-103605027D01*
X188863814Y-103603943D01*
X188869900Y-103602667D01*
X188875245Y-103601192D01*
X188879845Y-103599511D01*
X188883699Y-103597617D01*
X188886805Y-103595504D01*
X188889161Y-103593166D01*
X188890763Y-103590594D01*
X188891611Y-103587783D01*
X188891701Y-103584725D01*
X188891031Y-103581414D01*
X188889600Y-103577843D01*
X188887404Y-103574005D01*
X188884442Y-103569894D01*
X188880711Y-103565502D01*
X188876210Y-103560823D01*
X188870935Y-103555850D01*
X188864884Y-103550577D01*
X188850448Y-103539101D01*
X188832883Y-103526341D01*
X188812170Y-103512242D01*
X188788293Y-103496751D01*
X188769341Y-103483294D01*
X188754169Y-103470706D01*
X188742796Y-103458986D01*
X188738539Y-103453451D01*
X188735238Y-103448134D01*
X188732897Y-103443033D01*
X188731516Y-103438150D01*
X188731098Y-103433483D01*
X188731645Y-103429034D01*
X188733160Y-103424802D01*
X188735645Y-103420786D01*
X188739103Y-103416988D01*
X188743534Y-103413407D01*
X188748943Y-103410043D01*
X188755330Y-103406896D01*
X188771050Y-103401253D01*
X188790714Y-103396478D01*
X188814338Y-103392571D01*
X188841941Y-103389533D01*
X188873542Y-103387362D01*
X188909158Y-103386060D01*
X188948807Y-103385626D01*
X188964936Y-103385805D01*
G37*
G36*
X190848856Y-101428567D02*
G01*
X190991166Y-101437523D01*
X191135808Y-101451742D01*
X191281175Y-101471026D01*
X191425655Y-101495174D01*
X191567639Y-101523990D01*
X191705517Y-101557272D01*
X191837680Y-101594823D01*
X191962518Y-101636444D01*
X192078421Y-101681935D01*
X192183779Y-101731098D01*
X192288580Y-101788288D01*
X192394212Y-101852930D01*
X192500062Y-101924373D01*
X192605514Y-102001965D01*
X192709953Y-102085056D01*
X192812764Y-102172994D01*
X192913332Y-102265128D01*
X193011043Y-102360806D01*
X193105281Y-102459379D01*
X193195431Y-102560195D01*
X193280879Y-102662602D01*
X193361009Y-102765950D01*
X193435207Y-102869587D01*
X193502858Y-102972862D01*
X193563346Y-103075125D01*
X193616056Y-103175723D01*
X193664945Y-103275004D01*
X193709673Y-103373254D01*
X193750134Y-103469732D01*
X193786217Y-103563696D01*
X193817814Y-103654404D01*
X193844818Y-103741115D01*
X193867119Y-103823087D01*
X193884609Y-103899579D01*
X193897179Y-103969849D01*
X193901585Y-104002419D01*
X193904721Y-104033155D01*
X193906573Y-104061966D01*
X193907127Y-104088757D01*
X193906369Y-104113437D01*
X193904287Y-104135912D01*
X193900866Y-104156091D01*
X193896094Y-104173879D01*
X193889956Y-104189186D01*
X193882438Y-104201917D01*
X193873528Y-104211980D01*
X193863212Y-104219283D01*
X193851476Y-104223733D01*
X193838306Y-104225237D01*
X193832521Y-104225058D01*
X193826746Y-104224528D01*
X193820994Y-104223660D01*
X193815276Y-104222463D01*
X193809603Y-104220951D01*
X193803987Y-104219132D01*
X193798438Y-104217020D01*
X193792969Y-104214626D01*
X193787590Y-104211960D01*
X193782313Y-104209034D01*
X193777149Y-104205859D01*
X193772109Y-104202447D01*
X193767205Y-104198809D01*
X193762448Y-104194957D01*
X193757849Y-104190900D01*
X193753419Y-104186652D01*
X193749171Y-104182222D01*
X193745114Y-104177623D01*
X193741262Y-104172866D01*
X193737624Y-104167962D01*
X193734212Y-104162922D01*
X193731037Y-104157758D01*
X193728111Y-104152481D01*
X193725445Y-104147102D01*
X193723051Y-104141633D01*
X193720939Y-104136084D01*
X193719121Y-104130468D01*
X193717608Y-104124795D01*
X193716411Y-104119077D01*
X193715543Y-104113325D01*
X193715013Y-104107550D01*
X193714834Y-104101765D01*
X193713866Y-104095359D01*
X193710991Y-104090023D01*
X193706258Y-104085741D01*
X193699714Y-104082496D01*
X193681383Y-104079057D01*
X193656378Y-104079578D01*
X193625079Y-104083934D01*
X193587865Y-104091998D01*
X193545117Y-104103643D01*
X193497215Y-104118742D01*
X193444537Y-104137169D01*
X193387464Y-104158798D01*
X193261653Y-104211153D01*
X193122819Y-104274795D01*
X192974001Y-104348709D01*
X192825183Y-104426555D01*
X192686349Y-104501506D01*
X192560538Y-104571827D01*
X192450787Y-104635782D01*
X192402885Y-104664829D01*
X192360137Y-104691634D01*
X192322923Y-104715979D01*
X192291624Y-104737647D01*
X192266619Y-104756421D01*
X192248288Y-104772084D01*
X192241744Y-104778681D01*
X192237011Y-104784419D01*
X192234136Y-104789271D01*
X192233168Y-104793209D01*
X192233311Y-104796573D01*
X192233737Y-104799717D01*
X192234439Y-104802640D01*
X192235410Y-104805339D01*
X192236644Y-104807812D01*
X192238132Y-104810057D01*
X192239870Y-104812071D01*
X192241849Y-104813852D01*
X192244064Y-104815398D01*
X192246507Y-104816707D01*
X192249171Y-104817776D01*
X192252050Y-104818603D01*
X192255137Y-104819186D01*
X192258426Y-104819522D01*
X192261909Y-104819610D01*
X192265579Y-104819447D01*
X192269430Y-104819030D01*
X192273456Y-104818359D01*
X192282002Y-104816239D01*
X192291163Y-104813071D01*
X192300885Y-104808836D01*
X192311113Y-104803515D01*
X192321793Y-104797092D01*
X192332871Y-104789547D01*
X192344293Y-104780862D01*
X192350151Y-104777569D01*
X192356143Y-104774634D01*
X192362256Y-104772051D01*
X192368481Y-104769817D01*
X192374805Y-104767926D01*
X192381217Y-104766374D01*
X192387706Y-104765157D01*
X192394261Y-104764270D01*
X192400869Y-104763709D01*
X192407521Y-104763468D01*
X192414205Y-104763544D01*
X192420908Y-104763933D01*
X192427621Y-104764628D01*
X192434332Y-104765627D01*
X192441029Y-104766924D01*
X192447701Y-104768515D01*
X192454337Y-104770395D01*
X192460925Y-104772560D01*
X192467455Y-104775005D01*
X192473915Y-104777727D01*
X192480293Y-104780719D01*
X192486578Y-104783979D01*
X192492760Y-104787500D01*
X192498826Y-104791280D01*
X192504766Y-104795312D01*
X192510567Y-104799594D01*
X192516220Y-104804119D01*
X192521712Y-104808884D01*
X192527032Y-104813884D01*
X192532169Y-104819115D01*
X192537111Y-104824572D01*
X192541848Y-104830251D01*
X192544889Y-104837051D01*
X192547075Y-104843559D01*
X192548420Y-104849774D01*
X192548938Y-104855693D01*
X192548642Y-104861313D01*
X192547546Y-104866632D01*
X192545662Y-104871649D01*
X192543006Y-104876360D01*
X192539590Y-104880764D01*
X192535427Y-104884858D01*
X192530533Y-104888640D01*
X192524919Y-104892107D01*
X192511589Y-104898091D01*
X192495546Y-104902790D01*
X192476899Y-104906188D01*
X192455755Y-104908265D01*
X192432225Y-104909003D01*
X192406415Y-104908385D01*
X192378435Y-104906393D01*
X192348392Y-104903007D01*
X192316397Y-104898211D01*
X192282557Y-104891987D01*
X192242757Y-104885768D01*
X192206665Y-104881014D01*
X192189992Y-104879192D01*
X192174226Y-104877743D01*
X192159360Y-104876670D01*
X192145387Y-104875974D01*
X192132300Y-104875658D01*
X192120093Y-104875724D01*
X192108758Y-104876174D01*
X192098289Y-104877011D01*
X192088679Y-104878237D01*
X192079922Y-104879854D01*
X192072010Y-104881864D01*
X192064937Y-104884270D01*
X192058696Y-104887074D01*
X192053280Y-104890278D01*
X192048683Y-104893884D01*
X192044897Y-104897895D01*
X192041916Y-104902313D01*
X192039733Y-104907141D01*
X192038342Y-104912379D01*
X192037735Y-104918032D01*
X192037905Y-104924100D01*
X192038847Y-104930587D01*
X192040553Y-104937494D01*
X192043016Y-104944824D01*
X192046230Y-104952579D01*
X192050187Y-104960762D01*
X192054882Y-104969374D01*
X192060307Y-104978418D01*
X192070716Y-104998105D01*
X192078755Y-105015531D01*
X192084371Y-105030751D01*
X192086253Y-105037551D01*
X192087509Y-105043819D01*
X192088132Y-105049563D01*
X192088115Y-105054789D01*
X192087452Y-105059504D01*
X192086135Y-105063714D01*
X192084158Y-105067428D01*
X192081513Y-105070651D01*
X192078196Y-105073390D01*
X192074197Y-105075652D01*
X192069512Y-105077443D01*
X192064132Y-105078772D01*
X192058052Y-105079643D01*
X192051263Y-105080065D01*
X192035537Y-105079586D01*
X192016899Y-105077388D01*
X191995294Y-105073527D01*
X191970669Y-105068055D01*
X191942969Y-105061029D01*
X191912140Y-105052501D01*
X191839214Y-105024334D01*
X191810565Y-105013650D01*
X191787124Y-105005427D01*
X191768893Y-104999808D01*
X191755870Y-104996938D01*
X191751313Y-104996579D01*
X191748057Y-104996962D01*
X191746104Y-104998105D01*
X191745452Y-105000025D01*
X191746104Y-105002741D01*
X191748057Y-105006271D01*
X191751313Y-105010633D01*
X191755870Y-105015845D01*
X191768893Y-105028891D01*
X191787124Y-105045555D01*
X191839214Y-105090314D01*
X191912140Y-105151279D01*
X191938004Y-105169637D01*
X191964519Y-105187597D01*
X191991469Y-105205050D01*
X192018635Y-105221889D01*
X192045801Y-105238004D01*
X192072750Y-105253288D01*
X192099266Y-105267631D01*
X192125130Y-105280924D01*
X192150125Y-105293061D01*
X192174036Y-105303931D01*
X192196645Y-105313426D01*
X192217734Y-105321439D01*
X192237087Y-105327859D01*
X192254486Y-105332580D01*
X192269715Y-105335492D01*
X192282557Y-105336487D01*
X192289177Y-105336666D01*
X192295154Y-105337198D01*
X192300493Y-105338074D01*
X192305201Y-105339284D01*
X192309285Y-105340820D01*
X192312752Y-105342672D01*
X192315609Y-105344832D01*
X192317862Y-105347291D01*
X192319518Y-105350038D01*
X192320584Y-105353066D01*
X192321067Y-105356366D01*
X192320973Y-105359927D01*
X192320309Y-105363742D01*
X192319083Y-105367801D01*
X192317300Y-105372095D01*
X192314968Y-105376615D01*
X192312093Y-105381352D01*
X192308683Y-105386298D01*
X192300281Y-105396776D01*
X192289818Y-105407978D01*
X192277347Y-105419830D01*
X192262923Y-105432262D01*
X192246600Y-105445200D01*
X192228432Y-105458572D01*
X192208473Y-105472306D01*
X192196972Y-105478271D01*
X192185630Y-105484575D01*
X192163473Y-105498110D01*
X192142113Y-105512730D01*
X192121657Y-105528254D01*
X192102214Y-105544502D01*
X192083892Y-105561293D01*
X192066800Y-105578445D01*
X192051046Y-105595778D01*
X192036740Y-105613111D01*
X192023988Y-105630264D01*
X192012901Y-105647054D01*
X192003587Y-105663302D01*
X191996153Y-105678827D01*
X191993175Y-105686261D01*
X191990709Y-105693447D01*
X191988767Y-105700361D01*
X191987363Y-105706982D01*
X191986510Y-105713286D01*
X191986223Y-105719251D01*
X191986367Y-105726051D01*
X191986793Y-105732559D01*
X191987495Y-105738774D01*
X191988466Y-105744693D01*
X191989699Y-105750313D01*
X191991188Y-105755632D01*
X191992926Y-105760649D01*
X191994905Y-105765360D01*
X191997120Y-105769764D01*
X191999562Y-105773858D01*
X192002227Y-105777640D01*
X192005106Y-105781107D01*
X192008193Y-105784259D01*
X192011482Y-105787091D01*
X192014964Y-105789602D01*
X192018635Y-105791791D01*
X192022486Y-105793653D01*
X192026512Y-105795188D01*
X192030704Y-105796393D01*
X192035058Y-105797265D01*
X192039565Y-105797803D01*
X192044219Y-105798003D01*
X192049013Y-105797865D01*
X192053940Y-105797385D01*
X192058994Y-105796562D01*
X192064168Y-105795393D01*
X192069455Y-105793875D01*
X192074848Y-105792008D01*
X192080341Y-105789787D01*
X192085927Y-105787212D01*
X192091598Y-105784279D01*
X192097348Y-105780987D01*
X192103027Y-105776931D01*
X192108484Y-105774008D01*
X192113715Y-105772193D01*
X192118715Y-105771461D01*
X192123480Y-105771787D01*
X192128005Y-105773146D01*
X192132287Y-105775514D01*
X192136319Y-105778865D01*
X192140099Y-105783174D01*
X192143620Y-105788417D01*
X192149872Y-105801606D01*
X192155039Y-105818230D01*
X192159084Y-105838093D01*
X192161972Y-105860994D01*
X192163666Y-105886734D01*
X192164131Y-105915115D01*
X192163329Y-105945938D01*
X192161225Y-105979004D01*
X192157782Y-106014113D01*
X192152965Y-106051067D01*
X192146737Y-106089667D01*
X192140518Y-106138438D01*
X192137957Y-106161213D01*
X192135764Y-106182922D01*
X192133943Y-106203574D01*
X192132494Y-106223175D01*
X192131420Y-106241730D01*
X192130724Y-106259249D01*
X192130408Y-106275736D01*
X192130474Y-106291199D01*
X192130924Y-106305644D01*
X192131761Y-106319080D01*
X192132987Y-106331511D01*
X192134604Y-106342945D01*
X192136614Y-106353389D01*
X192139020Y-106362850D01*
X192141824Y-106371333D01*
X192145028Y-106378847D01*
X192148634Y-106385398D01*
X192152645Y-106390993D01*
X192157064Y-106395637D01*
X192159426Y-106397606D01*
X192161891Y-106399340D01*
X192164459Y-106400839D01*
X192167130Y-106402106D01*
X192169904Y-106403140D01*
X192172782Y-106403943D01*
X192178851Y-106404857D01*
X192185337Y-106404856D01*
X192192244Y-106403946D01*
X192199575Y-106402134D01*
X192207330Y-106399427D01*
X192215512Y-106395831D01*
X192224124Y-106391353D01*
X192233168Y-106386000D01*
X192252704Y-106373563D01*
X192269655Y-106364055D01*
X192284037Y-106357514D01*
X192290270Y-106355367D01*
X192295869Y-106353975D01*
X192300834Y-106353343D01*
X192305168Y-106353475D01*
X192308874Y-106354375D01*
X192311954Y-106356049D01*
X192314409Y-106358500D01*
X192316243Y-106361734D01*
X192317458Y-106365755D01*
X192318055Y-106370567D01*
X192318037Y-106376174D01*
X192317407Y-106382582D01*
X192314317Y-106397817D01*
X192308804Y-106416308D01*
X192300885Y-106438090D01*
X192290578Y-106463201D01*
X192277902Y-106491676D01*
X192262875Y-106523550D01*
X192245515Y-106558862D01*
X192223965Y-106598243D01*
X192205652Y-106633138D01*
X192190631Y-106663693D01*
X192178956Y-106690051D01*
X192174390Y-106701702D01*
X192170681Y-106712358D01*
X192167836Y-106722037D01*
X192165861Y-106730758D01*
X192164763Y-106738539D01*
X192164550Y-106745397D01*
X192165227Y-106751350D01*
X192166801Y-106756417D01*
X192169280Y-106760617D01*
X192172671Y-106763966D01*
X192176979Y-106766483D01*
X192182211Y-106768186D01*
X192188376Y-106769093D01*
X192195478Y-106769223D01*
X192203525Y-106768593D01*
X192212525Y-106767221D01*
X192222483Y-106765126D01*
X192233406Y-106762326D01*
X192258176Y-106754681D01*
X192286888Y-106744432D01*
X192319598Y-106731723D01*
X192351640Y-106719222D01*
X192382914Y-106704930D01*
X192413373Y-106688938D01*
X192442974Y-106671337D01*
X192471670Y-106652216D01*
X192499417Y-106631667D01*
X192526168Y-106609779D01*
X192551880Y-106586643D01*
X192576507Y-106562349D01*
X192600003Y-106536989D01*
X192622324Y-106510651D01*
X192643423Y-106483428D01*
X192663257Y-106455408D01*
X192681779Y-106426684D01*
X192698945Y-106397344D01*
X192714709Y-106367480D01*
X192729027Y-106337181D01*
X192741852Y-106306539D01*
X192753139Y-106275644D01*
X192762844Y-106244586D01*
X192770922Y-106213456D01*
X192777326Y-106182344D01*
X192782012Y-106151340D01*
X192784934Y-106120535D01*
X192786048Y-106090020D01*
X192785308Y-106059884D01*
X192782669Y-106030219D01*
X192778086Y-106001115D01*
X192771513Y-105972661D01*
X192762905Y-105944949D01*
X192752217Y-105918069D01*
X192739404Y-105892112D01*
X192728190Y-105871320D01*
X192717700Y-105850651D01*
X192707933Y-105830153D01*
X192698890Y-105809877D01*
X192690570Y-105789873D01*
X192682973Y-105770189D01*
X192676100Y-105750876D01*
X192669951Y-105731984D01*
X192664525Y-105713562D01*
X192659822Y-105695660D01*
X192655843Y-105678327D01*
X192652588Y-105661614D01*
X192650055Y-105645571D01*
X192648247Y-105630246D01*
X192647162Y-105615690D01*
X192646800Y-105601952D01*
X192647162Y-105589083D01*
X192648247Y-105577131D01*
X192650055Y-105566147D01*
X192652588Y-105556180D01*
X192655843Y-105547281D01*
X192659822Y-105539498D01*
X192664525Y-105532882D01*
X192669951Y-105527483D01*
X192676100Y-105523349D01*
X192682973Y-105520531D01*
X192690570Y-105519079D01*
X192698890Y-105519042D01*
X192707933Y-105520470D01*
X192717700Y-105523413D01*
X192728190Y-105527920D01*
X192739404Y-105534042D01*
X192745083Y-105537622D01*
X192750540Y-105541409D01*
X192755770Y-105545396D01*
X192760771Y-105549573D01*
X192765536Y-105553930D01*
X192770061Y-105558459D01*
X192774342Y-105563151D01*
X192778375Y-105567997D01*
X192782154Y-105572988D01*
X192785676Y-105578114D01*
X192788935Y-105583366D01*
X192791928Y-105588737D01*
X192794649Y-105594216D01*
X192797095Y-105599794D01*
X192799260Y-105605462D01*
X192801140Y-105611213D01*
X192802731Y-105617035D01*
X192804028Y-105622921D01*
X192805026Y-105628861D01*
X192805722Y-105634846D01*
X192806110Y-105640867D01*
X192806186Y-105646916D01*
X192805946Y-105652982D01*
X192805384Y-105659058D01*
X192804497Y-105665134D01*
X192803280Y-105671200D01*
X192801728Y-105677249D01*
X192799837Y-105683270D01*
X192797603Y-105689255D01*
X192795020Y-105695195D01*
X192792085Y-105701081D01*
X192788792Y-105706903D01*
X192785608Y-105711640D01*
X192782993Y-105716577D01*
X192780938Y-105721700D01*
X192779436Y-105726992D01*
X192778476Y-105732438D01*
X192778049Y-105738022D01*
X192778147Y-105743728D01*
X192778760Y-105749540D01*
X192779880Y-105755443D01*
X192781498Y-105761420D01*
X192783603Y-105767456D01*
X192786188Y-105773535D01*
X192789243Y-105779641D01*
X192792760Y-105785759D01*
X192796728Y-105791872D01*
X192801140Y-105797964D01*
X192805986Y-105804021D01*
X192811256Y-105810025D01*
X192816943Y-105815962D01*
X192823037Y-105821815D01*
X192836409Y-105833206D01*
X192851301Y-105844073D01*
X192867639Y-105854289D01*
X192885352Y-105863728D01*
X192894701Y-105868116D01*
X192904367Y-105872262D01*
X192914341Y-105876150D01*
X192924612Y-105879765D01*
X192946886Y-105889604D01*
X192967369Y-105900600D01*
X192976923Y-105906533D01*
X192986008Y-105912755D01*
X192994618Y-105919266D01*
X193002747Y-105926067D01*
X193010388Y-105933156D01*
X193017533Y-105940536D01*
X193024176Y-105948205D01*
X193030311Y-105956163D01*
X193035930Y-105964410D01*
X193041028Y-105972947D01*
X193045596Y-105981774D01*
X193049628Y-105990889D01*
X193053117Y-106000294D01*
X193056058Y-106009989D01*
X193058442Y-106019973D01*
X193060263Y-106030246D01*
X193061514Y-106040809D01*
X193062189Y-106051661D01*
X193062280Y-106062802D01*
X193061782Y-106074233D01*
X193060687Y-106085953D01*
X193058988Y-106097963D01*
X193056678Y-106110262D01*
X193053751Y-106122850D01*
X193050201Y-106135728D01*
X193046019Y-106148895D01*
X193041200Y-106162352D01*
X193035737Y-106176098D01*
X193027206Y-106202432D01*
X193020158Y-106225873D01*
X193014630Y-106246419D01*
X193012447Y-106255607D01*
X193010657Y-106264072D01*
X193009265Y-106271813D01*
X193008275Y-106278831D01*
X193007693Y-106285125D01*
X193007522Y-106290695D01*
X193007767Y-106295543D01*
X193008432Y-106299666D01*
X193009523Y-106303067D01*
X193011043Y-106305744D01*
X193012997Y-106307697D01*
X193015390Y-106308927D01*
X193018225Y-106309433D01*
X193021509Y-106309216D01*
X193025245Y-106308276D01*
X193029437Y-106306612D01*
X193034090Y-106304224D01*
X193039210Y-106301113D01*
X193044799Y-106297279D01*
X193050864Y-106292721D01*
X193057407Y-106287440D01*
X193064435Y-106281435D01*
X193079959Y-106267255D01*
X193097473Y-106250181D01*
X193112805Y-106233249D01*
X193126364Y-106214852D01*
X193138114Y-106194971D01*
X193148020Y-106173590D01*
X193156044Y-106150689D01*
X193162151Y-106126251D01*
X193166305Y-106100257D01*
X193168470Y-106072690D01*
X193168608Y-106043531D01*
X193166685Y-106012763D01*
X193162664Y-105980366D01*
X193156508Y-105946324D01*
X193148182Y-105910618D01*
X193137650Y-105873229D01*
X193124875Y-105834141D01*
X193109821Y-105793334D01*
X193094625Y-105754848D01*
X193081436Y-105718117D01*
X193070238Y-105683159D01*
X193061010Y-105649991D01*
X193057130Y-105634084D01*
X193053737Y-105618631D01*
X193050826Y-105603635D01*
X193048398Y-105589098D01*
X193046449Y-105575023D01*
X193044976Y-105561411D01*
X193043979Y-105548264D01*
X193043454Y-105535586D01*
X193043400Y-105523378D01*
X193043813Y-105511642D01*
X193044692Y-105500381D01*
X193046035Y-105489597D01*
X193047838Y-105479293D01*
X193050101Y-105469470D01*
X193052820Y-105460130D01*
X193055994Y-105451277D01*
X193059620Y-105442913D01*
X193063696Y-105435038D01*
X193068220Y-105427657D01*
X193073189Y-105420771D01*
X193078601Y-105414382D01*
X193084454Y-105408493D01*
X193090745Y-105403106D01*
X193097473Y-105398223D01*
X193111068Y-105386693D01*
X193124049Y-105370803D01*
X193136378Y-105350826D01*
X193148020Y-105327033D01*
X193158938Y-105299695D01*
X193169097Y-105269083D01*
X193178460Y-105235469D01*
X193186991Y-105199124D01*
X193194653Y-105160319D01*
X193201412Y-105119325D01*
X193207230Y-105076414D01*
X193212071Y-105031858D01*
X193215899Y-104985926D01*
X193218678Y-104938892D01*
X193220372Y-104891025D01*
X193220945Y-104842598D01*
X193221518Y-104794035D01*
X193223212Y-104745798D01*
X193225991Y-104698211D01*
X193229820Y-104651602D01*
X193234661Y-104606295D01*
X193240479Y-104562615D01*
X193247237Y-104520889D01*
X193254900Y-104481442D01*
X193263431Y-104444599D01*
X193272794Y-104410686D01*
X193282953Y-104380029D01*
X193293871Y-104352954D01*
X193299604Y-104340860D01*
X193305513Y-104329784D01*
X193311594Y-104319767D01*
X193317842Y-104310848D01*
X193324253Y-104303068D01*
X193330822Y-104296469D01*
X193337545Y-104291090D01*
X193344418Y-104286973D01*
X193358996Y-104280598D01*
X193372633Y-104279811D01*
X193385330Y-104284341D01*
X193397086Y-104293918D01*
X193407902Y-104308270D01*
X193417777Y-104327126D01*
X193434706Y-104377262D01*
X193447874Y-104442157D01*
X193457279Y-104519641D01*
X193462922Y-104607543D01*
X193464803Y-104703692D01*
X193462922Y-104805918D01*
X193457279Y-104912051D01*
X193447874Y-105019920D01*
X193434706Y-105127356D01*
X193417777Y-105232187D01*
X193397086Y-105332243D01*
X193372633Y-105425353D01*
X193344418Y-105509348D01*
X193333427Y-105541440D01*
X193323630Y-105572772D01*
X193315063Y-105603164D01*
X193307762Y-105632434D01*
X193301763Y-105660402D01*
X193297103Y-105686887D01*
X193293817Y-105711709D01*
X193292701Y-105723439D01*
X193291942Y-105734685D01*
X193291545Y-105745424D01*
X193291514Y-105755635D01*
X193291854Y-105765294D01*
X193292569Y-105774379D01*
X193293664Y-105782867D01*
X193295143Y-105790735D01*
X193297012Y-105797962D01*
X193299273Y-105804524D01*
X193301933Y-105810398D01*
X193304995Y-105815563D01*
X193308464Y-105819995D01*
X193312344Y-105823671D01*
X193316640Y-105826571D01*
X193321357Y-105828669D01*
X193326499Y-105829945D01*
X193332071Y-105830376D01*
X193337928Y-105829837D01*
X193343917Y-105828238D01*
X193350024Y-105825604D01*
X193356234Y-105821959D01*
X193368913Y-105811737D01*
X193381845Y-105797771D01*
X193394922Y-105780260D01*
X193408035Y-105759403D01*
X193421075Y-105735399D01*
X193433935Y-105708447D01*
X193446505Y-105678745D01*
X193458678Y-105646494D01*
X193470344Y-105611891D01*
X193481395Y-105575135D01*
X193491723Y-105536427D01*
X193501218Y-105495964D01*
X193509773Y-105453945D01*
X193517279Y-105410570D01*
X193527248Y-105366342D01*
X193538573Y-105321824D01*
X193551164Y-105277307D01*
X193564931Y-105233079D01*
X193579784Y-105189429D01*
X193595631Y-105146648D01*
X193612382Y-105105025D01*
X193629947Y-105064848D01*
X193648236Y-105026408D01*
X193667158Y-104989993D01*
X193686622Y-104955893D01*
X193706538Y-104924398D01*
X193726817Y-104895797D01*
X193747366Y-104870379D01*
X193768097Y-104848434D01*
X193778501Y-104838854D01*
X193788917Y-104830251D01*
X193817293Y-104806699D01*
X193842286Y-104787108D01*
X193863987Y-104771677D01*
X193882486Y-104760605D01*
X193890564Y-104756765D01*
X193897875Y-104754090D01*
X193904431Y-104752605D01*
X193910244Y-104752333D01*
X193915323Y-104753300D01*
X193919682Y-104755531D01*
X193923331Y-104759051D01*
X193926281Y-104763884D01*
X193928543Y-104770056D01*
X193930130Y-104777591D01*
X193931052Y-104786514D01*
X193931321Y-104796851D01*
X193929943Y-104821862D01*
X193926088Y-104852823D01*
X193919845Y-104889934D01*
X193911305Y-104933394D01*
X193887695Y-105040154D01*
X193823732Y-105266609D01*
X193743508Y-105487041D01*
X193647838Y-105700636D01*
X193537536Y-105906581D01*
X193413416Y-106104061D01*
X193276291Y-106292263D01*
X193126976Y-106470372D01*
X192966284Y-106637575D01*
X192795030Y-106793058D01*
X192614026Y-106936007D01*
X192424088Y-107065607D01*
X192226029Y-107181046D01*
X192020663Y-107281509D01*
X191808804Y-107366182D01*
X191700694Y-107402343D01*
X191591266Y-107434251D01*
X191480621Y-107461806D01*
X191368862Y-107484903D01*
X191253493Y-107505064D01*
X191206298Y-107512793D01*
X191165905Y-107518858D01*
X191132167Y-107523187D01*
X191104940Y-107525707D01*
X191093723Y-107526267D01*
X191084080Y-107526346D01*
X191075992Y-107525938D01*
X191069442Y-107525032D01*
X191064411Y-107523620D01*
X191060881Y-107521692D01*
X191059673Y-107520532D01*
X191058834Y-107519240D01*
X191058361Y-107517814D01*
X191058252Y-107516254D01*
X191059118Y-107512726D01*
X191061412Y-107508645D01*
X191065116Y-107504005D01*
X191070214Y-107498794D01*
X191076686Y-107493005D01*
X191084514Y-107486628D01*
X191104169Y-107472074D01*
X191129032Y-107455060D01*
X191158959Y-107435514D01*
X191193686Y-107411399D01*
X191223782Y-107389598D01*
X191249249Y-107369534D01*
X191260245Y-107359972D01*
X191270084Y-107350627D01*
X191278766Y-107341427D01*
X191286290Y-107332299D01*
X191292657Y-107323172D01*
X191297866Y-107313971D01*
X191301917Y-107304627D01*
X191304811Y-107295065D01*
X191306547Y-107285213D01*
X191307126Y-107275000D01*
X191306547Y-107264353D01*
X191304811Y-107253200D01*
X191301917Y-107241468D01*
X191297866Y-107229084D01*
X191292657Y-107215977D01*
X191286290Y-107202075D01*
X191270084Y-107171592D01*
X191249249Y-107137059D01*
X191223782Y-107097895D01*
X191158959Y-107003362D01*
X191135546Y-106976042D01*
X191111717Y-106949753D01*
X191087634Y-106924657D01*
X191063461Y-106900918D01*
X191039361Y-106878699D01*
X191015495Y-106858161D01*
X190992028Y-106839469D01*
X190969121Y-106822783D01*
X190946938Y-106808269D01*
X190925640Y-106796087D01*
X190915375Y-106790923D01*
X190905392Y-106786402D01*
X190895712Y-106782546D01*
X190886356Y-106779375D01*
X190877343Y-106776910D01*
X190868694Y-106775170D01*
X190860430Y-106774177D01*
X190852570Y-106773949D01*
X190845135Y-106774509D01*
X190838146Y-106775876D01*
X190831622Y-106778070D01*
X190825584Y-106781112D01*
X190819906Y-106784368D01*
X190814449Y-106787195D01*
X190809218Y-106789597D01*
X190804218Y-106791578D01*
X190799453Y-106793143D01*
X190794927Y-106794297D01*
X190790646Y-106795044D01*
X190786613Y-106795388D01*
X190782834Y-106795335D01*
X190779312Y-106794888D01*
X190776053Y-106794052D01*
X190773060Y-106792832D01*
X190770339Y-106791232D01*
X190767894Y-106789257D01*
X190765729Y-106786911D01*
X190763848Y-106784198D01*
X190762257Y-106781124D01*
X190760960Y-106777693D01*
X190759962Y-106773909D01*
X190759266Y-106769777D01*
X190758878Y-106765302D01*
X190758802Y-106760487D01*
X190759043Y-106755337D01*
X190759604Y-106749858D01*
X190760491Y-106744053D01*
X190761708Y-106737927D01*
X190763260Y-106731484D01*
X190765151Y-106724729D01*
X190769968Y-106710302D01*
X190776196Y-106694681D01*
X190781396Y-106670796D01*
X190783216Y-106645548D01*
X190781822Y-106619093D01*
X190777377Y-106591587D01*
X190770048Y-106563185D01*
X190759999Y-106534044D01*
X190747395Y-106504319D01*
X190732402Y-106474168D01*
X190715183Y-106443745D01*
X190695906Y-106413206D01*
X190651831Y-106352408D01*
X190601499Y-106293020D01*
X190546229Y-106236291D01*
X190487341Y-106183468D01*
X190426157Y-106135801D01*
X190363996Y-106094536D01*
X190332961Y-106076694D01*
X190302178Y-106060921D01*
X190271811Y-106047373D01*
X190242025Y-106036206D01*
X190212984Y-106027575D01*
X190184855Y-106021637D01*
X190157803Y-106018547D01*
X190131991Y-106018463D01*
X190107585Y-106021538D01*
X190084751Y-106027931D01*
X190074515Y-106031582D01*
X190064648Y-106035579D01*
X190055156Y-106039906D01*
X190046046Y-106044547D01*
X190037324Y-106049486D01*
X190028999Y-106054709D01*
X190021076Y-106060198D01*
X190013562Y-106065937D01*
X190006464Y-106071913D01*
X189999789Y-106078107D01*
X189993543Y-106084505D01*
X189987734Y-106091090D01*
X189982368Y-106097847D01*
X189977452Y-106104761D01*
X189972992Y-106111814D01*
X189968996Y-106118992D01*
X189965470Y-106126278D01*
X189962422Y-106133657D01*
X189959857Y-106141113D01*
X189957782Y-106148630D01*
X189956205Y-106156192D01*
X189955133Y-106163784D01*
X189954571Y-106171389D01*
X189954527Y-106178992D01*
X189955007Y-106186576D01*
X189956019Y-106194127D01*
X189957569Y-106201628D01*
X189959663Y-106209064D01*
X189962310Y-106216418D01*
X189965514Y-106223675D01*
X189969284Y-106230819D01*
X189973626Y-106237834D01*
X189979851Y-106251001D01*
X189984647Y-106262721D01*
X189986515Y-106268039D01*
X189988032Y-106272995D01*
X189989202Y-106277589D01*
X189990025Y-106281821D01*
X189990505Y-106285691D01*
X189990643Y-106289200D01*
X189990442Y-106292347D01*
X189989904Y-106295133D01*
X189989032Y-106297556D01*
X189987827Y-106299618D01*
X189986293Y-106301318D01*
X189984430Y-106302657D01*
X189982242Y-106303633D01*
X189979730Y-106304248D01*
X189976898Y-106304502D01*
X189973747Y-106304393D01*
X189970279Y-106303923D01*
X189966497Y-106303091D01*
X189962403Y-106301897D01*
X189957999Y-106300342D01*
X189953288Y-106298424D01*
X189948272Y-106296146D01*
X189937332Y-106290502D01*
X189925199Y-106283412D01*
X189911890Y-106274875D01*
X189904659Y-106270497D01*
X189896872Y-106266619D01*
X189879720Y-106260334D01*
X189860614Y-106255966D01*
X189839736Y-106253461D01*
X189817266Y-106252765D01*
X189793386Y-106253823D01*
X189768275Y-106256581D01*
X189742116Y-106260985D01*
X189715088Y-106266981D01*
X189687373Y-106274514D01*
X189659152Y-106283530D01*
X189630605Y-106293975D01*
X189601913Y-106305795D01*
X189573258Y-106318935D01*
X189544819Y-106333341D01*
X189516779Y-106348959D01*
X189490845Y-106366420D01*
X189466302Y-106384032D01*
X189443165Y-106401730D01*
X189421450Y-106419449D01*
X189401173Y-106437122D01*
X189382349Y-106454685D01*
X189364995Y-106472071D01*
X189349127Y-106489216D01*
X189334760Y-106506053D01*
X189321909Y-106522516D01*
X189310592Y-106538542D01*
X189300823Y-106554063D01*
X189292619Y-106569014D01*
X189285995Y-106583330D01*
X189280967Y-106596945D01*
X189277552Y-106609794D01*
X189275764Y-106621811D01*
X189275619Y-106632930D01*
X189277134Y-106643086D01*
X189280325Y-106652213D01*
X189285206Y-106660247D01*
X189291795Y-106667120D01*
X189300106Y-106672768D01*
X189310156Y-106677125D01*
X189321960Y-106680125D01*
X189335535Y-106681704D01*
X189350895Y-106681795D01*
X189368058Y-106680332D01*
X189387038Y-106677251D01*
X189407852Y-106672486D01*
X189430515Y-106665970D01*
X189455043Y-106657640D01*
X189464337Y-106653261D01*
X189473690Y-106649380D01*
X189483089Y-106645987D01*
X189492519Y-106643074D01*
X189501967Y-106640630D01*
X189511419Y-106638648D01*
X189520863Y-106637119D01*
X189530284Y-106636032D01*
X189539669Y-106635379D01*
X189549004Y-106635152D01*
X189558275Y-106635340D01*
X189567470Y-106635935D01*
X189576575Y-106636929D01*
X189585575Y-106638311D01*
X189594458Y-106640073D01*
X189603210Y-106642205D01*
X189611817Y-106644700D01*
X189620265Y-106647547D01*
X189628542Y-106650738D01*
X189636634Y-106654263D01*
X189644526Y-106658114D01*
X189652207Y-106662282D01*
X189659661Y-106666757D01*
X189666875Y-106671530D01*
X189673836Y-106676593D01*
X189680530Y-106681936D01*
X189686944Y-106687550D01*
X189693065Y-106693427D01*
X189698877Y-106699557D01*
X189704369Y-106705931D01*
X189709526Y-106712540D01*
X189714335Y-106719376D01*
X189722869Y-106734716D01*
X189729937Y-106748339D01*
X189735523Y-106760261D01*
X189739608Y-106770501D01*
X189741081Y-106774996D01*
X189742173Y-106779077D01*
X189742880Y-106782747D01*
X189743201Y-106786007D01*
X189743133Y-106788861D01*
X189742673Y-106791310D01*
X189741821Y-106793356D01*
X189740572Y-106795002D01*
X189738926Y-106796251D01*
X189736880Y-106797103D01*
X189734431Y-106797563D01*
X189731577Y-106797631D01*
X189728317Y-106797310D01*
X189724647Y-106796603D01*
X189720566Y-106795511D01*
X189716071Y-106794038D01*
X189705831Y-106789953D01*
X189693909Y-106784367D01*
X189680286Y-106777298D01*
X189664946Y-106768764D01*
X189649038Y-106759941D01*
X189633764Y-106752004D01*
X189626381Y-106748373D01*
X189619177Y-106744971D01*
X189612158Y-106741800D01*
X189605332Y-106738861D01*
X189598704Y-106736157D01*
X189592282Y-106733691D01*
X189586073Y-106731465D01*
X189580083Y-106729480D01*
X189574319Y-106727739D01*
X189568787Y-106726245D01*
X189563496Y-106725000D01*
X189558451Y-106724006D01*
X189553659Y-106723265D01*
X189549127Y-106722779D01*
X189544862Y-106722551D01*
X189540871Y-106722583D01*
X189537159Y-106722877D01*
X189533735Y-106723436D01*
X189530605Y-106724262D01*
X189527776Y-106725356D01*
X189525254Y-106726722D01*
X189523046Y-106728362D01*
X189521159Y-106730277D01*
X189519601Y-106732470D01*
X189518376Y-106734944D01*
X189517493Y-106737700D01*
X189516959Y-106740742D01*
X189516779Y-106744070D01*
X189517424Y-106747865D01*
X189519338Y-106752287D01*
X189526835Y-106762929D01*
X189538999Y-106775812D01*
X189555557Y-106790758D01*
X189576239Y-106807585D01*
X189600774Y-106826112D01*
X189660315Y-106867542D01*
X189732011Y-106913603D01*
X189813691Y-106962847D01*
X189903184Y-107013828D01*
X189998321Y-107065097D01*
X190108677Y-107121902D01*
X190208055Y-107176319D01*
X190296182Y-107227987D01*
X190372789Y-107276544D01*
X190437603Y-107321628D01*
X190465503Y-107342755D01*
X190490353Y-107362878D01*
X190512119Y-107381952D01*
X190530767Y-107399932D01*
X190546264Y-107416772D01*
X190558576Y-107432427D01*
X190567668Y-107446853D01*
X190573506Y-107460004D01*
X190576058Y-107471834D01*
X190575288Y-107482299D01*
X190571163Y-107491353D01*
X190563649Y-107498951D01*
X190552712Y-107505047D01*
X190538319Y-107509598D01*
X190520434Y-107512556D01*
X190499025Y-107513878D01*
X190474058Y-107513518D01*
X190445498Y-107511431D01*
X190413311Y-107507571D01*
X190377464Y-107501893D01*
X190337923Y-107494352D01*
X190294654Y-107484903D01*
X190077155Y-107423535D01*
X189865009Y-107346431D01*
X189658941Y-107254351D01*
X189459673Y-107148056D01*
X189267929Y-107028303D01*
X189084433Y-106895854D01*
X188909908Y-106751467D01*
X188745078Y-106595903D01*
X188590665Y-106429921D01*
X188447394Y-106254281D01*
X188315988Y-106069742D01*
X188197170Y-105877064D01*
X188141132Y-105770807D01*
X188466584Y-105770807D01*
X188467026Y-105786788D01*
X188468423Y-105803173D01*
X188470796Y-105819902D01*
X188474168Y-105836914D01*
X188478563Y-105854148D01*
X188484001Y-105871541D01*
X188490507Y-105889035D01*
X188498103Y-105906566D01*
X188506811Y-105924076D01*
X188516654Y-105941501D01*
X188530261Y-105963060D01*
X188536859Y-105972646D01*
X188543326Y-105981436D01*
X188549666Y-105989431D01*
X188555884Y-105996629D01*
X188561985Y-106003032D01*
X188567972Y-106008639D01*
X188573851Y-106013450D01*
X188579626Y-106017465D01*
X188585302Y-106020685D01*
X188590882Y-106023108D01*
X188596372Y-106024736D01*
X188601776Y-106025568D01*
X188607099Y-106025604D01*
X188612345Y-106024845D01*
X188617519Y-106023289D01*
X188622624Y-106020938D01*
X188627667Y-106017791D01*
X188632650Y-106013848D01*
X188637580Y-106009109D01*
X188642459Y-106003574D01*
X188647294Y-105997244D01*
X188652088Y-105990118D01*
X188656845Y-105982196D01*
X188661571Y-105973478D01*
X188666270Y-105963964D01*
X188670946Y-105953655D01*
X188680249Y-105930648D01*
X188689515Y-105904459D01*
X188695882Y-105885676D01*
X188701091Y-105866477D01*
X188705142Y-105847024D01*
X188708036Y-105827482D01*
X188709772Y-105808011D01*
X188710351Y-105788776D01*
X188709772Y-105769939D01*
X188708036Y-105751662D01*
X188705142Y-105734109D01*
X188703261Y-105725654D01*
X188701091Y-105717442D01*
X188698631Y-105709492D01*
X188695882Y-105701824D01*
X188692843Y-105694459D01*
X188689515Y-105687418D01*
X188685898Y-105680720D01*
X188681991Y-105674387D01*
X188677795Y-105668437D01*
X188673309Y-105662892D01*
X188668535Y-105657773D01*
X188663470Y-105653098D01*
X188658117Y-105648890D01*
X188652473Y-105645167D01*
X188637646Y-105636801D01*
X188623275Y-105630182D01*
X188609384Y-105625250D01*
X188595995Y-105621944D01*
X188583130Y-105620202D01*
X188570812Y-105619963D01*
X188559064Y-105621167D01*
X188547908Y-105623753D01*
X188537367Y-105627658D01*
X188527464Y-105632823D01*
X188518221Y-105639186D01*
X188509661Y-105646687D01*
X188501806Y-105655263D01*
X188494679Y-105664855D01*
X188488302Y-105675400D01*
X188482699Y-105686839D01*
X188477892Y-105699110D01*
X188473903Y-105712152D01*
X188470755Y-105725903D01*
X188468471Y-105740304D01*
X188467073Y-105755292D01*
X188466584Y-105770807D01*
X188141132Y-105770807D01*
X188091664Y-105677006D01*
X188000193Y-105470329D01*
X187923481Y-105257791D01*
X187862251Y-105040154D01*
X187849386Y-104985432D01*
X187838618Y-104936914D01*
X187830021Y-104894438D01*
X187823666Y-104857839D01*
X187821353Y-104841693D01*
X187819627Y-104826956D01*
X187818498Y-104813607D01*
X187817975Y-104801625D01*
X187818067Y-104790991D01*
X187818783Y-104781685D01*
X187820132Y-104773685D01*
X187822123Y-104766971D01*
X187824765Y-104761524D01*
X187826333Y-104759268D01*
X187828067Y-104757322D01*
X187829969Y-104755682D01*
X187832039Y-104754345D01*
X187834278Y-104753310D01*
X187836689Y-104752574D01*
X187842026Y-104751987D01*
X187848059Y-104752565D01*
X187854798Y-104754287D01*
X187862251Y-104757132D01*
X187870428Y-104761080D01*
X187879337Y-104766112D01*
X187888988Y-104772206D01*
X187899389Y-104779342D01*
X187910550Y-104787501D01*
X187922480Y-104796661D01*
X187948682Y-104817903D01*
X187957976Y-104825790D01*
X187967329Y-104833244D01*
X187976728Y-104840269D01*
X187986158Y-104846866D01*
X187995606Y-104853039D01*
X188005058Y-104858789D01*
X188014502Y-104864118D01*
X188023923Y-104869029D01*
X188033308Y-104873524D01*
X188042643Y-104877605D01*
X188051914Y-104881275D01*
X188061109Y-104884535D01*
X188070214Y-104887389D01*
X188079214Y-104889838D01*
X188088097Y-104891884D01*
X188096849Y-104893530D01*
X188105456Y-104894779D01*
X188113904Y-104895631D01*
X188122181Y-104896091D01*
X188130273Y-104896159D01*
X188138165Y-104895838D01*
X188145846Y-104895131D01*
X188153300Y-104894039D01*
X188160514Y-104892566D01*
X188167475Y-104890712D01*
X188174169Y-104888481D01*
X188180583Y-104885875D01*
X188186704Y-104882895D01*
X188192516Y-104879545D01*
X188198008Y-104875826D01*
X188203165Y-104871741D01*
X188207974Y-104867292D01*
X188212566Y-104862878D01*
X188217080Y-104858891D01*
X188221508Y-104855324D01*
X188225843Y-104852172D01*
X188230079Y-104849426D01*
X188234208Y-104847080D01*
X188238225Y-104845128D01*
X188242121Y-104843562D01*
X188245891Y-104842377D01*
X188249528Y-104841564D01*
X188253024Y-104841117D01*
X188256374Y-104841030D01*
X188259569Y-104841296D01*
X188262605Y-104841908D01*
X188265472Y-104842858D01*
X188268166Y-104844141D01*
X188270679Y-104845750D01*
X188273004Y-104847677D01*
X188275135Y-104849917D01*
X188277065Y-104852461D01*
X188278787Y-104855304D01*
X188280293Y-104858439D01*
X188281579Y-104861858D01*
X188282636Y-104865556D01*
X188283457Y-104869525D01*
X188284037Y-104873758D01*
X188284369Y-104878250D01*
X188284444Y-104882992D01*
X188284258Y-104887978D01*
X188283802Y-104893202D01*
X188283071Y-104898656D01*
X188282057Y-104904334D01*
X188275579Y-104938941D01*
X188270026Y-104973266D01*
X188265382Y-105007242D01*
X188261631Y-105040805D01*
X188258757Y-105073888D01*
X188256744Y-105106426D01*
X188255577Y-105138354D01*
X188255240Y-105169606D01*
X188255717Y-105200117D01*
X188256992Y-105229820D01*
X188259049Y-105258651D01*
X188261872Y-105286543D01*
X188265446Y-105313432D01*
X188269755Y-105339251D01*
X188274783Y-105363935D01*
X188280513Y-105387419D01*
X188286932Y-105409637D01*
X188294021Y-105430523D01*
X188301767Y-105450012D01*
X188310152Y-105468038D01*
X188319161Y-105484535D01*
X188328778Y-105499439D01*
X188338988Y-105512684D01*
X188349774Y-105524203D01*
X188361120Y-105533932D01*
X188373012Y-105541804D01*
X188385433Y-105547755D01*
X188398367Y-105551719D01*
X188411798Y-105553630D01*
X188425711Y-105553422D01*
X188440089Y-105551030D01*
X188454918Y-105546389D01*
X188463198Y-105543132D01*
X188471817Y-105540303D01*
X188480753Y-105537894D01*
X188489982Y-105535899D01*
X188509232Y-105533123D01*
X188529387Y-105531920D01*
X188550265Y-105532237D01*
X188571686Y-105534018D01*
X188593468Y-105537210D01*
X188615432Y-105541759D01*
X188637395Y-105547610D01*
X188659178Y-105554709D01*
X188680598Y-105563002D01*
X188701477Y-105572434D01*
X188721631Y-105582952D01*
X188740882Y-105594500D01*
X188759047Y-105607025D01*
X188775946Y-105620473D01*
X188797942Y-105639856D01*
X188817642Y-105656309D01*
X188835062Y-105669796D01*
X188850222Y-105680280D01*
X188856960Y-105684385D01*
X188863139Y-105687725D01*
X188868762Y-105690298D01*
X188873831Y-105692096D01*
X188878349Y-105693118D01*
X188882317Y-105693356D01*
X188885738Y-105692809D01*
X188888614Y-105691469D01*
X188890948Y-105689334D01*
X188892741Y-105686399D01*
X188893996Y-105682659D01*
X188894715Y-105678109D01*
X188894901Y-105672746D01*
X188894556Y-105666564D01*
X188893681Y-105659559D01*
X188892280Y-105651727D01*
X188887906Y-105633562D01*
X188881452Y-105612032D01*
X188872936Y-105587103D01*
X188862376Y-105558737D01*
X188856013Y-105535604D01*
X188850825Y-105512579D01*
X188846831Y-105489772D01*
X188844048Y-105467290D01*
X188842496Y-105445242D01*
X188842191Y-105423737D01*
X188843153Y-105402883D01*
X188845399Y-105382789D01*
X188847009Y-105373060D01*
X188848947Y-105363563D01*
X188851215Y-105354309D01*
X188853815Y-105345313D01*
X188856750Y-105336588D01*
X188860022Y-105328149D01*
X188863633Y-105320007D01*
X188867585Y-105312178D01*
X188871881Y-105304674D01*
X188876523Y-105297510D01*
X188881513Y-105290698D01*
X188886854Y-105284252D01*
X188892547Y-105278186D01*
X188898595Y-105272514D01*
X188905000Y-105267248D01*
X188911765Y-105262403D01*
X188918493Y-105257665D01*
X188924782Y-105252712D01*
X188930627Y-105247546D01*
X188936025Y-105242170D01*
X188940971Y-105236586D01*
X188945461Y-105230797D01*
X188949489Y-105224804D01*
X188953051Y-105218609D01*
X188956143Y-105212216D01*
X188958761Y-105205626D01*
X188960899Y-105198842D01*
X188962553Y-105191865D01*
X188963719Y-105184699D01*
X188964392Y-105177344D01*
X188964567Y-105169805D01*
X188964241Y-105162082D01*
X188963408Y-105154179D01*
X188962064Y-105146097D01*
X188960205Y-105137838D01*
X188957826Y-105129405D01*
X188954922Y-105120801D01*
X188951490Y-105112027D01*
X188947523Y-105103086D01*
X188943019Y-105093980D01*
X188937972Y-105084710D01*
X188932378Y-105075281D01*
X188919530Y-105055949D01*
X188904440Y-105036003D01*
X188897739Y-105028078D01*
X189067233Y-105028078D01*
X189067473Y-105033444D01*
X189068035Y-105038996D01*
X189068922Y-105044729D01*
X189070139Y-105050638D01*
X189071690Y-105056719D01*
X189073581Y-105062967D01*
X189075816Y-105069378D01*
X189078398Y-105075947D01*
X189081334Y-105082670D01*
X189084626Y-105089542D01*
X189091849Y-105101103D01*
X189099578Y-105112573D01*
X189107741Y-105123862D01*
X189116266Y-105134880D01*
X189125080Y-105145536D01*
X189134112Y-105155740D01*
X189143288Y-105165401D01*
X189152536Y-105174430D01*
X189161784Y-105182734D01*
X189170960Y-105190225D01*
X189179992Y-105196812D01*
X189188806Y-105202404D01*
X189193109Y-105204798D01*
X189197331Y-105206910D01*
X189201462Y-105208728D01*
X189205494Y-105210241D01*
X189209417Y-105211438D01*
X189213223Y-105212306D01*
X189216902Y-105212836D01*
X189220446Y-105213015D01*
X189222760Y-105212836D01*
X189225070Y-105212306D01*
X189227371Y-105211438D01*
X189229658Y-105210241D01*
X189231927Y-105208728D01*
X189234174Y-105206910D01*
X189238581Y-105202404D01*
X189242843Y-105196812D01*
X189246925Y-105190225D01*
X189250789Y-105182734D01*
X189254401Y-105174430D01*
X189257722Y-105165401D01*
X189260719Y-105155740D01*
X189263353Y-105145536D01*
X189265590Y-105134880D01*
X189267393Y-105123862D01*
X189268725Y-105112573D01*
X189269551Y-105101103D01*
X189269835Y-105089542D01*
X189269655Y-105082670D01*
X189269123Y-105075947D01*
X189268247Y-105069378D01*
X189267037Y-105062967D01*
X189265501Y-105056719D01*
X189263649Y-105050638D01*
X189261489Y-105044729D01*
X189259031Y-105038996D01*
X189256283Y-105033444D01*
X189253255Y-105028078D01*
X189249956Y-105022901D01*
X189246394Y-105017919D01*
X189242579Y-105013136D01*
X189238520Y-105008556D01*
X189234226Y-105004184D01*
X189229706Y-105000025D01*
X189224969Y-104996083D01*
X189220024Y-104992362D01*
X189214879Y-104988868D01*
X189209545Y-104985604D01*
X189204030Y-104982575D01*
X189198344Y-104979786D01*
X189192494Y-104977241D01*
X189186491Y-104974945D01*
X189180343Y-104972902D01*
X189174059Y-104971116D01*
X189167649Y-104969593D01*
X189161121Y-104968337D01*
X189154485Y-104967352D01*
X189147749Y-104966643D01*
X189140923Y-104966214D01*
X189134015Y-104966070D01*
X189128337Y-104966214D01*
X189122880Y-104966643D01*
X189117649Y-104967352D01*
X189112649Y-104968337D01*
X189107884Y-104969593D01*
X189103358Y-104971116D01*
X189099077Y-104972902D01*
X189095044Y-104974945D01*
X189091265Y-104977241D01*
X189087743Y-104979786D01*
X189084484Y-104982575D01*
X189081491Y-104985604D01*
X189078770Y-104988868D01*
X189076324Y-104992362D01*
X189074159Y-104996083D01*
X189072279Y-105000025D01*
X189070688Y-105004184D01*
X189069391Y-105008556D01*
X189068393Y-105013136D01*
X189067697Y-105017919D01*
X189067309Y-105022901D01*
X189067233Y-105028078D01*
X188897739Y-105028078D01*
X188887071Y-105015459D01*
X188879185Y-105005187D01*
X188871733Y-104995208D01*
X188864715Y-104985528D01*
X188858132Y-104976151D01*
X188851982Y-104967081D01*
X188846267Y-104958323D01*
X188840986Y-104949882D01*
X188836138Y-104941762D01*
X188831725Y-104933967D01*
X188827746Y-104926502D01*
X188824201Y-104919372D01*
X188821090Y-104912582D01*
X188818413Y-104906134D01*
X188816171Y-104900035D01*
X188814362Y-104894289D01*
X188812987Y-104888900D01*
X188812047Y-104883873D01*
X188811540Y-104879212D01*
X188811468Y-104874921D01*
X188811830Y-104871006D01*
X188812173Y-104869191D01*
X188812626Y-104867471D01*
X188813186Y-104865847D01*
X188813856Y-104864320D01*
X188814633Y-104862890D01*
X188815520Y-104861558D01*
X188816514Y-104860324D01*
X188817618Y-104859189D01*
X188818829Y-104858154D01*
X188820150Y-104857219D01*
X188821579Y-104856384D01*
X188823116Y-104855651D01*
X188824762Y-104855019D01*
X188826516Y-104854489D01*
X188830351Y-104853739D01*
X188834619Y-104853405D01*
X188839322Y-104853492D01*
X188844458Y-104854004D01*
X188850029Y-104854945D01*
X188879576Y-104860267D01*
X188908000Y-104864676D01*
X188935262Y-104868198D01*
X188961323Y-104870861D01*
X188986145Y-104872693D01*
X189009690Y-104873719D01*
X189031919Y-104873968D01*
X189052794Y-104873466D01*
X189072276Y-104872241D01*
X189090327Y-104870319D01*
X189106908Y-104867728D01*
X189121981Y-104864495D01*
X189135508Y-104860647D01*
X189147451Y-104856211D01*
X189157769Y-104851215D01*
X189166427Y-104845685D01*
X189173384Y-104839648D01*
X189178602Y-104833133D01*
X189182043Y-104826165D01*
X189183669Y-104818772D01*
X189183441Y-104810981D01*
X189181321Y-104802819D01*
X189177270Y-104794314D01*
X189171250Y-104785492D01*
X189163222Y-104776381D01*
X189153148Y-104767007D01*
X189140989Y-104757399D01*
X189126708Y-104747582D01*
X189110265Y-104737585D01*
X189091623Y-104727434D01*
X189070742Y-104717156D01*
X189047585Y-104706778D01*
X189032755Y-104700884D01*
X189018368Y-104694784D01*
X189004434Y-104688489D01*
X188990961Y-104682012D01*
X188977958Y-104675362D01*
X188965435Y-104668552D01*
X188953399Y-104661593D01*
X188941861Y-104654496D01*
X188930830Y-104647272D01*
X188920314Y-104639933D01*
X188910323Y-104632490D01*
X188900865Y-104624954D01*
X188891950Y-104617337D01*
X188883586Y-104609650D01*
X188875783Y-104601904D01*
X188868550Y-104594110D01*
X188861895Y-104586280D01*
X188855829Y-104578426D01*
X188850359Y-104570558D01*
X188845495Y-104562687D01*
X188841246Y-104554826D01*
X188837622Y-104546985D01*
X188834630Y-104539176D01*
X188832280Y-104531409D01*
X188830581Y-104523697D01*
X188829543Y-104516051D01*
X188829174Y-104508481D01*
X188829482Y-104501000D01*
X188830479Y-104493618D01*
X188832171Y-104486346D01*
X188834569Y-104479197D01*
X188837682Y-104472181D01*
X188840974Y-104466395D01*
X188843910Y-104460621D01*
X188846492Y-104454869D01*
X188848727Y-104449151D01*
X188850618Y-104443478D01*
X188852169Y-104437862D01*
X188853386Y-104432313D01*
X188854273Y-104426844D01*
X188854835Y-104421465D01*
X188855075Y-104416188D01*
X188854999Y-104411024D01*
X188854611Y-104405984D01*
X188853915Y-104401080D01*
X188852917Y-104396323D01*
X188851620Y-104391724D01*
X188850029Y-104387294D01*
X188848149Y-104383046D01*
X188845984Y-104378989D01*
X188843538Y-104375137D01*
X188840817Y-104371498D01*
X188837824Y-104368086D01*
X188834565Y-104364912D01*
X188831043Y-104361986D01*
X188827264Y-104359320D01*
X188823231Y-104356925D01*
X188818950Y-104354813D01*
X188814425Y-104352995D01*
X188809659Y-104351482D01*
X188804659Y-104350286D01*
X188799428Y-104349418D01*
X188793971Y-104348888D01*
X188788293Y-104348709D01*
X188781385Y-104348458D01*
X188774559Y-104347714D01*
X188767823Y-104346491D01*
X188761187Y-104344802D01*
X188754659Y-104342661D01*
X188748249Y-104340082D01*
X188741965Y-104337077D01*
X188735817Y-104333661D01*
X188729814Y-104329847D01*
X188723964Y-104325649D01*
X188718278Y-104321079D01*
X188712763Y-104316153D01*
X188702284Y-104305283D01*
X188692602Y-104293147D01*
X188683788Y-104279853D01*
X188675914Y-104265510D01*
X188669053Y-104250227D01*
X188663277Y-104234111D01*
X188658659Y-104217273D01*
X188655271Y-104199819D01*
X188653185Y-104181859D01*
X188652473Y-104163501D01*
X188651939Y-104145381D01*
X188650369Y-104128072D01*
X188647814Y-104111591D01*
X188644322Y-104095953D01*
X188639945Y-104081174D01*
X188634730Y-104067270D01*
X188628729Y-104054257D01*
X188621991Y-104042151D01*
X188614566Y-104030967D01*
X188606503Y-104020721D01*
X188597852Y-104011429D01*
X188588663Y-104003107D01*
X188578986Y-103995771D01*
X188568871Y-103989437D01*
X188558366Y-103984120D01*
X188547522Y-103979836D01*
X188536389Y-103976601D01*
X188525016Y-103974431D01*
X188513453Y-103973342D01*
X188501751Y-103973349D01*
X188489957Y-103974468D01*
X188478123Y-103976716D01*
X188466298Y-103980107D01*
X188454532Y-103984659D01*
X188442874Y-103990386D01*
X188431375Y-103997305D01*
X188420084Y-104005430D01*
X188409050Y-104014779D01*
X188398324Y-104025367D01*
X188387955Y-104037210D01*
X188377993Y-104050323D01*
X188368487Y-104064723D01*
X188364147Y-104075150D01*
X188360385Y-104083316D01*
X188357201Y-104089276D01*
X188354597Y-104093083D01*
X188353512Y-104094196D01*
X188352571Y-104094792D01*
X188351775Y-104094877D01*
X188351124Y-104094457D01*
X188350618Y-104093541D01*
X188350256Y-104092133D01*
X188349967Y-104087874D01*
X188350256Y-104081734D01*
X188351124Y-104073766D01*
X188352571Y-104064027D01*
X188354597Y-104052569D01*
X188360385Y-104024715D01*
X188368487Y-103990640D01*
X188374546Y-103964736D01*
X188378761Y-103942577D01*
X188381022Y-103924144D01*
X188381386Y-103916319D01*
X188381220Y-103909418D01*
X188380513Y-103903440D01*
X188379249Y-103898382D01*
X188377415Y-103894242D01*
X188374999Y-103891018D01*
X188371985Y-103888707D01*
X188368361Y-103887307D01*
X188364113Y-103886816D01*
X188359227Y-103887232D01*
X188353690Y-103888552D01*
X188347489Y-103890774D01*
X188340609Y-103893895D01*
X188333037Y-103897915D01*
X188315765Y-103908637D01*
X188295562Y-103922923D01*
X188272320Y-103940753D01*
X188245932Y-103962111D01*
X188216287Y-103986977D01*
X188183279Y-104015334D01*
X188125821Y-104066984D01*
X188073770Y-104110784D01*
X188027037Y-104146698D01*
X188005636Y-104161687D01*
X187985531Y-104174690D01*
X187966709Y-104185704D01*
X187949161Y-104194724D01*
X187932874Y-104201746D01*
X187917838Y-104206764D01*
X187904040Y-104209775D01*
X187891470Y-104210773D01*
X187880117Y-104209755D01*
X187869968Y-104206716D01*
X187861014Y-104201651D01*
X187853241Y-104194556D01*
X187846640Y-104185426D01*
X187841198Y-104174256D01*
X187836905Y-104161043D01*
X187833750Y-104145782D01*
X187831720Y-104128467D01*
X187830804Y-104109096D01*
X187830993Y-104087662D01*
X187832273Y-104064162D01*
X187838063Y-104010945D01*
X187848086Y-103949408D01*
X187862251Y-103879515D01*
X187920051Y-103675728D01*
X187991270Y-103476807D01*
X188000091Y-103456526D01*
X188259581Y-103456526D01*
X188261295Y-103482340D01*
X188267431Y-103509592D01*
X188277962Y-103538310D01*
X188292861Y-103568519D01*
X188312100Y-103600248D01*
X188335654Y-103633523D01*
X188363494Y-103668371D01*
X188395593Y-103704821D01*
X188431925Y-103742898D01*
X188472462Y-103782630D01*
X188517177Y-103824044D01*
X188566043Y-103867167D01*
X188615537Y-103911167D01*
X188662192Y-103950608D01*
X188684472Y-103968642D01*
X188706062Y-103985563D01*
X188726969Y-104001382D01*
X188747200Y-104016106D01*
X188766762Y-104029745D01*
X188785661Y-104042308D01*
X188803905Y-104053803D01*
X188821500Y-104064241D01*
X188838453Y-104073629D01*
X188854771Y-104081978D01*
X188870460Y-104089295D01*
X188885527Y-104095591D01*
X188899980Y-104100874D01*
X188913824Y-104105153D01*
X188927067Y-104108437D01*
X188939715Y-104110736D01*
X188951776Y-104112058D01*
X188963255Y-104112412D01*
X188974160Y-104111807D01*
X188984498Y-104110253D01*
X188994275Y-104107759D01*
X189003498Y-104104333D01*
X189012174Y-104099985D01*
X189020310Y-104094723D01*
X189027912Y-104088557D01*
X189034987Y-104081495D01*
X189041542Y-104073548D01*
X189047585Y-104064723D01*
X189073213Y-104026412D01*
X189094610Y-103999008D01*
X189111883Y-103981840D01*
X189119007Y-103976886D01*
X189125141Y-103974241D01*
X189130298Y-103973820D01*
X189134491Y-103975540D01*
X189137736Y-103979318D01*
X189140044Y-103985069D01*
X189141907Y-104002158D01*
X189140189Y-104026138D01*
X189134998Y-104056340D01*
X189126443Y-104092094D01*
X189114632Y-104132732D01*
X189099674Y-104177584D01*
X189081678Y-104225981D01*
X189060752Y-104277254D01*
X189037004Y-104330734D01*
X189010543Y-104385751D01*
X189002657Y-104399458D01*
X188995202Y-104412790D01*
X188988178Y-104425734D01*
X188981580Y-104438275D01*
X188975408Y-104450400D01*
X188969658Y-104462095D01*
X188964329Y-104473347D01*
X188959418Y-104484143D01*
X188954923Y-104494468D01*
X188950842Y-104504309D01*
X188947172Y-104513653D01*
X188943911Y-104522487D01*
X188941058Y-104530795D01*
X188938609Y-104538566D01*
X188936562Y-104545785D01*
X188934916Y-104552438D01*
X188933668Y-104558513D01*
X188932815Y-104563996D01*
X188932356Y-104568872D01*
X188932288Y-104573129D01*
X188932608Y-104576754D01*
X188933316Y-104579731D01*
X188934407Y-104582048D01*
X188935096Y-104582955D01*
X188935881Y-104583692D01*
X188936760Y-104584257D01*
X188937734Y-104584648D01*
X188938803Y-104584865D01*
X188939965Y-104584904D01*
X188942572Y-104584445D01*
X188945551Y-104583258D01*
X188948901Y-104581329D01*
X188952620Y-104578646D01*
X188956705Y-104575193D01*
X188961154Y-104570959D01*
X188966070Y-104566509D01*
X188971542Y-104562419D01*
X188977547Y-104558686D01*
X188984064Y-104555308D01*
X188998539Y-104549608D01*
X189014787Y-104545300D01*
X189032627Y-104542367D01*
X189051877Y-104540790D01*
X189072357Y-104540552D01*
X189093887Y-104541634D01*
X189116284Y-104544019D01*
X189139369Y-104547687D01*
X189162960Y-104552622D01*
X189186877Y-104558805D01*
X189210938Y-104566217D01*
X189234963Y-104574842D01*
X189258772Y-104584660D01*
X189282182Y-104595653D01*
X189314898Y-104616119D01*
X189343653Y-104636095D01*
X189368537Y-104655964D01*
X189389641Y-104676103D01*
X189398804Y-104686394D01*
X189407056Y-104696894D01*
X189414408Y-104707652D01*
X189420871Y-104718716D01*
X189426457Y-104730132D01*
X189431177Y-104741948D01*
X189435043Y-104754212D01*
X189438065Y-104766971D01*
X189440256Y-104780273D01*
X189441626Y-104794165D01*
X189442186Y-104808694D01*
X189441948Y-104823908D01*
X189439124Y-104856582D01*
X189433242Y-104892566D01*
X189424395Y-104932239D01*
X189412672Y-104975982D01*
X189398163Y-105024174D01*
X189380960Y-105077195D01*
X189366511Y-105115660D01*
X189351032Y-105152243D01*
X189334648Y-105186801D01*
X189326157Y-105203275D01*
X189317487Y-105219188D01*
X189308654Y-105234523D01*
X189299675Y-105249260D01*
X189290564Y-105263383D01*
X189281338Y-105276873D01*
X189272012Y-105289711D01*
X189262603Y-105301881D01*
X189253126Y-105313363D01*
X189243597Y-105324139D01*
X189234031Y-105334193D01*
X189224446Y-105343504D01*
X189214856Y-105352056D01*
X189205277Y-105359831D01*
X189195725Y-105366809D01*
X189186217Y-105372974D01*
X189176767Y-105378306D01*
X189167391Y-105382789D01*
X189158106Y-105386403D01*
X189148928Y-105389131D01*
X189139871Y-105390955D01*
X189130952Y-105391856D01*
X189122188Y-105391817D01*
X189113592Y-105390819D01*
X189105182Y-105388845D01*
X189096973Y-105385876D01*
X189089995Y-105383884D01*
X189082959Y-105382533D01*
X189075883Y-105381810D01*
X189068782Y-105381704D01*
X189061672Y-105382204D01*
X189054569Y-105383298D01*
X189047488Y-105384976D01*
X189040446Y-105387226D01*
X189033458Y-105390037D01*
X189026541Y-105393397D01*
X189019709Y-105397295D01*
X189012979Y-105401720D01*
X189006366Y-105406660D01*
X188999887Y-105412104D01*
X188993557Y-105418042D01*
X188987392Y-105424461D01*
X188975620Y-105438698D01*
X188964699Y-105454726D01*
X188954754Y-105472454D01*
X188945913Y-105491792D01*
X188938301Y-105512649D01*
X188932046Y-105534935D01*
X188927274Y-105558559D01*
X188925484Y-105570845D01*
X188924112Y-105583431D01*
X188915111Y-105679894D01*
X188906508Y-105765939D01*
X188898122Y-105842144D01*
X188889772Y-105909089D01*
X188885554Y-105939270D01*
X188881277Y-105967353D01*
X188876919Y-105993410D01*
X188872457Y-106017513D01*
X188867868Y-106039736D01*
X188863130Y-106060150D01*
X188858220Y-106078827D01*
X188853116Y-106095841D01*
X188847795Y-106111263D01*
X188842234Y-106125166D01*
X188836410Y-106137621D01*
X188830302Y-106148703D01*
X188823887Y-106158481D01*
X188817141Y-106167030D01*
X188810043Y-106174422D01*
X188802569Y-106180728D01*
X188794698Y-106186021D01*
X188786406Y-106190374D01*
X188777671Y-106193859D01*
X188768470Y-106196548D01*
X188758781Y-106198513D01*
X188748580Y-106199828D01*
X188737847Y-106200563D01*
X188726557Y-106200792D01*
X188719936Y-106200972D01*
X188713962Y-106201504D01*
X188708631Y-106202379D01*
X188703936Y-106203590D01*
X188699875Y-106205126D01*
X188696442Y-106206978D01*
X188693634Y-106209138D01*
X188691444Y-106211596D01*
X188689870Y-106214344D01*
X188688906Y-106217372D01*
X188688548Y-106220671D01*
X188688792Y-106224233D01*
X188689632Y-106228047D01*
X188691065Y-106232106D01*
X188693085Y-106236401D01*
X188695689Y-106240921D01*
X188698871Y-106245658D01*
X188702628Y-106250603D01*
X188711846Y-106261081D01*
X188723307Y-106272283D01*
X188736975Y-106284136D01*
X188752813Y-106296568D01*
X188770785Y-106309506D01*
X188790855Y-106322878D01*
X188812987Y-106336611D01*
X188844558Y-106353815D01*
X188874555Y-106368324D01*
X188889014Y-106374539D01*
X188903141Y-106380047D01*
X188916956Y-106384836D01*
X188930479Y-106388894D01*
X188943731Y-106392212D01*
X188956732Y-106394776D01*
X188969502Y-106396576D01*
X188982062Y-106397600D01*
X188994433Y-106397838D01*
X189006633Y-106397278D01*
X189018685Y-106395908D01*
X189030607Y-106393718D01*
X189042421Y-106390695D01*
X189054147Y-106386830D01*
X189065805Y-106382109D01*
X189077416Y-106376523D01*
X189088999Y-106370060D01*
X189100576Y-106362708D01*
X189112166Y-106354456D01*
X189123790Y-106345293D01*
X189135469Y-106335208D01*
X189147222Y-106324189D01*
X189159069Y-106312225D01*
X189171033Y-106299305D01*
X189183132Y-106285417D01*
X189195387Y-106270550D01*
X189220446Y-106237834D01*
X189240549Y-106215849D01*
X189259151Y-106196234D01*
X189276198Y-106179043D01*
X189291635Y-106164329D01*
X189305408Y-106152148D01*
X189311654Y-106147024D01*
X189317463Y-106142553D01*
X189322829Y-106138742D01*
X189327745Y-106135599D01*
X189332205Y-106133129D01*
X189336201Y-106131339D01*
X189339727Y-106130237D01*
X189342775Y-106129829D01*
X189345340Y-106130122D01*
X189347415Y-106131122D01*
X189348992Y-106132837D01*
X189350064Y-106135273D01*
X189350626Y-106138437D01*
X189350670Y-106142336D01*
X189350190Y-106146976D01*
X189349178Y-106152365D01*
X189347628Y-106158509D01*
X189345534Y-106165415D01*
X189342887Y-106173089D01*
X189339683Y-106181539D01*
X189331571Y-106200792D01*
X189323594Y-106217872D01*
X189318114Y-106232094D01*
X189316276Y-106238145D01*
X189315021Y-106243495D01*
X189314336Y-106248149D01*
X189314207Y-106252110D01*
X189314621Y-106255385D01*
X189315564Y-106257976D01*
X189317022Y-106259890D01*
X189318982Y-106261130D01*
X189321431Y-106261700D01*
X189324354Y-106261606D01*
X189327739Y-106260851D01*
X189331571Y-106259441D01*
X189335837Y-106257380D01*
X189340524Y-106254673D01*
X189351104Y-106247335D01*
X189363204Y-106237466D01*
X189376715Y-106225101D01*
X189391528Y-106210276D01*
X189407535Y-106193027D01*
X189424627Y-106173391D01*
X189442696Y-106151403D01*
X189463227Y-106126814D01*
X189483089Y-106104016D01*
X189502192Y-106083063D01*
X189520445Y-106064008D01*
X189529224Y-106055210D01*
X189537757Y-106046907D01*
X189546032Y-106039106D01*
X189554038Y-106031814D01*
X189561763Y-106025037D01*
X189569197Y-106018782D01*
X189576328Y-106013057D01*
X189583145Y-106007867D01*
X189589637Y-106003220D01*
X189595791Y-105999122D01*
X189601597Y-105995580D01*
X189607044Y-105992602D01*
X189612120Y-105990193D01*
X189616814Y-105988360D01*
X189621114Y-105987111D01*
X189625010Y-105986452D01*
X189628490Y-105986390D01*
X189631542Y-105986932D01*
X189632905Y-105987431D01*
X189634156Y-105988084D01*
X189635295Y-105988891D01*
X189636320Y-105989853D01*
X189637230Y-105990971D01*
X189638023Y-105992246D01*
X189639253Y-105995270D01*
X189640000Y-105998931D01*
X189640251Y-106003237D01*
X189640682Y-106008665D01*
X189641960Y-106013384D01*
X189644066Y-106017406D01*
X189646979Y-106020745D01*
X189650679Y-106023415D01*
X189655146Y-106025429D01*
X189660358Y-106026802D01*
X189666296Y-106027546D01*
X189680268Y-106027202D01*
X189696899Y-106024507D01*
X189716026Y-106019569D01*
X189737486Y-106012497D01*
X189761116Y-106003400D01*
X189786754Y-105992385D01*
X189814237Y-105979561D01*
X189843402Y-105965038D01*
X189906126Y-105931324D01*
X189973626Y-105892112D01*
X190307001Y-105669862D01*
X190763848Y-106213139D01*
X190809388Y-106268645D01*
X190853245Y-106323806D01*
X190895185Y-106378281D01*
X190934973Y-106431724D01*
X190972373Y-106483793D01*
X191007151Y-106534143D01*
X191039071Y-106582432D01*
X191067899Y-106628315D01*
X191093398Y-106671449D01*
X191115334Y-106711490D01*
X191133472Y-106748095D01*
X191147577Y-106780919D01*
X191157413Y-106809620D01*
X191160657Y-106822316D01*
X191162746Y-106833853D01*
X191163650Y-106844187D01*
X191163339Y-106853275D01*
X191161786Y-106861075D01*
X191158959Y-106867543D01*
X191154581Y-106873185D01*
X191150700Y-106878536D01*
X191147307Y-106883593D01*
X191144394Y-106888354D01*
X191141950Y-106892817D01*
X191139968Y-106896979D01*
X191138438Y-106900838D01*
X191137352Y-106904391D01*
X191136699Y-106907637D01*
X191136472Y-106910574D01*
X191136660Y-106913198D01*
X191137255Y-106915508D01*
X191138249Y-106917502D01*
X191139631Y-106919177D01*
X191141393Y-106920531D01*
X191143525Y-106921561D01*
X191146020Y-106922266D01*
X191148867Y-106922644D01*
X191152058Y-106922691D01*
X191155583Y-106922405D01*
X191159434Y-106921786D01*
X191163602Y-106920829D01*
X191168077Y-106919533D01*
X191172850Y-106917896D01*
X191183256Y-106913588D01*
X191194747Y-106907888D01*
X191207251Y-106900776D01*
X191220695Y-106892236D01*
X191227675Y-106888909D01*
X191234719Y-106885873D01*
X191241816Y-106883131D01*
X191248959Y-106880685D01*
X191256138Y-106878538D01*
X191263344Y-106876691D01*
X191270568Y-106875147D01*
X191277801Y-106873909D01*
X191285035Y-106872978D01*
X191292259Y-106872356D01*
X191299465Y-106872047D01*
X191306644Y-106872052D01*
X191313786Y-106872373D01*
X191320884Y-106873013D01*
X191327927Y-106873975D01*
X191334907Y-106875259D01*
X191341815Y-106876869D01*
X191348641Y-106878807D01*
X191355377Y-106881075D01*
X191362013Y-106883676D01*
X191368541Y-106886611D01*
X191374951Y-106889882D01*
X191381235Y-106893493D01*
X191387383Y-106897446D01*
X191393386Y-106901742D01*
X191399236Y-106906384D01*
X191404923Y-106911374D01*
X191410438Y-106916714D01*
X191415772Y-106922407D01*
X191420916Y-106928456D01*
X191425861Y-106934861D01*
X191430598Y-106941626D01*
X191435335Y-106948390D01*
X191440281Y-106954796D01*
X191445425Y-106960844D01*
X191450759Y-106966537D01*
X191456274Y-106971877D01*
X191461961Y-106976867D01*
X191467810Y-106981509D01*
X191473813Y-106985805D01*
X191479961Y-106989758D01*
X191486245Y-106993369D01*
X191492655Y-106996640D01*
X191499183Y-106999575D01*
X191505820Y-107002176D01*
X191512555Y-107004444D01*
X191519382Y-107006382D01*
X191526289Y-107007992D01*
X191533269Y-107009276D01*
X191540313Y-107010237D01*
X191547410Y-107010878D01*
X191554553Y-107011199D01*
X191568938Y-107010895D01*
X191583395Y-107009342D01*
X191597853Y-107006560D01*
X191612238Y-107002566D01*
X191626478Y-106997378D01*
X191640501Y-106991014D01*
X191647301Y-106986600D01*
X191653807Y-106982616D01*
X191660015Y-106979057D01*
X191665919Y-106975918D01*
X191671516Y-106973195D01*
X191676801Y-106970884D01*
X191681770Y-106968980D01*
X191686417Y-106967478D01*
X191690739Y-106966374D01*
X191694731Y-106965663D01*
X191698389Y-106965341D01*
X191701707Y-106965404D01*
X191704681Y-106965846D01*
X191707308Y-106966664D01*
X191709581Y-106967852D01*
X191711498Y-106969407D01*
X191713052Y-106971323D01*
X191714241Y-106973597D01*
X191715058Y-106976223D01*
X191715501Y-106979198D01*
X191715563Y-106982516D01*
X191715242Y-106986173D01*
X191714531Y-106990165D01*
X191713427Y-106994487D01*
X191711925Y-106999135D01*
X191710020Y-107004103D01*
X191707709Y-107009388D01*
X191704986Y-107014985D01*
X191701847Y-107020890D01*
X191698288Y-107027098D01*
X191694304Y-107033603D01*
X191689890Y-107040403D01*
X191686562Y-107047383D01*
X191683526Y-107054427D01*
X191680784Y-107061524D01*
X191678338Y-107068667D01*
X191676191Y-107075846D01*
X191674344Y-107083052D01*
X191672801Y-107090276D01*
X191671562Y-107097509D01*
X191670631Y-107104743D01*
X191670009Y-107111967D01*
X191669700Y-107119173D01*
X191669705Y-107126352D01*
X191670026Y-107133494D01*
X191670667Y-107140592D01*
X191671628Y-107147635D01*
X191672912Y-107154615D01*
X191674523Y-107161523D01*
X191676460Y-107168349D01*
X191678728Y-107175085D01*
X191681329Y-107181721D01*
X191684264Y-107188249D01*
X191687536Y-107194659D01*
X191691146Y-107200943D01*
X191695099Y-107207091D01*
X191699395Y-107213094D01*
X191704037Y-107218944D01*
X191709027Y-107224630D01*
X191714367Y-107230145D01*
X191720060Y-107235479D01*
X191726109Y-107240624D01*
X191732514Y-107245569D01*
X191739279Y-107250306D01*
X191780806Y-107271287D01*
X191799725Y-107276677D01*
X191817414Y-107278666D01*
X191833873Y-107277255D01*
X191849102Y-107272444D01*
X191863101Y-107264233D01*
X191875870Y-107252621D01*
X191887409Y-107237609D01*
X191897719Y-107219197D01*
X191914648Y-107172171D01*
X191926658Y-107111545D01*
X191933748Y-107037317D01*
X191935918Y-106949487D01*
X191933169Y-106848057D01*
X191925500Y-106733025D01*
X191912912Y-106604392D01*
X191895404Y-106462158D01*
X191872976Y-106306322D01*
X191813362Y-105953848D01*
X191736361Y-105542748D01*
X191706063Y-105376817D01*
X191681208Y-105234815D01*
X191670817Y-105172205D01*
X191661780Y-105114879D01*
X191654095Y-105062603D01*
X191647760Y-105015146D01*
X191642772Y-104972273D01*
X191639130Y-104933752D01*
X191636830Y-104899351D01*
X191635871Y-104868836D01*
X191636250Y-104841974D01*
X191637966Y-104818534D01*
X191641016Y-104798281D01*
X191643040Y-104789277D01*
X191645397Y-104780982D01*
X191648086Y-104773369D01*
X191651107Y-104766406D01*
X191654460Y-104760066D01*
X191658145Y-104754320D01*
X191662161Y-104749137D01*
X191666507Y-104744489D01*
X191671185Y-104740347D01*
X191676192Y-104736682D01*
X191681530Y-104733465D01*
X191687198Y-104730666D01*
X191693195Y-104728256D01*
X191699521Y-104726207D01*
X191713160Y-104723073D01*
X191728113Y-104721031D01*
X191744377Y-104719848D01*
X191761951Y-104719292D01*
X191801015Y-104719126D01*
X191810237Y-104718947D01*
X191819373Y-104718414D01*
X191828409Y-104717539D01*
X191837333Y-104716328D01*
X191846130Y-104714793D01*
X191854787Y-104712940D01*
X191863290Y-104710780D01*
X191871625Y-104708322D01*
X191879780Y-104705574D01*
X191887741Y-104702546D01*
X191895493Y-104699247D01*
X191903024Y-104695685D01*
X191910320Y-104691871D01*
X191917367Y-104687812D01*
X191924152Y-104683517D01*
X191930661Y-104678997D01*
X191936880Y-104674260D01*
X191942797Y-104669315D01*
X191948397Y-104664171D01*
X191953667Y-104658837D01*
X191958594Y-104653322D01*
X191963163Y-104647635D01*
X191967361Y-104641785D01*
X191971175Y-104635782D01*
X191974591Y-104629634D01*
X191977596Y-104623350D01*
X191980176Y-104616940D01*
X191982317Y-104610412D01*
X191984005Y-104603776D01*
X191985229Y-104597040D01*
X191985972Y-104590214D01*
X191986223Y-104583306D01*
X191986332Y-104577592D01*
X191986654Y-104572029D01*
X191987190Y-104566625D01*
X191987936Y-104561385D01*
X191988889Y-104556318D01*
X191990049Y-104551428D01*
X191991412Y-104546725D01*
X191992976Y-104542213D01*
X191994739Y-104537901D01*
X191996699Y-104533794D01*
X191998853Y-104529900D01*
X192001199Y-104526225D01*
X192003735Y-104522776D01*
X192006459Y-104519560D01*
X192009369Y-104516583D01*
X192012461Y-104513853D01*
X192015734Y-104511377D01*
X192019186Y-104509160D01*
X192022815Y-104507210D01*
X192026617Y-104505533D01*
X192030591Y-104504137D01*
X192034735Y-104503028D01*
X192039046Y-104502213D01*
X192043522Y-104501699D01*
X192048161Y-104501492D01*
X192052960Y-104501599D01*
X192057918Y-104502028D01*
X192063032Y-104502784D01*
X192068299Y-104503875D01*
X192073718Y-104505307D01*
X192079286Y-104507088D01*
X192085001Y-104509223D01*
X192101377Y-104514450D01*
X192124704Y-104514142D01*
X192154485Y-104508626D01*
X192190218Y-104498226D01*
X192277544Y-104464078D01*
X192382685Y-104414304D01*
X192501644Y-104351506D01*
X192630425Y-104278291D01*
X192765030Y-104197263D01*
X192901461Y-104111025D01*
X193035722Y-104022183D01*
X193163815Y-103933341D01*
X193281744Y-103847103D01*
X193385511Y-103766075D01*
X193471118Y-103692859D01*
X193534570Y-103630062D01*
X193556738Y-103603384D01*
X193571868Y-103580288D01*
X193579460Y-103561097D01*
X193579015Y-103546140D01*
X193575445Y-103539232D01*
X193569408Y-103532406D01*
X193550197Y-103519034D01*
X193521906Y-103506096D01*
X193485060Y-103493664D01*
X193440184Y-103481811D01*
X193387802Y-103470609D01*
X193262617Y-103450449D01*
X193113703Y-103433760D01*
X192945255Y-103421124D01*
X192761470Y-103413117D01*
X192566543Y-103410320D01*
X192467524Y-103407438D01*
X192369952Y-103403471D01*
X192181464Y-103392571D01*
X192005709Y-103378198D01*
X191924053Y-103369890D01*
X191847317Y-103360931D01*
X191776079Y-103351394D01*
X191710919Y-103341349D01*
X191652414Y-103330871D01*
X191601144Y-103320031D01*
X191557688Y-103308902D01*
X191522624Y-103297555D01*
X191496530Y-103286064D01*
X191487029Y-103280287D01*
X191479987Y-103274501D01*
X191469886Y-103261126D01*
X191458211Y-103239846D01*
X191430791Y-103175530D01*
X191399031Y-103085458D01*
X191364232Y-102973537D01*
X191327697Y-102843674D01*
X191290727Y-102699776D01*
X191254626Y-102545749D01*
X191230130Y-102430056D01*
X191515899Y-102430056D01*
X191516417Y-102475600D01*
X191519164Y-102525019D01*
X191524143Y-102578306D01*
X191540804Y-102696457D01*
X191566418Y-102830001D01*
X191576182Y-102871851D01*
X191587230Y-102909558D01*
X191599978Y-102943323D01*
X191614842Y-102973344D01*
X191623198Y-102987013D01*
X191632238Y-102999820D01*
X191642016Y-103011791D01*
X191652583Y-103022950D01*
X191663991Y-103033323D01*
X191676292Y-103042933D01*
X191689538Y-103051807D01*
X191703781Y-103059968D01*
X191719073Y-103067442D01*
X191735466Y-103074253D01*
X191771763Y-103085989D01*
X191813088Y-103095373D01*
X191859857Y-103102604D01*
X191912487Y-103107883D01*
X191971392Y-103111407D01*
X192036990Y-103113375D01*
X192109695Y-103113987D01*
X192160007Y-103113556D01*
X192208907Y-103112275D01*
X192256144Y-103110162D01*
X192301463Y-103107235D01*
X192344612Y-103103512D01*
X192385338Y-103099011D01*
X192423386Y-103093751D01*
X192458505Y-103087749D01*
X192490440Y-103081024D01*
X192518938Y-103073593D01*
X192531820Y-103069619D01*
X192543747Y-103065475D01*
X192554689Y-103061164D01*
X192564613Y-103056688D01*
X192573489Y-103052049D01*
X192581283Y-103047250D01*
X192587966Y-103042292D01*
X192593504Y-103037179D01*
X192597867Y-103031911D01*
X192601022Y-103026492D01*
X192602938Y-103020924D01*
X192603584Y-103015209D01*
X192603082Y-103010150D01*
X192601592Y-103004249D01*
X192595747Y-102990033D01*
X192586248Y-102972778D01*
X192573295Y-102952701D01*
X192557086Y-102930021D01*
X192537821Y-102904952D01*
X192515698Y-102877714D01*
X192490916Y-102848522D01*
X192434172Y-102785146D01*
X192369180Y-102716561D01*
X192297533Y-102644503D01*
X192220821Y-102570709D01*
X192114039Y-102467678D01*
X192015958Y-102380798D01*
X191970185Y-102343398D01*
X191926594Y-102310016D01*
X191885187Y-102280644D01*
X191845967Y-102255276D01*
X191808934Y-102233906D01*
X191774093Y-102216525D01*
X191741444Y-102203129D01*
X191710991Y-102193709D01*
X191682736Y-102188259D01*
X191656680Y-102186773D01*
X191632826Y-102189243D01*
X191611176Y-102195662D01*
X191591734Y-102206025D01*
X191574500Y-102220324D01*
X191559477Y-102238552D01*
X191546667Y-102260702D01*
X191536073Y-102286769D01*
X191527697Y-102316744D01*
X191521541Y-102350622D01*
X191517608Y-102388395D01*
X191515899Y-102430056D01*
X191230130Y-102430056D01*
X191220695Y-102385501D01*
X191203796Y-102303088D01*
X191185631Y-102222792D01*
X191166381Y-102144992D01*
X191146226Y-102070068D01*
X191125348Y-101998399D01*
X191103927Y-101930366D01*
X191082145Y-101866348D01*
X191060182Y-101806725D01*
X191038218Y-101751877D01*
X191016436Y-101702184D01*
X191006504Y-101681709D01*
X191245390Y-101681709D01*
X191248236Y-101688039D01*
X191256580Y-101697625D01*
X191270133Y-101710250D01*
X191288605Y-101725696D01*
X191339152Y-101764185D01*
X191405904Y-101811355D01*
X191486547Y-101865471D01*
X191578765Y-101924795D01*
X191680244Y-101987592D01*
X191788668Y-102052126D01*
X191843893Y-102085215D01*
X191898249Y-102119481D01*
X191951448Y-102154650D01*
X192003201Y-102190453D01*
X192053217Y-102226618D01*
X192101207Y-102262873D01*
X192146882Y-102298947D01*
X192189952Y-102334569D01*
X192230129Y-102369467D01*
X192267123Y-102403371D01*
X192300643Y-102436008D01*
X192330402Y-102467108D01*
X192356109Y-102496400D01*
X192377476Y-102523611D01*
X192394212Y-102548471D01*
X192400754Y-102559935D01*
X192406029Y-102570709D01*
X192409752Y-102580980D01*
X192413960Y-102590951D01*
X192418634Y-102600610D01*
X192423754Y-102609945D01*
X192429299Y-102618946D01*
X192435248Y-102627601D01*
X192441582Y-102635899D01*
X192448280Y-102643828D01*
X192455321Y-102651377D01*
X192462686Y-102658535D01*
X192470353Y-102665291D01*
X192478304Y-102671633D01*
X192486516Y-102677550D01*
X192494970Y-102683031D01*
X192503646Y-102688064D01*
X192512524Y-102692638D01*
X192521582Y-102696742D01*
X192530800Y-102700364D01*
X192540159Y-102703493D01*
X192549638Y-102706119D01*
X192559216Y-102708228D01*
X192568873Y-102709811D01*
X192578589Y-102710856D01*
X192588343Y-102711352D01*
X192598116Y-102711287D01*
X192607886Y-102710649D01*
X192617634Y-102709429D01*
X192627338Y-102707614D01*
X192636980Y-102705193D01*
X192646537Y-102702155D01*
X192655991Y-102698488D01*
X192665320Y-102694181D01*
X192674507Y-102690853D01*
X192683537Y-102687812D01*
X192692400Y-102685055D01*
X192701084Y-102682582D01*
X192709578Y-102680388D01*
X192717871Y-102678473D01*
X192725952Y-102676833D01*
X192733809Y-102675468D01*
X192741431Y-102674373D01*
X192748806Y-102673547D01*
X192755923Y-102672989D01*
X192762772Y-102672694D01*
X192769340Y-102672662D01*
X192775616Y-102672890D01*
X192781590Y-102673376D01*
X192787249Y-102674117D01*
X192792583Y-102675111D01*
X192797580Y-102676357D01*
X192802228Y-102677851D01*
X192806518Y-102679591D01*
X192810436Y-102681576D01*
X192813972Y-102683803D01*
X192817115Y-102686269D01*
X192819854Y-102688972D01*
X192822176Y-102691911D01*
X192824071Y-102695083D01*
X192825527Y-102698485D01*
X192826534Y-102702115D01*
X192827079Y-102705972D01*
X192827151Y-102710052D01*
X192826740Y-102714354D01*
X192825834Y-102718876D01*
X192823112Y-102739845D01*
X192821852Y-102761033D01*
X192821999Y-102782370D01*
X192823495Y-102803787D01*
X192826284Y-102825213D01*
X192830311Y-102846577D01*
X192835517Y-102867811D01*
X192841847Y-102888843D01*
X192849244Y-102909604D01*
X192857652Y-102930024D01*
X192867014Y-102950032D01*
X192877273Y-102969558D01*
X192888373Y-102988533D01*
X192900258Y-103006886D01*
X192912871Y-103024547D01*
X192926155Y-103041447D01*
X192940055Y-103057514D01*
X192954512Y-103072680D01*
X192969472Y-103086873D01*
X192984877Y-103100024D01*
X193000671Y-103112063D01*
X193016797Y-103122919D01*
X193033199Y-103132522D01*
X193049821Y-103140803D01*
X193066605Y-103147692D01*
X193083495Y-103153118D01*
X193100435Y-103157010D01*
X193117369Y-103159300D01*
X193134239Y-103159917D01*
X193150989Y-103158791D01*
X193167563Y-103155851D01*
X193183904Y-103151029D01*
X193207028Y-103140719D01*
X193216802Y-103134737D01*
X193225358Y-103128167D01*
X193232676Y-103120982D01*
X193238734Y-103113155D01*
X193243512Y-103104659D01*
X193246990Y-103095466D01*
X193249148Y-103085550D01*
X193249966Y-103074883D01*
X193249422Y-103063439D01*
X193247497Y-103051190D01*
X193244170Y-103038108D01*
X193239421Y-103024168D01*
X193225575Y-102993601D01*
X193205798Y-102959273D01*
X193179925Y-102920965D01*
X193147793Y-102878461D01*
X193109242Y-102831544D01*
X193064106Y-102779997D01*
X193012224Y-102723602D01*
X192953433Y-102662144D01*
X192887570Y-102595404D01*
X192810506Y-102518031D01*
X192732338Y-102443499D01*
X192653410Y-102372041D01*
X192574067Y-102303893D01*
X192494651Y-102239290D01*
X192415506Y-102178468D01*
X192336977Y-102121660D01*
X192259406Y-102069103D01*
X192183137Y-102021032D01*
X192108514Y-101977681D01*
X192035881Y-101939285D01*
X191965580Y-101906081D01*
X191897957Y-101878303D01*
X191833354Y-101856186D01*
X191772116Y-101839965D01*
X191714585Y-101829876D01*
X191698548Y-101824088D01*
X191678893Y-101815985D01*
X191668026Y-101811066D01*
X191656635Y-101805567D01*
X191644845Y-101799490D01*
X191632784Y-101792834D01*
X191620579Y-101785600D01*
X191608355Y-101777786D01*
X191596240Y-101769394D01*
X191584360Y-101760423D01*
X191572841Y-101750873D01*
X191561812Y-101740745D01*
X191551397Y-101730037D01*
X191541723Y-101718751D01*
X191532182Y-101710795D01*
X191522117Y-101703142D01*
X191511582Y-101695806D01*
X191500630Y-101688799D01*
X191489317Y-101682137D01*
X191477696Y-101675831D01*
X191465822Y-101669896D01*
X191453749Y-101664346D01*
X191441532Y-101659194D01*
X191429224Y-101654453D01*
X191416879Y-101650137D01*
X191404553Y-101646259D01*
X191392300Y-101642834D01*
X191380172Y-101639875D01*
X191368226Y-101637395D01*
X191356515Y-101635407D01*
X191345093Y-101633926D01*
X191334015Y-101632966D01*
X191323335Y-101632538D01*
X191313107Y-101632658D01*
X191303385Y-101633339D01*
X191294224Y-101634593D01*
X191285678Y-101636436D01*
X191277801Y-101638880D01*
X191270648Y-101641939D01*
X191264273Y-101645626D01*
X191258729Y-101649956D01*
X191254072Y-101654941D01*
X191250355Y-101660595D01*
X191247633Y-101666932D01*
X191245960Y-101673966D01*
X191245390Y-101681709D01*
X191006504Y-101681709D01*
X190995015Y-101658025D01*
X190974137Y-101619780D01*
X190953982Y-101587830D01*
X190944233Y-101574334D01*
X190934732Y-101562554D01*
X190925502Y-101552537D01*
X190916567Y-101544331D01*
X190907948Y-101537984D01*
X190899668Y-101533543D01*
X190890553Y-101531444D01*
X190881732Y-101529778D01*
X190873209Y-101528541D01*
X190864989Y-101527731D01*
X190857077Y-101527346D01*
X190849477Y-101527384D01*
X190842193Y-101527843D01*
X190835231Y-101528720D01*
X190828594Y-101530012D01*
X190822287Y-101531719D01*
X190816314Y-101533837D01*
X190810681Y-101536364D01*
X190805391Y-101539298D01*
X190800450Y-101542637D01*
X190795861Y-101546378D01*
X190791630Y-101550520D01*
X190787760Y-101555059D01*
X190784256Y-101559994D01*
X190781123Y-101565323D01*
X190778366Y-101571042D01*
X190775988Y-101577151D01*
X190773995Y-101583646D01*
X190772391Y-101590525D01*
X190771180Y-101597787D01*
X190770366Y-101605428D01*
X190769956Y-101613447D01*
X190769952Y-101621841D01*
X190770360Y-101630608D01*
X190771183Y-101639746D01*
X190772428Y-101649253D01*
X190774097Y-101659125D01*
X190776196Y-101669362D01*
X190781396Y-101704526D01*
X190782676Y-101720702D01*
X190783069Y-101735945D01*
X190782566Y-101750257D01*
X190781160Y-101763639D01*
X190778846Y-101776094D01*
X190775617Y-101787625D01*
X190771465Y-101798233D01*
X190766384Y-101807922D01*
X190760366Y-101816692D01*
X190753406Y-101824546D01*
X190745497Y-101831487D01*
X190736631Y-101837518D01*
X190726802Y-101842639D01*
X190716003Y-101846853D01*
X190704227Y-101850164D01*
X190691468Y-101852572D01*
X190677719Y-101854080D01*
X190662973Y-101854691D01*
X190647222Y-101854406D01*
X190630462Y-101853229D01*
X190593881Y-101848204D01*
X190553177Y-101839634D01*
X190508295Y-101827537D01*
X190459180Y-101811931D01*
X190405779Y-101792834D01*
X190386580Y-101787207D01*
X190363887Y-101784132D01*
X190337971Y-101783485D01*
X190309099Y-101785141D01*
X190277542Y-101788978D01*
X190243568Y-101794869D01*
X190169445Y-101812320D01*
X190088884Y-101836499D01*
X190004036Y-101866411D01*
X189917054Y-101901062D01*
X189830090Y-101939458D01*
X189745296Y-101980602D01*
X189664825Y-102023501D01*
X189590829Y-102067159D01*
X189525461Y-102110582D01*
X189470872Y-102152776D01*
X189448292Y-102173100D01*
X189429215Y-102192744D01*
X189413909Y-102211583D01*
X189402642Y-102229493D01*
X189395685Y-102246350D01*
X189393307Y-102262028D01*
X189393164Y-102268829D01*
X189392740Y-102275337D01*
X189392045Y-102281552D01*
X189391088Y-102287471D01*
X189389878Y-102293091D01*
X189388423Y-102298410D01*
X189386734Y-102303427D01*
X189384818Y-102308138D01*
X189382685Y-102312542D01*
X189380345Y-102316636D01*
X189377805Y-102320418D01*
X189375075Y-102323885D01*
X189372165Y-102327037D01*
X189369083Y-102329869D01*
X189365837Y-102332380D01*
X189362439Y-102334569D01*
X189358895Y-102336431D01*
X189355216Y-102337966D01*
X189351410Y-102339170D01*
X189347487Y-102340043D01*
X189343455Y-102340580D01*
X189339324Y-102340781D01*
X189335102Y-102340643D01*
X189330799Y-102340163D01*
X189326423Y-102339340D01*
X189321985Y-102338171D01*
X189317492Y-102336653D01*
X189312953Y-102334785D01*
X189308379Y-102332565D01*
X189303777Y-102329989D01*
X189299158Y-102327057D01*
X189294529Y-102323765D01*
X189288348Y-102320795D01*
X189281398Y-102318815D01*
X189273707Y-102317803D01*
X189265301Y-102317736D01*
X189256208Y-102318591D01*
X189246454Y-102320346D01*
X189225076Y-102326466D01*
X189201382Y-102335913D01*
X189175591Y-102348507D01*
X189147918Y-102364068D01*
X189118581Y-102382414D01*
X189087797Y-102403364D01*
X189055784Y-102426738D01*
X189022758Y-102452355D01*
X188988935Y-102480034D01*
X188954534Y-102509594D01*
X188919772Y-102540854D01*
X188884864Y-102573633D01*
X188850029Y-102607751D01*
X188777974Y-102685313D01*
X188719250Y-102755966D01*
X188673873Y-102819745D01*
X188656196Y-102849069D01*
X188641863Y-102876689D01*
X188630875Y-102902608D01*
X188623236Y-102926831D01*
X188618948Y-102949363D01*
X188618012Y-102970209D01*
X188620432Y-102989373D01*
X188626209Y-103006859D01*
X188635345Y-103022672D01*
X188647843Y-103036817D01*
X188663706Y-103049297D01*
X188682935Y-103060118D01*
X188705532Y-103069285D01*
X188731501Y-103076800D01*
X188760842Y-103082670D01*
X188793559Y-103086899D01*
X188829654Y-103089491D01*
X188869129Y-103090450D01*
X188958227Y-103087490D01*
X189060872Y-103078054D01*
X189177083Y-103062180D01*
X189306876Y-103039903D01*
X189412406Y-103022034D01*
X189514464Y-103005756D01*
X189610734Y-102991503D01*
X189698901Y-102979711D01*
X189776650Y-102970812D01*
X189841665Y-102965242D01*
X189868675Y-102963840D01*
X189891633Y-102963433D01*
X189910250Y-102964075D01*
X189924237Y-102965820D01*
X189932230Y-102967490D01*
X189939997Y-102967894D01*
X189947529Y-102967068D01*
X189954816Y-102965049D01*
X189961850Y-102961871D01*
X189968622Y-102957573D01*
X189975123Y-102952189D01*
X189981343Y-102945756D01*
X189992907Y-102929888D01*
X190003240Y-102910258D01*
X190012272Y-102887155D01*
X190019928Y-102860869D01*
X190026138Y-102831689D01*
X190030828Y-102799904D01*
X190033927Y-102765805D01*
X190035362Y-102729680D01*
X190035061Y-102691818D01*
X190032951Y-102652509D01*
X190028960Y-102612043D01*
X190023015Y-102570709D01*
X190022109Y-102565066D01*
X190021701Y-102559712D01*
X190021781Y-102554648D01*
X190022340Y-102549873D01*
X190023369Y-102545388D01*
X190024860Y-102541191D01*
X190026803Y-102537285D01*
X190029189Y-102533667D01*
X190032009Y-102530339D01*
X190035254Y-102527301D01*
X190038915Y-102524552D01*
X190042983Y-102522092D01*
X190047449Y-102519922D01*
X190052304Y-102518041D01*
X190057538Y-102516449D01*
X190063144Y-102515147D01*
X190075430Y-102513410D01*
X190089092Y-102512832D01*
X190104056Y-102513410D01*
X190120249Y-102515147D01*
X190137601Y-102518041D01*
X190156037Y-102522092D01*
X190175486Y-102527301D01*
X190195876Y-102533667D01*
X190205098Y-102538082D01*
X190214234Y-102542069D01*
X190223271Y-102545635D01*
X190232194Y-102548788D01*
X190240991Y-102551534D01*
X190249648Y-102553879D01*
X190258151Y-102555832D01*
X190266487Y-102557397D01*
X190274642Y-102558583D01*
X190282602Y-102559396D01*
X190290355Y-102559843D01*
X190297886Y-102559930D01*
X190305181Y-102559664D01*
X190312228Y-102559052D01*
X190319013Y-102558102D01*
X190325522Y-102556819D01*
X190331742Y-102555210D01*
X190337658Y-102553283D01*
X190343258Y-102551043D01*
X190348528Y-102548499D01*
X190353455Y-102545656D01*
X190358024Y-102542521D01*
X190362222Y-102539102D01*
X190366036Y-102535404D01*
X190369452Y-102531435D01*
X190372457Y-102527202D01*
X190375037Y-102522710D01*
X190377178Y-102517968D01*
X190378867Y-102512982D01*
X190380090Y-102507758D01*
X190380834Y-102502304D01*
X190381084Y-102496626D01*
X190380941Y-102489754D01*
X190380512Y-102483031D01*
X190379803Y-102476461D01*
X190378818Y-102470050D01*
X190377561Y-102463802D01*
X190376038Y-102457721D01*
X190374253Y-102451812D01*
X190372210Y-102446079D01*
X190369914Y-102440527D01*
X190367369Y-102435161D01*
X190364580Y-102429984D01*
X190361551Y-102425002D01*
X190358287Y-102420219D01*
X190354792Y-102415639D01*
X190351072Y-102411268D01*
X190347130Y-102407108D01*
X190342970Y-102403166D01*
X190338599Y-102399446D01*
X190334019Y-102395951D01*
X190329236Y-102392687D01*
X190324254Y-102389659D01*
X190319077Y-102386869D01*
X190313711Y-102384324D01*
X190308159Y-102382028D01*
X190302426Y-102379985D01*
X190296517Y-102378200D01*
X190290436Y-102376677D01*
X190284188Y-102375421D01*
X190277777Y-102374436D01*
X190271207Y-102373726D01*
X190264484Y-102373298D01*
X190257612Y-102373154D01*
X190251826Y-102372867D01*
X190246052Y-102372014D01*
X190240300Y-102370610D01*
X190234582Y-102368668D01*
X190228909Y-102366202D01*
X190223293Y-102363224D01*
X190217744Y-102359749D01*
X190212275Y-102355790D01*
X190201619Y-102346476D01*
X190191415Y-102335389D01*
X190181753Y-102322637D01*
X190172725Y-102308331D01*
X190164420Y-102292577D01*
X190156929Y-102275485D01*
X190150343Y-102257163D01*
X190144751Y-102237720D01*
X190140244Y-102217264D01*
X190136913Y-102195904D01*
X190136197Y-102188217D01*
X190301955Y-102188217D01*
X190302195Y-102193583D01*
X190302757Y-102199135D01*
X190303644Y-102204868D01*
X190304861Y-102210777D01*
X190306413Y-102216858D01*
X190308303Y-102223106D01*
X190310538Y-102229517D01*
X190313121Y-102236086D01*
X190316056Y-102242809D01*
X190319348Y-102249681D01*
X190326571Y-102261242D01*
X190334300Y-102272712D01*
X190342463Y-102284001D01*
X190350988Y-102295019D01*
X190359802Y-102305675D01*
X190368834Y-102315879D01*
X190378010Y-102325540D01*
X190387258Y-102334569D01*
X190396507Y-102342873D01*
X190405683Y-102350364D01*
X190414714Y-102356951D01*
X190423528Y-102362543D01*
X190427831Y-102364937D01*
X190432053Y-102367049D01*
X190436184Y-102368868D01*
X190440216Y-102370380D01*
X190444139Y-102371577D01*
X190447945Y-102372445D01*
X190451624Y-102372975D01*
X190455168Y-102373154D01*
X190457482Y-102372975D01*
X190459792Y-102372445D01*
X190462093Y-102371577D01*
X190464380Y-102370380D01*
X190466649Y-102368868D01*
X190468896Y-102367049D01*
X190473303Y-102362543D01*
X190477565Y-102356951D01*
X190481647Y-102350364D01*
X190485511Y-102342873D01*
X190489123Y-102334569D01*
X190492445Y-102325540D01*
X190495441Y-102315879D01*
X190498076Y-102305675D01*
X190500312Y-102295019D01*
X190502115Y-102284001D01*
X190503447Y-102272712D01*
X190504273Y-102261242D01*
X190504557Y-102249681D01*
X190504377Y-102242809D01*
X190503845Y-102236086D01*
X190502969Y-102229517D01*
X190501759Y-102223106D01*
X190500223Y-102216858D01*
X190498371Y-102210777D01*
X190496211Y-102204868D01*
X190493753Y-102199135D01*
X190491005Y-102193583D01*
X190487977Y-102188217D01*
X190484678Y-102183040D01*
X190481116Y-102178058D01*
X190477301Y-102173275D01*
X190473242Y-102168695D01*
X190468948Y-102164323D01*
X190464428Y-102160164D01*
X190459691Y-102156222D01*
X190454746Y-102152501D01*
X190449602Y-102149007D01*
X190444267Y-102145743D01*
X190438753Y-102142714D01*
X190433066Y-102139925D01*
X190427216Y-102137380D01*
X190421213Y-102135084D01*
X190415065Y-102133041D01*
X190408781Y-102131255D01*
X190402371Y-102129732D01*
X190395843Y-102128476D01*
X190389207Y-102127491D01*
X190382471Y-102126782D01*
X190375645Y-102126353D01*
X190368737Y-102126209D01*
X190363059Y-102126353D01*
X190357602Y-102126782D01*
X190352371Y-102127491D01*
X190347371Y-102128476D01*
X190342606Y-102129732D01*
X190338080Y-102131255D01*
X190333799Y-102133041D01*
X190329766Y-102135084D01*
X190325987Y-102137380D01*
X190322465Y-102139925D01*
X190319206Y-102142714D01*
X190316213Y-102145743D01*
X190313492Y-102149007D01*
X190311047Y-102152501D01*
X190308881Y-102156222D01*
X190307001Y-102160164D01*
X190305410Y-102164323D01*
X190304113Y-102168695D01*
X190303115Y-102173275D01*
X190302419Y-102178058D01*
X190302031Y-102183040D01*
X190301955Y-102188217D01*
X190136197Y-102188217D01*
X190134848Y-102173747D01*
X190134140Y-102150904D01*
X190135099Y-102126126D01*
X190137905Y-102102733D01*
X190142452Y-102080732D01*
X190148634Y-102060132D01*
X190156343Y-102040944D01*
X190165475Y-102023175D01*
X190175923Y-102006835D01*
X190187580Y-101991933D01*
X190200341Y-101978478D01*
X190214099Y-101966479D01*
X190228747Y-101955945D01*
X190244180Y-101946885D01*
X190260291Y-101939308D01*
X190276974Y-101933224D01*
X190294123Y-101928640D01*
X190311631Y-101925567D01*
X190329393Y-101924013D01*
X190347301Y-101923987D01*
X190365251Y-101925499D01*
X190383134Y-101928557D01*
X190400846Y-101933171D01*
X190418280Y-101939349D01*
X190435329Y-101947101D01*
X190451888Y-101956435D01*
X190467850Y-101967361D01*
X190483109Y-101979888D01*
X190497558Y-101994024D01*
X190511092Y-102009779D01*
X190523604Y-102027162D01*
X190534988Y-102046182D01*
X190545137Y-102066847D01*
X190553946Y-102089168D01*
X190560800Y-102111307D01*
X190565229Y-102135916D01*
X190567338Y-102162785D01*
X190567233Y-102191707D01*
X190565022Y-102222475D01*
X190560810Y-102254878D01*
X190554703Y-102288711D01*
X190546807Y-102323765D01*
X190526077Y-102396703D01*
X190499468Y-102472028D01*
X190467832Y-102548077D01*
X190432017Y-102623185D01*
X190392874Y-102695689D01*
X190351254Y-102763924D01*
X190308005Y-102826227D01*
X190286036Y-102854633D01*
X190263979Y-102880933D01*
X190241940Y-102904918D01*
X190220025Y-102926379D01*
X190198341Y-102945109D01*
X190176994Y-102960901D01*
X190156090Y-102973545D01*
X190135735Y-102982834D01*
X190116036Y-102988560D01*
X190097099Y-102990515D01*
X190077703Y-102990949D01*
X190069080Y-102991491D01*
X190061166Y-102992251D01*
X190053958Y-102993228D01*
X190047450Y-102994421D01*
X190041639Y-102995832D01*
X190036520Y-102997460D01*
X190032088Y-102999305D01*
X190028339Y-103001367D01*
X190025268Y-103003646D01*
X190022870Y-103006142D01*
X190021142Y-103008855D01*
X190020079Y-103011785D01*
X190019676Y-103014932D01*
X190019928Y-103018296D01*
X190020832Y-103021877D01*
X190022382Y-103025675D01*
X190024574Y-103029691D01*
X190027404Y-103033923D01*
X190030867Y-103038372D01*
X190034958Y-103043038D01*
X190039674Y-103047922D01*
X190045009Y-103053022D01*
X190057519Y-103063874D01*
X190072452Y-103075595D01*
X190089773Y-103088183D01*
X190109446Y-103101639D01*
X190133176Y-103115416D01*
X190143738Y-103122252D01*
X190153433Y-103129083D01*
X190162259Y-103135933D01*
X190170217Y-103142823D01*
X190177307Y-103149777D01*
X190183529Y-103156816D01*
X190188883Y-103163964D01*
X190193368Y-103171243D01*
X190196985Y-103178676D01*
X190199735Y-103186286D01*
X190201616Y-103194094D01*
X190202629Y-103202124D01*
X190202773Y-103210398D01*
X190202050Y-103218938D01*
X190200458Y-103227768D01*
X190197998Y-103236910D01*
X190194670Y-103246387D01*
X190190474Y-103256221D01*
X190185410Y-103266435D01*
X190179477Y-103277051D01*
X190172677Y-103288092D01*
X190165008Y-103299581D01*
X190147066Y-103323992D01*
X190125651Y-103350465D01*
X190100764Y-103379181D01*
X190072404Y-103410320D01*
X190062204Y-103420664D01*
X190052445Y-103430852D01*
X190043134Y-103440872D01*
X190034277Y-103450714D01*
X190025881Y-103460366D01*
X190017954Y-103469817D01*
X190010501Y-103479055D01*
X190003530Y-103488069D01*
X189997047Y-103496848D01*
X189991059Y-103505381D01*
X189985573Y-103513656D01*
X189980596Y-103521662D01*
X189976134Y-103529388D01*
X189972194Y-103536822D01*
X189968784Y-103543953D01*
X189965909Y-103550770D01*
X189963577Y-103557261D01*
X189961794Y-103563416D01*
X189960568Y-103569222D01*
X189959904Y-103574669D01*
X189959811Y-103579744D01*
X189960293Y-103584438D01*
X189961359Y-103588739D01*
X189962113Y-103590738D01*
X189963015Y-103592635D01*
X189964067Y-103594427D01*
X189965268Y-103596115D01*
X189966621Y-103597695D01*
X189968125Y-103599167D01*
X189969782Y-103600530D01*
X189971592Y-103601781D01*
X189973556Y-103602920D01*
X189975676Y-103603945D01*
X189980384Y-103605648D01*
X189985723Y-103606878D01*
X189991700Y-103607624D01*
X189998321Y-103607876D01*
X190004430Y-103607374D01*
X190011165Y-103605886D01*
X190026415Y-103600062D01*
X190043872Y-103590621D01*
X190063336Y-103577779D01*
X190084609Y-103561755D01*
X190107492Y-103542763D01*
X190131786Y-103521023D01*
X190157291Y-103496751D01*
X190183809Y-103470163D01*
X190211141Y-103441478D01*
X190239088Y-103410911D01*
X190267451Y-103378680D01*
X190296032Y-103345003D01*
X190324630Y-103310095D01*
X190353047Y-103274175D01*
X190381084Y-103237459D01*
X190411163Y-103197102D01*
X190441133Y-103159421D01*
X190470885Y-103124489D01*
X190500312Y-103092379D01*
X190529305Y-103063163D01*
X190557756Y-103036913D01*
X190585555Y-103013702D01*
X190599177Y-103003258D01*
X190612595Y-102993602D01*
X190625796Y-102984741D01*
X190638766Y-102976684D01*
X190651493Y-102969442D01*
X190663961Y-102963023D01*
X190676159Y-102957436D01*
X190688071Y-102952689D01*
X190699685Y-102948793D01*
X190710987Y-102945756D01*
X190721963Y-102943587D01*
X190732600Y-102942296D01*
X190742885Y-102941890D01*
X190752803Y-102942380D01*
X190762342Y-102943774D01*
X190771487Y-102946082D01*
X190780225Y-102949312D01*
X190788543Y-102953473D01*
X190805903Y-102961856D01*
X190820930Y-102968449D01*
X190833606Y-102973197D01*
X190843912Y-102976045D01*
X190848171Y-102976740D01*
X190851831Y-102976941D01*
X190854890Y-102976639D01*
X190857345Y-102975828D01*
X190859194Y-102974502D01*
X190860435Y-102972654D01*
X190861065Y-102970277D01*
X190861083Y-102967364D01*
X190860486Y-102963908D01*
X190859271Y-102959903D01*
X190857437Y-102955341D01*
X190854982Y-102950217D01*
X190848196Y-102938253D01*
X190838896Y-102923955D01*
X190827065Y-102907270D01*
X190812683Y-102888144D01*
X190795732Y-102866521D01*
X190776196Y-102842348D01*
X190754498Y-102815408D01*
X190744745Y-102802538D01*
X190735730Y-102790041D01*
X190727456Y-102777897D01*
X190719928Y-102766085D01*
X190713151Y-102754585D01*
X190707128Y-102743377D01*
X190701866Y-102732440D01*
X190697368Y-102721755D01*
X190693638Y-102711299D01*
X190690682Y-102701054D01*
X190688503Y-102690999D01*
X190687106Y-102681114D01*
X190686497Y-102671377D01*
X190686678Y-102661770D01*
X190687656Y-102652271D01*
X190689434Y-102642860D01*
X190692016Y-102633517D01*
X190695408Y-102624222D01*
X190699614Y-102614953D01*
X190704638Y-102605692D01*
X190710486Y-102596417D01*
X190717160Y-102587108D01*
X190724667Y-102577744D01*
X190733010Y-102568307D01*
X190742195Y-102558774D01*
X190752225Y-102549126D01*
X190763104Y-102539342D01*
X190774839Y-102529402D01*
X190787433Y-102519286D01*
X190800890Y-102508973D01*
X190818826Y-102491929D01*
X190835568Y-102473330D01*
X190851081Y-102453356D01*
X190865327Y-102432189D01*
X190878271Y-102410008D01*
X190889877Y-102386996D01*
X190900108Y-102363332D01*
X190908928Y-102339199D01*
X190916302Y-102314776D01*
X190922192Y-102290244D01*
X190926563Y-102265785D01*
X190929378Y-102241579D01*
X190930602Y-102217807D01*
X190930198Y-102194650D01*
X190928130Y-102172288D01*
X190924362Y-102150904D01*
X190913658Y-102120376D01*
X190904708Y-102093629D01*
X190897530Y-102070680D01*
X190892144Y-102051547D01*
X190888565Y-102036249D01*
X190886814Y-102024803D01*
X190886629Y-102020530D01*
X190886907Y-102017228D01*
X190887652Y-102014897D01*
X190888864Y-102013541D01*
X190890546Y-102013161D01*
X190892701Y-102013761D01*
X190895331Y-102015342D01*
X190898438Y-102017906D01*
X190902024Y-102021456D01*
X190906092Y-102025994D01*
X190915681Y-102038042D01*
X190927223Y-102054070D01*
X190940737Y-102074095D01*
X190956240Y-102098136D01*
X190973751Y-102126209D01*
X190985170Y-102146988D01*
X190996227Y-102172053D01*
X191006850Y-102201061D01*
X191016967Y-102233669D01*
X191026504Y-102269532D01*
X191035391Y-102308307D01*
X191043554Y-102349650D01*
X191050921Y-102393218D01*
X191057421Y-102438667D01*
X191062979Y-102485653D01*
X191067525Y-102533833D01*
X191070986Y-102582864D01*
X191073289Y-102632400D01*
X191074362Y-102682099D01*
X191074133Y-102731618D01*
X191072529Y-102780612D01*
X191068613Y-102828897D01*
X191066090Y-102876351D01*
X191064905Y-102922719D01*
X191065005Y-102967749D01*
X191066334Y-103011188D01*
X191068839Y-103052781D01*
X191072466Y-103092277D01*
X191077159Y-103129421D01*
X191082866Y-103163960D01*
X191089531Y-103195642D01*
X191097100Y-103224213D01*
X191105519Y-103249420D01*
X191110031Y-103260683D01*
X191114734Y-103271010D01*
X191119624Y-103280369D01*
X191124691Y-103288729D01*
X191129931Y-103296058D01*
X191135335Y-103302324D01*
X191140898Y-103307496D01*
X191146612Y-103311542D01*
X191152220Y-103315158D01*
X191157470Y-103319051D01*
X191162368Y-103323212D01*
X191166918Y-103327627D01*
X191171124Y-103332287D01*
X191174990Y-103337180D01*
X191178523Y-103342295D01*
X191181725Y-103347619D01*
X191184601Y-103353143D01*
X191187157Y-103358854D01*
X191189396Y-103364742D01*
X191191323Y-103370794D01*
X191192942Y-103377001D01*
X191194259Y-103383350D01*
X191196001Y-103396429D01*
X191196586Y-103409943D01*
X191196049Y-103423801D01*
X191194428Y-103437911D01*
X191191757Y-103452185D01*
X191188073Y-103466531D01*
X191183413Y-103480859D01*
X191177812Y-103495078D01*
X191171307Y-103509098D01*
X191166929Y-103515934D01*
X191163053Y-103522546D01*
X191159675Y-103528927D01*
X191156789Y-103535071D01*
X191154392Y-103540970D01*
X191152478Y-103546619D01*
X191151044Y-103552010D01*
X191150085Y-103557136D01*
X191149596Y-103561992D01*
X191149572Y-103566569D01*
X191150010Y-103570861D01*
X191150905Y-103574861D01*
X191152252Y-103578564D01*
X191154046Y-103581961D01*
X191156283Y-103585045D01*
X191158959Y-103587812D01*
X191162070Y-103590252D01*
X191165609Y-103592360D01*
X191169574Y-103594129D01*
X191173959Y-103595553D01*
X191178761Y-103596623D01*
X191183973Y-103597334D01*
X191189593Y-103597679D01*
X191195615Y-103597651D01*
X191202035Y-103597243D01*
X191208849Y-103596448D01*
X191216051Y-103595260D01*
X191223638Y-103593672D01*
X191231604Y-103591676D01*
X191239946Y-103589268D01*
X191248658Y-103586438D01*
X191257737Y-103583181D01*
X191277096Y-103576953D01*
X191298010Y-103572136D01*
X191320299Y-103568694D01*
X191343782Y-103566590D01*
X191368277Y-103565788D01*
X191393605Y-103566252D01*
X191419583Y-103567946D01*
X191446032Y-103570834D01*
X191472771Y-103574880D01*
X191499617Y-103580046D01*
X191526392Y-103586298D01*
X191552913Y-103593599D01*
X191579000Y-103601913D01*
X191604472Y-103611204D01*
X191629149Y-103621435D01*
X191652848Y-103632570D01*
X191679623Y-103645445D01*
X191692262Y-103651117D01*
X191704408Y-103656276D01*
X191716065Y-103660919D01*
X191727239Y-103665045D01*
X191737934Y-103668651D01*
X191748153Y-103671734D01*
X191757903Y-103674293D01*
X191767187Y-103676325D01*
X191776009Y-103677828D01*
X191784375Y-103678800D01*
X191792289Y-103679238D01*
X191799755Y-103679140D01*
X191806778Y-103678505D01*
X191813362Y-103677329D01*
X191819512Y-103675610D01*
X191825233Y-103673347D01*
X191830529Y-103670536D01*
X191835404Y-103667176D01*
X191839863Y-103663264D01*
X191843911Y-103658799D01*
X191847551Y-103653777D01*
X191850790Y-103648197D01*
X191853630Y-103642056D01*
X191856077Y-103635352D01*
X191858135Y-103628084D01*
X191859809Y-103620247D01*
X191861103Y-103611841D01*
X191862021Y-103602863D01*
X191862569Y-103593310D01*
X191862751Y-103583181D01*
X191862966Y-103576561D01*
X191863607Y-103570590D01*
X191864664Y-103565265D01*
X191866127Y-103560585D01*
X191867989Y-103556547D01*
X191870239Y-103553148D01*
X191872869Y-103550387D01*
X191875870Y-103548262D01*
X191879233Y-103546769D01*
X191882948Y-103545908D01*
X191887007Y-103545674D01*
X191891400Y-103546067D01*
X191896120Y-103547084D01*
X191901155Y-103548723D01*
X191906498Y-103550981D01*
X191912140Y-103553857D01*
X191918071Y-103557347D01*
X191924282Y-103561450D01*
X191937510Y-103571485D01*
X191951750Y-103583944D01*
X191966931Y-103598808D01*
X191982980Y-103616060D01*
X191999825Y-103635681D01*
X192017393Y-103657654D01*
X192035612Y-103681959D01*
X192064162Y-103718865D01*
X192089800Y-103750906D01*
X192112797Y-103778135D01*
X192123391Y-103789963D01*
X192133425Y-103800608D01*
X192142936Y-103810078D01*
X192151955Y-103818378D01*
X192160518Y-103825517D01*
X192168658Y-103831500D01*
X192176410Y-103836335D01*
X192183806Y-103840028D01*
X192190881Y-103842586D01*
X192197669Y-103844016D01*
X192204204Y-103844325D01*
X192210520Y-103843519D01*
X192216650Y-103841605D01*
X192222629Y-103838590D01*
X192228490Y-103834481D01*
X192234268Y-103829285D01*
X192239996Y-103823007D01*
X192245708Y-103815656D01*
X192251438Y-103807238D01*
X192257220Y-103797760D01*
X192263088Y-103787227D01*
X192269076Y-103775648D01*
X192281547Y-103749378D01*
X192294904Y-103719001D01*
X192298770Y-103708622D01*
X192303410Y-103698331D01*
X192314920Y-103678077D01*
X192329250Y-103658365D01*
X192346222Y-103639323D01*
X192365653Y-103621076D01*
X192387363Y-103603752D01*
X192411171Y-103587477D01*
X192436897Y-103572378D01*
X192464359Y-103558580D01*
X192493376Y-103546212D01*
X192523767Y-103535399D01*
X192555353Y-103526269D01*
X192587951Y-103518946D01*
X192621382Y-103513560D01*
X192655463Y-103510235D01*
X192690015Y-103509098D01*
X192709223Y-103509207D01*
X192727491Y-103509532D01*
X192744818Y-103510075D01*
X192761204Y-103510834D01*
X192776650Y-103511811D01*
X192791156Y-103513005D01*
X192804721Y-103514416D01*
X192817346Y-103516043D01*
X192829030Y-103517888D01*
X192839773Y-103519950D01*
X192849576Y-103522229D01*
X192858439Y-103524725D01*
X192866361Y-103527438D01*
X192873342Y-103530368D01*
X192879383Y-103533515D01*
X192884484Y-103536879D01*
X192888644Y-103540461D01*
X192891863Y-103544259D01*
X192893120Y-103546239D01*
X192894142Y-103548274D01*
X192894929Y-103550363D01*
X192895480Y-103552506D01*
X192895797Y-103554704D01*
X192895878Y-103556956D01*
X192895725Y-103559262D01*
X192895336Y-103561622D01*
X192893853Y-103566505D01*
X192891429Y-103571606D01*
X192888065Y-103576923D01*
X192883760Y-103582458D01*
X192878515Y-103588210D01*
X192872329Y-103594178D01*
X192865203Y-103600364D01*
X192857137Y-103606767D01*
X192848129Y-103613386D01*
X192838182Y-103620223D01*
X192821563Y-103629046D01*
X192804203Y-103636983D01*
X192786227Y-103644016D01*
X192767764Y-103650126D01*
X192748939Y-103655296D01*
X192729878Y-103659507D01*
X192710709Y-103662742D01*
X192691558Y-103664982D01*
X192672552Y-103666209D01*
X192653817Y-103666405D01*
X192635480Y-103665551D01*
X192617668Y-103663631D01*
X192600507Y-103660626D01*
X192584123Y-103656517D01*
X192568644Y-103651287D01*
X192554196Y-103644917D01*
X192543199Y-103638693D01*
X192533360Y-103633897D01*
X192528874Y-103632029D01*
X192524678Y-103630511D01*
X192520771Y-103629342D01*
X192517154Y-103628519D01*
X192513826Y-103628039D01*
X192510787Y-103627901D01*
X192508038Y-103628102D01*
X192505578Y-103628639D01*
X192503408Y-103629512D01*
X192501527Y-103630716D01*
X192499935Y-103632251D01*
X192498633Y-103634114D01*
X192497620Y-103636302D01*
X192496897Y-103638813D01*
X192496463Y-103641646D01*
X192496318Y-103644797D01*
X192496463Y-103648265D01*
X192496897Y-103652047D01*
X192497620Y-103656141D01*
X192498633Y-103660544D01*
X192501527Y-103670272D01*
X192505578Y-103681211D01*
X192510787Y-103693345D01*
X192517154Y-103706653D01*
X192526855Y-103722263D01*
X192535150Y-103738929D01*
X192542080Y-103756549D01*
X192547684Y-103775021D01*
X192552005Y-103794244D01*
X192555082Y-103814116D01*
X192556956Y-103834535D01*
X192557668Y-103855399D01*
X192557259Y-103876607D01*
X192555769Y-103898057D01*
X192553239Y-103919646D01*
X192549710Y-103941275D01*
X192545222Y-103962840D01*
X192539817Y-103984240D01*
X192533534Y-104005373D01*
X192526414Y-104026138D01*
X192518499Y-104046432D01*
X192509829Y-104066155D01*
X192500444Y-104085203D01*
X192490385Y-104103477D01*
X192479694Y-104120873D01*
X192468410Y-104137290D01*
X192456574Y-104152626D01*
X192444228Y-104166780D01*
X192431411Y-104179650D01*
X192418165Y-104191134D01*
X192404530Y-104201130D01*
X192390546Y-104209537D01*
X192376256Y-104216253D01*
X192361698Y-104221176D01*
X192346914Y-104224205D01*
X192331945Y-104225237D01*
X192326303Y-104225057D01*
X192320952Y-104224522D01*
X192315894Y-104223639D01*
X192311133Y-104222415D01*
X192306671Y-104220856D01*
X192302509Y-104218970D01*
X192298650Y-104216762D01*
X192295097Y-104214240D01*
X192291850Y-104211411D01*
X192288914Y-104208280D01*
X192286289Y-104204856D01*
X192283979Y-104201145D01*
X192281986Y-104197154D01*
X192280311Y-104192889D01*
X192278957Y-104188357D01*
X192277926Y-104183565D01*
X192277221Y-104178520D01*
X192276844Y-104173228D01*
X192276797Y-104167697D01*
X192277082Y-104161933D01*
X192277702Y-104155943D01*
X192278659Y-104149734D01*
X192281592Y-104136684D01*
X192285900Y-104122839D01*
X192291600Y-104108252D01*
X192298711Y-104092977D01*
X192307251Y-104077070D01*
X192315782Y-104061730D01*
X192322830Y-104048107D01*
X192328358Y-104036185D01*
X192332331Y-104025945D01*
X192333723Y-104021450D01*
X192334713Y-104017369D01*
X192335295Y-104013699D01*
X192335466Y-104010439D01*
X192335222Y-104007585D01*
X192334556Y-104005136D01*
X192333466Y-104003090D01*
X192331946Y-104001444D01*
X192329991Y-104000195D01*
X192327599Y-103999342D01*
X192324763Y-103998883D01*
X192321479Y-103998815D01*
X192317744Y-103999136D01*
X192313551Y-103999843D01*
X192308898Y-104000934D01*
X192303779Y-104002408D01*
X192292125Y-104006493D01*
X192278554Y-104012078D01*
X192263029Y-104019147D01*
X192245515Y-104027681D01*
X192238715Y-104032454D01*
X192232206Y-104037502D01*
X192225991Y-104042813D01*
X192220073Y-104048373D01*
X192214453Y-104054167D01*
X192209133Y-104060183D01*
X192204117Y-104066407D01*
X192199406Y-104072826D01*
X192195002Y-104079425D01*
X192190908Y-104086192D01*
X192183658Y-104100173D01*
X192177675Y-104114660D01*
X192172975Y-104129546D01*
X192169578Y-104144721D01*
X192167501Y-104160076D01*
X192166762Y-104175504D01*
X192167380Y-104190896D01*
X192168204Y-104198545D01*
X192169373Y-104206143D01*
X192170890Y-104213679D01*
X192172758Y-104221137D01*
X192174979Y-104228505D01*
X192177554Y-104235769D01*
X192180487Y-104242916D01*
X192183779Y-104249931D01*
X192194058Y-104267445D01*
X192201769Y-104282970D01*
X192204673Y-104289997D01*
X192206948Y-104296541D01*
X192208599Y-104302605D01*
X192209631Y-104308195D01*
X192210048Y-104313314D01*
X192209854Y-104317968D01*
X192209054Y-104322160D01*
X192207653Y-104325896D01*
X192205656Y-104329179D01*
X192203065Y-104332015D01*
X192199887Y-104334408D01*
X192196126Y-104336362D01*
X192191786Y-104337882D01*
X192186872Y-104338972D01*
X192181388Y-104339638D01*
X192175338Y-104339883D01*
X192168728Y-104339712D01*
X192161562Y-104339129D01*
X192145580Y-104336748D01*
X192127427Y-104332775D01*
X192107139Y-104327246D01*
X192084754Y-104320198D01*
X192060307Y-104311667D01*
X192048914Y-104307218D01*
X192037891Y-104303130D01*
X192027249Y-104299404D01*
X192016995Y-104296040D01*
X192007139Y-104293038D01*
X191997691Y-104290397D01*
X191988658Y-104288118D01*
X191980050Y-104286201D01*
X191971876Y-104284646D01*
X191964146Y-104283452D01*
X191956867Y-104282620D01*
X191950050Y-104282150D01*
X191943703Y-104282041D01*
X191937835Y-104282294D01*
X191932456Y-104282909D01*
X191927574Y-104283886D01*
X191923199Y-104285224D01*
X191919339Y-104286925D01*
X191916003Y-104288987D01*
X191913201Y-104291410D01*
X191910942Y-104294196D01*
X191909234Y-104297343D01*
X191908087Y-104300852D01*
X191907510Y-104304722D01*
X191907511Y-104308954D01*
X191908101Y-104313548D01*
X191909287Y-104318504D01*
X191911079Y-104323822D01*
X191913486Y-104329501D01*
X191916517Y-104335542D01*
X191920181Y-104341945D01*
X191924487Y-104348709D01*
X191928577Y-104355581D01*
X191931598Y-104362304D01*
X191933565Y-104368874D01*
X191934495Y-104375285D01*
X191934403Y-104381533D01*
X191933304Y-104387614D01*
X191931216Y-104393523D01*
X191928153Y-104399256D01*
X191924131Y-104404807D01*
X191919167Y-104410174D01*
X191906473Y-104420333D01*
X191890198Y-104429695D01*
X191870468Y-104438226D01*
X191847410Y-104445889D01*
X191821151Y-104452648D01*
X191791818Y-104458465D01*
X191759536Y-104463307D01*
X191724433Y-104467135D01*
X191686634Y-104469914D01*
X191646268Y-104471609D01*
X191603459Y-104472181D01*
X191544394Y-104472498D01*
X191492093Y-104473556D01*
X191446376Y-104475518D01*
X191425930Y-104476889D01*
X191407061Y-104478548D01*
X191389749Y-104480514D01*
X191373969Y-104482807D01*
X191359699Y-104485449D01*
X191346917Y-104488459D01*
X191335600Y-104491858D01*
X191325725Y-104495667D01*
X191317270Y-104499905D01*
X191310213Y-104504593D01*
X191304530Y-104509751D01*
X191300199Y-104515399D01*
X191297197Y-104521559D01*
X191295502Y-104528250D01*
X191295092Y-104535493D01*
X191295942Y-104543307D01*
X191298032Y-104551714D01*
X191301338Y-104560734D01*
X191305838Y-104570387D01*
X191311509Y-104580693D01*
X191318328Y-104591672D01*
X191326274Y-104603346D01*
X191335322Y-104615735D01*
X191345452Y-104628858D01*
X191368862Y-104657389D01*
X191392595Y-104685771D01*
X191412873Y-104710806D01*
X191429715Y-104732621D01*
X191443138Y-104751344D01*
X191448574Y-104759585D01*
X191453161Y-104767101D01*
X191456904Y-104773906D01*
X191459802Y-104780018D01*
X191461860Y-104785451D01*
X191463079Y-104790222D01*
X191463461Y-104794346D01*
X191463010Y-104797839D01*
X191461726Y-104800718D01*
X191459612Y-104802997D01*
X191456671Y-104804693D01*
X191452905Y-104805821D01*
X191448316Y-104806398D01*
X191442906Y-104806439D01*
X191436678Y-104805961D01*
X191429634Y-104804977D01*
X191413105Y-104801562D01*
X191393340Y-104796320D01*
X191370354Y-104789378D01*
X191344168Y-104780862D01*
X191333860Y-104776520D01*
X191323775Y-104772750D01*
X191313921Y-104769545D01*
X191304305Y-104766899D01*
X191294932Y-104764804D01*
X191285811Y-104763254D01*
X191276947Y-104762243D01*
X191268348Y-104761762D01*
X191260020Y-104761806D01*
X191251971Y-104762368D01*
X191244206Y-104763441D01*
X191236732Y-104765018D01*
X191229558Y-104767092D01*
X191222688Y-104769657D01*
X191216130Y-104772706D01*
X191209892Y-104776232D01*
X191203978Y-104780228D01*
X191198398Y-104784687D01*
X191193156Y-104789603D01*
X191188260Y-104794969D01*
X191183717Y-104800779D01*
X191179533Y-104807024D01*
X191175716Y-104813699D01*
X191172271Y-104820797D01*
X191169207Y-104828311D01*
X191166529Y-104836234D01*
X191164244Y-104844560D01*
X191162360Y-104853281D01*
X191160882Y-104862391D01*
X191159819Y-104871883D01*
X191159175Y-104881751D01*
X191158959Y-104891987D01*
X191159175Y-104901101D01*
X191159819Y-104909917D01*
X191160882Y-104918425D01*
X191162360Y-104926617D01*
X191164244Y-104934483D01*
X191166529Y-104942015D01*
X191169207Y-104949203D01*
X191172271Y-104956038D01*
X191175716Y-104962512D01*
X191179533Y-104968614D01*
X191183717Y-104974337D01*
X191188260Y-104979671D01*
X191193156Y-104984608D01*
X191198398Y-104989137D01*
X191203978Y-104993250D01*
X191209892Y-104996938D01*
X191216130Y-105000192D01*
X191222688Y-105003003D01*
X191229558Y-105005362D01*
X191236732Y-105007260D01*
X191244206Y-105008687D01*
X191251971Y-105009635D01*
X191260020Y-105010095D01*
X191268348Y-105010057D01*
X191276947Y-105009513D01*
X191285811Y-105008453D01*
X191294932Y-105006869D01*
X191304305Y-105004752D01*
X191313921Y-105002091D01*
X191323775Y-104998880D01*
X191333860Y-104995107D01*
X191344168Y-104990765D01*
X191368476Y-104982523D01*
X191390470Y-104976343D01*
X191400599Y-104974038D01*
X191410148Y-104972262D01*
X191419119Y-104971019D01*
X191427512Y-104970314D01*
X191435325Y-104970152D01*
X191442560Y-104970538D01*
X191449216Y-104971474D01*
X191455293Y-104972967D01*
X191460791Y-104975021D01*
X191465711Y-104977640D01*
X191470052Y-104980828D01*
X191473814Y-104984591D01*
X191476997Y-104988933D01*
X191479601Y-104993857D01*
X191481627Y-104999370D01*
X191483074Y-105005475D01*
X191483942Y-105012177D01*
X191484232Y-105019480D01*
X191483942Y-105027389D01*
X191483074Y-105035909D01*
X191481627Y-105045044D01*
X191479601Y-105054798D01*
X191476997Y-105065176D01*
X191473814Y-105076182D01*
X191465711Y-105100099D01*
X191455293Y-105126584D01*
X191451965Y-105136963D01*
X191448926Y-105147254D01*
X191446177Y-105157441D01*
X191443717Y-105167508D01*
X191441547Y-105177440D01*
X191439666Y-105187220D01*
X191438074Y-105196832D01*
X191436772Y-105206262D01*
X191435759Y-105215493D01*
X191435036Y-105224509D01*
X191434601Y-105233294D01*
X191434457Y-105241833D01*
X191434601Y-105250109D01*
X191435036Y-105258108D01*
X191435759Y-105265812D01*
X191436772Y-105273207D01*
X191438074Y-105280276D01*
X191439666Y-105287004D01*
X191441547Y-105293375D01*
X191443717Y-105299373D01*
X191446177Y-105304982D01*
X191448926Y-105310186D01*
X191451965Y-105314969D01*
X191455293Y-105319316D01*
X191458910Y-105323211D01*
X191462817Y-105326639D01*
X191467013Y-105329582D01*
X191471498Y-105332025D01*
X191476273Y-105333954D01*
X191481337Y-105335350D01*
X191486691Y-105336200D01*
X191492334Y-105336487D01*
X191499206Y-105336738D01*
X191505929Y-105337482D01*
X191512499Y-105338705D01*
X191518910Y-105340394D01*
X191525158Y-105342535D01*
X191531239Y-105345114D01*
X191537148Y-105348119D01*
X191542881Y-105351535D01*
X191548433Y-105355349D01*
X191553799Y-105359547D01*
X191558976Y-105364116D01*
X191563958Y-105369043D01*
X191573321Y-105379913D01*
X191581852Y-105392049D01*
X191589515Y-105405343D01*
X191596273Y-105419686D01*
X191602091Y-105434969D01*
X191606932Y-105451084D01*
X191610760Y-105467923D01*
X191613540Y-105485377D01*
X191615234Y-105503337D01*
X191615807Y-105521695D01*
X191615627Y-105530917D01*
X191615095Y-105540053D01*
X191614220Y-105549090D01*
X191613009Y-105558013D01*
X191611473Y-105566810D01*
X191609621Y-105575467D01*
X191607461Y-105583970D01*
X191605003Y-105592306D01*
X191602255Y-105600461D01*
X191599227Y-105608421D01*
X191595928Y-105616174D01*
X191592366Y-105623704D01*
X191588551Y-105631000D01*
X191584492Y-105638047D01*
X191580198Y-105644832D01*
X191575678Y-105651341D01*
X191570941Y-105657561D01*
X191565996Y-105663477D01*
X191560852Y-105669077D01*
X191555518Y-105674347D01*
X191550003Y-105679274D01*
X191544316Y-105683843D01*
X191538466Y-105688041D01*
X191532463Y-105691855D01*
X191526315Y-105695271D01*
X191520031Y-105698276D01*
X191513621Y-105700856D01*
X191507093Y-105702997D01*
X191500457Y-105704686D01*
X191493721Y-105705909D01*
X191486895Y-105706653D01*
X191479987Y-105706903D01*
X191462763Y-105707630D01*
X191455116Y-105708541D01*
X191448106Y-105709821D01*
X191441730Y-105711472D01*
X191435982Y-105713496D01*
X191430858Y-105715895D01*
X191426354Y-105718672D01*
X191422465Y-105721828D01*
X191419186Y-105725367D01*
X191416513Y-105729290D01*
X191414441Y-105733599D01*
X191412966Y-105738298D01*
X191412083Y-105743387D01*
X191411789Y-105748870D01*
X191412077Y-105754749D01*
X191412945Y-105761025D01*
X191414387Y-105767702D01*
X191416398Y-105774781D01*
X191418975Y-105782265D01*
X191425805Y-105798455D01*
X191434843Y-105816292D01*
X191446050Y-105835793D01*
X191459392Y-105856975D01*
X191474832Y-105879858D01*
X191492334Y-105904459D01*
X191501342Y-105913645D01*
X191509845Y-105922675D01*
X191517847Y-105931538D01*
X191525349Y-105940222D01*
X191532353Y-105948717D01*
X191538862Y-105957010D01*
X191544879Y-105965091D01*
X191550405Y-105972948D01*
X191555442Y-105980569D01*
X191559994Y-105987944D01*
X191564061Y-105995062D01*
X191567648Y-106001910D01*
X191570754Y-106008479D01*
X191573384Y-106014755D01*
X191575539Y-106020729D01*
X191577221Y-106026388D01*
X191578434Y-106031722D01*
X191579178Y-106036718D01*
X191579456Y-106041367D01*
X191579271Y-106045656D01*
X191578625Y-106049575D01*
X191577520Y-106053111D01*
X191575958Y-106056254D01*
X191575007Y-106057675D01*
X191573942Y-106058992D01*
X191572764Y-106060206D01*
X191571473Y-106061315D01*
X191570070Y-106062316D01*
X191568555Y-106063210D01*
X191565189Y-106064666D01*
X191561377Y-106065672D01*
X191557123Y-106066218D01*
X191552428Y-106066290D01*
X191547294Y-106065879D01*
X191541723Y-106064973D01*
X191516909Y-106060703D01*
X191493404Y-106057151D01*
X191471215Y-106054308D01*
X191450349Y-106052168D01*
X191430812Y-106050724D01*
X191412611Y-106049970D01*
X191395753Y-106049899D01*
X191380245Y-106050504D01*
X191366093Y-106051778D01*
X191353305Y-106053714D01*
X191341886Y-106056306D01*
X191331845Y-106059547D01*
X191323187Y-106063430D01*
X191315919Y-106067948D01*
X191310049Y-106073095D01*
X191305583Y-106078864D01*
X191302527Y-106085247D01*
X191300889Y-106092239D01*
X191300675Y-106099832D01*
X191301893Y-106108019D01*
X191304548Y-106116795D01*
X191308648Y-106126151D01*
X191314200Y-106136082D01*
X191321210Y-106146580D01*
X191329684Y-106157639D01*
X191339631Y-106169252D01*
X191351056Y-106181412D01*
X191363967Y-106194112D01*
X191378369Y-106207346D01*
X191394271Y-106221107D01*
X191411678Y-106235387D01*
X191430598Y-106250181D01*
X191452295Y-106267019D01*
X191473373Y-106285046D01*
X191493791Y-106304150D01*
X191513508Y-106324216D01*
X191532483Y-106345133D01*
X191550676Y-106366786D01*
X191568046Y-106389064D01*
X191584553Y-106411853D01*
X191600155Y-106435039D01*
X191614812Y-106458510D01*
X191628483Y-106482153D01*
X191641128Y-106505855D01*
X191652706Y-106529503D01*
X191663176Y-106552983D01*
X191672497Y-106576183D01*
X191680629Y-106598990D01*
X191687532Y-106621290D01*
X191693164Y-106642971D01*
X191697484Y-106663919D01*
X191700453Y-106684022D01*
X191702028Y-106703166D01*
X191702171Y-106721238D01*
X191700839Y-106738126D01*
X191697993Y-106753716D01*
X191693591Y-106767895D01*
X191687593Y-106780551D01*
X191679958Y-106791569D01*
X191670646Y-106800838D01*
X191659615Y-106808244D01*
X191646825Y-106813674D01*
X191632236Y-106817015D01*
X191615807Y-106818153D01*
X191609949Y-106817830D01*
X191603960Y-106816872D01*
X191597853Y-106815294D01*
X191591643Y-106813113D01*
X191578964Y-106807003D01*
X191566032Y-106798668D01*
X191552955Y-106788235D01*
X191539842Y-106775830D01*
X191526802Y-106761581D01*
X191513942Y-106745613D01*
X191501372Y-106728054D01*
X191489199Y-106709030D01*
X191477533Y-106688667D01*
X191466482Y-106667093D01*
X191456155Y-106644433D01*
X191446659Y-106620815D01*
X191438104Y-106596365D01*
X191430598Y-106571209D01*
X191425861Y-106558658D01*
X191420916Y-106546478D01*
X191415772Y-106534678D01*
X191410438Y-106523267D01*
X191404923Y-106512254D01*
X191399236Y-106501647D01*
X191393386Y-106491457D01*
X191387383Y-106481692D01*
X191381235Y-106472360D01*
X191374951Y-106463472D01*
X191368541Y-106455036D01*
X191362013Y-106447062D01*
X191355377Y-106439557D01*
X191348641Y-106432532D01*
X191341815Y-106425995D01*
X191334907Y-106419955D01*
X191327927Y-106414422D01*
X191320884Y-106409405D01*
X191313786Y-106404912D01*
X191306644Y-106400952D01*
X191299465Y-106397535D01*
X191292259Y-106394670D01*
X191285035Y-106392365D01*
X191277801Y-106390631D01*
X191270568Y-106389475D01*
X191263344Y-106388906D01*
X191256138Y-106388935D01*
X191248959Y-106389569D01*
X191241816Y-106390819D01*
X191234719Y-106392692D01*
X191227675Y-106395199D01*
X191220695Y-106398348D01*
X191205355Y-106406746D01*
X191191733Y-106413444D01*
X191185560Y-106416167D01*
X191179810Y-106418478D01*
X191174481Y-106420383D01*
X191169570Y-106421885D01*
X191165075Y-106422989D01*
X191160994Y-106423699D01*
X191157324Y-106424021D01*
X191154064Y-106423959D01*
X191151210Y-106423516D01*
X191148762Y-106422699D01*
X191146715Y-106421510D01*
X191145069Y-106419955D01*
X191143820Y-106418039D01*
X191142968Y-106415765D01*
X191142508Y-106413139D01*
X191142440Y-106410164D01*
X191142761Y-106406846D01*
X191143468Y-106403189D01*
X191144560Y-106399197D01*
X191146033Y-106394875D01*
X191147887Y-106390228D01*
X191150118Y-106385259D01*
X191155704Y-106374377D01*
X191162773Y-106362265D01*
X191171307Y-106348959D01*
X191175720Y-106340930D01*
X191179702Y-106333052D01*
X191183254Y-106325332D01*
X191186379Y-106317777D01*
X191189079Y-106310395D01*
X191191356Y-106303190D01*
X191193212Y-106296172D01*
X191194651Y-106289345D01*
X191195673Y-106282717D01*
X191196281Y-106276295D01*
X191196478Y-106270086D01*
X191196266Y-106264096D01*
X191195647Y-106258332D01*
X191194623Y-106252801D01*
X191193197Y-106247509D01*
X191191371Y-106242464D01*
X191189147Y-106237672D01*
X191186527Y-106233140D01*
X191183513Y-106228875D01*
X191180109Y-106224884D01*
X191176315Y-106221173D01*
X191172136Y-106217749D01*
X191167571Y-106214618D01*
X191162625Y-106211789D01*
X191157299Y-106209267D01*
X191151595Y-106207059D01*
X191145516Y-106205173D01*
X191139064Y-106203614D01*
X191132241Y-106202390D01*
X191125050Y-106201507D01*
X191117492Y-106200972D01*
X191109570Y-106200792D01*
X191092210Y-106200204D01*
X191084404Y-106199460D01*
X191077183Y-106198405D01*
X191070550Y-106197034D01*
X191064507Y-106195339D01*
X191059057Y-106193315D01*
X191054201Y-106190953D01*
X191049942Y-106188248D01*
X191046282Y-106185192D01*
X191043223Y-106181780D01*
X191040769Y-106178003D01*
X191038920Y-106173855D01*
X191037679Y-106169330D01*
X191037048Y-106164421D01*
X191037031Y-106159120D01*
X191037628Y-106153422D01*
X191038842Y-106147319D01*
X191040676Y-106140804D01*
X191043132Y-106133871D01*
X191046212Y-106126513D01*
X191049917Y-106118724D01*
X191059217Y-106101822D01*
X191071049Y-106083111D01*
X191085431Y-106062537D01*
X191102381Y-106040046D01*
X191121918Y-106015584D01*
X191145651Y-105987203D01*
X191165929Y-105962168D01*
X191182771Y-105940352D01*
X191196194Y-105921629D01*
X191201629Y-105913388D01*
X191206217Y-105905873D01*
X191209959Y-105899067D01*
X191212858Y-105892956D01*
X191214916Y-105887523D01*
X191216135Y-105882752D01*
X191216517Y-105878628D01*
X191216065Y-105875134D01*
X191214782Y-105872256D01*
X191212668Y-105869977D01*
X191209727Y-105868280D01*
X191205961Y-105867152D01*
X191201372Y-105866575D01*
X191195962Y-105866534D01*
X191189734Y-105867013D01*
X191182689Y-105867996D01*
X191166161Y-105871411D01*
X191146395Y-105876653D01*
X191123410Y-105883596D01*
X191097223Y-105892112D01*
X191085396Y-105896200D01*
X191073072Y-105899205D01*
X191060259Y-105901129D01*
X191046966Y-105901975D01*
X191033204Y-105901745D01*
X191018980Y-105900441D01*
X191004304Y-105898065D01*
X190989185Y-105894620D01*
X190957654Y-105884530D01*
X190924459Y-105870191D01*
X190889672Y-105851619D01*
X190853366Y-105828832D01*
X190815613Y-105801850D01*
X190776485Y-105770689D01*
X190736055Y-105735369D01*
X190694395Y-105695907D01*
X190651578Y-105652321D01*
X190607675Y-105604629D01*
X190562760Y-105552849D01*
X190516904Y-105497000D01*
X190463771Y-105433459D01*
X190415377Y-105377025D01*
X190371541Y-105327573D01*
X190351275Y-105305425D01*
X190332082Y-105284976D01*
X190313937Y-105266208D01*
X190296818Y-105249107D01*
X190280704Y-105233656D01*
X190265570Y-105219839D01*
X190251396Y-105207642D01*
X190238157Y-105197047D01*
X190225832Y-105188039D01*
X190214397Y-105180603D01*
X190203831Y-105174722D01*
X190194110Y-105170381D01*
X190185212Y-105167564D01*
X190177114Y-105166254D01*
X190173358Y-105166160D01*
X190169794Y-105166437D01*
X190166419Y-105167083D01*
X190163230Y-105168096D01*
X190160223Y-105169474D01*
X190157397Y-105171216D01*
X190154749Y-105173318D01*
X190152275Y-105175780D01*
X190149973Y-105178599D01*
X190147840Y-105181773D01*
X190144070Y-105189179D01*
X190140941Y-105197982D01*
X190138433Y-105208167D01*
X190136521Y-105219717D01*
X190135183Y-105232617D01*
X190134397Y-105246851D01*
X190134140Y-105262403D01*
X190134033Y-105274919D01*
X190133715Y-105286995D01*
X190133194Y-105298629D01*
X190132476Y-105309815D01*
X190131568Y-105320548D01*
X190130478Y-105330826D01*
X190129210Y-105340641D01*
X190127774Y-105349991D01*
X190126174Y-105358871D01*
X190124418Y-105367276D01*
X190122514Y-105375202D01*
X190120467Y-105382644D01*
X190118284Y-105389598D01*
X190115972Y-105396058D01*
X190113538Y-105402022D01*
X190110989Y-105407483D01*
X190108331Y-105412438D01*
X190105572Y-105416882D01*
X190102718Y-105420811D01*
X190099775Y-105424219D01*
X190096751Y-105427104D01*
X190093653Y-105429459D01*
X190090487Y-105431280D01*
X190087259Y-105432563D01*
X190083978Y-105433304D01*
X190080648Y-105433498D01*
X190077279Y-105433140D01*
X190073875Y-105432226D01*
X190070444Y-105430751D01*
X190066993Y-105428711D01*
X190063528Y-105426101D01*
X190060057Y-105422917D01*
X190049804Y-105416554D01*
X190037653Y-105411366D01*
X190023729Y-105407372D01*
X190008160Y-105404589D01*
X189991071Y-105403037D01*
X189972589Y-105402732D01*
X189952841Y-105403694D01*
X189931954Y-105405940D01*
X189910054Y-105409488D01*
X189887268Y-105414356D01*
X189863722Y-105420563D01*
X189839543Y-105428126D01*
X189814858Y-105437064D01*
X189789792Y-105447395D01*
X189764474Y-105459136D01*
X189739029Y-105472306D01*
X189699781Y-105493467D01*
X189665235Y-105510216D01*
X189635175Y-105521900D01*
X189609383Y-105527868D01*
X189598020Y-105528506D01*
X189587643Y-105527471D01*
X189578224Y-105524681D01*
X189569737Y-105520055D01*
X189562154Y-105513512D01*
X189555448Y-105504971D01*
X189549593Y-105494349D01*
X189544560Y-105481566D01*
X189536855Y-105449191D01*
X189532117Y-105407194D01*
X189530127Y-105354923D01*
X189530670Y-105291728D01*
X189533527Y-105216957D01*
X189538483Y-105129960D01*
X189553821Y-104916681D01*
X189557878Y-104845839D01*
X189560814Y-104777076D01*
X189562665Y-104710737D01*
X189563467Y-104647165D01*
X189563256Y-104586704D01*
X189562068Y-104529697D01*
X189559940Y-104476489D01*
X189556907Y-104427423D01*
X189553007Y-104382842D01*
X189548274Y-104343090D01*
X189542746Y-104308511D01*
X189536457Y-104279449D01*
X189529446Y-104256246D01*
X189525680Y-104246950D01*
X189521747Y-104239248D01*
X189517651Y-104233182D01*
X189513397Y-104228797D01*
X189508989Y-104226134D01*
X189504432Y-104225237D01*
X189498681Y-104225381D01*
X189493010Y-104225809D01*
X189487425Y-104226519D01*
X189481932Y-104227504D01*
X189476539Y-104228760D01*
X189471252Y-104230283D01*
X189466078Y-104232068D01*
X189461024Y-104234111D01*
X189456096Y-104236408D01*
X189451302Y-104238953D01*
X189446648Y-104241742D01*
X189442141Y-104244770D01*
X189437788Y-104248034D01*
X189433595Y-104251529D01*
X189429570Y-104255249D01*
X189425718Y-104259192D01*
X189422048Y-104263351D01*
X189418565Y-104267723D01*
X189415276Y-104272302D01*
X189412189Y-104277086D01*
X189409310Y-104282068D01*
X189406646Y-104287244D01*
X189404203Y-104292611D01*
X189401988Y-104298163D01*
X189400009Y-104303895D01*
X189398272Y-104309805D01*
X189396783Y-104315885D01*
X189395549Y-104322134D01*
X189394578Y-104328545D01*
X189393876Y-104335114D01*
X189393450Y-104341837D01*
X189393307Y-104348709D01*
X189393128Y-104354495D01*
X189392598Y-104360270D01*
X189391730Y-104366022D01*
X189390533Y-104371740D01*
X189389021Y-104377412D01*
X189387202Y-104383029D01*
X189385090Y-104388577D01*
X189382696Y-104394047D01*
X189380030Y-104399426D01*
X189377104Y-104404703D01*
X189373929Y-104409867D01*
X189370517Y-104414907D01*
X189366879Y-104419811D01*
X189363026Y-104424568D01*
X189358970Y-104429167D01*
X189354722Y-104433596D01*
X189350292Y-104437845D01*
X189345693Y-104441901D01*
X189340936Y-104445754D01*
X189336032Y-104449392D01*
X189330992Y-104452804D01*
X189325828Y-104455979D01*
X189320551Y-104458905D01*
X189315172Y-104461570D01*
X189309703Y-104463965D01*
X189304154Y-104466077D01*
X189298538Y-104467895D01*
X189292865Y-104469408D01*
X189287147Y-104470604D01*
X189281395Y-104471473D01*
X189275620Y-104472002D01*
X189269835Y-104472181D01*
X189263214Y-104471786D01*
X189257237Y-104470614D01*
X189251898Y-104468682D01*
X189247190Y-104466008D01*
X189243106Y-104462610D01*
X189239639Y-104458508D01*
X189236782Y-104453718D01*
X189234529Y-104448259D01*
X189232873Y-104442148D01*
X189231807Y-104435405D01*
X189231418Y-104420091D01*
X189233308Y-104402463D01*
X189237423Y-104382664D01*
X189243708Y-104360839D01*
X189252110Y-104337134D01*
X189262573Y-104311692D01*
X189275044Y-104284658D01*
X189289468Y-104256177D01*
X189305791Y-104226394D01*
X189323959Y-104195454D01*
X189343918Y-104163501D01*
X189372142Y-104119339D01*
X189384861Y-104098829D01*
X189396659Y-104079337D01*
X189407544Y-104060840D01*
X189417522Y-104043314D01*
X189426600Y-104026739D01*
X189434786Y-104011090D01*
X189442085Y-103996345D01*
X189448505Y-103982483D01*
X189454051Y-103969479D01*
X189458733Y-103957312D01*
X189462555Y-103945959D01*
X189465524Y-103935397D01*
X189467648Y-103925604D01*
X189468933Y-103916556D01*
X189469387Y-103908233D01*
X189469015Y-103900610D01*
X189467825Y-103893665D01*
X189465823Y-103887376D01*
X189464519Y-103884471D01*
X189463016Y-103881721D01*
X189461313Y-103879123D01*
X189459411Y-103876675D01*
X189455015Y-103872217D01*
X189449834Y-103868325D01*
X189443875Y-103864975D01*
X189437146Y-103862145D01*
X189429653Y-103859813D01*
X189421402Y-103857955D01*
X189412400Y-103856550D01*
X189402655Y-103855574D01*
X189392172Y-103855005D01*
X189380960Y-103854820D01*
X189372168Y-103853483D01*
X189364305Y-103851794D01*
X189357360Y-103849760D01*
X189351321Y-103847393D01*
X189346178Y-103844699D01*
X189341919Y-103841689D01*
X189338533Y-103838372D01*
X189336008Y-103834756D01*
X189334333Y-103830851D01*
X189333497Y-103826665D01*
X189333488Y-103822208D01*
X189334296Y-103817489D01*
X189335908Y-103812517D01*
X189338314Y-103807300D01*
X189341502Y-103801849D01*
X189345461Y-103796171D01*
X189355647Y-103784173D01*
X189368781Y-103771380D01*
X189382787Y-103759542D01*
X189558264Y-103759542D01*
X189558272Y-103768364D01*
X189559850Y-103778349D01*
X189562964Y-103789538D01*
X189567585Y-103801968D01*
X189573679Y-103815677D01*
X189581216Y-103830704D01*
X189600490Y-103864867D01*
X189625155Y-103904764D01*
X189689640Y-104002987D01*
X189718009Y-104048044D01*
X189742960Y-104090840D01*
X189764546Y-104131719D01*
X189782823Y-104171025D01*
X189797844Y-104209100D01*
X189809664Y-104246290D01*
X189818336Y-104282937D01*
X189823916Y-104319384D01*
X189826457Y-104355977D01*
X189826014Y-104393058D01*
X189822641Y-104430971D01*
X189816392Y-104470059D01*
X189807322Y-104510667D01*
X189795484Y-104553138D01*
X189780933Y-104597815D01*
X189763723Y-104645042D01*
X189740693Y-104716473D01*
X189718386Y-104790508D01*
X189697526Y-104865122D01*
X189678836Y-104938289D01*
X189663040Y-105007983D01*
X189650862Y-105072179D01*
X189646355Y-105101582D01*
X189643024Y-105128851D01*
X189640960Y-105153732D01*
X189640251Y-105175973D01*
X189640577Y-105206362D01*
X189641698Y-105232717D01*
X189643832Y-105255057D01*
X189645347Y-105264727D01*
X189647196Y-105273400D01*
X189649408Y-105281078D01*
X189652008Y-105287764D01*
X189655023Y-105293459D01*
X189658483Y-105298167D01*
X189662412Y-105301889D01*
X189666839Y-105304627D01*
X189671790Y-105306384D01*
X189677293Y-105307162D01*
X189683375Y-105306963D01*
X189690062Y-105305790D01*
X189697383Y-105303645D01*
X189705363Y-105300530D01*
X189714032Y-105296448D01*
X189723414Y-105291399D01*
X189744431Y-105278416D01*
X189768631Y-105261599D01*
X189796231Y-105240965D01*
X189827449Y-105216532D01*
X189862501Y-105188320D01*
X189935261Y-105125535D01*
X190001239Y-105071504D01*
X190031916Y-105047794D01*
X190061175Y-105026299D01*
X190089110Y-105007029D01*
X190115812Y-104989993D01*
X190141375Y-104975199D01*
X190165891Y-104962658D01*
X190189454Y-104952377D01*
X190212154Y-104944366D01*
X190234086Y-104938634D01*
X190255342Y-104935190D01*
X190276015Y-104934043D01*
X190296197Y-104935202D01*
X190315982Y-104938676D01*
X190335461Y-104944475D01*
X190354727Y-104952606D01*
X190373874Y-104963080D01*
X190392993Y-104975905D01*
X190412179Y-104991090D01*
X190431522Y-105008645D01*
X190451116Y-105028578D01*
X190471054Y-105050899D01*
X190491429Y-105075616D01*
X190512332Y-105102738D01*
X190533857Y-105132275D01*
X190579143Y-105198630D01*
X190628029Y-105274751D01*
X190680360Y-105356328D01*
X190705784Y-105394022D01*
X190730665Y-105429622D01*
X190754968Y-105463105D01*
X190778655Y-105494450D01*
X190801692Y-105523634D01*
X190824041Y-105550634D01*
X190845667Y-105575427D01*
X190866533Y-105597991D01*
X190886603Y-105618303D01*
X190905841Y-105636341D01*
X190924212Y-105652082D01*
X190941677Y-105665503D01*
X190958203Y-105676582D01*
X190973751Y-105685296D01*
X190988287Y-105691622D01*
X191001774Y-105695539D01*
X191014175Y-105697023D01*
X191025455Y-105696051D01*
X191035578Y-105692602D01*
X191044506Y-105686652D01*
X191052205Y-105678179D01*
X191058638Y-105667161D01*
X191063769Y-105653574D01*
X191067561Y-105637396D01*
X191069979Y-105618604D01*
X191070985Y-105597177D01*
X191070545Y-105573091D01*
X191068622Y-105546323D01*
X191065179Y-105516851D01*
X191060181Y-105484653D01*
X190995527Y-105155137D01*
X190971113Y-105021705D01*
X190952722Y-104906649D01*
X190945960Y-104855424D01*
X190940915Y-104808088D01*
X190937655Y-104764406D01*
X190936251Y-104724142D01*
X190936774Y-104687061D01*
X190939293Y-104652928D01*
X190943878Y-104621508D01*
X190950600Y-104592567D01*
X190959529Y-104565868D01*
X190970734Y-104541176D01*
X190984286Y-104518257D01*
X191000254Y-104496876D01*
X191018710Y-104476796D01*
X191039723Y-104457784D01*
X191063362Y-104439604D01*
X191089699Y-104422021D01*
X191118804Y-104404799D01*
X191150745Y-104387704D01*
X191223421Y-104352953D01*
X191308287Y-104315888D01*
X191405904Y-104274626D01*
X191924487Y-104040029D01*
X191405904Y-104002987D01*
X191318551Y-103996108D01*
X191241290Y-103989048D01*
X191173507Y-103981337D01*
X191114587Y-103972505D01*
X191088258Y-103967521D01*
X191063914Y-103962081D01*
X191041478Y-103956125D01*
X191020873Y-103949595D01*
X191002023Y-103942432D01*
X190984850Y-103934577D01*
X190969278Y-103925971D01*
X190955230Y-103916556D01*
X190942629Y-103906273D01*
X190931398Y-103895063D01*
X190921460Y-103882867D01*
X190912739Y-103869627D01*
X190905156Y-103855284D01*
X190898637Y-103839778D01*
X190893103Y-103823052D01*
X190888478Y-103805045D01*
X190884685Y-103785701D01*
X190881647Y-103764959D01*
X190879288Y-103742761D01*
X190877530Y-103719049D01*
X190875510Y-103666845D01*
X190874973Y-103607876D01*
X190874399Y-103562806D01*
X190872697Y-103520209D01*
X190869897Y-103480100D01*
X190866026Y-103442491D01*
X190861116Y-103407395D01*
X190855195Y-103374828D01*
X190848293Y-103344802D01*
X190840440Y-103317330D01*
X190831663Y-103292427D01*
X190821994Y-103270106D01*
X190811461Y-103250380D01*
X190800094Y-103233263D01*
X190787922Y-103218769D01*
X190774975Y-103206911D01*
X190761281Y-103197702D01*
X190746871Y-103191157D01*
X190731773Y-103187289D01*
X190716018Y-103186111D01*
X190699634Y-103187637D01*
X190682651Y-103191880D01*
X190665098Y-103198855D01*
X190647005Y-103208574D01*
X190628401Y-103221052D01*
X190609315Y-103236301D01*
X190589777Y-103254336D01*
X190569817Y-103275170D01*
X190549463Y-103298816D01*
X190528745Y-103325288D01*
X190507692Y-103354600D01*
X190486334Y-103386765D01*
X190464701Y-103421797D01*
X190442821Y-103459709D01*
X190411208Y-103510243D01*
X190380916Y-103555497D01*
X190351528Y-103595685D01*
X190322628Y-103631027D01*
X190293801Y-103661738D01*
X190279284Y-103675425D01*
X190264630Y-103688036D01*
X190249786Y-103699598D01*
X190234699Y-103710138D01*
X190219319Y-103719684D01*
X190203593Y-103728261D01*
X190187469Y-103735898D01*
X190170895Y-103742622D01*
X190153820Y-103748460D01*
X190136190Y-103753438D01*
X190117954Y-103757584D01*
X190099061Y-103760926D01*
X190079458Y-103763490D01*
X190059092Y-103765303D01*
X190015868Y-103766786D01*
X189968972Y-103765592D01*
X189917988Y-103761939D01*
X189862501Y-103756042D01*
X189797347Y-103745386D01*
X189740621Y-103736774D01*
X189692070Y-103730513D01*
X189651441Y-103726911D01*
X189634018Y-103726203D01*
X189618481Y-103726275D01*
X189604797Y-103727165D01*
X189592936Y-103728912D01*
X189582866Y-103731555D01*
X189574554Y-103735131D01*
X189567970Y-103739679D01*
X189563081Y-103745239D01*
X189559856Y-103751847D01*
X189558264Y-103759542D01*
X189382787Y-103759542D01*
X189384773Y-103757863D01*
X189403532Y-103743695D01*
X189424968Y-103728949D01*
X189448990Y-103713695D01*
X189475508Y-103698008D01*
X189504432Y-103681959D01*
X189524690Y-103670563D01*
X189543801Y-103659520D01*
X189561771Y-103648820D01*
X189578612Y-103638455D01*
X189594330Y-103628415D01*
X189608937Y-103618692D01*
X189622440Y-103609276D01*
X189634849Y-103600159D01*
X189646173Y-103591331D01*
X189656421Y-103582783D01*
X189665601Y-103574507D01*
X189673724Y-103566493D01*
X189680797Y-103558733D01*
X189686831Y-103551216D01*
X189691833Y-103543935D01*
X189695814Y-103536879D01*
X189698781Y-103530041D01*
X189700745Y-103523411D01*
X189701715Y-103516979D01*
X189701698Y-103510738D01*
X189701323Y-103507686D01*
X189700705Y-103504677D01*
X189698744Y-103498789D01*
X189695824Y-103493063D01*
X189691955Y-103487490D01*
X189687146Y-103482063D01*
X189681405Y-103476771D01*
X189674741Y-103471606D01*
X189667164Y-103466558D01*
X189658683Y-103461619D01*
X189649307Y-103456779D01*
X189639044Y-103452030D01*
X189627904Y-103447362D01*
X189610975Y-103440426D01*
X189597229Y-103433544D01*
X189586666Y-103426770D01*
X189582579Y-103423441D01*
X189579287Y-103420159D01*
X189576791Y-103416932D01*
X189575091Y-103413766D01*
X189574186Y-103410667D01*
X189574078Y-103407643D01*
X189574765Y-103404701D01*
X189576248Y-103401847D01*
X189578527Y-103399087D01*
X189581602Y-103396430D01*
X189585473Y-103393880D01*
X189590139Y-103391447D01*
X189601859Y-103386952D01*
X189616763Y-103383000D01*
X189634849Y-103379645D01*
X189656119Y-103376941D01*
X189680573Y-103374942D01*
X189708209Y-103373704D01*
X189739029Y-103373278D01*
X189766497Y-103370674D01*
X189793241Y-103367491D01*
X189819117Y-103363729D01*
X189843980Y-103359388D01*
X189867686Y-103354468D01*
X189890090Y-103348970D01*
X189911046Y-103342893D01*
X189920936Y-103339637D01*
X189930411Y-103336237D01*
X189939451Y-103332692D01*
X189948039Y-103329002D01*
X189956157Y-103325168D01*
X189963787Y-103321189D01*
X189970910Y-103317065D01*
X189977509Y-103312797D01*
X189983565Y-103308383D01*
X189989060Y-103303826D01*
X189993977Y-103299123D01*
X189998296Y-103294276D01*
X190002001Y-103289284D01*
X190005073Y-103284147D01*
X190007494Y-103278866D01*
X190009245Y-103273440D01*
X190010309Y-103267869D01*
X190010668Y-103262154D01*
X190009592Y-103257596D01*
X190006399Y-103253186D01*
X189993883Y-103244815D01*
X189973554Y-103237058D01*
X189945845Y-103229935D01*
X189911191Y-103223463D01*
X189870025Y-103217660D01*
X189769897Y-103208134D01*
X189648933Y-103201503D01*
X189510605Y-103197909D01*
X189358387Y-103197499D01*
X189195751Y-103200418D01*
X189015860Y-103206820D01*
X188855720Y-103216913D01*
X188782989Y-103223410D01*
X188715114Y-103230912D01*
X188652068Y-103239444D01*
X188593824Y-103249035D01*
X188540355Y-103259710D01*
X188491634Y-103271498D01*
X188447634Y-103284426D01*
X188408327Y-103298520D01*
X188373686Y-103313808D01*
X188343684Y-103330316D01*
X188318295Y-103348073D01*
X188297491Y-103367105D01*
X188281244Y-103387439D01*
X188269529Y-103409102D01*
X188262317Y-103432122D01*
X188259581Y-103456526D01*
X188000091Y-103456526D01*
X188075440Y-103283276D01*
X188172089Y-103095659D01*
X188280749Y-102914481D01*
X188400947Y-102740266D01*
X188532215Y-102573540D01*
X188674081Y-102414825D01*
X188826076Y-102264648D01*
X188987729Y-102123532D01*
X189158571Y-101992002D01*
X189338130Y-101870583D01*
X189525937Y-101759799D01*
X189721521Y-101660174D01*
X189924412Y-101572233D01*
X190134140Y-101496501D01*
X190228646Y-101469699D01*
X190335144Y-101449355D01*
X190452024Y-101435268D01*
X190577675Y-101427241D01*
X190710489Y-101425073D01*
X190848856Y-101428567D01*
G37*
D11*
X148095020Y-102975868D02*
X148565248Y-102328654D01*
X148565248Y-102328654D02*
X148719346Y-102440613D01*
X148719346Y-102440613D02*
X148789414Y-102538608D01*
X148789414Y-102538608D02*
X148806269Y-102645031D01*
X148806269Y-102645031D02*
X148792305Y-102729062D01*
X148792305Y-102729062D02*
X148733558Y-102874733D01*
X148733558Y-102874733D02*
X148666382Y-102967192D01*
X148666382Y-102967192D02*
X148545995Y-103068079D01*
X148545995Y-103068079D02*
X148470392Y-103107327D01*
X148470392Y-103107327D02*
X148363969Y-103124182D01*
X148363969Y-103124182D02*
X148249118Y-103087827D01*
X148249118Y-103087827D02*
X148095020Y-102975868D01*
X149150822Y-102754098D02*
X149551478Y-103045192D01*
X149551478Y-103045192D02*
X149156606Y-103135007D01*
X149156606Y-103135007D02*
X149249065Y-103202182D01*
X149249065Y-103202182D02*
X149288312Y-103277786D01*
X149288312Y-103277786D02*
X149296740Y-103330997D01*
X149296740Y-103330997D02*
X149282776Y-103415028D01*
X149282776Y-103415028D02*
X149170817Y-103569127D01*
X149170817Y-103569127D02*
X149095214Y-103608375D01*
X149095214Y-103608375D02*
X149042002Y-103616802D01*
X149042002Y-103616802D02*
X148957971Y-103602838D01*
X148957971Y-103602838D02*
X148773053Y-103468488D01*
X148773053Y-103468488D02*
X148733805Y-103392884D01*
X148733805Y-103392884D02*
X148725378Y-103339673D01*
D12*
X172203053Y-110444869D02*
X171771936Y-110164898D01*
X171771936Y-110164898D02*
X171704748Y-110157320D01*
X171704748Y-110157320D02*
X171662919Y-110166211D01*
X171662919Y-110166211D02*
X171604622Y-110200462D01*
X171604622Y-110200462D02*
X171538746Y-110301901D01*
X171538746Y-110301901D02*
X171531168Y-110369090D01*
X171531168Y-110369090D02*
X171540059Y-110410918D01*
X171540059Y-110410918D02*
X171574310Y-110469216D01*
X171574310Y-110469216D02*
X172005427Y-110749186D01*
X171127025Y-110935896D02*
X171324651Y-110631578D01*
X171225838Y-110783737D02*
X171758394Y-111129583D01*
X171758394Y-111129583D02*
X171715252Y-111029457D01*
X171715252Y-111029457D02*
X171697471Y-110945800D01*
X171697471Y-110945800D02*
X171705048Y-110878611D01*
D11*
X175969244Y-79289465D02*
X175298307Y-78853754D01*
X175298307Y-78853754D02*
X175402048Y-78694007D01*
X175402048Y-78694007D02*
X175496242Y-78618907D01*
X175496242Y-78618907D02*
X175601637Y-78596505D01*
X175601637Y-78596505D02*
X175686284Y-78606052D01*
X175686284Y-78606052D02*
X175834829Y-78657095D01*
X175834829Y-78657095D02*
X175930677Y-78719340D01*
X175930677Y-78719340D02*
X176037727Y-78834282D01*
X176037727Y-78834282D02*
X176080877Y-78907727D01*
X176080877Y-78907727D02*
X176103280Y-79013122D01*
X176103280Y-79013122D02*
X176072984Y-79129719D01*
X176072984Y-79129719D02*
X175969244Y-79289465D01*
X175941500Y-77863324D02*
X175734018Y-78182818D01*
X175734018Y-78182818D02*
X176032764Y-78422249D01*
X176032764Y-78422249D02*
X176021563Y-78369551D01*
X176021563Y-78369551D02*
X176031110Y-78284904D01*
X176031110Y-78284904D02*
X176134850Y-78125157D01*
X176134850Y-78125157D02*
X176208296Y-78082007D01*
X176208296Y-78082007D02*
X176260994Y-78070806D01*
X176260994Y-78070806D02*
X176345640Y-78080353D01*
X176345640Y-78080353D02*
X176505387Y-78184093D01*
X176505387Y-78184093D02*
X176548538Y-78257539D01*
X176548538Y-78257539D02*
X176559739Y-78310237D01*
X176559739Y-78310237D02*
X176550192Y-78394883D01*
X176550192Y-78394883D02*
X176446451Y-78554630D01*
X176446451Y-78554630D02*
X176373006Y-78597781D01*
X176373006Y-78597781D02*
X176320308Y-78608982D01*
X178983216Y-104630424D02*
X178963011Y-104049511D01*
X178503976Y-104319202D02*
X179048615Y-103480531D01*
X179048615Y-103480531D02*
X179368109Y-103688013D01*
X179368109Y-103688013D02*
X179422047Y-103779820D01*
X179422047Y-103779820D02*
X179436048Y-103845692D01*
X179436048Y-103845692D02*
X179424115Y-103951500D01*
X179424115Y-103951500D02*
X179346309Y-104071310D01*
X179346309Y-104071310D02*
X179254502Y-104125248D01*
X179254502Y-104125248D02*
X179188630Y-104139250D01*
X179188630Y-104139250D02*
X179082821Y-104127316D01*
X179082821Y-104127316D02*
X178763328Y-103919835D01*
X179781950Y-105149128D02*
X179302710Y-104837905D01*
X179542330Y-104993517D02*
X180086969Y-104154846D01*
X180086969Y-104154846D02*
X179929290Y-104222786D01*
X179929290Y-104222786D02*
X179797546Y-104250789D01*
X179797546Y-104250789D02*
X179691738Y-104238855D01*
X144464282Y-108878565D02*
X144899993Y-108207628D01*
X144899993Y-108207628D02*
X145059740Y-108311369D01*
X145059740Y-108311369D02*
X145134840Y-108405563D01*
X145134840Y-108405563D02*
X145157242Y-108510958D01*
X145157242Y-108510958D02*
X145147695Y-108595605D01*
X145147695Y-108595605D02*
X145096652Y-108744150D01*
X145096652Y-108744150D02*
X145034407Y-108839998D01*
X145034407Y-108839998D02*
X144919465Y-108947048D01*
X144919465Y-108947048D02*
X144846020Y-108990198D01*
X144846020Y-108990198D02*
X144740625Y-109012601D01*
X144740625Y-109012601D02*
X144624028Y-108982305D01*
X144624028Y-108982305D02*
X144464282Y-108878565D01*
X145713236Y-109053718D02*
X145422762Y-109501009D01*
X145719475Y-108694383D02*
X145248506Y-109069882D01*
X145248506Y-109069882D02*
X145663847Y-109339608D01*
X170370420Y-116902550D02*
X170806131Y-116231613D01*
X170806131Y-116231613D02*
X170965878Y-116335354D01*
X170965878Y-116335354D02*
X171040978Y-116429548D01*
X171040978Y-116429548D02*
X171063380Y-116534943D01*
X171063380Y-116534943D02*
X171053833Y-116619590D01*
X171053833Y-116619590D02*
X171002790Y-116768135D01*
X171002790Y-116768135D02*
X170940545Y-116863983D01*
X170940545Y-116863983D02*
X170825603Y-116971033D01*
X170825603Y-116971033D02*
X170752158Y-117014183D01*
X170752158Y-117014183D02*
X170646763Y-117036586D01*
X170646763Y-117036586D02*
X170530166Y-117006290D01*
X170530166Y-117006290D02*
X170370420Y-116902550D01*
X171403622Y-116710475D02*
X171456319Y-116699274D01*
X171456319Y-116699274D02*
X171540966Y-116708821D01*
X171540966Y-116708821D02*
X171700713Y-116812562D01*
X171700713Y-116812562D02*
X171743863Y-116886007D01*
X171743863Y-116886007D02*
X171755065Y-116938705D01*
X171755065Y-116938705D02*
X171745518Y-117023352D01*
X171745518Y-117023352D02*
X171704021Y-117087250D01*
X171704021Y-117087250D02*
X171609828Y-117162350D01*
X171609828Y-117162350D02*
X170977457Y-117296765D01*
X170977457Y-117296765D02*
X171392799Y-117566491D01*
X174195420Y-110552550D02*
X174631131Y-109881613D01*
X174631131Y-109881613D02*
X174790878Y-109985354D01*
X174790878Y-109985354D02*
X174865978Y-110079548D01*
X174865978Y-110079548D02*
X174888380Y-110184943D01*
X174888380Y-110184943D02*
X174878833Y-110269590D01*
X174878833Y-110269590D02*
X174827790Y-110418135D01*
X174827790Y-110418135D02*
X174765545Y-110513983D01*
X174765545Y-110513983D02*
X174650603Y-110621033D01*
X174650603Y-110621033D02*
X174577158Y-110664183D01*
X174577158Y-110664183D02*
X174471763Y-110686586D01*
X174471763Y-110686586D02*
X174355166Y-110656290D01*
X174355166Y-110656290D02*
X174195420Y-110552550D01*
X175217799Y-111216491D02*
X174834407Y-110967513D01*
X175026103Y-111092002D02*
X175461814Y-110421065D01*
X175461814Y-110421065D02*
X175335671Y-110475417D01*
X175335671Y-110475417D02*
X175230276Y-110497819D01*
X175230276Y-110497819D02*
X175145629Y-110488272D01*
X156208216Y-89855424D02*
X156188011Y-89274511D01*
X155728976Y-89544202D02*
X156273615Y-88705531D01*
X156273615Y-88705531D02*
X156593109Y-88913013D01*
X156593109Y-88913013D02*
X156647047Y-89004820D01*
X156647047Y-89004820D02*
X156661048Y-89070692D01*
X156661048Y-89070692D02*
X156649115Y-89176500D01*
X156649115Y-89176500D02*
X156571309Y-89296310D01*
X156571309Y-89296310D02*
X156479502Y-89350248D01*
X156479502Y-89350248D02*
X156413630Y-89364250D01*
X156413630Y-89364250D02*
X156307821Y-89352316D01*
X156307821Y-89352316D02*
X155988328Y-89144835D01*
X157032412Y-89198300D02*
X157551589Y-89535457D01*
X157551589Y-89535457D02*
X157064551Y-89673404D01*
X157064551Y-89673404D02*
X157184361Y-89751210D01*
X157184361Y-89751210D02*
X157238299Y-89843017D01*
X157238299Y-89843017D02*
X157252301Y-89908889D01*
X157252301Y-89908889D02*
X157240367Y-90014698D01*
X157240367Y-90014698D02*
X157110691Y-90214381D01*
X157110691Y-90214381D02*
X157018884Y-90268319D01*
X157018884Y-90268319D02*
X156953012Y-90282321D01*
X156953012Y-90282321D02*
X156847203Y-90270387D01*
X156847203Y-90270387D02*
X156607583Y-90114776D01*
X156607583Y-90114776D02*
X156553645Y-90022969D01*
X156553645Y-90022969D02*
X156539644Y-89957097D01*
X140498193Y-108420458D02*
X140823299Y-107938613D01*
X140293411Y-107886983D02*
X141226991Y-107528615D01*
X141226991Y-107528615D02*
X141363512Y-107884265D01*
X141363512Y-107884265D02*
X141353186Y-107990243D01*
X141353186Y-107990243D02*
X141325795Y-108051764D01*
X141325795Y-108051764D02*
X141253948Y-108130350D01*
X141253948Y-108130350D02*
X141120579Y-108181546D01*
X141120579Y-108181546D02*
X141014602Y-108171220D01*
X141014602Y-108171220D02*
X140953081Y-108143829D01*
X140953081Y-108143829D02*
X140874494Y-108071982D01*
X140874494Y-108071982D02*
X140737973Y-107716332D01*
X141427752Y-108981758D02*
X140805365Y-109220670D01*
X141698076Y-108622955D02*
X140945907Y-108656651D01*
X140945907Y-108656651D02*
X141167754Y-109234582D01*
X168625295Y-123384819D02*
X168291962Y-122908628D01*
X168053867Y-123384819D02*
X168053867Y-122384819D01*
X168053867Y-122384819D02*
X168434819Y-122384819D01*
X168434819Y-122384819D02*
X168530057Y-122432438D01*
X168530057Y-122432438D02*
X168577676Y-122480057D01*
X168577676Y-122480057D02*
X168625295Y-122575295D01*
X168625295Y-122575295D02*
X168625295Y-122718152D01*
X168625295Y-122718152D02*
X168577676Y-122813390D01*
X168577676Y-122813390D02*
X168530057Y-122861009D01*
X168530057Y-122861009D02*
X168434819Y-122908628D01*
X168434819Y-122908628D02*
X168053867Y-122908628D01*
X169006248Y-122480057D02*
X169053867Y-122432438D01*
X169053867Y-122432438D02*
X169149105Y-122384819D01*
X169149105Y-122384819D02*
X169387200Y-122384819D01*
X169387200Y-122384819D02*
X169482438Y-122432438D01*
X169482438Y-122432438D02*
X169530057Y-122480057D01*
X169530057Y-122480057D02*
X169577676Y-122575295D01*
X169577676Y-122575295D02*
X169577676Y-122670533D01*
X169577676Y-122670533D02*
X169530057Y-122813390D01*
X169530057Y-122813390D02*
X168958629Y-123384819D01*
X168958629Y-123384819D02*
X169577676Y-123384819D01*
X167524467Y-85893887D02*
X167618341Y-86011629D01*
X167618341Y-86011629D02*
X167818025Y-86141305D01*
X167818025Y-86141305D02*
X167923833Y-86153239D01*
X167923833Y-86153239D02*
X167989705Y-86139237D01*
X167989705Y-86139237D02*
X168081512Y-86085299D01*
X168081512Y-86085299D02*
X168133383Y-86005426D01*
X168133383Y-86005426D02*
X168145316Y-85899617D01*
X168145316Y-85899617D02*
X168131315Y-85833745D01*
X168131315Y-85833745D02*
X168077377Y-85741938D01*
X168077377Y-85741938D02*
X167943565Y-85598261D01*
X167943565Y-85598261D02*
X167889627Y-85506454D01*
X167889627Y-85506454D02*
X167875625Y-85440582D01*
X167875625Y-85440582D02*
X167887559Y-85334773D01*
X167887559Y-85334773D02*
X167939430Y-85254900D01*
X167939430Y-85254900D02*
X168031237Y-85200962D01*
X168031237Y-85200962D02*
X168097109Y-85186960D01*
X168097109Y-85186960D02*
X168202917Y-85198894D01*
X168202917Y-85198894D02*
X168402601Y-85328570D01*
X168402601Y-85328570D02*
X168496475Y-85446312D01*
X168801968Y-85587922D02*
X168457012Y-86556268D01*
X168457012Y-86556268D02*
X169005787Y-86060959D01*
X169005787Y-86060959D02*
X168776506Y-86763750D01*
X168776506Y-86763750D02*
X169520828Y-86054755D01*
X169748514Y-86316175D02*
X169814386Y-86302173D01*
X169814386Y-86302173D02*
X169920195Y-86314107D01*
X169920195Y-86314107D02*
X170119878Y-86443783D01*
X170119878Y-86443783D02*
X170173817Y-86535590D01*
X170173817Y-86535590D02*
X170187818Y-86601462D01*
X170187818Y-86601462D02*
X170175884Y-86707271D01*
X170175884Y-86707271D02*
X170124014Y-86787144D01*
X170124014Y-86787144D02*
X170006272Y-86881019D01*
X170006272Y-86881019D02*
X169215809Y-87049037D01*
X169215809Y-87049037D02*
X169734986Y-87386194D01*
X161779670Y-89654711D02*
X161897412Y-89560837D01*
X161897412Y-89560837D02*
X162027088Y-89361153D01*
X162027088Y-89361153D02*
X162039022Y-89255345D01*
X162039022Y-89255345D02*
X162025020Y-89189473D01*
X162025020Y-89189473D02*
X161971082Y-89097666D01*
X161971082Y-89097666D02*
X161891209Y-89045795D01*
X161891209Y-89045795D02*
X161785400Y-89033862D01*
X161785400Y-89033862D02*
X161719528Y-89047863D01*
X161719528Y-89047863D02*
X161627721Y-89101801D01*
X161627721Y-89101801D02*
X161484044Y-89235613D01*
X161484044Y-89235613D02*
X161392237Y-89289551D01*
X161392237Y-89289551D02*
X161326365Y-89303553D01*
X161326365Y-89303553D02*
X161220556Y-89291619D01*
X161220556Y-89291619D02*
X161140683Y-89239748D01*
X161140683Y-89239748D02*
X161086745Y-89147941D01*
X161086745Y-89147941D02*
X161072743Y-89082069D01*
X161072743Y-89082069D02*
X161084677Y-88976261D01*
X161084677Y-88976261D02*
X161214353Y-88776577D01*
X161214353Y-88776577D02*
X161332095Y-88682703D01*
X161473705Y-88377210D02*
X162442051Y-88722166D01*
X162442051Y-88722166D02*
X161946742Y-88173391D01*
X161946742Y-88173391D02*
X162649533Y-88402672D01*
X162649533Y-88402672D02*
X161940538Y-87658350D01*
X163271977Y-87444192D02*
X162960755Y-87923432D01*
X163116366Y-87683812D02*
X162277696Y-87139173D01*
X162277696Y-87139173D02*
X162345635Y-87296852D01*
X162345635Y-87296852D02*
X162373638Y-87428596D01*
X162373638Y-87428596D02*
X162361705Y-87534404D01*
X177550973Y-99900287D02*
X177668715Y-99806413D01*
X177668715Y-99806413D02*
X177798391Y-99606729D01*
X177798391Y-99606729D02*
X177810325Y-99500921D01*
X177810325Y-99500921D02*
X177796323Y-99435049D01*
X177796323Y-99435049D02*
X177742385Y-99343242D01*
X177742385Y-99343242D02*
X177662512Y-99291371D01*
X177662512Y-99291371D02*
X177556703Y-99279438D01*
X177556703Y-99279438D02*
X177490831Y-99293439D01*
X177490831Y-99293439D02*
X177399024Y-99347377D01*
X177399024Y-99347377D02*
X177255347Y-99481189D01*
X177255347Y-99481189D02*
X177163540Y-99535127D01*
X177163540Y-99535127D02*
X177097668Y-99549129D01*
X177097668Y-99549129D02*
X176991859Y-99537195D01*
X176991859Y-99537195D02*
X176911986Y-99485324D01*
X176911986Y-99485324D02*
X176858048Y-99393517D01*
X176858048Y-99393517D02*
X176844046Y-99327645D01*
X176844046Y-99327645D02*
X176855980Y-99221837D01*
X176855980Y-99221837D02*
X176985656Y-99022153D01*
X176985656Y-99022153D02*
X177103398Y-98928279D01*
X177245008Y-98622786D02*
X178213354Y-98967742D01*
X178213354Y-98967742D02*
X177718045Y-98418967D01*
X177718045Y-98418967D02*
X178420836Y-98648248D01*
X178420836Y-98648248D02*
X177711841Y-97903926D01*
X178432296Y-97406549D02*
X178991410Y-97769641D01*
X177983127Y-97398751D02*
X178452501Y-97987462D01*
X178452501Y-97987462D02*
X178789659Y-97468285D01*
X175723110Y-91253874D02*
X175816984Y-91371616D01*
X175816984Y-91371616D02*
X176016668Y-91501292D01*
X176016668Y-91501292D02*
X176122476Y-91513226D01*
X176122476Y-91513226D02*
X176188348Y-91499224D01*
X176188348Y-91499224D02*
X176280155Y-91445286D01*
X176280155Y-91445286D02*
X176332026Y-91365413D01*
X176332026Y-91365413D02*
X176343959Y-91259604D01*
X176343959Y-91259604D02*
X176329958Y-91193732D01*
X176329958Y-91193732D02*
X176276020Y-91101925D01*
X176276020Y-91101925D02*
X176142208Y-90958248D01*
X176142208Y-90958248D02*
X176088270Y-90866441D01*
X176088270Y-90866441D02*
X176074268Y-90800569D01*
X176074268Y-90800569D02*
X176086202Y-90694760D01*
X176086202Y-90694760D02*
X176138073Y-90614887D01*
X176138073Y-90614887D02*
X176229880Y-90560949D01*
X176229880Y-90560949D02*
X176295752Y-90546947D01*
X176295752Y-90546947D02*
X176401560Y-90558881D01*
X176401560Y-90558881D02*
X176601244Y-90688557D01*
X176601244Y-90688557D02*
X176695118Y-90806299D01*
X177000611Y-90947909D02*
X176655655Y-91916255D01*
X176655655Y-91916255D02*
X177204430Y-91420946D01*
X177204430Y-91420946D02*
X176975149Y-92123737D01*
X176975149Y-92123737D02*
X177719471Y-91414742D01*
X178438331Y-91881576D02*
X178038964Y-91622224D01*
X178038964Y-91622224D02*
X177739676Y-91995656D01*
X177739676Y-91995656D02*
X177805548Y-91981654D01*
X177805548Y-91981654D02*
X177911356Y-91993588D01*
X177911356Y-91993588D02*
X178111040Y-92123264D01*
X178111040Y-92123264D02*
X178164978Y-92215071D01*
X178164978Y-92215071D02*
X178178979Y-92280943D01*
X178178979Y-92280943D02*
X178167046Y-92386751D01*
X178167046Y-92386751D02*
X178037370Y-92586435D01*
X178037370Y-92586435D02*
X177945563Y-92640373D01*
X177945563Y-92640373D02*
X177879691Y-92654374D01*
X177879691Y-92654374D02*
X177773882Y-92642441D01*
X177773882Y-92642441D02*
X177574199Y-92512765D01*
X177574199Y-92512765D02*
X177520261Y-92420958D01*
X177520261Y-92420958D02*
X177506259Y-92355086D01*
X171520281Y-89304671D02*
X171614155Y-89422413D01*
X171614155Y-89422413D02*
X171813839Y-89552089D01*
X171813839Y-89552089D02*
X171919647Y-89564023D01*
X171919647Y-89564023D02*
X171985519Y-89550021D01*
X171985519Y-89550021D02*
X172077326Y-89496083D01*
X172077326Y-89496083D02*
X172129197Y-89416210D01*
X172129197Y-89416210D02*
X172141130Y-89310401D01*
X172141130Y-89310401D02*
X172127129Y-89244529D01*
X172127129Y-89244529D02*
X172073191Y-89152722D01*
X172073191Y-89152722D02*
X171939379Y-89009045D01*
X171939379Y-89009045D02*
X171885441Y-88917238D01*
X171885441Y-88917238D02*
X171871439Y-88851366D01*
X171871439Y-88851366D02*
X171883373Y-88745557D01*
X171883373Y-88745557D02*
X171935244Y-88665684D01*
X171935244Y-88665684D02*
X172027051Y-88611746D01*
X172027051Y-88611746D02*
X172092923Y-88597744D01*
X172092923Y-88597744D02*
X172198731Y-88609678D01*
X172198731Y-88609678D02*
X172398415Y-88739354D01*
X172398415Y-88739354D02*
X172492289Y-88857096D01*
X172797782Y-88998706D02*
X172452826Y-89967052D01*
X172452826Y-89967052D02*
X173001601Y-89471743D01*
X173001601Y-89471743D02*
X172772320Y-90174534D01*
X172772320Y-90174534D02*
X173516642Y-89465539D01*
X173756262Y-89621150D02*
X174275439Y-89958308D01*
X174275439Y-89958308D02*
X173788401Y-90096255D01*
X173788401Y-90096255D02*
X173908211Y-90174061D01*
X173908211Y-90174061D02*
X173962149Y-90265868D01*
X173962149Y-90265868D02*
X173976150Y-90331740D01*
X173976150Y-90331740D02*
X173964217Y-90437548D01*
X173964217Y-90437548D02*
X173834541Y-90637232D01*
X173834541Y-90637232D02*
X173742734Y-90691170D01*
X173742734Y-90691170D02*
X173676862Y-90705171D01*
X173676862Y-90705171D02*
X173571053Y-90693238D01*
X173571053Y-90693238D02*
X173331433Y-90537627D01*
X173331433Y-90537627D02*
X173277495Y-90445819D01*
X173277495Y-90445819D02*
X173263493Y-90379948D01*
X182308216Y-75655425D02*
X182288011Y-75074512D01*
X181828976Y-75344203D02*
X182373615Y-74505532D01*
X182373615Y-74505532D02*
X182693109Y-74713014D01*
X182693109Y-74713014D02*
X182747047Y-74804821D01*
X182747047Y-74804821D02*
X182761048Y-74870693D01*
X182761048Y-74870693D02*
X182749115Y-74976501D01*
X182749115Y-74976501D02*
X182671309Y-75096311D01*
X182671309Y-75096311D02*
X182579502Y-75150249D01*
X182579502Y-75150249D02*
X182513630Y-75164251D01*
X182513630Y-75164251D02*
X182407821Y-75152317D01*
X182407821Y-75152317D02*
X182088328Y-74944836D01*
X183611652Y-75309523D02*
X183212286Y-75050171D01*
X183212286Y-75050171D02*
X182912997Y-75423603D01*
X182912997Y-75423603D02*
X182978869Y-75409601D01*
X182978869Y-75409601D02*
X183084677Y-75421535D01*
X183084677Y-75421535D02*
X183284361Y-75551211D01*
X183284361Y-75551211D02*
X183338299Y-75643018D01*
X183338299Y-75643018D02*
X183352301Y-75708890D01*
X183352301Y-75708890D02*
X183340367Y-75814699D01*
X183340367Y-75814699D02*
X183210691Y-76014382D01*
X183210691Y-76014382D02*
X183118884Y-76068320D01*
X183118884Y-76068320D02*
X183053012Y-76082322D01*
X183053012Y-76082322D02*
X182947203Y-76070388D01*
X182947203Y-76070388D02*
X182747520Y-75940712D01*
X182747520Y-75940712D02*
X182693582Y-75848905D01*
X182693582Y-75848905D02*
X182679580Y-75783033D01*
%TO.C,D3*%
D13*
X153686404Y-101934429D02*
G75*
G02*
X153486402Y-101934429I-100001J0D01*
G01*
X153486402Y-101934429D02*
G75*
G02*
X153686404Y-101934429I100001J0D01*
G01*
D14*
X152099619Y-102789895D02*
X153940564Y-100256056D01*
X152099619Y-102789895D02*
G75*
G02*
X153940558Y-100256056I-1107026J2739979D01*
G01*
%TO.C,U1*%
D15*
X151385327Y-110220304D02*
X163101552Y-117828910D01*
D14*
X151385327Y-110220304D02*
X163101552Y-117828910D01*
X152970447Y-112334744D02*
X153466067Y-111571554D01*
X159822862Y-117380936D02*
X153117463Y-113026401D01*
X160163031Y-93206092D02*
X150825197Y-107585100D01*
X161013265Y-116472760D02*
X160514369Y-117234148D01*
X174514464Y-100254570D02*
X162798237Y-92645962D01*
X175074595Y-102889774D02*
X165736758Y-117268779D01*
X151385327Y-110220304D02*
G75*
G02*
X150825196Y-107585099I1037536J1597668D01*
G01*
X153117463Y-113026401D02*
G75*
G02*
X152970445Y-112334742I272318J419338D01*
G01*
X160163031Y-93206092D02*
G75*
G02*
X162798237Y-92645962I1597669J-1037541D01*
G01*
X160514369Y-117234148D02*
G75*
G02*
X159822822Y-117380998I-419249J272587D01*
G01*
X165736758Y-117268779D02*
G75*
G02*
X163101553Y-117828909I-1597667J1037535D01*
G01*
X174514464Y-100254570D02*
G75*
G02*
X175074595Y-102889774I-1037544J-1597669D01*
G01*
D16*
X164653481Y-117336454D02*
G75*
G02*
X164149481Y-117336454I-252000J0D01*
G01*
X164149481Y-117336454D02*
G75*
G02*
X164653481Y-117336454I252000J0D01*
G01*
D17*
X165132798Y-118697008D02*
G75*
G02*
X164628800Y-118697008I-251999J0D01*
G01*
X164628800Y-118697008D02*
G75*
G02*
X165132798Y-118697008I251999J0D01*
G01*
%TO.C,D5*%
D14*
X176400047Y-81893771D02*
G75*
G02*
X179026762Y-83599578I2678288J1248907D01*
G01*
X176400047Y-81893771D02*
X179026762Y-83599582D01*
D13*
X177432152Y-83333745D02*
G75*
G02*
X177232156Y-83333745I-99998J0D01*
G01*
X177232156Y-83333745D02*
G75*
G02*
X177432152Y-83333745I99998J0D01*
G01*
%TO.C,R1*%
D18*
X176213685Y-105675870D02*
X179434180Y-107767285D01*
X177215820Y-104132717D02*
X180436315Y-106224132D01*
%TO.C,D4*%
D14*
X148453660Y-108483263D02*
G75*
G02*
X150159465Y-105856549I-1248909J2678287D01*
G01*
X148453660Y-108483263D02*
X150159471Y-105856549D01*
D13*
X149993635Y-107551157D02*
G75*
G02*
X149793633Y-107551157I-100001J0D01*
G01*
X149793633Y-107551157D02*
G75*
G02*
X149993635Y-107551157I100001J0D01*
G01*
%TO.C,D2*%
X166426142Y-118265463D02*
G75*
G02*
X166226144Y-118265463I-99999J0D01*
G01*
X166226144Y-118265463D02*
G75*
G02*
X166426142Y-118265463I99999J0D01*
G01*
D14*
X167766116Y-117333351D02*
X166060307Y-119960069D01*
X167766116Y-117333351D02*
G75*
G02*
X166060305Y-119960069I1248907J-2678292D01*
G01*
%TO.C,D1*%
X171591116Y-110983351D02*
G75*
G02*
X169885305Y-113610069I1248907J-2678292D01*
G01*
X171591116Y-110983351D02*
X169885307Y-113610069D01*
D13*
X170251142Y-111915463D02*
G75*
G02*
X170051144Y-111915463I-99999J0D01*
G01*
X170051144Y-111915463D02*
G75*
G02*
X170251142Y-111915463I99999J0D01*
G01*
%TO.C,R3*%
D18*
X154440820Y-89357717D02*
X157661315Y-91449132D01*
X153438685Y-90900870D02*
X156659180Y-92992285D01*
%TO.C,R4*%
X144321962Y-109187769D02*
X142945837Y-105602826D01*
X142604174Y-109847171D02*
X141228047Y-106262225D01*
%TO.C,R2*%
X166871962Y-125770000D02*
X170711962Y-125770000D01*
X166871962Y-123930000D02*
X170711962Y-123930000D01*
%TO.C,SW2*%
X170206840Y-88342671D02*
X166432824Y-85891798D01*
X169076623Y-92378153D02*
X169893582Y-91120146D01*
X164022889Y-87307674D02*
X163205927Y-88565679D01*
X162892672Y-91343153D02*
X166666688Y-93794033D01*
%TO.C,SW1*%
X156064763Y-88526859D02*
X157322762Y-89343820D01*
X160100237Y-89657085D02*
X162551121Y-85883063D01*
X157099759Y-82342907D02*
X154648880Y-86116928D01*
X161135242Y-83473132D02*
X159877243Y-82656167D01*
%TO.C,SW4*%
X179999760Y-97217910D02*
X177548882Y-100991936D01*
X184035239Y-98348134D02*
X182777233Y-97531173D01*
X178964759Y-103401865D02*
X180222766Y-104218824D01*
X183000244Y-104532086D02*
X185451119Y-100758067D01*
%TO.C,SW5*%
X178405485Y-93702661D02*
X174631464Y-91251788D01*
X177275265Y-97738142D02*
X178092223Y-96480135D01*
X172221529Y-92667661D02*
X171404570Y-93925671D01*
X171091312Y-96703146D02*
X174865330Y-99154020D01*
%TO.C,SW3*%
X171517908Y-87625235D02*
X175291931Y-90076113D01*
X177701875Y-88660237D02*
X178518829Y-87402224D01*
X172648130Y-83589762D02*
X171831178Y-84847762D01*
X178832088Y-84624747D02*
X175058065Y-82173876D01*
%TO.C,R5*%
X179538686Y-76700869D02*
X182759179Y-78792287D01*
X180540820Y-75157717D02*
X183761315Y-77249133D01*
%TD*%
M02*
