%TF.GenerationSoftware,KiCad,Pcbnew,10.0.1*%
%TF.CreationDate,2026-07-02T18:41:45+08:00*%
%TF.ProjectId,badge,62616467-652e-46b6-9963-61645f706362,rev?*%
%TF.SameCoordinates,Original*%
%TF.FileFunction,Legend,Bot*%
%TF.FilePolarity,Positive*%
%FSLAX46Y46*%
G04 Gerber Fmt 4.6, Leading zero omitted, Abs format (unit mm)*
G04 Created by KiCad (PCBNEW 10.0.1) date 2026-07-02 18:41:45*
%MOMM*%
%LPD*%
G01*
G04 APERTURE LIST*
%ADD10C,0.070000*%
G04 APERTURE END LIST*
D10*
X152258035Y-110427182D02*
X152322866Y-110390405D01*
X152322866Y-110390405D02*
X152354409Y-110355373D01*
X152354409Y-110355373D02*
X152384208Y-110287053D01*
X152384208Y-110287053D02*
X152373741Y-110087327D01*
X152373741Y-110087327D02*
X152336964Y-110022496D01*
X152336964Y-110022496D02*
X152301932Y-109990953D01*
X152301932Y-109990953D02*
X152233612Y-109961155D01*
X152233612Y-109961155D02*
X152133749Y-109966388D01*
X152133749Y-109966388D02*
X152068918Y-110003165D01*
X152068918Y-110003165D02*
X152037375Y-110038197D01*
X152037375Y-110038197D02*
X152007577Y-110106517D01*
X152007577Y-110106517D02*
X152018044Y-110306243D01*
X152018044Y-110306243D02*
X152054820Y-110371074D01*
X152054820Y-110371074D02*
X152089853Y-110402617D01*
X152089853Y-110402617D02*
X152158173Y-110432415D01*
X152158173Y-110432415D02*
X152258035Y-110427182D01*
X151701010Y-109989067D02*
X151725433Y-110455094D01*
X151704499Y-110055642D02*
X151669467Y-110024099D01*
X151669467Y-110024099D02*
X151601147Y-109994301D01*
X151601147Y-109994301D02*
X151501284Y-109999534D01*
X151501284Y-109999534D02*
X151436453Y-110036311D01*
X151436453Y-110036311D02*
X151406655Y-110104631D01*
X151406655Y-110104631D02*
X151425845Y-110470795D01*
X150993105Y-110493474D02*
X151057936Y-110456697D01*
X151057936Y-110456697D02*
X151087735Y-110388377D01*
X151087735Y-110388377D02*
X151056333Y-109789200D01*
X150768956Y-110037914D02*
X150626941Y-110512664D01*
X150436079Y-110055359D02*
X150626941Y-110512664D01*
X150626941Y-110512664D02*
X150702239Y-110675613D01*
X150702239Y-110675613D02*
X150737271Y-110707156D01*
X150737271Y-110707156D02*
X150805591Y-110736955D01*
X150269641Y-110064082D02*
X150003340Y-110078038D01*
X150157567Y-109836302D02*
X150188968Y-110435480D01*
X150188968Y-110435480D02*
X150159170Y-110503799D01*
X150159170Y-110503799D02*
X150094339Y-110540576D01*
X150094339Y-110540576D02*
X150027763Y-110544065D01*
X149794750Y-110556277D02*
X149758115Y-109857236D01*
X149495161Y-110571978D02*
X149475971Y-110205814D01*
X149475971Y-110205814D02*
X149505770Y-110137494D01*
X149505770Y-110137494D02*
X149570601Y-110100717D01*
X149570601Y-110100717D02*
X149670464Y-110095483D01*
X149670464Y-110095483D02*
X149738783Y-110125282D01*
X149738783Y-110125282D02*
X149773816Y-110156825D01*
X149192225Y-109886893D02*
X148759486Y-109909572D01*
X148759486Y-109909572D02*
X149006455Y-110163662D01*
X149006455Y-110163662D02*
X148906592Y-110168895D01*
X148906592Y-110168895D02*
X148841762Y-110205672D01*
X148841762Y-110205672D02*
X148810219Y-110240704D01*
X148810219Y-110240704D02*
X148780420Y-110309024D01*
X148780420Y-110309024D02*
X148789143Y-110475462D01*
X148789143Y-110475462D02*
X148825919Y-110540293D01*
X148825919Y-110540293D02*
X148860952Y-110571836D01*
X148860952Y-110571836D02*
X148929271Y-110601635D01*
X148929271Y-110601635D02*
X149128997Y-110591168D01*
X149128997Y-110591168D02*
X149193828Y-110554391D01*
X149193828Y-110554391D02*
X149225371Y-110519359D01*
X148496532Y-110624314D02*
X148459896Y-109925273D01*
X148473853Y-110191574D02*
X148405533Y-110161776D01*
X148405533Y-110161776D02*
X148272382Y-110168754D01*
X148272382Y-110168754D02*
X148207551Y-110205531D01*
X148207551Y-110205531D02*
X148176008Y-110240563D01*
X148176008Y-110240563D02*
X148146210Y-110308883D01*
X148146210Y-110308883D02*
X148156677Y-110508608D01*
X148156677Y-110508608D02*
X148193454Y-110573439D01*
X148193454Y-110573439D02*
X148228486Y-110604982D01*
X148228486Y-110604982D02*
X148296806Y-110634781D01*
X148296806Y-110634781D02*
X148429956Y-110627803D01*
X148429956Y-110627803D02*
X148494787Y-110591026D01*
X147596021Y-110638128D02*
X147664341Y-110667927D01*
X147664341Y-110667927D02*
X147797491Y-110660949D01*
X147797491Y-110660949D02*
X147862322Y-110624172D01*
X147862322Y-110624172D02*
X147892121Y-110555852D01*
X147892121Y-110555852D02*
X147878164Y-110289551D01*
X147878164Y-110289551D02*
X147841388Y-110224720D01*
X147841388Y-110224720D02*
X147773068Y-110194922D01*
X147773068Y-110194922D02*
X147639917Y-110201900D01*
X147639917Y-110201900D02*
X147575086Y-110238677D01*
X147575086Y-110238677D02*
X147545288Y-110306996D01*
X147545288Y-110306996D02*
X147548777Y-110373572D01*
X147548777Y-110373572D02*
X147885142Y-110422702D01*
X147296432Y-110653829D02*
X147231601Y-110690606D01*
X147231601Y-110690606D02*
X147098451Y-110697584D01*
X147098451Y-110697584D02*
X147030131Y-110667785D01*
X147030131Y-110667785D02*
X146993354Y-110602955D01*
X146993354Y-110602955D02*
X146991609Y-110569667D01*
X146991609Y-110569667D02*
X147021408Y-110501347D01*
X147021408Y-110501347D02*
X147086239Y-110464570D01*
X147086239Y-110464570D02*
X147186102Y-110459337D01*
X147186102Y-110459337D02*
X147250933Y-110422560D01*
X147250933Y-110422560D02*
X147280731Y-110354240D01*
X147280731Y-110354240D02*
X147278987Y-110320953D01*
X147278987Y-110320953D02*
X147242210Y-110256122D01*
X147242210Y-110256122D02*
X147173890Y-110226323D01*
X147173890Y-110226323D02*
X147074027Y-110231557D01*
X147074027Y-110231557D02*
X147009196Y-110268334D01*
X146774438Y-110247258D02*
X146508137Y-110261214D01*
X146662363Y-110019478D02*
X146693765Y-110618655D01*
X146693765Y-110618655D02*
X146663966Y-110686975D01*
X146663966Y-110686975D02*
X146599135Y-110723752D01*
X146599135Y-110723752D02*
X146532560Y-110727241D01*
M02*
