%TF.GenerationSoftware,KiCad,Pcbnew,10.0.1*%
%TF.CreationDate,2026-07-02T18:41:45+08:00*%
%TF.ProjectId,badge,62616467-652e-46b6-9963-61645f706362,rev?*%
%TF.SameCoordinates,Original*%
%TF.FileFunction,Profile,NP*%
%FSLAX46Y46*%
G04 Gerber Fmt 4.6, Leading zero omitted, Abs format (unit mm)*
G04 Created by KiCad (PCBNEW 10.0.1) date 2026-07-02 18:41:45*
%MOMM*%
%LPD*%
G01*
G04 APERTURE LIST*
%TA.AperFunction,Profile*%
%ADD10C,0.050000*%
%TD*%
G04 APERTURE END LIST*
D10*
X187575156Y-69956400D02*
G75*
G02*
X185741444Y-69956400I-916856J0D01*
G01*
X185741444Y-69956400D02*
G75*
G02*
X187575156Y-69956400I916856J0D01*
G01*
X148316356Y-73922500D02*
G75*
G02*
X146482644Y-73922500I-916856J0D01*
G01*
X146482644Y-73922500D02*
G75*
G02*
X148316356Y-73922500I916856J0D01*
G01*
X135748256Y-110987700D02*
G75*
G02*
X133914544Y-110987700I-916856J0D01*
G01*
X133914544Y-110987700D02*
G75*
G02*
X135748256Y-110987700I916856J0D01*
G01*
X169925256Y-132556700D02*
G75*
G02*
X168091544Y-132556700I-916856J0D01*
G01*
X168091544Y-132556700D02*
G75*
G02*
X169925256Y-132556700I916856J0D01*
G01*
X201379556Y-107163100D02*
G75*
G02*
X199545844Y-107163100I-916856J0D01*
G01*
X199545844Y-107163100D02*
G75*
G02*
X201379556Y-107163100I916856J0D01*
G01*
X157940846Y-111137560D02*
G75*
G02*
X159426202Y-112090537I87654J-1497440D01*
G01*
X134919015Y-112485179D02*
G75*
G02*
X133854383Y-109849474I-87615J1497479D01*
G01*
X177518115Y-110558305D02*
G75*
G02*
X178889873Y-109510534I1430585J-451095D01*
G01*
X170438920Y-133007797D02*
G75*
G02*
X167610729Y-133101119I-1430520J451097D01*
G01*
X201241943Y-105881378D02*
G75*
G02*
X200521526Y-108661956I-779243J-1281722D01*
G01*
X182544128Y-94514174D02*
G75*
G02*
X181877715Y-92831976I779172J1281774D01*
G01*
X145993244Y-74444443D02*
G75*
G02*
X148161032Y-72630196I1406256J521943D01*
G01*
X152662954Y-92414414D02*
G75*
G02*
X152233667Y-94074625I-1406254J-521986D01*
G01*
X167679665Y-83021064D02*
G75*
G02*
X165988967Y-83135812I-929165J1177564D01*
G01*
X185729163Y-68778886D02*
G75*
G02*
X188103795Y-70356872I929137J-1177514D01*
G01*
X167679665Y-83021064D02*
X185729163Y-68778886D01*
X181877786Y-92831996D02*
X188103889Y-70356898D01*
X165988965Y-83135815D02*
X148161038Y-72630186D01*
X157940846Y-111137560D02*
X134919015Y-112485179D01*
X152233640Y-94074593D02*
X133854413Y-109849509D01*
X167610661Y-133101145D02*
X159426201Y-112090537D01*
X152662954Y-92414414D02*
X145993244Y-74444443D01*
X182544128Y-94514174D02*
X201241943Y-105881378D01*
X178889874Y-109510569D02*
X200521526Y-108661952D01*
X177518115Y-110558305D02*
X170438920Y-133007797D01*
M02*
