%TF.GenerationSoftware,KiCad,Pcbnew,10.0.1*%
%TF.CreationDate,2026-07-02T18:41:45+08:00*%
%TF.ProjectId,badge,62616467-652e-46b6-9963-61645f706362,rev?*%
%TF.SameCoordinates,Original*%
%TF.FileFunction,Legend,Top*%
%TF.FilePolarity,Positive*%
%FSLAX46Y46*%
G04 Gerber Fmt 4.6, Leading zero omitted, Abs format (unit mm)*
G04 Created by KiCad (PCBNEW 10.0.1) date 2026-07-02 18:41:45*
%MOMM*%
%LPD*%
G01*
G04 APERTURE LIST*
%ADD10C,0.150000*%
%ADD11C,0.101600*%
%ADD12C,0.127000*%
%ADD13C,0.200000*%
%ADD14C,0.120000*%
%ADD15C,0.503998*%
%ADD16C,0.504000*%
%ADD17C,0.100000*%
G04 APERTURE END LIST*
D10*
X175969244Y-79289465D02*
X175298307Y-78853754D01*
X175298307Y-78853754D02*
X175402048Y-78694007D01*
X175402048Y-78694007D02*
X175496242Y-78618907D01*
X175496242Y-78618907D02*
X175601637Y-78596505D01*
X175601637Y-78596505D02*
X175686284Y-78606052D01*
X175686284Y-78606052D02*
X175834829Y-78657095D01*
X175834829Y-78657095D02*
X175930677Y-78719340D01*
X175930677Y-78719340D02*
X176037727Y-78834282D01*
X176037727Y-78834282D02*
X176080877Y-78907727D01*
X176080877Y-78907727D02*
X176103280Y-79013122D01*
X176103280Y-79013122D02*
X176072984Y-79129719D01*
X176072984Y-79129719D02*
X175969244Y-79289465D01*
X175941500Y-77863324D02*
X175734018Y-78182818D01*
X175734018Y-78182818D02*
X176032764Y-78422249D01*
X176032764Y-78422249D02*
X176021563Y-78369551D01*
X176021563Y-78369551D02*
X176031110Y-78284904D01*
X176031110Y-78284904D02*
X176134850Y-78125157D01*
X176134850Y-78125157D02*
X176208296Y-78082007D01*
X176208296Y-78082007D02*
X176260994Y-78070806D01*
X176260994Y-78070806D02*
X176345640Y-78080353D01*
X176345640Y-78080353D02*
X176505387Y-78184093D01*
X176505387Y-78184093D02*
X176548538Y-78257539D01*
X176548538Y-78257539D02*
X176559739Y-78310237D01*
X176559739Y-78310237D02*
X176550192Y-78394883D01*
X176550192Y-78394883D02*
X176446451Y-78554630D01*
X176446451Y-78554630D02*
X176373006Y-78597781D01*
X176373006Y-78597781D02*
X176320308Y-78608982D01*
X178983216Y-104630424D02*
X178963011Y-104049511D01*
X178503976Y-104319202D02*
X179048615Y-103480531D01*
X179048615Y-103480531D02*
X179368109Y-103688013D01*
X179368109Y-103688013D02*
X179422047Y-103779820D01*
X179422047Y-103779820D02*
X179436048Y-103845692D01*
X179436048Y-103845692D02*
X179424115Y-103951500D01*
X179424115Y-103951500D02*
X179346309Y-104071310D01*
X179346309Y-104071310D02*
X179254502Y-104125248D01*
X179254502Y-104125248D02*
X179188630Y-104139250D01*
X179188630Y-104139250D02*
X179082821Y-104127316D01*
X179082821Y-104127316D02*
X178763328Y-103919835D01*
X179781950Y-105149128D02*
X179302710Y-104837905D01*
X179542330Y-104993517D02*
X180086969Y-104154846D01*
X180086969Y-104154846D02*
X179929290Y-104222786D01*
X179929290Y-104222786D02*
X179797546Y-104250789D01*
X179797546Y-104250789D02*
X179691738Y-104238855D01*
X144464282Y-108878565D02*
X144899993Y-108207628D01*
X144899993Y-108207628D02*
X145059740Y-108311369D01*
X145059740Y-108311369D02*
X145134840Y-108405563D01*
X145134840Y-108405563D02*
X145157242Y-108510958D01*
X145157242Y-108510958D02*
X145147695Y-108595605D01*
X145147695Y-108595605D02*
X145096652Y-108744150D01*
X145096652Y-108744150D02*
X145034407Y-108839998D01*
X145034407Y-108839998D02*
X144919465Y-108947048D01*
X144919465Y-108947048D02*
X144846020Y-108990198D01*
X144846020Y-108990198D02*
X144740625Y-109012601D01*
X144740625Y-109012601D02*
X144624028Y-108982305D01*
X144624028Y-108982305D02*
X144464282Y-108878565D01*
X145713236Y-109053718D02*
X145422762Y-109501009D01*
X145719475Y-108694383D02*
X145248506Y-109069882D01*
X145248506Y-109069882D02*
X145663847Y-109339608D01*
X170370420Y-116902550D02*
X170806131Y-116231613D01*
X170806131Y-116231613D02*
X170965878Y-116335354D01*
X170965878Y-116335354D02*
X171040978Y-116429548D01*
X171040978Y-116429548D02*
X171063380Y-116534943D01*
X171063380Y-116534943D02*
X171053833Y-116619590D01*
X171053833Y-116619590D02*
X171002790Y-116768135D01*
X171002790Y-116768135D02*
X170940545Y-116863983D01*
X170940545Y-116863983D02*
X170825603Y-116971033D01*
X170825603Y-116971033D02*
X170752158Y-117014183D01*
X170752158Y-117014183D02*
X170646763Y-117036586D01*
X170646763Y-117036586D02*
X170530166Y-117006290D01*
X170530166Y-117006290D02*
X170370420Y-116902550D01*
X171403622Y-116710475D02*
X171456319Y-116699274D01*
X171456319Y-116699274D02*
X171540966Y-116708821D01*
X171540966Y-116708821D02*
X171700713Y-116812562D01*
X171700713Y-116812562D02*
X171743863Y-116886007D01*
X171743863Y-116886007D02*
X171755065Y-116938705D01*
X171755065Y-116938705D02*
X171745518Y-117023352D01*
X171745518Y-117023352D02*
X171704021Y-117087250D01*
X171704021Y-117087250D02*
X171609828Y-117162350D01*
X171609828Y-117162350D02*
X170977457Y-117296765D01*
X170977457Y-117296765D02*
X171392799Y-117566491D01*
X174195420Y-110552550D02*
X174631131Y-109881613D01*
X174631131Y-109881613D02*
X174790878Y-109985354D01*
X174790878Y-109985354D02*
X174865978Y-110079548D01*
X174865978Y-110079548D02*
X174888380Y-110184943D01*
X174888380Y-110184943D02*
X174878833Y-110269590D01*
X174878833Y-110269590D02*
X174827790Y-110418135D01*
X174827790Y-110418135D02*
X174765545Y-110513983D01*
X174765545Y-110513983D02*
X174650603Y-110621033D01*
X174650603Y-110621033D02*
X174577158Y-110664183D01*
X174577158Y-110664183D02*
X174471763Y-110686586D01*
X174471763Y-110686586D02*
X174355166Y-110656290D01*
X174355166Y-110656290D02*
X174195420Y-110552550D01*
X175217799Y-111216491D02*
X174834407Y-110967513D01*
X175026103Y-111092002D02*
X175461814Y-110421065D01*
X175461814Y-110421065D02*
X175335671Y-110475417D01*
X175335671Y-110475417D02*
X175230276Y-110497819D01*
X175230276Y-110497819D02*
X175145629Y-110488272D01*
X148095020Y-102975868D02*
X148565248Y-102328654D01*
X148565248Y-102328654D02*
X148719346Y-102440613D01*
X148719346Y-102440613D02*
X148789414Y-102538608D01*
X148789414Y-102538608D02*
X148806269Y-102645031D01*
X148806269Y-102645031D02*
X148792305Y-102729062D01*
X148792305Y-102729062D02*
X148733558Y-102874733D01*
X148733558Y-102874733D02*
X148666382Y-102967192D01*
X148666382Y-102967192D02*
X148545995Y-103068079D01*
X148545995Y-103068079D02*
X148470392Y-103107327D01*
X148470392Y-103107327D02*
X148363969Y-103124182D01*
X148363969Y-103124182D02*
X148249118Y-103087827D01*
X148249118Y-103087827D02*
X148095020Y-102975868D01*
X149150822Y-102754098D02*
X149551478Y-103045192D01*
X149551478Y-103045192D02*
X149156606Y-103135007D01*
X149156606Y-103135007D02*
X149249065Y-103202182D01*
X149249065Y-103202182D02*
X149288312Y-103277786D01*
X149288312Y-103277786D02*
X149296740Y-103330997D01*
X149296740Y-103330997D02*
X149282776Y-103415028D01*
X149282776Y-103415028D02*
X149170817Y-103569127D01*
X149170817Y-103569127D02*
X149095214Y-103608375D01*
X149095214Y-103608375D02*
X149042002Y-103616802D01*
X149042002Y-103616802D02*
X148957971Y-103602838D01*
X148957971Y-103602838D02*
X148773053Y-103468488D01*
X148773053Y-103468488D02*
X148733805Y-103392884D01*
X148733805Y-103392884D02*
X148725378Y-103339673D01*
X156208216Y-89855424D02*
X156188011Y-89274511D01*
X155728976Y-89544202D02*
X156273615Y-88705531D01*
X156273615Y-88705531D02*
X156593109Y-88913013D01*
X156593109Y-88913013D02*
X156647047Y-89004820D01*
X156647047Y-89004820D02*
X156661048Y-89070692D01*
X156661048Y-89070692D02*
X156649115Y-89176500D01*
X156649115Y-89176500D02*
X156571309Y-89296310D01*
X156571309Y-89296310D02*
X156479502Y-89350248D01*
X156479502Y-89350248D02*
X156413630Y-89364250D01*
X156413630Y-89364250D02*
X156307821Y-89352316D01*
X156307821Y-89352316D02*
X155988328Y-89144835D01*
X157032412Y-89198300D02*
X157551589Y-89535457D01*
X157551589Y-89535457D02*
X157064551Y-89673404D01*
X157064551Y-89673404D02*
X157184361Y-89751210D01*
X157184361Y-89751210D02*
X157238299Y-89843017D01*
X157238299Y-89843017D02*
X157252301Y-89908889D01*
X157252301Y-89908889D02*
X157240367Y-90014698D01*
X157240367Y-90014698D02*
X157110691Y-90214381D01*
X157110691Y-90214381D02*
X157018884Y-90268319D01*
X157018884Y-90268319D02*
X156953012Y-90282321D01*
X156953012Y-90282321D02*
X156847203Y-90270387D01*
X156847203Y-90270387D02*
X156607583Y-90114776D01*
X156607583Y-90114776D02*
X156553645Y-90022969D01*
X156553645Y-90022969D02*
X156539644Y-89957097D01*
X140498193Y-108420458D02*
X140823299Y-107938613D01*
X140293411Y-107886983D02*
X141226991Y-107528615D01*
X141226991Y-107528615D02*
X141363512Y-107884265D01*
X141363512Y-107884265D02*
X141353186Y-107990243D01*
X141353186Y-107990243D02*
X141325795Y-108051764D01*
X141325795Y-108051764D02*
X141253948Y-108130350D01*
X141253948Y-108130350D02*
X141120579Y-108181546D01*
X141120579Y-108181546D02*
X141014602Y-108171220D01*
X141014602Y-108171220D02*
X140953081Y-108143829D01*
X140953081Y-108143829D02*
X140874494Y-108071982D01*
X140874494Y-108071982D02*
X140737973Y-107716332D01*
X141427752Y-108981758D02*
X140805365Y-109220670D01*
X141698076Y-108622955D02*
X140945907Y-108656651D01*
X140945907Y-108656651D02*
X141167754Y-109234582D01*
X168625295Y-123384819D02*
X168291962Y-122908628D01*
X168053867Y-123384819D02*
X168053867Y-122384819D01*
X168053867Y-122384819D02*
X168434819Y-122384819D01*
X168434819Y-122384819D02*
X168530057Y-122432438D01*
X168530057Y-122432438D02*
X168577676Y-122480057D01*
X168577676Y-122480057D02*
X168625295Y-122575295D01*
X168625295Y-122575295D02*
X168625295Y-122718152D01*
X168625295Y-122718152D02*
X168577676Y-122813390D01*
X168577676Y-122813390D02*
X168530057Y-122861009D01*
X168530057Y-122861009D02*
X168434819Y-122908628D01*
X168434819Y-122908628D02*
X168053867Y-122908628D01*
X169006248Y-122480057D02*
X169053867Y-122432438D01*
X169053867Y-122432438D02*
X169149105Y-122384819D01*
X169149105Y-122384819D02*
X169387200Y-122384819D01*
X169387200Y-122384819D02*
X169482438Y-122432438D01*
X169482438Y-122432438D02*
X169530057Y-122480057D01*
X169530057Y-122480057D02*
X169577676Y-122575295D01*
X169577676Y-122575295D02*
X169577676Y-122670533D01*
X169577676Y-122670533D02*
X169530057Y-122813390D01*
X169530057Y-122813390D02*
X168958629Y-123384819D01*
X168958629Y-123384819D02*
X169577676Y-123384819D01*
X167524467Y-85893887D02*
X167618341Y-86011629D01*
X167618341Y-86011629D02*
X167818025Y-86141305D01*
X167818025Y-86141305D02*
X167923833Y-86153239D01*
X167923833Y-86153239D02*
X167989705Y-86139237D01*
X167989705Y-86139237D02*
X168081512Y-86085299D01*
X168081512Y-86085299D02*
X168133383Y-86005426D01*
X168133383Y-86005426D02*
X168145316Y-85899617D01*
X168145316Y-85899617D02*
X168131315Y-85833745D01*
X168131315Y-85833745D02*
X168077377Y-85741938D01*
X168077377Y-85741938D02*
X167943565Y-85598261D01*
X167943565Y-85598261D02*
X167889627Y-85506454D01*
X167889627Y-85506454D02*
X167875625Y-85440582D01*
X167875625Y-85440582D02*
X167887559Y-85334773D01*
X167887559Y-85334773D02*
X167939430Y-85254900D01*
X167939430Y-85254900D02*
X168031237Y-85200962D01*
X168031237Y-85200962D02*
X168097109Y-85186960D01*
X168097109Y-85186960D02*
X168202917Y-85198894D01*
X168202917Y-85198894D02*
X168402601Y-85328570D01*
X168402601Y-85328570D02*
X168496475Y-85446312D01*
X168801968Y-85587922D02*
X168457012Y-86556268D01*
X168457012Y-86556268D02*
X169005787Y-86060959D01*
X169005787Y-86060959D02*
X168776506Y-86763750D01*
X168776506Y-86763750D02*
X169520828Y-86054755D01*
X169748514Y-86316175D02*
X169814386Y-86302173D01*
X169814386Y-86302173D02*
X169920195Y-86314107D01*
X169920195Y-86314107D02*
X170119878Y-86443783D01*
X170119878Y-86443783D02*
X170173817Y-86535590D01*
X170173817Y-86535590D02*
X170187818Y-86601462D01*
X170187818Y-86601462D02*
X170175884Y-86707271D01*
X170175884Y-86707271D02*
X170124014Y-86787144D01*
X170124014Y-86787144D02*
X170006272Y-86881019D01*
X170006272Y-86881019D02*
X169215809Y-87049037D01*
X169215809Y-87049037D02*
X169734986Y-87386194D01*
X161779670Y-89654711D02*
X161897412Y-89560837D01*
X161897412Y-89560837D02*
X162027088Y-89361153D01*
X162027088Y-89361153D02*
X162039022Y-89255345D01*
X162039022Y-89255345D02*
X162025020Y-89189473D01*
X162025020Y-89189473D02*
X161971082Y-89097666D01*
X161971082Y-89097666D02*
X161891209Y-89045795D01*
X161891209Y-89045795D02*
X161785400Y-89033862D01*
X161785400Y-89033862D02*
X161719528Y-89047863D01*
X161719528Y-89047863D02*
X161627721Y-89101801D01*
X161627721Y-89101801D02*
X161484044Y-89235613D01*
X161484044Y-89235613D02*
X161392237Y-89289551D01*
X161392237Y-89289551D02*
X161326365Y-89303553D01*
X161326365Y-89303553D02*
X161220556Y-89291619D01*
X161220556Y-89291619D02*
X161140683Y-89239748D01*
X161140683Y-89239748D02*
X161086745Y-89147941D01*
X161086745Y-89147941D02*
X161072743Y-89082069D01*
X161072743Y-89082069D02*
X161084677Y-88976261D01*
X161084677Y-88976261D02*
X161214353Y-88776577D01*
X161214353Y-88776577D02*
X161332095Y-88682703D01*
X161473705Y-88377210D02*
X162442051Y-88722166D01*
X162442051Y-88722166D02*
X161946742Y-88173391D01*
X161946742Y-88173391D02*
X162649533Y-88402672D01*
X162649533Y-88402672D02*
X161940538Y-87658350D01*
X163271977Y-87444192D02*
X162960755Y-87923432D01*
X163116366Y-87683812D02*
X162277696Y-87139173D01*
X162277696Y-87139173D02*
X162345635Y-87296852D01*
X162345635Y-87296852D02*
X162373638Y-87428596D01*
X162373638Y-87428596D02*
X162361705Y-87534404D01*
X177550973Y-99900287D02*
X177668715Y-99806413D01*
X177668715Y-99806413D02*
X177798391Y-99606729D01*
X177798391Y-99606729D02*
X177810325Y-99500921D01*
X177810325Y-99500921D02*
X177796323Y-99435049D01*
X177796323Y-99435049D02*
X177742385Y-99343242D01*
X177742385Y-99343242D02*
X177662512Y-99291371D01*
X177662512Y-99291371D02*
X177556703Y-99279438D01*
X177556703Y-99279438D02*
X177490831Y-99293439D01*
X177490831Y-99293439D02*
X177399024Y-99347377D01*
X177399024Y-99347377D02*
X177255347Y-99481189D01*
X177255347Y-99481189D02*
X177163540Y-99535127D01*
X177163540Y-99535127D02*
X177097668Y-99549129D01*
X177097668Y-99549129D02*
X176991859Y-99537195D01*
X176991859Y-99537195D02*
X176911986Y-99485324D01*
X176911986Y-99485324D02*
X176858048Y-99393517D01*
X176858048Y-99393517D02*
X176844046Y-99327645D01*
X176844046Y-99327645D02*
X176855980Y-99221837D01*
X176855980Y-99221837D02*
X176985656Y-99022153D01*
X176985656Y-99022153D02*
X177103398Y-98928279D01*
X177245008Y-98622786D02*
X178213354Y-98967742D01*
X178213354Y-98967742D02*
X177718045Y-98418967D01*
X177718045Y-98418967D02*
X178420836Y-98648248D01*
X178420836Y-98648248D02*
X177711841Y-97903926D01*
X178432296Y-97406549D02*
X178991410Y-97769641D01*
X177983127Y-97398751D02*
X178452501Y-97987462D01*
X178452501Y-97987462D02*
X178789659Y-97468285D01*
D11*
X172203053Y-110444869D02*
X171771936Y-110164898D01*
X171771936Y-110164898D02*
X171704748Y-110157320D01*
X171704748Y-110157320D02*
X171662919Y-110166211D01*
X171662919Y-110166211D02*
X171604622Y-110200462D01*
X171604622Y-110200462D02*
X171538746Y-110301901D01*
X171538746Y-110301901D02*
X171531168Y-110369090D01*
X171531168Y-110369090D02*
X171540059Y-110410918D01*
X171540059Y-110410918D02*
X171574310Y-110469216D01*
X171574310Y-110469216D02*
X172005427Y-110749186D01*
X171127025Y-110935896D02*
X171324651Y-110631578D01*
X171225838Y-110783737D02*
X171758394Y-111129583D01*
X171758394Y-111129583D02*
X171715252Y-111029457D01*
X171715252Y-111029457D02*
X171697471Y-110945800D01*
X171697471Y-110945800D02*
X171705048Y-110878611D01*
D10*
X175723110Y-91253874D02*
X175816984Y-91371616D01*
X175816984Y-91371616D02*
X176016668Y-91501292D01*
X176016668Y-91501292D02*
X176122476Y-91513226D01*
X176122476Y-91513226D02*
X176188348Y-91499224D01*
X176188348Y-91499224D02*
X176280155Y-91445286D01*
X176280155Y-91445286D02*
X176332026Y-91365413D01*
X176332026Y-91365413D02*
X176343959Y-91259604D01*
X176343959Y-91259604D02*
X176329958Y-91193732D01*
X176329958Y-91193732D02*
X176276020Y-91101925D01*
X176276020Y-91101925D02*
X176142208Y-90958248D01*
X176142208Y-90958248D02*
X176088270Y-90866441D01*
X176088270Y-90866441D02*
X176074268Y-90800569D01*
X176074268Y-90800569D02*
X176086202Y-90694760D01*
X176086202Y-90694760D02*
X176138073Y-90614887D01*
X176138073Y-90614887D02*
X176229880Y-90560949D01*
X176229880Y-90560949D02*
X176295752Y-90546947D01*
X176295752Y-90546947D02*
X176401560Y-90558881D01*
X176401560Y-90558881D02*
X176601244Y-90688557D01*
X176601244Y-90688557D02*
X176695118Y-90806299D01*
X177000611Y-90947909D02*
X176655655Y-91916255D01*
X176655655Y-91916255D02*
X177204430Y-91420946D01*
X177204430Y-91420946D02*
X176975149Y-92123737D01*
X176975149Y-92123737D02*
X177719471Y-91414742D01*
X178438331Y-91881576D02*
X178038964Y-91622224D01*
X178038964Y-91622224D02*
X177739676Y-91995656D01*
X177739676Y-91995656D02*
X177805548Y-91981654D01*
X177805548Y-91981654D02*
X177911356Y-91993588D01*
X177911356Y-91993588D02*
X178111040Y-92123264D01*
X178111040Y-92123264D02*
X178164978Y-92215071D01*
X178164978Y-92215071D02*
X178178979Y-92280943D01*
X178178979Y-92280943D02*
X178167046Y-92386751D01*
X178167046Y-92386751D02*
X178037370Y-92586435D01*
X178037370Y-92586435D02*
X177945563Y-92640373D01*
X177945563Y-92640373D02*
X177879691Y-92654374D01*
X177879691Y-92654374D02*
X177773882Y-92642441D01*
X177773882Y-92642441D02*
X177574199Y-92512765D01*
X177574199Y-92512765D02*
X177520261Y-92420958D01*
X177520261Y-92420958D02*
X177506259Y-92355086D01*
X171520281Y-89304671D02*
X171614155Y-89422413D01*
X171614155Y-89422413D02*
X171813839Y-89552089D01*
X171813839Y-89552089D02*
X171919647Y-89564023D01*
X171919647Y-89564023D02*
X171985519Y-89550021D01*
X171985519Y-89550021D02*
X172077326Y-89496083D01*
X172077326Y-89496083D02*
X172129197Y-89416210D01*
X172129197Y-89416210D02*
X172141130Y-89310401D01*
X172141130Y-89310401D02*
X172127129Y-89244529D01*
X172127129Y-89244529D02*
X172073191Y-89152722D01*
X172073191Y-89152722D02*
X171939379Y-89009045D01*
X171939379Y-89009045D02*
X171885441Y-88917238D01*
X171885441Y-88917238D02*
X171871439Y-88851366D01*
X171871439Y-88851366D02*
X171883373Y-88745557D01*
X171883373Y-88745557D02*
X171935244Y-88665684D01*
X171935244Y-88665684D02*
X172027051Y-88611746D01*
X172027051Y-88611746D02*
X172092923Y-88597744D01*
X172092923Y-88597744D02*
X172198731Y-88609678D01*
X172198731Y-88609678D02*
X172398415Y-88739354D01*
X172398415Y-88739354D02*
X172492289Y-88857096D01*
X172797782Y-88998706D02*
X172452826Y-89967052D01*
X172452826Y-89967052D02*
X173001601Y-89471743D01*
X173001601Y-89471743D02*
X172772320Y-90174534D01*
X172772320Y-90174534D02*
X173516642Y-89465539D01*
X173756262Y-89621150D02*
X174275439Y-89958308D01*
X174275439Y-89958308D02*
X173788401Y-90096255D01*
X173788401Y-90096255D02*
X173908211Y-90174061D01*
X173908211Y-90174061D02*
X173962149Y-90265868D01*
X173962149Y-90265868D02*
X173976150Y-90331740D01*
X173976150Y-90331740D02*
X173964217Y-90437548D01*
X173964217Y-90437548D02*
X173834541Y-90637232D01*
X173834541Y-90637232D02*
X173742734Y-90691170D01*
X173742734Y-90691170D02*
X173676862Y-90705171D01*
X173676862Y-90705171D02*
X173571053Y-90693238D01*
X173571053Y-90693238D02*
X173331433Y-90537627D01*
X173331433Y-90537627D02*
X173277495Y-90445819D01*
X173277495Y-90445819D02*
X173263493Y-90379948D01*
X182308216Y-75655425D02*
X182288011Y-75074512D01*
X181828976Y-75344203D02*
X182373615Y-74505532D01*
X182373615Y-74505532D02*
X182693109Y-74713014D01*
X182693109Y-74713014D02*
X182747047Y-74804821D01*
X182747047Y-74804821D02*
X182761048Y-74870693D01*
X182761048Y-74870693D02*
X182749115Y-74976501D01*
X182749115Y-74976501D02*
X182671309Y-75096311D01*
X182671309Y-75096311D02*
X182579502Y-75150249D01*
X182579502Y-75150249D02*
X182513630Y-75164251D01*
X182513630Y-75164251D02*
X182407821Y-75152317D01*
X182407821Y-75152317D02*
X182088328Y-74944836D01*
X183611652Y-75309523D02*
X183212286Y-75050171D01*
X183212286Y-75050171D02*
X182912997Y-75423603D01*
X182912997Y-75423603D02*
X182978869Y-75409601D01*
X182978869Y-75409601D02*
X183084677Y-75421535D01*
X183084677Y-75421535D02*
X183284361Y-75551211D01*
X183284361Y-75551211D02*
X183338299Y-75643018D01*
X183338299Y-75643018D02*
X183352301Y-75708890D01*
X183352301Y-75708890D02*
X183340367Y-75814699D01*
X183340367Y-75814699D02*
X183210691Y-76014382D01*
X183210691Y-76014382D02*
X183118884Y-76068320D01*
X183118884Y-76068320D02*
X183053012Y-76082322D01*
X183053012Y-76082322D02*
X182947203Y-76070388D01*
X182947203Y-76070388D02*
X182747520Y-75940712D01*
X182747520Y-75940712D02*
X182693582Y-75848905D01*
X182693582Y-75848905D02*
X182679580Y-75783033D01*
%TO.C,D5*%
D12*
X176400047Y-81893771D02*
G75*
G02*
X179026762Y-83599578I2678288J1248907D01*
G01*
X176400047Y-81893771D02*
X179026762Y-83599582D01*
D13*
X177432152Y-83333745D02*
G75*
G02*
X177232156Y-83333745I-99998J0D01*
G01*
X177232156Y-83333745D02*
G75*
G02*
X177432152Y-83333745I99998J0D01*
G01*
%TO.C,R1*%
D14*
X176213685Y-105675870D02*
X179434180Y-107767285D01*
X177215820Y-104132717D02*
X180436315Y-106224132D01*
%TO.C,D4*%
D12*
X148453660Y-108483263D02*
G75*
G02*
X150159465Y-105856549I-1248909J2678287D01*
G01*
X148453660Y-108483263D02*
X150159471Y-105856549D01*
D13*
X149993635Y-107551157D02*
G75*
G02*
X149793633Y-107551157I-100001J0D01*
G01*
X149793633Y-107551157D02*
G75*
G02*
X149993635Y-107551157I100001J0D01*
G01*
%TO.C,D2*%
X166426142Y-118265463D02*
G75*
G02*
X166226144Y-118265463I-99999J0D01*
G01*
X166226144Y-118265463D02*
G75*
G02*
X166426142Y-118265463I99999J0D01*
G01*
D12*
X167766116Y-117333351D02*
X166060307Y-119960069D01*
X167766116Y-117333351D02*
G75*
G02*
X166060305Y-119960069I1248907J-2678292D01*
G01*
%TO.C,D1*%
X171591116Y-110983351D02*
G75*
G02*
X169885305Y-113610069I1248907J-2678292D01*
G01*
X171591116Y-110983351D02*
X169885307Y-113610069D01*
D13*
X170251142Y-111915463D02*
G75*
G02*
X170051144Y-111915463I-99999J0D01*
G01*
X170051144Y-111915463D02*
G75*
G02*
X170251142Y-111915463I99999J0D01*
G01*
%TO.C,D3*%
D12*
X152099619Y-102789895D02*
G75*
G02*
X153940558Y-100256056I-1107026J2739979D01*
G01*
X152099619Y-102789895D02*
X153940564Y-100256056D01*
D13*
X153686404Y-101934429D02*
G75*
G02*
X153486402Y-101934429I-100001J0D01*
G01*
X153486402Y-101934429D02*
G75*
G02*
X153686404Y-101934429I100001J0D01*
G01*
%TO.C,R3*%
D14*
X154440820Y-89357717D02*
X157661315Y-91449132D01*
X153438685Y-90900870D02*
X156659180Y-92992285D01*
%TO.C,R4*%
X144321962Y-109187769D02*
X142945837Y-105602826D01*
X142604174Y-109847171D02*
X141228047Y-106262225D01*
%TO.C,R2*%
X166871962Y-125770000D02*
X170711962Y-125770000D01*
X166871962Y-123930000D02*
X170711962Y-123930000D01*
%TO.C,SW2*%
X170206840Y-88342671D02*
X166432824Y-85891798D01*
X169076623Y-92378153D02*
X169893582Y-91120146D01*
X164022889Y-87307674D02*
X163205927Y-88565679D01*
X162892672Y-91343153D02*
X166666688Y-93794033D01*
%TO.C,SW1*%
X156064763Y-88526859D02*
X157322762Y-89343820D01*
X160100237Y-89657085D02*
X162551121Y-85883063D01*
X157099759Y-82342907D02*
X154648880Y-86116928D01*
X161135242Y-83473132D02*
X159877243Y-82656167D01*
%TO.C,SW4*%
X179999760Y-97217910D02*
X177548882Y-100991936D01*
X184035239Y-98348134D02*
X182777233Y-97531173D01*
X178964759Y-103401865D02*
X180222766Y-104218824D01*
X183000244Y-104532086D02*
X185451119Y-100758067D01*
%TO.C,U1*%
D15*
X165132798Y-118697008D02*
G75*
G02*
X164628800Y-118697008I-251999J0D01*
G01*
X164628800Y-118697008D02*
G75*
G02*
X165132798Y-118697008I251999J0D01*
G01*
D16*
X164653481Y-117336454D02*
G75*
G02*
X164149481Y-117336454I-252000J0D01*
G01*
X164149481Y-117336454D02*
G75*
G02*
X164653481Y-117336454I252000J0D01*
G01*
D12*
X174514464Y-100254570D02*
G75*
G02*
X175074595Y-102889774I-1037544J-1597669D01*
G01*
X165736758Y-117268779D02*
G75*
G02*
X163101553Y-117828909I-1597667J1037535D01*
G01*
X160514369Y-117234148D02*
G75*
G02*
X159822822Y-117380998I-419249J272587D01*
G01*
X160163031Y-93206092D02*
G75*
G02*
X162798237Y-92645962I1597669J-1037541D01*
G01*
X153117463Y-113026401D02*
G75*
G02*
X152970445Y-112334742I272318J419338D01*
G01*
X151385327Y-110220304D02*
G75*
G02*
X150825196Y-107585099I1037536J1597668D01*
G01*
X175074595Y-102889774D02*
X165736758Y-117268779D01*
X174514464Y-100254570D02*
X162798237Y-92645962D01*
X161013265Y-116472760D02*
X160514369Y-117234148D01*
X160163031Y-93206092D02*
X150825197Y-107585100D01*
X159822862Y-117380936D02*
X153117463Y-113026401D01*
X152970447Y-112334744D02*
X153466067Y-111571554D01*
X151385327Y-110220304D02*
X163101552Y-117828910D01*
D17*
X151385327Y-110220304D02*
X163101552Y-117828910D01*
%TO.C,SW5*%
D14*
X178405485Y-93702661D02*
X174631464Y-91251788D01*
X177275265Y-97738142D02*
X178092223Y-96480135D01*
X172221529Y-92667661D02*
X171404570Y-93925671D01*
X171091312Y-96703146D02*
X174865330Y-99154020D01*
%TO.C,SW3*%
X171517908Y-87625235D02*
X175291931Y-90076113D01*
X177701875Y-88660237D02*
X178518829Y-87402224D01*
X172648130Y-83589762D02*
X171831178Y-84847762D01*
X178832088Y-84624747D02*
X175058065Y-82173876D01*
%TO.C,R5*%
X179538686Y-76700869D02*
X182759179Y-78792287D01*
X180540820Y-75157717D02*
X183761315Y-77249133D01*
%TD*%
M02*
