%TF.GenerationSoftware,KiCad,Pcbnew,10.0.1*%
%TF.CreationDate,2026-07-02T21:13:05+08:00*%
%TF.ProjectId,badge,62616467-652e-46b6-9963-61645f706362,rev?*%
%TF.SameCoordinates,Original*%
%TF.FileFunction,Soldermask,Bot*%
%TF.FilePolarity,Negative*%
%FSLAX46Y46*%
G04 Gerber Fmt 4.6, Leading zero omitted, Abs format (unit mm)*
G04 Created by KiCad (PCBNEW 10.0.1) date 2026-07-02 21:13:05*
%MOMM*%
%LPD*%
G01*
G04 APERTURE LIST*
G04 Aperture macros list*
%AMRoundRect*
0 Rectangle with rounded corners*
0 $1 Rounding radius*
0 $2 $3 $4 $5 $6 $7 $8 $9 X,Y pos of 4 corners*
0 Add a 4 corners polygon primitive as box body*
4,1,4,$2,$3,$4,$5,$6,$7,$8,$9,$2,$3,0*
0 Add four circle primitives for the rounded corners*
1,1,$1+$1,$2,$3*
1,1,$1+$1,$4,$5*
1,1,$1+$1,$6,$7*
1,1,$1+$1,$8,$9*
0 Add four rect primitives between the rounded corners*
20,1,$1+$1,$2,$3,$4,$5,0*
20,1,$1+$1,$4,$5,$6,$7,0*
20,1,$1+$1,$6,$7,$8,$9,0*
20,1,$1+$1,$8,$9,$2,$3,0*%
G04 Aperture macros list end*
%ADD10C,1.400000*%
%ADD11C,2.000000*%
%ADD12C,2.019000*%
%ADD13RoundRect,0.102000X1.267598X0.200768X-0.200768X1.267598X-1.267598X-0.200768X0.200768X-1.267598X0*%
%ADD14C,1.524000*%
%ADD15RoundRect,0.102000X-1.255353X-0.266834X0.266834X-1.255353X1.255353X0.266834X-0.266834X1.255353X0*%
%ADD16RoundRect,0.102000X0.266834X-1.255353X1.255353X0.266834X-0.266834X1.255353X-1.255353X-0.266834X0*%
%ADD17RoundRect,0.102000X1.255353X0.266834X-0.266834X1.255353X-1.255353X-0.266834X0.266834X-1.255353X0*%
G04 APERTURE END LIST*
D10*
%TO.C,R4*%
X143685256Y-110096293D03*
X141864750Y-105353707D03*
%TD*%
D11*
%TO.C,SW3*%
X176675242Y-89782081D03*
X171223878Y-86241928D03*
X179126116Y-86008066D03*
X173674758Y-82467906D03*
%TD*%
D10*
%TO.C,R3*%
X153419777Y-89791617D03*
X157680222Y-92558384D03*
%TD*%
D12*
%TO.C,D3*%
X149970094Y-99307030D03*
D13*
X152025000Y-100800000D03*
%TD*%
D14*
%TO.C,U1*%
X165225000Y-115725000D03*
X166608384Y-113594776D03*
X167991766Y-111464555D03*
X169375150Y-109334328D03*
X170758534Y-107204107D03*
X172141916Y-105073884D03*
X173525299Y-102943661D03*
X160743960Y-94643362D03*
X159360576Y-96773586D03*
X157977194Y-98903807D03*
X156593810Y-101034034D03*
X155210426Y-103164255D03*
X153827044Y-105294478D03*
X152443661Y-107424701D03*
%TD*%
D12*
%TO.C,D1*%
X173899999Y-114350000D03*
D15*
X171769775Y-112966616D03*
%TD*%
D11*
%TO.C,SW4*%
X177842914Y-102375240D03*
X181383060Y-96923880D03*
X181616932Y-104826115D03*
X185157087Y-99374752D03*
%TD*%
D12*
%TO.C,D5*%
X179766690Y-79584886D03*
D16*
X178383310Y-81715114D03*
%TD*%
D11*
%TO.C,SW5*%
X173248156Y-91545817D03*
X178699514Y-95085973D03*
X170797281Y-95319835D03*
X176248640Y-98859991D03*
%TD*%
%TO.C,SW2*%
X165049515Y-86185828D03*
X170500872Y-89725983D03*
X162598638Y-89959848D03*
X168050000Y-93500000D03*
%TD*%
%TO.C,SW1*%
X162257087Y-84499757D03*
X158716932Y-89951119D03*
X158483071Y-82048882D03*
X154942919Y-87500243D03*
%TD*%
D10*
%TO.C,R5*%
X179519777Y-75591617D03*
X183780222Y-78358382D03*
%TD*%
%TO.C,R2*%
X166251962Y-124850000D03*
X171331962Y-124850000D03*
%TD*%
D12*
%TO.C,D2*%
X170074999Y-120700000D03*
D15*
X167944775Y-119316616D03*
%TD*%
D10*
%TO.C,R1*%
X176194777Y-104566617D03*
X180455222Y-107333384D03*
%TD*%
D12*
%TO.C,D4*%
X146144774Y-105116622D03*
D17*
X148275000Y-106500000D03*
%TD*%
M02*
